G04*
G04 #@! TF.GenerationSoftware,Altium Limited,Altium Designer,20.0.12 (288)*
G04*
G04 Layer_Color=32896*
%FSLAX25Y25*%
%MOIN*%
G70*
G01*
G75*
%ADD10C,0.01000*%
%ADD11C,0.00984*%
%ADD13C,0.00787*%
%ADD14C,0.00394*%
G36*
X208499Y243796D02*
X208577D01*
X208721Y243736D01*
X208832Y243625D01*
X208892Y243481D01*
Y243403D01*
Y243324D01*
X208832Y243179D01*
X208721Y243069D01*
X208577Y243009D01*
X208499D01*
X208420D01*
X208276Y243069D01*
X208165Y243179D01*
X208105Y243324D01*
Y243403D01*
Y243481D01*
X208165Y243625D01*
X208276Y243736D01*
X208420Y243796D01*
X208499D01*
D01*
D02*
G37*
G36*
Y267611D02*
X208577D01*
X208721Y267551D01*
X208832Y267441D01*
X208892Y267296D01*
Y267218D01*
Y267139D01*
X208832Y266995D01*
X208721Y266884D01*
X208577Y266824D01*
X208499D01*
X208420D01*
X208276Y266884D01*
X208165Y266995D01*
X208105Y267139D01*
Y267218D01*
Y267296D01*
X208165Y267441D01*
X208276Y267551D01*
X208420Y267611D01*
X208499D01*
D01*
D02*
G37*
G36*
Y292013D02*
X208577D01*
X208721Y291953D01*
X208832Y291842D01*
X208892Y291698D01*
Y291619D01*
Y291541D01*
X208832Y291396D01*
X208721Y291285D01*
X208577Y291226D01*
X208499D01*
X208420D01*
X208276Y291285D01*
X208165Y291396D01*
X208105Y291541D01*
Y291619D01*
Y291698D01*
X208165Y291842D01*
X208276Y291953D01*
X208420Y292013D01*
X208499D01*
D01*
D02*
G37*
D10*
X207603Y363044D02*
X222603D01*
X221103Y372544D02*
X235603D01*
X206603Y381544D02*
X211603Y376544D01*
X235103D01*
X221103Y382544D02*
X234603D01*
X206603Y393044D02*
X208603D01*
X215103Y386544D01*
X234603D01*
X206603Y400544D02*
X214103Y393044D01*
X229103D01*
X206603Y424544D02*
X209103Y427044D01*
X209603D01*
X247103D01*
X207603Y432544D02*
X225103D01*
X221103Y438044D02*
X225603D01*
X221603Y447544D02*
X226603D01*
X207103Y443044D02*
X226103D01*
X206603Y454044D02*
X219603D01*
X131988Y228035D02*
X171358D01*
X131988D02*
Y292996D01*
X171358Y228035D02*
Y291028D01*
X169390Y292996D02*
X171358Y291028D01*
X131988Y292996D02*
X169390D01*
X333334Y417896D02*
X334667D01*
X334001D01*
Y414563D01*
X334667Y413897D01*
X335334D01*
X336000Y414563D01*
X330002Y413897D02*
X331335D01*
X332001Y414563D01*
Y415896D01*
X331335Y416563D01*
X330002D01*
X329335Y415896D01*
Y415230D01*
X332001D01*
X327336Y417229D02*
Y416563D01*
X328003D01*
X326670D01*
X327336D01*
Y414563D01*
X326670Y413897D01*
X324670D02*
X322671D01*
X322005Y414563D01*
X322671Y415230D01*
X324004D01*
X324670Y415896D01*
X324004Y416563D01*
X322005D01*
X320005Y413897D02*
X318672D01*
X318006Y414563D01*
Y415896D01*
X318672Y416563D01*
X320005D01*
X320672Y415896D01*
Y414563D01*
X320005Y413897D01*
X316673D02*
Y416563D01*
X314673D01*
X314007Y415896D01*
Y413897D01*
X306010Y417229D02*
X306676Y417896D01*
X308009D01*
X308676Y417229D01*
Y414563D01*
X308009Y413897D01*
X306676D01*
X306010Y414563D01*
X304677Y413897D02*
Y416563D01*
X303344Y417896D01*
X302011Y416563D01*
Y413897D01*
Y415896D01*
X304677D01*
X300678Y413897D02*
Y417896D01*
X298012Y413897D01*
Y417896D01*
X292681D02*
X290015D01*
X291348D01*
Y413897D01*
X288682Y416563D02*
Y413897D01*
Y415230D01*
X288016Y415896D01*
X287349Y416563D01*
X286683D01*
X284017D02*
X282684D01*
X282017Y415896D01*
Y413897D01*
X284017D01*
X284683Y414563D01*
X284017Y415230D01*
X282017D01*
X280684Y413897D02*
Y416563D01*
X278685D01*
X278019Y415896D01*
Y413897D01*
X276686D02*
X274687D01*
X274020Y414563D01*
X274687Y415230D01*
X276019D01*
X276686Y415896D01*
X276019Y416563D01*
X274020D01*
X270021D02*
X272021D01*
X272687Y415896D01*
Y414563D01*
X272021Y413897D01*
X270021D01*
X268688D02*
X267355D01*
X268022D01*
Y416563D01*
X268688D01*
X263357Y413897D02*
X264690D01*
X265356Y414563D01*
Y415896D01*
X264690Y416563D01*
X263357D01*
X262690Y415896D01*
Y415230D01*
X265356D01*
X261357Y416563D02*
X260024Y413897D01*
X258692Y416563D01*
X255359Y413897D02*
X256692D01*
X257359Y414563D01*
Y415896D01*
X256692Y416563D01*
X255359D01*
X254693Y415896D01*
Y415230D01*
X257359D01*
X253360Y416563D02*
Y413897D01*
Y415230D01*
X252694Y415896D01*
X252027Y416563D01*
X251361D01*
X336000Y406699D02*
Y410697D01*
X334001D01*
X333334Y410031D01*
Y408698D01*
X334001Y408031D01*
X336000D01*
X334667D02*
X333334Y406699D01*
X330002D02*
X331335D01*
X332001Y407365D01*
Y408698D01*
X331335Y409364D01*
X330002D01*
X329335Y408698D01*
Y408031D01*
X332001D01*
X328003Y409364D02*
X326670Y406699D01*
X325337Y409364D01*
X320005Y406699D02*
Y409364D01*
X318672Y410697D01*
X317339Y409364D01*
Y406699D01*
Y408698D01*
X320005D01*
X315340Y406032D02*
X314673Y406699D01*
Y407365D01*
X315340D01*
Y406699D01*
X314673D01*
X315340Y406032D01*
X316006Y405366D01*
X308009Y406699D02*
Y409364D01*
X306676Y410697D01*
X305343Y409364D01*
Y406699D01*
Y408698D01*
X308009D01*
X304010Y410697D02*
Y407365D01*
X303344Y406699D01*
X302011D01*
X301344Y407365D01*
Y410697D01*
X300012D02*
Y408031D01*
X298679Y406699D01*
X297346Y408031D01*
Y410697D01*
X296013D02*
X294680D01*
X295346D01*
Y406699D01*
X296013D01*
X294680D01*
X290015Y410031D02*
X290681Y410697D01*
X292014D01*
X292681Y410031D01*
Y407365D01*
X292014Y406699D01*
X290681D01*
X290015Y407365D01*
X282017Y406699D02*
X284683D01*
X282017Y409364D01*
Y410031D01*
X282684Y410697D01*
X284017D01*
X284683Y410031D01*
X280684D02*
X280018Y410697D01*
X278685D01*
X278019Y410031D01*
Y407365D01*
X278685Y406699D01*
X280018D01*
X280684Y407365D01*
Y410031D01*
X274020Y406699D02*
X276686D01*
X274020Y409364D01*
Y410031D01*
X274687Y410697D01*
X276019D01*
X276686Y410031D01*
X272687D02*
X272021Y410697D01*
X270688D01*
X270021Y410031D01*
Y407365D01*
X270688Y406699D01*
X272021D01*
X272687Y407365D01*
Y410031D01*
X336000Y399500D02*
Y403499D01*
X334001D01*
X333334Y402832D01*
Y401499D01*
X334001Y400833D01*
X336000D01*
X331335Y399500D02*
X330002D01*
X329335Y400166D01*
Y401499D01*
X330002Y402166D01*
X331335D01*
X332001Y401499D01*
Y400166D01*
X331335Y399500D01*
X327336D02*
X326003D01*
X325337Y400166D01*
Y401499D01*
X326003Y402166D01*
X327336D01*
X328003Y401499D01*
Y400166D01*
X327336Y399500D01*
X324004Y402166D02*
Y399500D01*
Y400833D01*
X323337Y401499D01*
X322671Y402166D01*
X322005D01*
X320005Y399500D02*
Y402166D01*
X318006D01*
X317339Y401499D01*
Y399500D01*
X315340Y402166D02*
X314007D01*
X313341Y401499D01*
Y399500D01*
X315340D01*
X316006Y400166D01*
X315340Y400833D01*
X313341D01*
X305343Y402832D02*
X306010Y403499D01*
X307343D01*
X308009Y402832D01*
Y400166D01*
X307343Y399500D01*
X306010D01*
X305343Y400166D01*
X304010Y403499D02*
Y399500D01*
Y401499D01*
X303344Y402166D01*
X302011D01*
X301344Y401499D01*
Y399500D01*
X299345Y402166D02*
X298012D01*
X297346Y401499D01*
Y399500D01*
X299345D01*
X300012Y400166D01*
X299345Y400833D01*
X297346D01*
X296013Y399500D02*
Y402166D01*
X294014D01*
X293347Y401499D01*
Y399500D01*
X289348Y403499D02*
Y399500D01*
X291348D01*
X292014Y400166D01*
Y401499D01*
X291348Y402166D01*
X289348D01*
X286016Y399500D02*
X287349D01*
X288016Y400166D01*
Y401499D01*
X287349Y402166D01*
X286016D01*
X285350Y401499D01*
Y400833D01*
X288016D01*
X284017Y402166D02*
Y399500D01*
Y400833D01*
X283350Y401499D01*
X282684Y402166D01*
X282017D01*
X276019Y403499D02*
Y399500D01*
Y400833D01*
X273354Y403499D01*
X275353Y401499D01*
X273354Y399500D01*
X271354Y402166D02*
X270021D01*
X269355Y401499D01*
Y399500D01*
X271354D01*
X272021Y400166D01*
X271354Y400833D01*
X269355D01*
X268022Y399500D02*
X266689D01*
X267355D01*
Y403499D01*
X268022D01*
X264690Y399500D02*
X263357D01*
X264023D01*
Y402166D01*
X264690D01*
X258692Y403499D02*
Y399500D01*
X260691D01*
X261357Y400166D01*
Y401499D01*
X260691Y402166D01*
X258692D01*
X256692D02*
X255359D01*
X254693Y401499D01*
Y399500D01*
X256692D01*
X257359Y400166D01*
X256692Y400833D01*
X254693D01*
X253360Y399500D02*
X251361D01*
X250694Y400166D01*
X251361Y400833D01*
X252694D01*
X253360Y401499D01*
X252694Y402166D01*
X250694D01*
X267001Y166000D02*
Y170998D01*
X269500Y168499D01*
X266168D01*
X264502Y166000D02*
Y166833D01*
X263669D01*
Y166000D01*
X264502D01*
X257004Y170998D02*
X260336D01*
Y168499D01*
X258670Y169332D01*
X257837D01*
X257004Y168499D01*
Y166833D01*
X257837Y166000D01*
X259503D01*
X260336Y166833D01*
X255338Y170998D02*
Y167666D01*
X253672Y166000D01*
X252006Y167666D01*
Y170998D01*
X244508Y170165D02*
Y169332D01*
X245341D01*
X243675D01*
X244508D01*
Y166833D01*
X243675Y166000D01*
X240343D02*
X238677D01*
X237844Y166833D01*
Y168499D01*
X238677Y169332D01*
X240343D01*
X241176Y168499D01*
Y166833D01*
X240343Y166000D01*
X231179Y170165D02*
X230346Y170998D01*
X228680D01*
X227847Y170165D01*
Y169332D01*
X228680Y168499D01*
X229513D01*
X228680D01*
X227847Y167666D01*
Y166833D01*
X228680Y166000D01*
X230346D01*
X231179Y166833D01*
X226181Y170165D02*
X225348Y170998D01*
X223681D01*
X222848Y170165D01*
Y166833D01*
X223681Y166000D01*
X225348D01*
X226181Y166833D01*
Y170165D01*
X221182Y170998D02*
Y167666D01*
X219516Y166000D01*
X217850Y167666D01*
Y170998D01*
X309998Y292999D02*
Y288001D01*
X308999Y287001D01*
X306999D01*
X306000Y288001D01*
Y292999D01*
X304000Y291999D02*
X303001Y292999D01*
X301001D01*
X300002Y291999D01*
Y291000D01*
X301001Y290000D01*
X302001D01*
X301001D01*
X300002Y289000D01*
Y288001D01*
X301001Y287001D01*
X303001D01*
X304000Y288001D01*
X204568Y272233D02*
Y275565D01*
X205401Y276398D01*
X207067D01*
X207900Y275565D01*
Y272233D01*
X207067Y271400D01*
X205401D01*
X206234Y273066D02*
X204568Y271400D01*
X205401D02*
X204568Y272233D01*
X199569Y276398D02*
X202902D01*
Y273899D01*
X201236Y274732D01*
X200402D01*
X199569Y273899D01*
Y272233D01*
X200402Y271400D01*
X202069D01*
X202902Y272233D01*
X359668Y289165D02*
X360501Y289998D01*
X362167D01*
X363000Y289165D01*
Y288332D01*
X362167Y287499D01*
X360501D01*
X359668Y286666D01*
Y285833D01*
X360501Y285000D01*
X362167D01*
X363000Y285833D01*
X358002Y285000D02*
Y289998D01*
X355502D01*
X354669Y289165D01*
Y287499D01*
X355502Y286666D01*
X358002D01*
X353003Y289998D02*
Y285000D01*
X350504D01*
X349671Y285833D01*
Y289165D01*
X350504Y289998D01*
X353003D01*
X272604Y365542D02*
X273604Y366542D01*
X275603D01*
X276603Y365542D01*
Y361544D01*
X275603Y360544D01*
X273604D01*
X272604Y361544D01*
X270605Y360544D02*
Y364543D01*
X268605Y366542D01*
X266606Y364543D01*
Y360544D01*
Y363543D01*
X270605D01*
X264607Y360544D02*
Y366542D01*
X260608Y360544D01*
Y366542D01*
X258609Y365542D02*
X257609Y366542D01*
X255610D01*
X254610Y365542D01*
Y361544D01*
X255610Y360544D01*
X257609D01*
X258609Y361544D01*
Y365542D01*
X252611Y359544D02*
X248612D01*
X246613Y366542D02*
Y360544D01*
X244613Y362543D01*
X242614Y360544D01*
Y366542D01*
X240615Y360544D02*
Y364543D01*
X238615Y366542D01*
X236616Y364543D01*
Y360544D01*
Y363543D01*
X240615D01*
X234616Y366542D02*
Y360544D01*
Y362543D01*
X230618Y366542D01*
X233617Y363543D01*
X230618Y360544D01*
X224620Y366542D02*
X228619D01*
Y360544D01*
X224620D01*
X228619Y363543D02*
X226619D01*
X273104Y375542D02*
X274104Y376542D01*
X276103D01*
X277103Y375542D01*
Y371544D01*
X276103Y370544D01*
X274104D01*
X273104Y371544D01*
X271105Y370544D02*
Y374543D01*
X269106Y376542D01*
X267106Y374543D01*
Y370544D01*
Y373543D01*
X271105D01*
X265107Y370544D02*
Y376542D01*
X261108Y370544D01*
Y376542D01*
X259109Y375542D02*
X258109Y376542D01*
X256110D01*
X255110Y375542D01*
Y371544D01*
X256110Y370544D01*
X258109D01*
X259109Y371544D01*
Y375542D01*
X253111Y369544D02*
X249112D01*
X247113Y370544D02*
Y376542D01*
X244114D01*
X243114Y375542D01*
Y373543D01*
X244114Y372543D01*
X247113D01*
X245113D02*
X243114Y370544D01*
X241115Y376542D02*
X237116Y370544D01*
Y376542D02*
X241115Y370544D01*
X273104Y385542D02*
X274104Y386542D01*
X276103D01*
X277103Y385542D01*
Y381544D01*
X276103Y380544D01*
X274104D01*
X273104Y381544D01*
X271105Y380544D02*
Y384543D01*
X269106Y386542D01*
X267106Y384543D01*
Y380544D01*
Y383543D01*
X271105D01*
X265107Y380544D02*
Y386542D01*
X261108Y380544D01*
Y386542D01*
X259109Y385542D02*
X258109Y386542D01*
X256110D01*
X255110Y385542D01*
Y381544D01*
X256110Y380544D01*
X258109D01*
X259109Y381544D01*
Y385542D01*
X253111Y379544D02*
X249112D01*
X247113Y386542D02*
X243114D01*
X245113D01*
Y380544D01*
X241115Y386542D02*
X237116Y380544D01*
Y386542D02*
X241115Y380544D01*
X273104Y395042D02*
X274104Y396042D01*
X276103D01*
X277103Y395042D01*
Y391044D01*
X276103Y390044D01*
X274104D01*
X273104Y391044D01*
X271105Y390044D02*
Y394043D01*
X269106Y396042D01*
X267106Y394043D01*
Y390044D01*
Y393043D01*
X271105D01*
X265107Y390044D02*
Y396042D01*
X261108Y390044D01*
Y396042D01*
X259109Y395042D02*
X258109Y396042D01*
X256110D01*
X255110Y395042D01*
Y391044D01*
X256110Y390044D01*
X258109D01*
X259109Y391044D01*
Y395042D01*
X253111Y389044D02*
X249112D01*
X243114Y396042D02*
X247113D01*
Y390044D01*
X243114D01*
X247113Y393043D02*
X245113D01*
X241115Y390044D02*
Y396042D01*
X238116D01*
X237116Y395042D01*
Y393043D01*
X238116Y392043D01*
X241115D01*
X239115D02*
X237116Y390044D01*
X235117D02*
Y396042D01*
X232118D01*
X231118Y395042D01*
Y393043D01*
X232118Y392043D01*
X235117D01*
X233117D02*
X231118Y390044D01*
X297104Y426542D02*
X298104Y427542D01*
X300103D01*
X301103Y426542D01*
Y422544D01*
X300103Y421544D01*
X298104D01*
X297104Y422544D01*
X295105Y421544D02*
Y425543D01*
X293106Y427542D01*
X291106Y425543D01*
Y421544D01*
Y424543D01*
X295105D01*
X289107Y421544D02*
Y427542D01*
X285108Y421544D01*
Y427542D01*
X283109Y421544D02*
X281109D01*
X282109D01*
Y427542D01*
X283109Y426542D01*
X278110Y420544D02*
X274112D01*
X268114Y426542D02*
X269113Y427542D01*
X271113D01*
X272112Y426542D01*
Y425543D01*
X271113Y424543D01*
X269113D01*
X268114Y423543D01*
Y422544D01*
X269113Y421544D01*
X271113D01*
X272112Y422544D01*
X266114Y427542D02*
X262116D01*
X264115D01*
Y421544D01*
X260116Y427542D02*
Y421544D01*
X257117D01*
X256118Y422544D01*
Y423543D01*
X257117Y424543D01*
X260116D01*
X257117D01*
X256118Y425543D01*
Y426542D01*
X257117Y427542D01*
X260116D01*
X254118D02*
Y426542D01*
X252119Y424543D01*
X250119Y426542D01*
Y427542D01*
X252119Y424543D02*
Y421544D01*
X262604Y437542D02*
X263604Y438542D01*
X265603D01*
X266603Y437542D01*
Y433544D01*
X265603Y432544D01*
X263604D01*
X262604Y433544D01*
X260605Y432544D02*
Y436543D01*
X258606Y438542D01*
X256606Y436543D01*
Y432544D01*
Y435543D01*
X260605D01*
X254607Y432544D02*
Y438542D01*
X250608Y432544D01*
Y438542D01*
X248609Y432544D02*
X246609D01*
X247609D01*
Y438542D01*
X248609Y437542D01*
X243610Y431544D02*
X239612D01*
X237612Y432544D02*
Y438542D01*
X234613D01*
X233614Y437542D01*
Y435543D01*
X234613Y434543D01*
X237612D01*
X235613D02*
X233614Y432544D01*
X231614Y438542D02*
X227616Y432544D01*
Y438542D02*
X231614Y432544D01*
X263104Y446542D02*
X264104Y447542D01*
X266103D01*
X267103Y446542D01*
Y442544D01*
X266103Y441544D01*
X264104D01*
X263104Y442544D01*
X261105Y441544D02*
Y445543D01*
X259105Y447542D01*
X257106Y445543D01*
Y441544D01*
Y444543D01*
X261105D01*
X255107Y441544D02*
Y447542D01*
X251108Y441544D01*
Y447542D01*
X249109Y441544D02*
X247109D01*
X248109D01*
Y447542D01*
X249109Y446542D01*
X244110Y440544D02*
X240112D01*
X238112Y447542D02*
X234114D01*
X236113D01*
Y441544D01*
X232114Y447542D02*
X228116Y441544D01*
Y447542D02*
X232114Y441544D01*
X263104Y456042D02*
X264104Y457042D01*
X266103D01*
X267103Y456042D01*
Y452044D01*
X266103Y451044D01*
X264104D01*
X263104Y452044D01*
X261105Y451044D02*
Y455043D01*
X259105Y457042D01*
X257106Y455043D01*
Y451044D01*
Y454043D01*
X261105D01*
X255107Y451044D02*
Y457042D01*
X251108Y451044D01*
Y457042D01*
X249109Y451044D02*
X247109D01*
X248109D01*
Y457042D01*
X249109Y456042D01*
X244110Y450044D02*
X240112D01*
X234114Y457042D02*
X238112D01*
Y451044D01*
X234114D01*
X238112Y454043D02*
X236113D01*
X232114Y451044D02*
Y457042D01*
X229115D01*
X228116Y456042D01*
Y454043D01*
X229115Y453043D01*
X232114D01*
X230115D02*
X228116Y451044D01*
X226116D02*
Y457042D01*
X223117D01*
X222117Y456042D01*
Y454043D01*
X223117Y453043D01*
X226116D01*
X224117D02*
X222117Y451044D01*
X268334Y160500D02*
Y157168D01*
X266668Y158834D02*
X270000D01*
X319165Y157332D02*
X319998Y156499D01*
Y154833D01*
X319165Y154000D01*
X315833D01*
X315000Y154833D01*
Y156499D01*
X315833Y157332D01*
X317499D01*
Y155666D01*
X315000Y158998D02*
X319998D01*
X315000Y162331D01*
X319998D01*
Y163997D02*
X315000D01*
Y166496D01*
X315833Y167329D01*
X319165D01*
X319998Y166496D01*
Y163997D01*
X358668Y234165D02*
X359501Y234998D01*
X361167D01*
X362000Y234165D01*
Y233332D01*
X361167Y232499D01*
X359501D01*
X358668Y231666D01*
Y230833D01*
X359501Y230000D01*
X361167D01*
X362000Y230833D01*
X357002Y234998D02*
Y230000D01*
X354502D01*
X353669Y230833D01*
Y234165D01*
X354502Y234998D01*
X357002D01*
X352003D02*
X350337D01*
X351170D01*
Y230000D01*
X352003D01*
X350337D01*
X364668Y245165D02*
X365501Y245998D01*
X367167D01*
X368000Y245165D01*
Y244332D01*
X367167Y243499D01*
X365501D01*
X364668Y242666D01*
Y241833D01*
X365501Y241000D01*
X367167D01*
X368000Y241833D01*
X363002Y245998D02*
X359669D01*
X361335D01*
Y241000D01*
X358003D02*
Y245998D01*
X355504D01*
X354671Y245165D01*
Y243499D01*
X355504Y242666D01*
X358003D01*
X356337D02*
X354671Y241000D01*
X353005D02*
Y244332D01*
X350506D01*
X349673Y243499D01*
Y241000D01*
X360168Y255165D02*
X361001Y255998D01*
X362667D01*
X363500Y255165D01*
Y254332D01*
X362667Y253499D01*
X361001D01*
X360168Y252666D01*
Y251833D01*
X361001Y251000D01*
X362667D01*
X363500Y251833D01*
X355169Y255165D02*
X356002Y255998D01*
X357669D01*
X358502Y255165D01*
Y251833D01*
X357669Y251000D01*
X356002D01*
X355169Y251833D01*
X353503Y255998D02*
Y251000D01*
Y252666D01*
X350171Y255998D01*
X352670Y253499D01*
X350171Y251000D01*
X360168Y264665D02*
X361001Y265498D01*
X362667D01*
X363500Y264665D01*
Y263832D01*
X362667Y262999D01*
X361001D01*
X360168Y262166D01*
Y261333D01*
X361001Y260500D01*
X362667D01*
X363500Y261333D01*
X358502Y265498D02*
Y260500D01*
X356002D01*
X355169Y261333D01*
Y264665D01*
X356002Y265498D01*
X358502D01*
X351004D02*
X352670D01*
X353503Y264665D01*
Y261333D01*
X352670Y260500D01*
X351004D01*
X350171Y261333D01*
Y264665D01*
X351004Y265498D01*
X363500Y276500D02*
Y281498D01*
X361001D01*
X360168Y280665D01*
Y278999D01*
X361001Y278166D01*
X363500D01*
X358502Y281498D02*
Y276500D01*
X356836Y278166D01*
X355169Y276500D01*
Y281498D01*
X353503Y276500D02*
Y281498D01*
X351837Y279832D01*
X350171Y281498D01*
Y276500D01*
X379168Y299498D02*
X382500D01*
Y296999D01*
X380834D01*
X382500D01*
Y294500D01*
X376669Y297832D02*
X375002D01*
X374169Y296999D01*
Y294500D01*
X376669D01*
X377502Y295333D01*
X376669Y296166D01*
X374169D01*
X372503Y297832D02*
Y295333D01*
X371670Y294500D01*
X369171D01*
Y297832D01*
X367505Y294500D02*
X365839D01*
X366672D01*
Y299498D01*
X367505D01*
X362507Y298665D02*
Y297832D01*
X363339D01*
X361673D01*
X362507D01*
Y295333D01*
X361673Y294500D01*
X354176D02*
Y299498D01*
X350844Y294500D01*
Y299498D01*
X169468Y302665D02*
X170301Y303498D01*
X171967D01*
X172800Y302665D01*
Y299333D01*
X171967Y298500D01*
X170301D01*
X169468Y299333D01*
X167802Y298500D02*
Y303498D01*
X164469Y298500D01*
Y303498D01*
X159471D02*
X162803D01*
Y300999D01*
X161137Y301832D01*
X160304D01*
X159471Y300999D01*
Y299333D01*
X160304Y298500D01*
X161970D01*
X162803Y299333D01*
X277288Y257322D02*
X280822Y253787D01*
X282589Y255555D01*
X282589Y256733D01*
X281411Y257911D01*
X280233Y257911D01*
X278466Y256144D01*
X279644Y257322D02*
Y259678D01*
X286713D02*
X284945Y259089D01*
X282589D01*
X281411Y260267D01*
Y261445D01*
X282589Y262623D01*
X283767Y262623D01*
X284356Y262034D01*
Y260856D01*
X282589Y259089D01*
X263678Y249288D02*
X267213Y252822D01*
X265445Y254589D01*
X264267Y254589D01*
X263089Y253411D01*
X263089Y252233D01*
X264856Y250466D01*
X263678Y251644D02*
X261322D01*
X263678Y256356D02*
X261322Y258713D01*
X260733Y258123D01*
Y253411D01*
X260144Y252822D01*
X261178Y278288D02*
X264713Y281822D01*
X262945Y283589D01*
X261767Y283589D01*
X260589Y282411D01*
X260589Y281233D01*
X262356Y279466D01*
X261178Y280644D02*
X258822D01*
X260589Y284767D02*
Y285945D01*
X259411Y287123D01*
X258233Y287123D01*
X257644Y286534D01*
Y285356D01*
X258233Y284767D01*
X257644Y285356D01*
X256466D01*
X255876Y284767D01*
X255876Y283589D01*
X257055Y282411D01*
X258233D01*
X204568Y296633D02*
Y299965D01*
X205401Y300798D01*
X207067D01*
X207900Y299965D01*
Y296633D01*
X207067Y295800D01*
X205401D01*
X206234Y297466D02*
X204568Y295800D01*
X205401D02*
X204568Y296633D01*
X200402Y295800D02*
Y300798D01*
X202902Y298299D01*
X199569D01*
X276165Y210001D02*
Y214999D01*
X273666D01*
X272833Y214166D01*
Y212500D01*
X273666Y211667D01*
X276165D01*
X274499D02*
X272833Y210001D01*
X271167Y210834D02*
X270334Y210001D01*
X268668D01*
X267835Y210834D01*
Y214166D01*
X268668Y214999D01*
X270334D01*
X271167Y214166D01*
Y213333D01*
X270334Y212500D01*
X267835D01*
X261212Y240678D02*
X257678Y244213D01*
X255911Y242445D01*
X255911Y241267D01*
X257089Y240089D01*
X258267Y240089D01*
X260034Y241856D01*
X258856Y240678D02*
Y238322D01*
X254733Y240089D02*
X253555D01*
X252377Y238911D01*
X252377Y237733D01*
X252966Y237144D01*
X254144D01*
Y235966D01*
X254733Y235377D01*
X255911Y235377D01*
X257089Y236555D01*
Y237733D01*
X256500Y238322D01*
X255322D01*
X255322Y239500D01*
X254733Y240089D01*
X255322Y238322D02*
X254144Y237144D01*
X279178Y266788D02*
X282713Y270322D01*
X280945Y272089D01*
X279767Y272089D01*
X278589Y270911D01*
X278589Y269733D01*
X280356Y267966D01*
X279178Y269144D02*
X276822D01*
Y276213D02*
X279178Y273856D01*
X277411Y272089D01*
X276822Y273856D01*
X276233Y274445D01*
X275055D01*
X273877Y273267D01*
X273877Y272089D01*
X275055Y270911D01*
X276233D01*
X269213Y273678D02*
X265678Y277213D01*
X263911Y275445D01*
X263911Y274267D01*
X265089Y273089D01*
X266267Y273089D01*
X268034Y274856D01*
X266856Y273678D02*
Y271322D01*
X263911Y268376D02*
X260377Y271911D01*
X263911D01*
X261555Y269555D01*
X204568Y248433D02*
Y251765D01*
X205401Y252598D01*
X207067D01*
X207900Y251765D01*
Y248433D01*
X207067Y247600D01*
X205401D01*
X206234Y249266D02*
X204568Y247600D01*
X205401D02*
X204568Y248433D01*
X199569Y252598D02*
X201236Y251765D01*
X202902Y250099D01*
Y248433D01*
X202069Y247600D01*
X200402D01*
X199569Y248433D01*
Y249266D01*
X200402Y250099D01*
X202902D01*
X320999Y182667D02*
Y181001D01*
Y181834D01*
X316834D01*
X316001Y181001D01*
Y180168D01*
X316834Y179335D01*
X320166Y184333D02*
X320999Y185166D01*
Y186832D01*
X320166Y187665D01*
X319333D01*
X318500Y186832D01*
Y185999D01*
Y186832D01*
X317667Y187665D01*
X316834D01*
X316001Y186832D01*
Y185166D01*
X316834Y184333D01*
X338168Y220334D02*
X337335Y219501D01*
X335668D01*
X334836Y220334D01*
Y223666D01*
X335668Y224499D01*
X337335D01*
X338168Y223666D01*
X339834Y224499D02*
Y219501D01*
X343166Y224499D01*
Y219501D01*
X347331Y224499D02*
Y219501D01*
X344832Y222000D01*
X348165D01*
X344768Y320265D02*
X345601Y321098D01*
X347267D01*
X348100Y320265D01*
Y316933D01*
X347267Y316100D01*
X345601D01*
X344768Y316933D01*
X343102Y316100D02*
Y321098D01*
X339769Y316100D01*
Y321098D01*
X338103Y320265D02*
X337270Y321098D01*
X335604D01*
X334771Y320265D01*
Y319432D01*
X335604Y318599D01*
X336437D01*
X335604D01*
X334771Y317766D01*
Y316933D01*
X335604Y316100D01*
X337270D01*
X338103Y316933D01*
X213936Y410045D02*
X214602Y409378D01*
Y408045D01*
X213936Y407379D01*
X211270D01*
X210604Y408045D01*
Y409378D01*
X211270Y410045D01*
X210604Y411378D02*
X214602D01*
X210604Y414044D01*
X214602D01*
X210604Y415377D02*
Y416709D01*
Y416043D01*
X214602D01*
X213936Y415377D01*
X315334Y293333D02*
X314501Y294166D01*
Y295832D01*
X315334Y296665D01*
X318666D01*
X319499Y295832D01*
Y294166D01*
X318666Y293333D01*
X314501Y288335D02*
X315334Y290001D01*
X317000Y291667D01*
X318666D01*
X319499Y290834D01*
Y289168D01*
X318666Y288335D01*
X317833D01*
X317000Y289168D01*
Y291667D01*
X315334Y304333D02*
X314501Y305166D01*
Y306832D01*
X315334Y307665D01*
X318666D01*
X319499Y306832D01*
Y305166D01*
X318666Y304333D01*
X314501Y299335D02*
Y302667D01*
X317000D01*
X316167Y301001D01*
Y300168D01*
X317000Y299335D01*
X318666D01*
X319499Y300168D01*
Y301834D01*
X318666Y302667D01*
D11*
X323300Y287286D02*
X322562Y287712D01*
Y286860D01*
X323300Y287286D01*
D13*
X303812Y259924D02*
X317985D01*
X303812Y285514D02*
X317985D01*
X332299Y299925D02*
Y303075D01*
X332299Y291425D02*
X332299Y294575D01*
X264520Y195701D02*
X279480D01*
X264520Y208299D02*
X279480D01*
X260057Y233830D02*
X261170Y234943D01*
X257830Y236057D02*
X258943Y237170D01*
X257830Y249443D02*
X258943Y248330D01*
X260057Y251670D02*
X261170Y250557D01*
X279057Y260330D02*
X280170Y261443D01*
X276830Y262557D02*
X277943Y263670D01*
X272557Y262330D02*
X273670Y263443D01*
X270330Y264557D02*
X271443Y265670D01*
X268057Y266830D02*
X269170Y267943D01*
X265830Y269057D02*
X266943Y270170D01*
X254963Y278809D02*
X256077Y277696D01*
X257190Y281037D02*
X258304Y279923D01*
D14*
X337094Y227067D02*
X348905D01*
Y268406D01*
X337094D02*
X348905D01*
X337094Y227067D02*
Y268406D01*
Y271567D02*
X348905D01*
Y312906D01*
X337094D02*
X348905D01*
X337094Y271567D02*
Y312906D01*
X313209Y173339D02*
Y189504D01*
X271476D02*
X313209D01*
X271476Y152496D02*
Y189504D01*
Y152496D02*
X313209D01*
Y173339D01*
M02*
