G04*
G04 #@! TF.GenerationSoftware,Altium Limited,Altium Designer,20.0.12 (288)*
G04*
G04 Layer_Physical_Order=2*
G04 Layer_Color=16711680*
%FSLAX25Y25*%
%MOIN*%
G70*
G01*
G75*
%ADD10C,0.01000*%
%ADD20R,0.03898X0.01595*%
%ADD21R,0.06791X0.08799*%
%ADD40C,0.05000*%
%ADD41C,0.02000*%
%ADD42C,0.07874*%
%ADD43C,0.04724*%
%ADD44C,0.06000*%
%ADD45R,0.05000X0.05000*%
%ADD46C,0.05000*%
%ADD47C,0.15748*%
%ADD48O,0.09252X0.08858*%
%ADD49C,0.08858*%
%ADD50C,0.11811*%
%ADD51C,0.02000*%
%ADD52R,0.11811X0.16535*%
%ADD53O,0.06496X0.01772*%
%ADD54R,0.03937X0.03937*%
%ADD55R,0.02000X0.02000*%
%ADD56R,0.05118X0.13386*%
G04:AMPARAMS|DCode=57|XSize=39.37mil|YSize=35.43mil|CornerRadius=0mil|HoleSize=0mil|Usage=FLASHONLY|Rotation=135.000|XOffset=0mil|YOffset=0mil|HoleType=Round|Shape=Rectangle|*
%AMROTATEDRECTD57*
4,1,4,0.02645,-0.00139,0.00139,-0.02645,-0.02645,0.00139,-0.00139,0.02645,0.02645,-0.00139,0.0*
%
%ADD57ROTATEDRECTD57*%

G04:AMPARAMS|DCode=58|XSize=39.37mil|YSize=35.43mil|CornerRadius=0mil|HoleSize=0mil|Usage=FLASHONLY|Rotation=45.000|XOffset=0mil|YOffset=0mil|HoleType=Round|Shape=Rectangle|*
%AMROTATEDRECTD58*
4,1,4,-0.00139,-0.02645,-0.02645,-0.00139,0.00139,0.02645,0.02645,0.00139,-0.00139,-0.02645,0.0*
%
%ADD58ROTATEDRECTD58*%

%ADD59R,0.02020X0.05931*%
G36*
X340603Y357044D02*
X187603D01*
Y459044D01*
X340603D01*
Y357044D01*
D02*
G37*
G36*
X394500Y153500D02*
X131500D01*
Y345500D01*
X394500D01*
Y153500D01*
D02*
G37*
%LPC*%
G36*
X192603Y456171D02*
X191794Y456064D01*
X191040Y455752D01*
X190392Y455255D01*
X189895Y454608D01*
X189583Y453854D01*
X189476Y453044D01*
X189583Y452235D01*
X189895Y451481D01*
X190392Y450833D01*
X191040Y450336D01*
X191794Y450024D01*
X192603Y449918D01*
X193412Y450024D01*
X194166Y450336D01*
X194814Y450833D01*
X195311Y451481D01*
X195623Y452235D01*
X195730Y453044D01*
X195623Y453854D01*
X195311Y454608D01*
X194814Y455255D01*
X194166Y455752D01*
X193412Y456064D01*
X192603Y456171D01*
D02*
G37*
G36*
X202603Y456171D02*
X201794Y456064D01*
X201040Y455752D01*
X200392Y455255D01*
X199895Y454608D01*
X199583Y453854D01*
X199476Y453044D01*
X199583Y452235D01*
X199895Y451481D01*
X200392Y450833D01*
X201040Y450336D01*
X201794Y450024D01*
X202603Y449918D01*
X203412Y450024D01*
X204166Y450336D01*
X204814Y450833D01*
X205311Y451481D01*
X205623Y452235D01*
X205730Y453044D01*
X205623Y453854D01*
X205311Y454608D01*
X204814Y455255D01*
X204166Y455752D01*
X203412Y456064D01*
X202603Y456171D01*
D02*
G37*
G36*
X288603Y452032D02*
X287830Y451930D01*
X287109Y451632D01*
X286490Y451157D01*
X286016Y450538D01*
X285717Y449818D01*
X285615Y449044D01*
X285717Y448271D01*
X286016Y447550D01*
X286490Y446932D01*
X287109Y446457D01*
X287830Y446158D01*
X288603Y446057D01*
X289376Y446158D01*
X290097Y446457D01*
X290716Y446932D01*
X291190Y447550D01*
X291489Y448271D01*
X291591Y449044D01*
X291489Y449818D01*
X291190Y450538D01*
X290716Y451157D01*
X290097Y451632D01*
X289376Y451930D01*
X288603Y452032D01*
D02*
G37*
G36*
X217103Y451032D02*
X216330Y450930D01*
X215609Y450632D01*
X214990Y450157D01*
X214515Y449538D01*
X214217Y448817D01*
X214115Y448044D01*
X214217Y447271D01*
X214515Y446550D01*
X214990Y445931D01*
X215609Y445457D01*
X216330Y445158D01*
X217103Y445056D01*
X217876Y445158D01*
X218597Y445457D01*
X219216Y445931D01*
X219690Y446550D01*
X219989Y447271D01*
X220091Y448044D01*
X219989Y448817D01*
X219690Y449538D01*
X219216Y450157D01*
X218597Y450632D01*
X217876Y450930D01*
X217103Y451032D01*
D02*
G37*
G36*
X326103Y453620D02*
X324919Y453464D01*
X323815Y453007D01*
X322867Y452280D01*
X322140Y451332D01*
X321683Y450229D01*
X321527Y449044D01*
X321683Y447860D01*
X322140Y446756D01*
X322867Y445808D01*
X323815Y445081D01*
X324919Y444624D01*
X326103Y444468D01*
X327287Y444624D01*
X328391Y445081D01*
X329339Y445808D01*
X330066Y446756D01*
X330523Y447860D01*
X330679Y449044D01*
X330523Y450229D01*
X330066Y451332D01*
X329339Y452280D01*
X328391Y453007D01*
X327287Y453464D01*
X326103Y453620D01*
D02*
G37*
G36*
X202603Y446171D02*
X201794Y446064D01*
X201040Y445752D01*
X200392Y445255D01*
X199895Y444608D01*
X199583Y443854D01*
X199476Y443044D01*
X199583Y442235D01*
X199895Y441481D01*
X200392Y440833D01*
X201040Y440336D01*
X201794Y440024D01*
X202603Y439918D01*
X203412Y440024D01*
X204166Y440336D01*
X204814Y440833D01*
X205311Y441481D01*
X205623Y442235D01*
X205730Y443044D01*
X205623Y443854D01*
X205311Y444608D01*
X204814Y445255D01*
X204166Y445752D01*
X203412Y446064D01*
X202603Y446171D01*
D02*
G37*
G36*
X192603Y446171D02*
X191794Y446064D01*
X191040Y445752D01*
X190392Y445255D01*
X189895Y444608D01*
X189583Y443853D01*
X189476Y443044D01*
X189583Y442235D01*
X189895Y441481D01*
X190392Y440833D01*
X191040Y440336D01*
X191794Y440024D01*
X192603Y439917D01*
X193412Y440024D01*
X194166Y440336D01*
X194814Y440833D01*
X195311Y441481D01*
X195623Y442235D01*
X195730Y443044D01*
X195623Y443853D01*
X195311Y444608D01*
X194814Y445255D01*
X194166Y445752D01*
X193412Y446064D01*
X192603Y446171D01*
D02*
G37*
G36*
X288603Y442032D02*
X287830Y441930D01*
X287109Y441632D01*
X286490Y441157D01*
X286016Y440538D01*
X285717Y439817D01*
X285615Y439044D01*
X285717Y438271D01*
X286016Y437550D01*
X286490Y436932D01*
X287109Y436457D01*
X287830Y436158D01*
X288603Y436057D01*
X289376Y436158D01*
X290097Y436457D01*
X290716Y436932D01*
X291190Y437550D01*
X291489Y438271D01*
X291591Y439044D01*
X291489Y439817D01*
X291190Y440538D01*
X290716Y441157D01*
X290097Y441632D01*
X289376Y441930D01*
X288603Y442032D01*
D02*
G37*
G36*
X217103Y441032D02*
X216330Y440930D01*
X215609Y440632D01*
X214990Y440157D01*
X214515Y439538D01*
X214217Y438818D01*
X214115Y438044D01*
X214217Y437271D01*
X214515Y436550D01*
X214990Y435931D01*
X215609Y435457D01*
X216330Y435158D01*
X217103Y435056D01*
X217876Y435158D01*
X218597Y435457D01*
X219216Y435931D01*
X219690Y436550D01*
X219989Y437271D01*
X220091Y438044D01*
X219989Y438818D01*
X219690Y439538D01*
X219216Y440157D01*
X218597Y440632D01*
X217876Y440930D01*
X217103Y441032D01*
D02*
G37*
G36*
X326103Y439841D02*
X324919Y439685D01*
X323815Y439228D01*
X322867Y438500D01*
X322140Y437553D01*
X321683Y436449D01*
X321527Y435265D01*
X321683Y434080D01*
X322140Y432977D01*
X322867Y432029D01*
X323815Y431302D01*
X324919Y430844D01*
X326103Y430688D01*
X327287Y430844D01*
X328391Y431302D01*
X329339Y432029D01*
X330066Y432977D01*
X330523Y434080D01*
X330679Y435265D01*
X330523Y436449D01*
X330066Y437553D01*
X329339Y438500D01*
X328391Y439228D01*
X327287Y439685D01*
X326103Y439841D01*
D02*
G37*
G36*
X202603Y436171D02*
X201794Y436064D01*
X201040Y435752D01*
X200392Y435255D01*
X199895Y434608D01*
X199583Y433853D01*
X199476Y433044D01*
X199583Y432235D01*
X199895Y431481D01*
X200392Y430833D01*
X201040Y430336D01*
X201794Y430024D01*
X202603Y429917D01*
X203412Y430024D01*
X204166Y430336D01*
X204814Y430833D01*
X205311Y431481D01*
X205623Y432235D01*
X205730Y433044D01*
X205623Y433853D01*
X205311Y434608D01*
X204814Y435255D01*
X204166Y435752D01*
X203412Y436064D01*
X202603Y436171D01*
D02*
G37*
G36*
X192603D02*
X191794Y436064D01*
X191040Y435752D01*
X190392Y435255D01*
X189895Y434608D01*
X189583Y433853D01*
X189476Y433044D01*
X189583Y432235D01*
X189895Y431481D01*
X190392Y430833D01*
X191040Y430336D01*
X191794Y430024D01*
X192603Y429917D01*
X193412Y430024D01*
X194166Y430336D01*
X194814Y430833D01*
X195311Y431481D01*
X195623Y432235D01*
X195730Y433044D01*
X195623Y433853D01*
X195311Y434608D01*
X194814Y435255D01*
X194166Y435752D01*
X193412Y436064D01*
X192603Y436171D01*
D02*
G37*
G36*
X202603Y426171D02*
X201794Y426064D01*
X201040Y425752D01*
X200392Y425255D01*
X199895Y424608D01*
X199583Y423853D01*
X199476Y423044D01*
X199583Y422235D01*
X199895Y421481D01*
X200392Y420833D01*
X201040Y420336D01*
X201794Y420024D01*
X202603Y419917D01*
X203412Y420024D01*
X204166Y420336D01*
X204814Y420833D01*
X205311Y421481D01*
X205623Y422235D01*
X205730Y423044D01*
X205623Y423853D01*
X205311Y424608D01*
X204814Y425255D01*
X204166Y425752D01*
X203412Y426064D01*
X202603Y426171D01*
D02*
G37*
G36*
X192603D02*
X191794Y426064D01*
X191040Y425752D01*
X190392Y425255D01*
X189895Y424608D01*
X189583Y423853D01*
X189476Y423044D01*
X189583Y422235D01*
X189895Y421481D01*
X190392Y420833D01*
X191040Y420336D01*
X191794Y420024D01*
X192603Y419917D01*
X193412Y420024D01*
X194166Y420336D01*
X194814Y420833D01*
X195311Y421481D01*
X195623Y422235D01*
X195730Y423044D01*
X195623Y423853D01*
X195311Y424608D01*
X194814Y425255D01*
X194166Y425752D01*
X193412Y426064D01*
X192603Y426171D01*
D02*
G37*
G36*
X242103Y425675D02*
X241163Y425552D01*
X240287Y425189D01*
X239535Y424612D01*
X238958Y423860D01*
X238596Y422984D01*
X238472Y422044D01*
X238596Y421104D01*
X238958Y420229D01*
X239535Y419477D01*
X240287Y418900D01*
X241163Y418537D01*
X242103Y418413D01*
X243043Y418537D01*
X243918Y418900D01*
X244671Y419477D01*
X245248Y420229D01*
X245610Y421104D01*
X245734Y422044D01*
X245610Y422984D01*
X245248Y423860D01*
X244671Y424612D01*
X243918Y425189D01*
X243043Y425552D01*
X242103Y425675D01*
D02*
G37*
G36*
X203103Y416509D02*
Y413544D01*
X206067D01*
X206013Y413958D01*
X205660Y414809D01*
X205099Y415540D01*
X204368Y416101D01*
X203517Y416454D01*
X203103Y416509D01*
D02*
G37*
G36*
X202103D02*
X201689Y416454D01*
X200838Y416101D01*
X200107Y415540D01*
X199546Y414809D01*
X199193Y413958D01*
X199139Y413544D01*
X202103D01*
Y416509D01*
D02*
G37*
G36*
X192603Y416171D02*
X191794Y416064D01*
X191040Y415752D01*
X190392Y415255D01*
X189895Y414608D01*
X189583Y413854D01*
X189476Y413044D01*
X189583Y412235D01*
X189895Y411481D01*
X190392Y410833D01*
X191040Y410336D01*
X191794Y410024D01*
X192603Y409917D01*
X193412Y410024D01*
X194166Y410336D01*
X194814Y410833D01*
X195311Y411481D01*
X195623Y412235D01*
X195730Y413044D01*
X195623Y413854D01*
X195311Y414608D01*
X194814Y415255D01*
X194166Y415752D01*
X193412Y416064D01*
X192603Y416171D01*
D02*
G37*
G36*
X206067Y412544D02*
X203103D01*
Y409580D01*
X203517Y409634D01*
X204368Y409987D01*
X205099Y410548D01*
X205660Y411279D01*
X206013Y412130D01*
X206067Y412544D01*
D02*
G37*
G36*
X202103D02*
X199139D01*
X199193Y412130D01*
X199546Y411279D01*
X200107Y410548D01*
X200838Y409987D01*
X201689Y409634D01*
X202103Y409580D01*
Y412544D01*
D02*
G37*
G36*
X242103Y415675D02*
X241163Y415552D01*
X240287Y415189D01*
X239535Y414612D01*
X238958Y413860D01*
X238596Y412984D01*
X238472Y412044D01*
X238596Y411104D01*
X238958Y410229D01*
X239535Y409477D01*
X240287Y408900D01*
X241163Y408537D01*
X242103Y408413D01*
X243043Y408537D01*
X243918Y408900D01*
X244671Y409477D01*
X245248Y410229D01*
X245610Y411104D01*
X245734Y412044D01*
X245610Y412984D01*
X245248Y413860D01*
X244671Y414612D01*
X243918Y415189D01*
X243043Y415552D01*
X242103Y415675D01*
D02*
G37*
G36*
X193103Y406509D02*
Y403544D01*
X196067D01*
X196013Y403958D01*
X195660Y404809D01*
X195099Y405540D01*
X194368Y406102D01*
X193517Y406454D01*
X193103Y406509D01*
D02*
G37*
G36*
X192103Y406509D02*
X191689Y406454D01*
X190838Y406102D01*
X190107Y405540D01*
X189546Y404809D01*
X189193Y403958D01*
X189139Y403544D01*
X192103D01*
Y406509D01*
D02*
G37*
G36*
X232103Y425675D02*
X231163Y425552D01*
X230287Y425189D01*
X229535Y424612D01*
X228958Y423860D01*
X228596Y422984D01*
X228477Y422081D01*
X228454Y422029D01*
X228447Y421749D01*
X228424Y421504D01*
X228385Y421272D01*
X228330Y421053D01*
X228260Y420845D01*
X228173Y420647D01*
X228071Y420458D01*
X227953Y420278D01*
X227817Y420104D01*
X227646Y419919D01*
X227631Y419880D01*
X207927Y400176D01*
X204778D01*
X204608Y400676D01*
X204814Y400833D01*
X205311Y401481D01*
X205623Y402235D01*
X205730Y403044D01*
X205623Y403854D01*
X205311Y404608D01*
X204814Y405255D01*
X204166Y405752D01*
X203412Y406064D01*
X202603Y406171D01*
X201794Y406064D01*
X201040Y405752D01*
X200392Y405255D01*
X199895Y404608D01*
X199583Y403854D01*
X199476Y403044D01*
X199583Y402235D01*
X199895Y401481D01*
X200392Y400833D01*
X200863Y400472D01*
X200884Y399959D01*
X200849Y399874D01*
X200585Y399698D01*
X196449Y395562D01*
X196096Y395033D01*
X195972Y394408D01*
Y394319D01*
X195472Y394219D01*
X195311Y394608D01*
X194814Y395255D01*
X194166Y395752D01*
X193412Y396064D01*
X192603Y396171D01*
X191794Y396064D01*
X191040Y395752D01*
X190392Y395255D01*
X189895Y394608D01*
X189583Y393853D01*
X189476Y393044D01*
X189583Y392235D01*
X189895Y391481D01*
X190392Y390833D01*
X191040Y390336D01*
X191794Y390024D01*
X192603Y389917D01*
X193412Y390024D01*
X194166Y390336D01*
X194814Y390833D01*
X195311Y391481D01*
X195472Y391869D01*
X195972Y391770D01*
Y384319D01*
X195472Y384219D01*
X195311Y384608D01*
X194814Y385255D01*
X194166Y385752D01*
X193412Y386064D01*
X192603Y386171D01*
X191794Y386064D01*
X191040Y385752D01*
X190392Y385255D01*
X189895Y384608D01*
X189583Y383854D01*
X189476Y383044D01*
X189583Y382235D01*
X189895Y381481D01*
X190392Y380833D01*
X191040Y380336D01*
X191794Y380024D01*
X192603Y379918D01*
X193412Y380024D01*
X194166Y380336D01*
X194814Y380833D01*
X195311Y381481D01*
X195472Y381869D01*
X195972Y381770D01*
Y378720D01*
X194172Y376920D01*
X194132Y376905D01*
X193965Y376749D01*
X193815Y376624D01*
X193665Y376517D01*
X193517Y376427D01*
X193371Y376352D01*
X193226Y376293D01*
X193080Y376249D01*
X192934Y376217D01*
X192786Y376199D01*
X192606Y376193D01*
X192539Y376163D01*
X191794Y376064D01*
X191040Y375752D01*
X190392Y375255D01*
X189895Y374608D01*
X189583Y373853D01*
X189476Y373044D01*
X189583Y372235D01*
X189895Y371481D01*
X190392Y370833D01*
X191040Y370336D01*
X191794Y370024D01*
X192603Y369917D01*
X193412Y370024D01*
X194166Y370336D01*
X194814Y370833D01*
X195311Y371481D01*
X195623Y372235D01*
X195721Y372980D01*
X195752Y373047D01*
X195758Y373227D01*
X195776Y373376D01*
X195807Y373522D01*
X195852Y373667D01*
X195911Y373812D01*
X195985Y373959D01*
X196075Y374106D01*
X196183Y374256D01*
X196307Y374407D01*
X196464Y374573D01*
X196479Y374613D01*
X198757Y376891D01*
X199110Y377420D01*
X199234Y378044D01*
Y381770D01*
X199734Y381869D01*
X199895Y381481D01*
X200392Y380833D01*
X201040Y380336D01*
X201794Y380024D01*
X202603Y379918D01*
X203412Y380024D01*
X204166Y380336D01*
X204814Y380833D01*
X204972Y381039D01*
X205472Y380869D01*
Y375219D01*
X204972Y375050D01*
X204814Y375255D01*
X204166Y375752D01*
X203412Y376064D01*
X202603Y376171D01*
X201794Y376064D01*
X201040Y375752D01*
X200392Y375255D01*
X199895Y374608D01*
X199583Y373853D01*
X199476Y373044D01*
X199583Y372235D01*
X199895Y371481D01*
X200392Y370833D01*
X200598Y370676D01*
X200428Y370176D01*
X198103D01*
X197479Y370051D01*
X196949Y369698D01*
X194172Y366920D01*
X194132Y366905D01*
X193965Y366749D01*
X193815Y366624D01*
X193665Y366517D01*
X193517Y366426D01*
X193371Y366352D01*
X193226Y366293D01*
X193080Y366249D01*
X192934Y366217D01*
X192786Y366199D01*
X192606Y366193D01*
X192539Y366162D01*
X191794Y366064D01*
X191040Y365752D01*
X190392Y365255D01*
X189895Y364608D01*
X189583Y363854D01*
X189476Y363044D01*
X189583Y362235D01*
X189895Y361481D01*
X190392Y360833D01*
X191040Y360336D01*
X191794Y360024D01*
X192603Y359917D01*
X193412Y360024D01*
X194166Y360336D01*
X194814Y360833D01*
X195311Y361481D01*
X195623Y362235D01*
X195721Y362980D01*
X195752Y363047D01*
X195758Y363227D01*
X195776Y363376D01*
X195807Y363522D01*
X195852Y363667D01*
X195911Y363812D01*
X195985Y363959D01*
X196075Y364106D01*
X196183Y364256D01*
X196307Y364407D01*
X196464Y364573D01*
X196479Y364613D01*
X198779Y366913D01*
X204467D01*
X205091Y367037D01*
X205620Y367391D01*
X208257Y370027D01*
X208610Y370556D01*
X208734Y371180D01*
Y386368D01*
X213394Y391028D01*
X213394Y391028D01*
X229939Y407573D01*
X229978Y407587D01*
X230163Y407758D01*
X230336Y407894D01*
X230517Y408012D01*
X230705Y408115D01*
X230904Y408201D01*
X231112Y408271D01*
X231331Y408326D01*
X231563Y408366D01*
X231808Y408389D01*
X232088Y408395D01*
X232140Y408418D01*
X233043Y408537D01*
X233918Y408900D01*
X234670Y409477D01*
X235247Y410229D01*
X235610Y411104D01*
X235734Y412044D01*
X235610Y412984D01*
X235247Y413860D01*
X234670Y414612D01*
X233918Y415189D01*
X233043Y415552D01*
X232103Y415675D01*
X231163Y415552D01*
X230287Y415189D01*
X229535Y414612D01*
X228958Y413860D01*
X228596Y412984D01*
X228477Y412081D01*
X228454Y412029D01*
X228447Y411750D01*
X228424Y411504D01*
X228385Y411272D01*
X228330Y411053D01*
X228260Y410845D01*
X228173Y410647D01*
X228071Y410458D01*
X227953Y410278D01*
X227817Y410104D01*
X227646Y409919D01*
X227631Y409880D01*
X211087Y393336D01*
X211087Y393336D01*
X205949Y388198D01*
X205596Y387668D01*
X205472Y387044D01*
Y385219D01*
X204972Y385050D01*
X204814Y385255D01*
X204166Y385752D01*
X203412Y386064D01*
X202603Y386171D01*
X201794Y386064D01*
X201040Y385752D01*
X200392Y385255D01*
X199895Y384608D01*
X199734Y384219D01*
X199234Y384319D01*
Y391770D01*
X199734Y391869D01*
X199895Y391481D01*
X200392Y390833D01*
X201040Y390336D01*
X201794Y390024D01*
X202603Y389917D01*
X203412Y390024D01*
X204166Y390336D01*
X204814Y390833D01*
X205311Y391481D01*
X205623Y392235D01*
X205730Y393044D01*
X205623Y393853D01*
X205311Y394608D01*
X204814Y395255D01*
X204166Y395752D01*
X203412Y396064D01*
X202603Y396171D01*
X202444Y396150D01*
X202219Y396597D01*
X202469Y396913D01*
X208603D01*
X209227Y397037D01*
X209756Y397391D01*
X229939Y417573D01*
X229978Y417587D01*
X230163Y417758D01*
X230336Y417894D01*
X230517Y418013D01*
X230705Y418115D01*
X230904Y418201D01*
X231112Y418271D01*
X231331Y418327D01*
X231563Y418366D01*
X231808Y418389D01*
X232088Y418395D01*
X232140Y418418D01*
X233043Y418537D01*
X233918Y418900D01*
X234670Y419477D01*
X235247Y420229D01*
X235610Y421104D01*
X235734Y422044D01*
X235610Y422984D01*
X235247Y423860D01*
X234670Y424612D01*
X233918Y425189D01*
X233043Y425552D01*
X232103Y425675D01*
D02*
G37*
G36*
X192103Y402544D02*
X189139D01*
X189193Y402131D01*
X189546Y401279D01*
X190107Y400548D01*
X190838Y399987D01*
X191689Y399634D01*
X192103Y399580D01*
Y402544D01*
D02*
G37*
G36*
X196067D02*
X193103D01*
Y399580D01*
X193517Y399634D01*
X194368Y399987D01*
X195099Y400548D01*
X195660Y401279D01*
X196013Y402131D01*
X196067Y402544D01*
D02*
G37*
G36*
X242103Y405675D02*
X241163Y405551D01*
X240287Y405189D01*
X239535Y404612D01*
X238958Y403860D01*
X238596Y402984D01*
X238472Y402044D01*
X238596Y401104D01*
X238958Y400229D01*
X239535Y399477D01*
X240287Y398900D01*
X241163Y398537D01*
X242103Y398413D01*
X243043Y398537D01*
X243918Y398900D01*
X244671Y399477D01*
X245248Y400229D01*
X245610Y401104D01*
X245734Y402044D01*
X245610Y402984D01*
X245248Y403860D01*
X244671Y404612D01*
X243918Y405189D01*
X243043Y405551D01*
X242103Y405675D01*
D02*
G37*
G36*
X232103D02*
X231163Y405551D01*
X230287Y405189D01*
X229535Y404612D01*
X228958Y403860D01*
X228596Y402984D01*
X228472Y402044D01*
X228596Y401104D01*
X228958Y400229D01*
X229535Y399477D01*
X230287Y398900D01*
X231163Y398537D01*
X232103Y398413D01*
X233043Y398537D01*
X233918Y398900D01*
X234670Y399477D01*
X235247Y400229D01*
X235610Y401104D01*
X235734Y402044D01*
X235610Y402984D01*
X235247Y403860D01*
X234670Y404612D01*
X233918Y405189D01*
X233043Y405551D01*
X232103Y405675D01*
D02*
G37*
G36*
X216603Y385532D02*
X215830Y385430D01*
X215109Y385132D01*
X214490Y384657D01*
X214016Y384038D01*
X213717Y383317D01*
X213615Y382544D01*
X213717Y381771D01*
X214016Y381050D01*
X214490Y380432D01*
X215109Y379957D01*
X215830Y379658D01*
X216603Y379556D01*
X217376Y379658D01*
X218097Y379957D01*
X218716Y380432D01*
X219190Y381050D01*
X219489Y381771D01*
X219591Y382544D01*
X219489Y383317D01*
X219190Y384038D01*
X218716Y384657D01*
X218097Y385132D01*
X217376Y385430D01*
X216603Y385532D01*
D02*
G37*
G36*
X326103Y385620D02*
X324919Y385464D01*
X323815Y385007D01*
X322867Y384280D01*
X322140Y383332D01*
X321683Y382229D01*
X321527Y381044D01*
X321683Y379860D01*
X322140Y378756D01*
X322867Y377808D01*
X323815Y377081D01*
X324919Y376624D01*
X326103Y376468D01*
X327287Y376624D01*
X328391Y377081D01*
X329339Y377808D01*
X330066Y378756D01*
X330523Y379860D01*
X330679Y381044D01*
X330523Y382229D01*
X330066Y383332D01*
X329339Y384280D01*
X328391Y385007D01*
X327287Y385464D01*
X326103Y385620D01*
D02*
G37*
G36*
X288603Y379032D02*
X287830Y378930D01*
X287109Y378632D01*
X286490Y378157D01*
X286016Y377538D01*
X285717Y376817D01*
X285615Y376044D01*
X285717Y375271D01*
X286016Y374550D01*
X286490Y373932D01*
X287109Y373457D01*
X287830Y373158D01*
X288603Y373056D01*
X289376Y373158D01*
X290097Y373457D01*
X290716Y373932D01*
X291190Y374550D01*
X291489Y375271D01*
X291591Y376044D01*
X291489Y376817D01*
X291190Y377538D01*
X290716Y378157D01*
X290097Y378632D01*
X289376Y378930D01*
X288603Y379032D01*
D02*
G37*
G36*
X216603Y375532D02*
X215830Y375430D01*
X215109Y375132D01*
X214490Y374657D01*
X214016Y374038D01*
X213717Y373318D01*
X213615Y372544D01*
X213717Y371771D01*
X214016Y371050D01*
X214490Y370431D01*
X215109Y369957D01*
X215830Y369658D01*
X216603Y369556D01*
X217376Y369658D01*
X218097Y369957D01*
X218716Y370431D01*
X219190Y371050D01*
X219489Y371771D01*
X219591Y372544D01*
X219489Y373318D01*
X219190Y374038D01*
X218716Y374657D01*
X218097Y375132D01*
X217376Y375430D01*
X216603Y375532D01*
D02*
G37*
G36*
X288603Y369032D02*
X287830Y368930D01*
X287109Y368632D01*
X286490Y368157D01*
X286016Y367538D01*
X285717Y366817D01*
X285615Y366044D01*
X285717Y365271D01*
X286016Y364550D01*
X286490Y363931D01*
X287109Y363457D01*
X287830Y363158D01*
X288603Y363056D01*
X289376Y363158D01*
X290097Y363457D01*
X290716Y363931D01*
X291190Y364550D01*
X291489Y365271D01*
X291591Y366044D01*
X291489Y366817D01*
X291190Y367538D01*
X290716Y368157D01*
X290097Y368632D01*
X289376Y368930D01*
X288603Y369032D01*
D02*
G37*
G36*
X326103Y371841D02*
X324919Y371685D01*
X323815Y371228D01*
X322867Y370500D01*
X322140Y369553D01*
X321683Y368449D01*
X321527Y367265D01*
X321683Y366080D01*
X322140Y364977D01*
X322867Y364029D01*
X323815Y363302D01*
X324919Y362844D01*
X326103Y362688D01*
X327287Y362844D01*
X328391Y363302D01*
X329339Y364029D01*
X330066Y364977D01*
X330523Y366080D01*
X330679Y367265D01*
X330523Y368449D01*
X330066Y369553D01*
X329339Y370500D01*
X328391Y371228D01*
X327287Y371685D01*
X326103Y371841D01*
D02*
G37*
G36*
X205703Y366144D02*
X199503D01*
Y359944D01*
X205703D01*
Y366144D01*
D02*
G37*
%LPD*%
G36*
X232073Y419044D02*
X231770Y419037D01*
X231479Y419010D01*
X231198Y418963D01*
X230928Y418895D01*
X230669Y418807D01*
X230421Y418699D01*
X230184Y418571D01*
X229957Y418422D01*
X229742Y418253D01*
X229537Y418064D01*
X228123Y419479D01*
X228312Y419683D01*
X228481Y419899D01*
X228629Y420125D01*
X228758Y420362D01*
X228866Y420610D01*
X228954Y420869D01*
X229021Y421139D01*
X229069Y421420D01*
X229096Y421712D01*
X229103Y422014D01*
X232073Y419044D01*
D02*
G37*
G36*
Y409044D02*
X231770Y409037D01*
X231479Y409010D01*
X231198Y408963D01*
X230928Y408895D01*
X230669Y408807D01*
X230421Y408699D01*
X230184Y408571D01*
X229957Y408422D01*
X229742Y408253D01*
X229537Y408064D01*
X228123Y409479D01*
X228312Y409683D01*
X228481Y409899D01*
X228629Y410125D01*
X228758Y410362D01*
X228866Y410610D01*
X228954Y410869D01*
X229021Y411139D01*
X229069Y411420D01*
X229096Y411712D01*
X229103Y412014D01*
X232073Y409044D01*
D02*
G37*
G36*
X195991Y375018D02*
X195820Y374837D01*
X195668Y374652D01*
X195534Y374465D01*
X195417Y374275D01*
X195320Y374081D01*
X195240Y373885D01*
X195178Y373686D01*
X195135Y373483D01*
X195110Y373278D01*
X195103Y373069D01*
X192628Y375544D01*
X192836Y375551D01*
X193042Y375576D01*
X193244Y375620D01*
X193444Y375681D01*
X193640Y375761D01*
X193833Y375859D01*
X194024Y375975D01*
X194211Y376109D01*
X194395Y376261D01*
X194577Y376432D01*
X195991Y375018D01*
D02*
G37*
G36*
X195991Y365018D02*
X195820Y364837D01*
X195668Y364652D01*
X195534Y364465D01*
X195417Y364275D01*
X195320Y364082D01*
X195240Y363885D01*
X195178Y363686D01*
X195135Y363483D01*
X195110Y363278D01*
X195103Y363069D01*
X192628Y365544D01*
X192836Y365551D01*
X193042Y365576D01*
X193244Y365620D01*
X193444Y365681D01*
X193640Y365761D01*
X193834Y365859D01*
X194024Y365975D01*
X194211Y366109D01*
X194395Y366262D01*
X194577Y366432D01*
X195991Y365018D01*
D02*
G37*
%LPC*%
G36*
X382000Y341515D02*
X380339Y341351D01*
X378741Y340867D01*
X377269Y340080D01*
X375979Y339021D01*
X374920Y337731D01*
X374133Y336259D01*
X373649Y334661D01*
X373485Y333000D01*
X373649Y331339D01*
X374133Y329741D01*
X374920Y328269D01*
X375979Y326979D01*
X377269Y325920D01*
X378741Y325133D01*
X380339Y324649D01*
X382000Y324485D01*
X383661Y324649D01*
X385259Y325133D01*
X386731Y325920D01*
X388021Y326979D01*
X389080Y328269D01*
X389867Y329741D01*
X390351Y331339D01*
X390515Y333000D01*
X390351Y334661D01*
X389867Y336259D01*
X389080Y337731D01*
X388021Y339021D01*
X386731Y340080D01*
X385259Y340867D01*
X383661Y341351D01*
X382000Y341515D01*
D02*
G37*
G36*
X144000D02*
X142339Y341351D01*
X140742Y340867D01*
X139269Y340080D01*
X137979Y339021D01*
X136920Y337731D01*
X136133Y336259D01*
X135649Y334661D01*
X135485Y333000D01*
X135649Y331339D01*
X136133Y329741D01*
X136920Y328269D01*
X137979Y326979D01*
X139269Y325920D01*
X140742Y325133D01*
X142339Y324649D01*
X144000Y324485D01*
X145661Y324649D01*
X147258Y325133D01*
X148731Y325920D01*
X150021Y326979D01*
X151080Y328269D01*
X151867Y329741D01*
X152351Y331339D01*
X152515Y333000D01*
X152351Y334661D01*
X151867Y336259D01*
X151080Y337731D01*
X150021Y339021D01*
X148731Y340080D01*
X147258Y340867D01*
X145661Y341351D01*
X144000Y341515D01*
D02*
G37*
G36*
X343000Y309988D02*
X342227Y309886D01*
X341506Y309588D01*
X340887Y309113D01*
X340412Y308494D01*
X340114Y307773D01*
X340012Y307000D01*
X340114Y306227D01*
X340412Y305506D01*
X340887Y304887D01*
X341506Y304413D01*
X342227Y304114D01*
X343000Y304012D01*
X343773Y304114D01*
X344494Y304413D01*
X345113Y304887D01*
X345587Y305506D01*
X345886Y306227D01*
X345988Y307000D01*
X345886Y307773D01*
X345587Y308494D01*
X345113Y309113D01*
X344494Y309588D01*
X343773Y309886D01*
X343000Y309988D01*
D02*
G37*
G36*
X332118Y304468D02*
X329650D01*
Y302000D01*
X332118D01*
Y304468D01*
D02*
G37*
G36*
X213557Y301150D02*
X213495Y301124D01*
X213430Y301137D01*
X212561Y300964D01*
X212505Y300927D01*
X212439D01*
X211620Y300588D01*
X211573Y300541D01*
X211508Y300528D01*
X210770Y300035D01*
X210733Y299980D01*
X210672Y299955D01*
X210045Y299328D01*
X210020Y299266D01*
X209964Y299229D01*
X209472Y298492D01*
X209459Y298427D01*
X209412Y298380D01*
X209073Y297561D01*
X209073Y297494D01*
X209036Y297439D01*
X208872Y296617D01*
X208884Y296557D01*
X208860Y296502D01*
X208851Y296012D01*
X208853Y296006D01*
X208851Y296000D01*
Y293149D01*
X205500Y293149D01*
X205041Y292959D01*
X204851Y292500D01*
Y291297D01*
X204583Y290897D01*
X203951Y290897D01*
X203649Y291272D01*
Y296699D01*
X203600Y296818D01*
Y296947D01*
X203448Y297315D01*
X203356Y297406D01*
X203307Y297526D01*
X203026Y297807D01*
X202906Y297856D01*
X202815Y297948D01*
X202448Y298100D01*
X202318D01*
X202199Y298149D01*
X148909D01*
X148848Y298124D01*
X148782Y298137D01*
X147623Y297906D01*
X147568Y297869D01*
X147501D01*
X146409Y297417D01*
X146362Y297370D01*
X146297Y297357D01*
X145314Y296701D01*
X145277Y296645D01*
X145216Y296620D01*
X144380Y295784D01*
X144355Y295723D01*
X144299Y295686D01*
X143643Y294703D01*
X143630Y294638D01*
X143583Y294591D01*
X143131Y293499D01*
Y293432D01*
X143094Y293377D01*
X142863Y292218D01*
X142876Y292152D01*
X142851Y292091D01*
Y291500D01*
Y280409D01*
X142876Y280348D01*
X142863Y280282D01*
X143094Y279123D01*
X143131Y279068D01*
Y279001D01*
X143583Y277909D01*
X143630Y277862D01*
X143643Y277797D01*
X144299Y276814D01*
X144355Y276777D01*
X144380Y276716D01*
X145216Y275880D01*
X145277Y275855D01*
X145314Y275799D01*
X146297Y275143D01*
X146362Y275130D01*
X146409Y275083D01*
X147501Y274631D01*
X147568D01*
X147623Y274594D01*
X148782Y274363D01*
X148848Y274376D01*
X148909Y274351D01*
X202199D01*
X202318Y274400D01*
X202447D01*
X202815Y274552D01*
X202906Y274644D01*
X203026Y274693D01*
X203307Y274974D01*
X203356Y275094D01*
X203448Y275185D01*
X203600Y275553D01*
Y275682D01*
X203649Y275801D01*
Y279932D01*
X203951Y280308D01*
X204150Y280308D01*
X205379D01*
Y272051D01*
X205351Y271991D01*
X205344Y271805D01*
X205338Y271752D01*
X205330Y271704D01*
X205322Y271668D01*
X205316Y271647D01*
X205314Y271645D01*
X205312Y271638D01*
X205301Y271622D01*
X205299Y271613D01*
X205297Y271609D01*
X205296Y271598D01*
X205293Y271584D01*
X205286Y271563D01*
X204993Y271124D01*
X204869Y270500D01*
X204993Y269876D01*
X205346Y269346D01*
X205740Y269083D01*
X205750Y268607D01*
X205727Y268536D01*
X205541Y268459D01*
X205351Y268000D01*
Y266496D01*
X204027D01*
X203951Y266496D01*
X203527Y266679D01*
Y271978D01*
X203478Y272097D01*
Y272226D01*
X203325Y272594D01*
X203234Y272685D01*
X203185Y272805D01*
X202903Y273086D01*
X202784Y273135D01*
X202693Y273227D01*
X202325Y273379D01*
X202196D01*
X202077Y273428D01*
X148787D01*
X148725Y273403D01*
X148660Y273416D01*
X147501Y273185D01*
X147445Y273148D01*
X147379D01*
X146287Y272696D01*
X146240Y272649D01*
X146175Y272636D01*
X145192Y271979D01*
X145155Y271924D01*
X145094Y271899D01*
X144258Y271063D01*
X144232Y271002D01*
X144177Y270965D01*
X143520Y269982D01*
X143508Y269917D01*
X143461Y269869D01*
X143008Y268778D01*
Y268711D01*
X142971Y268656D01*
X142741Y267497D01*
X142754Y267431D01*
X142728Y267370D01*
Y266779D01*
Y255688D01*
X142754Y255627D01*
X142741Y255561D01*
X142971Y254402D01*
X143008Y254347D01*
Y254280D01*
X143461Y253188D01*
X143508Y253141D01*
X143520Y253076D01*
X144177Y252093D01*
X144232Y252056D01*
X144258Y251995D01*
X145094Y251159D01*
X145155Y251134D01*
X145192Y251079D01*
X146175Y250422D01*
X146240Y250409D01*
X146287Y250362D01*
X147379Y249909D01*
X147445D01*
X147501Y249873D01*
X148660Y249642D01*
X148725Y249655D01*
X148787Y249629D01*
X202077D01*
X202196Y249679D01*
X202325D01*
X202693Y249831D01*
X202784Y249922D01*
X202903Y249972D01*
X203185Y250253D01*
X203234Y250373D01*
X203325Y250464D01*
X203478Y250832D01*
Y250961D01*
X203527Y251080D01*
Y255723D01*
X203951Y255906D01*
X204027Y255906D01*
X204817D01*
X204819Y255897D01*
X204835Y255801D01*
X204846Y255673D01*
X204851Y255501D01*
X204878Y255439D01*
Y252551D01*
X204851Y252491D01*
X204844Y252305D01*
X204838Y252252D01*
X204830Y252203D01*
X204822Y252168D01*
X204816Y252147D01*
X204814Y252145D01*
X204812Y252138D01*
X204801Y252122D01*
X204799Y252113D01*
X204797Y252109D01*
X204796Y252098D01*
X204793Y252084D01*
X204786Y252063D01*
X204493Y251624D01*
X204369Y251000D01*
X204493Y250376D01*
X204847Y249847D01*
X205376Y249493D01*
X206000Y249369D01*
X206624Y249493D01*
X207154Y249847D01*
X207507Y250376D01*
X207631Y251000D01*
X207507Y251624D01*
X207214Y252063D01*
X207207Y252084D01*
X207204Y252098D01*
X207203Y252109D01*
X207201Y252113D01*
X207199Y252122D01*
X207188Y252138D01*
X207186Y252145D01*
X207184Y252147D01*
X207178Y252168D01*
X207170Y252203D01*
X207163Y252244D01*
X207151Y252391D01*
X207149Y252478D01*
X207121Y252542D01*
Y255439D01*
X207149Y255501D01*
X207154Y255673D01*
X207165Y255801D01*
X207181Y255897D01*
X207183Y255906D01*
X208851D01*
X208851Y245149D01*
X205884Y245149D01*
X205425Y244959D01*
X205425Y244959D01*
X205235Y244500D01*
Y243080D01*
X204859Y242681D01*
X204027D01*
X203951Y242681D01*
X203527Y242864D01*
Y247478D01*
X203478Y247597D01*
Y247726D01*
X203325Y248094D01*
X203234Y248185D01*
X203185Y248305D01*
X202903Y248586D01*
X202784Y248635D01*
X202693Y248727D01*
X202325Y248879D01*
X202196D01*
X202077Y248928D01*
X148787D01*
X148725Y248903D01*
X148660Y248916D01*
X147501Y248685D01*
X147445Y248648D01*
X147379D01*
X146287Y248196D01*
X146240Y248149D01*
X146175Y248136D01*
X145192Y247479D01*
X145155Y247424D01*
X145094Y247399D01*
X144258Y246563D01*
X144232Y246501D01*
X144177Y246464D01*
X143520Y245482D01*
X143508Y245417D01*
X143461Y245370D01*
X143008Y244278D01*
Y244211D01*
X142971Y244156D01*
X142741Y242997D01*
X142754Y242931D01*
X142728Y242870D01*
Y242279D01*
Y231188D01*
X142754Y231126D01*
X142741Y231061D01*
X142971Y229902D01*
X143008Y229847D01*
Y229780D01*
X143461Y228688D01*
X143508Y228641D01*
X143520Y228576D01*
X144177Y227593D01*
X144232Y227556D01*
X144258Y227495D01*
X145094Y226659D01*
X145155Y226634D01*
X145192Y226578D01*
X146175Y225922D01*
X146240Y225909D01*
X146287Y225862D01*
X147379Y225410D01*
X147445D01*
X147501Y225373D01*
X148660Y225142D01*
X148725Y225155D01*
X148787Y225130D01*
X202077D01*
X202196Y225179D01*
X202325D01*
X202693Y225331D01*
X202784Y225423D01*
X202903Y225472D01*
X203185Y225753D01*
X203234Y225873D01*
X203325Y225964D01*
X203478Y226331D01*
Y226461D01*
X203527Y226580D01*
Y231756D01*
X203980Y232020D01*
X204084Y231981D01*
X204378Y231736D01*
Y227051D01*
X204351Y226991D01*
X204344Y226805D01*
X204338Y226752D01*
X204330Y226704D01*
X204322Y226668D01*
X204316Y226647D01*
X204314Y226645D01*
X204312Y226638D01*
X204301Y226622D01*
X204299Y226613D01*
X204297Y226609D01*
X204296Y226597D01*
X204293Y226584D01*
X204286Y226563D01*
X203993Y226124D01*
X203869Y225500D01*
X203993Y224876D01*
X204346Y224346D01*
X204876Y223993D01*
X205500Y223869D01*
X206124Y223993D01*
X206653Y224346D01*
X207007Y224876D01*
X207131Y225500D01*
X207007Y226124D01*
X206714Y226563D01*
X206707Y226584D01*
X206704Y226597D01*
X206703Y226609D01*
X206701Y226613D01*
X206699Y226622D01*
X206688Y226638D01*
X206686Y226645D01*
X206684Y226647D01*
X206678Y226668D01*
X206670Y226704D01*
X206663Y226744D01*
X206651Y226891D01*
X206649Y226978D01*
X206622Y227042D01*
Y232091D01*
X208851D01*
Y199500D01*
X208851Y198811D01*
X208876Y198749D01*
X208863Y198684D01*
X209132Y197332D01*
X209169Y197276D01*
Y197210D01*
X209697Y195936D01*
X209744Y195889D01*
X209757Y195823D01*
X210523Y194677D01*
X210578Y194640D01*
X210603Y194579D01*
X211578Y193603D01*
X211640Y193578D01*
X211677Y193523D01*
X212823Y192757D01*
X212889Y192744D01*
X212936Y192697D01*
X214210Y192169D01*
X214276D01*
X214332Y192132D01*
X215684Y191863D01*
X215749Y191876D01*
X215811Y191850D01*
X216500Y191851D01*
X241000D01*
X241689Y191850D01*
X241689Y191851D01*
X260500D01*
X260795Y191850D01*
X260857Y191876D01*
X260922Y191863D01*
X261502Y191978D01*
X261557Y192015D01*
X261624D01*
X262170Y192241D01*
X262217Y192288D01*
X262282Y192301D01*
X262773Y192630D01*
X262810Y192685D01*
X262872Y192710D01*
X263289Y193128D01*
X263315Y193190D01*
X263370Y193227D01*
X263699Y193718D01*
X263712Y193783D01*
X263759Y193830D01*
X263985Y194376D01*
Y194443D01*
X264022Y194498D01*
X264137Y195078D01*
X264124Y195143D01*
X264149Y195204D01*
X264149Y195500D01*
X264149Y195500D01*
Y209631D01*
X264132Y209672D01*
X264144Y209716D01*
X264110Y209976D01*
X264087Y210015D01*
X264093Y210059D01*
X264025Y210312D01*
X263998Y210348D01*
Y210393D01*
X263898Y210635D01*
X263866Y210667D01*
X263860Y210711D01*
X263794Y210825D01*
X263725Y210878D01*
X263691Y210959D01*
X263535Y211024D01*
X263400Y211127D01*
X263313Y211116D01*
X263232Y211149D01*
X261955D01*
X261736Y211265D01*
X261507Y211517D01*
Y224386D01*
X296240Y259118D01*
X296301Y259141D01*
X296667Y259480D01*
X296804Y259590D01*
X296923Y259672D01*
X296951Y259688D01*
X297285D01*
X297320Y259677D01*
X297340Y259688D01*
X301351D01*
X301931Y259804D01*
X302423Y260132D01*
X302751Y260623D01*
X302866Y261203D01*
X302751Y261783D01*
X302423Y262274D01*
Y262691D01*
X302751Y263182D01*
X302866Y263762D01*
X302751Y264342D01*
X302508Y264706D01*
X302455Y265042D01*
X302508Y265378D01*
X302751Y265741D01*
X302866Y266321D01*
X302751Y266901D01*
X302423Y267392D01*
Y267809D01*
X302751Y268301D01*
X302866Y268880D01*
X302751Y269460D01*
X302508Y269824D01*
X302455Y270160D01*
X302508Y270496D01*
X302751Y270860D01*
X302866Y271439D01*
X302751Y272019D01*
X302423Y272511D01*
Y272927D01*
X302751Y273419D01*
X302866Y273998D01*
X302751Y274578D01*
X302508Y274942D01*
X302455Y275278D01*
X302508Y275614D01*
X302751Y275978D01*
X302866Y276557D01*
X302751Y277137D01*
X302423Y277629D01*
Y278045D01*
X302751Y278537D01*
X302866Y279117D01*
X302751Y279696D01*
X302508Y280060D01*
X302455Y280396D01*
X302508Y280732D01*
X302751Y281096D01*
X302866Y281676D01*
X302751Y282255D01*
X302423Y282747D01*
Y283163D01*
X302751Y283655D01*
X302866Y284235D01*
X302751Y284814D01*
X302423Y285306D01*
X301931Y285634D01*
X301351Y285750D01*
X296627D01*
X296328Y285690D01*
X296286Y285707D01*
X296168Y285658D01*
X296047Y285634D01*
X296036Y285627D01*
X295951Y285614D01*
X295674Y285447D01*
X295563Y285392D01*
X295448Y285341D01*
X295335Y285300D01*
X295224Y285266D01*
X295116Y285241D01*
X295010Y285223D01*
X294905Y285212D01*
X294779Y285208D01*
X294718Y285181D01*
X262405D01*
X251984Y295602D01*
X251621Y295845D01*
X251320Y295905D01*
X251153Y296153D01*
X250624Y296507D01*
X250000Y296631D01*
X249376Y296507D01*
X249149Y296356D01*
X248936Y296393D01*
X248807Y296439D01*
X248637Y296570D01*
X248464Y297439D01*
X248427Y297495D01*
Y297561D01*
X248088Y298380D01*
X248041Y298427D01*
X248028Y298492D01*
X247535Y299229D01*
X247480Y299266D01*
X247455Y299328D01*
X246828Y299955D01*
X246766Y299980D01*
X246729Y300035D01*
X245992Y300528D01*
X245927Y300541D01*
X245880Y300588D01*
X245061Y300927D01*
X244994Y300927D01*
X244939Y300964D01*
X244097Y301131D01*
X244036Y301119D01*
X243978Y301144D01*
X243542Y301149D01*
X243538Y301147D01*
X243534Y301149D01*
X243500Y301149D01*
X243499Y301149D01*
X214000Y301149D01*
X213557Y301150D01*
D02*
G37*
G36*
X332118Y301000D02*
X329650D01*
Y298532D01*
X332118D01*
Y301000D01*
D02*
G37*
G36*
X329650Y295969D02*
Y293500D01*
X332118D01*
Y295969D01*
X329650D01*
D02*
G37*
G36*
X332118Y292500D02*
X329650D01*
Y290032D01*
X332118D01*
Y292500D01*
D02*
G37*
G36*
X316350Y311127D02*
X316350Y311127D01*
X300000D01*
X299191Y311020D01*
X298437Y310708D01*
X297789Y310211D01*
X297292Y309563D01*
X296980Y308809D01*
X296873Y308000D01*
X296980Y307191D01*
X297292Y306437D01*
X297789Y305789D01*
X298437Y305292D01*
X299191Y304980D01*
X300000Y304873D01*
X315055D01*
X316870Y303058D01*
X316891Y303005D01*
X319530Y300273D01*
X319724Y300048D01*
Y293000D01*
X319724Y293000D01*
X319724Y293000D01*
Y286904D01*
X319695Y286415D01*
X319692Y286063D01*
X319709Y285938D01*
X319758Y285562D01*
X319375Y285306D01*
X319046Y284814D01*
X318931Y284235D01*
X319046Y283655D01*
X319375Y283163D01*
Y282747D01*
X319046Y282255D01*
X318931Y281676D01*
X319046Y281096D01*
X319289Y280732D01*
X319342Y280396D01*
X319289Y280060D01*
X319046Y279696D01*
X318931Y279117D01*
X319046Y278537D01*
X319375Y278045D01*
Y277629D01*
X319046Y277137D01*
X318931Y276557D01*
X319046Y275978D01*
X319289Y275614D01*
X319342Y275278D01*
X319289Y274942D01*
X319046Y274578D01*
X318931Y273998D01*
X319046Y273419D01*
X319375Y272927D01*
Y272511D01*
X319046Y272019D01*
X318931Y271439D01*
X319046Y270860D01*
X319289Y270496D01*
X319342Y270160D01*
X319289Y269824D01*
X319046Y269460D01*
X318931Y268880D01*
X319046Y268301D01*
X319375Y267809D01*
Y267392D01*
X319046Y266901D01*
X318931Y266321D01*
X319046Y265741D01*
X319345Y265295D01*
X319086Y265122D01*
X318670Y264498D01*
X318623Y264262D01*
X322808D01*
Y263262D01*
X318623D01*
X318670Y263026D01*
X319048Y262459D01*
X319140Y261979D01*
X319098Y261861D01*
X319046Y261783D01*
X319043Y261768D01*
X318992Y261697D01*
X318969Y261605D01*
X318946Y261534D01*
X318915Y261458D01*
X318875Y261377D01*
X318826Y261291D01*
X318766Y261200D01*
X318700Y261110D01*
X318518Y260896D01*
X318412Y260785D01*
X318387Y260721D01*
X282707Y225041D01*
X282464Y224677D01*
X282378Y224248D01*
X282379Y224248D01*
Y218504D01*
X282351Y218442D01*
X282346Y218271D01*
X282335Y218145D01*
X282320Y218050D01*
X282317Y218037D01*
X281900D01*
Y217616D01*
X281826Y217437D01*
Y214500D01*
X281500D01*
Y211553D01*
X281227Y211370D01*
X281190Y211315D01*
X281128Y211289D01*
X280711Y210872D01*
X280685Y210810D01*
X280630Y210773D01*
X280301Y210282D01*
X280289Y210217D01*
X280241Y210170D01*
X280015Y209624D01*
Y209557D01*
X279978Y209502D01*
X279863Y208922D01*
X279876Y208857D01*
X279851Y208795D01*
X279851Y195500D01*
X279871Y195452D01*
X279858Y195401D01*
X279907Y195081D01*
X279942Y195024D01*
X279939Y194958D01*
X280055Y194639D01*
Y194307D01*
X280199D01*
X280205Y194300D01*
X280216Y194234D01*
X280552Y193681D01*
X280605Y193641D01*
X280628Y193579D01*
X281065Y193101D01*
X281126Y193073D01*
X281160Y193016D01*
X281683Y192633D01*
X281747Y192617D01*
X281792Y192568D01*
X282379Y192295D01*
X282446Y192292D01*
X282499Y192252D01*
X283128Y192098D01*
X283194Y192108D01*
X283254Y192080D01*
X283729Y192060D01*
X283770Y192075D01*
X283812Y192061D01*
X284267Y192100D01*
X284900Y192079D01*
X286220Y191905D01*
X287496Y191563D01*
X288717Y191058D01*
X289861Y190397D01*
X290909Y189593D01*
X291843Y188659D01*
X292647Y187611D01*
X293308Y186467D01*
X293813Y185246D01*
X294155Y183970D01*
X294329Y182650D01*
X294351Y181989D01*
X294351Y170000D01*
Y169311D01*
X294376Y169249D01*
X294363Y169184D01*
X294632Y167832D01*
X294669Y167776D01*
Y167710D01*
X295197Y166436D01*
X295244Y166389D01*
X295257Y166323D01*
X296023Y165177D01*
X296078Y165140D01*
X296104Y165078D01*
X297078Y164103D01*
X297140Y164078D01*
X297177Y164023D01*
X298323Y163257D01*
X298389Y163244D01*
X298436Y163197D01*
X299710Y162669D01*
X299776D01*
X299832Y162632D01*
X301184Y162363D01*
X301249Y162376D01*
X301311Y162351D01*
X303239D01*
X303300Y162376D01*
X303365Y162363D01*
X304814Y162651D01*
X304870Y162688D01*
X304936D01*
X306301Y163254D01*
X306348Y163301D01*
X306413Y163314D01*
X307642Y164134D01*
X307679Y164190D01*
X307740Y164215D01*
X308785Y165260D01*
X308810Y165321D01*
X308866Y165358D01*
X309686Y166587D01*
X309699Y166652D01*
X309746Y166699D01*
X310312Y168064D01*
Y168130D01*
X310349Y168186D01*
X310637Y169635D01*
X310624Y169700D01*
X310649Y169761D01*
Y170500D01*
X310649Y199462D01*
X310727Y200130D01*
X310715Y200173D01*
X310731Y200214D01*
X310710Y201633D01*
X310692Y201674D01*
X310703Y201718D01*
X310496Y203121D01*
X310473Y203160D01*
X310479Y203204D01*
X310091Y204569D01*
X310063Y204604D01*
X310062Y204649D01*
X309500Y205951D01*
X309467Y205982D01*
X309461Y206027D01*
X308733Y207245D01*
X308697Y207271D01*
X308685Y207314D01*
X307804Y208427D01*
X307765Y208449D01*
X307747Y208490D01*
X306729Y209478D01*
X306687Y209494D01*
X306664Y209533D01*
X305526Y210379D01*
X305482Y210390D01*
X305454Y210425D01*
X304215Y211116D01*
X304171Y211121D01*
X304138Y211152D01*
X302820Y211675D01*
X302775Y211675D01*
X302739Y211701D01*
X301363Y212048D01*
X301319Y212041D01*
X301280Y212063D01*
X300575Y212145D01*
X300537Y212134D01*
X300500Y212149D01*
X285500Y212149D01*
Y214500D01*
X285145D01*
Y217437D01*
X285100Y217545D01*
Y218037D01*
X284683D01*
X284680Y218050D01*
X284665Y218145D01*
X284654Y218271D01*
X284649Y218442D01*
X284622Y218504D01*
Y223783D01*
X319979Y259141D01*
X320044Y259167D01*
X320232Y259348D01*
X320393Y259491D01*
X320534Y259603D01*
X320650Y259683D01*
X320658Y259688D01*
X320977D01*
X321013Y259676D01*
X321039Y259688D01*
X325170D01*
X325750Y259804D01*
X326242Y260132D01*
X326570Y260623D01*
X326685Y261203D01*
X326570Y261783D01*
X326271Y262230D01*
X326530Y262403D01*
X326947Y263026D01*
X326969Y263140D01*
X327448Y263285D01*
X333094Y257639D01*
Y241284D01*
X333094Y241284D01*
X333179Y240855D01*
X333422Y240491D01*
X339505Y234409D01*
X339525Y234351D01*
X339621Y234242D01*
X339688Y234146D01*
X339751Y234028D01*
X339810Y233887D01*
X339863Y233721D01*
X339909Y233531D01*
X339943Y233325D01*
X339985Y232807D01*
X339988Y232517D01*
X340020Y232444D01*
X340114Y231727D01*
X340412Y231006D01*
X340887Y230387D01*
X341506Y229912D01*
X342227Y229614D01*
X343000Y229512D01*
X343773Y229614D01*
X344494Y229912D01*
X345113Y230387D01*
X345587Y231006D01*
X345886Y231727D01*
X345988Y232500D01*
X345886Y233273D01*
X345587Y233994D01*
X345113Y234613D01*
X344494Y235087D01*
X343773Y235386D01*
X343070Y235479D01*
X342998Y235511D01*
X342415Y235530D01*
X342184Y235555D01*
X341969Y235591D01*
X341779Y235637D01*
X341613Y235690D01*
X341472Y235749D01*
X341354Y235812D01*
X341258Y235879D01*
X341148Y235975D01*
X341091Y235995D01*
X335337Y241749D01*
Y247870D01*
X335837Y248077D01*
X339505Y244409D01*
X339525Y244352D01*
X339621Y244242D01*
X339688Y244146D01*
X339751Y244028D01*
X339810Y243887D01*
X339863Y243721D01*
X339909Y243531D01*
X339943Y243325D01*
X339985Y242807D01*
X339988Y242517D01*
X340020Y242444D01*
X340114Y241727D01*
X340412Y241006D01*
X340887Y240387D01*
X341506Y239913D01*
X342227Y239614D01*
X343000Y239512D01*
X343773Y239614D01*
X344494Y239913D01*
X345113Y240387D01*
X345587Y241006D01*
X345886Y241727D01*
X345988Y242500D01*
X345886Y243273D01*
X345587Y243994D01*
X345113Y244613D01*
X344494Y245088D01*
X343773Y245386D01*
X343070Y245479D01*
X342998Y245511D01*
X342415Y245530D01*
X342184Y245555D01*
X341969Y245591D01*
X341779Y245637D01*
X341613Y245690D01*
X341472Y245749D01*
X341354Y245812D01*
X341258Y245879D01*
X341148Y245975D01*
X341091Y245995D01*
X337337Y249749D01*
Y258345D01*
X337837Y258553D01*
X341113Y255277D01*
X341104Y255208D01*
X341080Y255080D01*
X341050Y254968D01*
X341017Y254872D01*
X340981Y254791D01*
X340944Y254725D01*
X340905Y254671D01*
X340841Y254599D01*
X340814Y254520D01*
X340750Y254467D01*
X340747Y254430D01*
X340412Y253994D01*
X340114Y253273D01*
X340012Y252500D01*
X340114Y251727D01*
X340412Y251006D01*
X340887Y250387D01*
X341506Y249913D01*
X342227Y249614D01*
X343000Y249512D01*
X343773Y249614D01*
X344494Y249913D01*
X345113Y250387D01*
X345587Y251006D01*
X345886Y251727D01*
X345988Y252500D01*
X345886Y253273D01*
X345587Y253994D01*
X345113Y254613D01*
X344494Y255087D01*
X343773Y255386D01*
X343717Y255393D01*
X343709Y255403D01*
X343627Y255410D01*
X343561Y255458D01*
X343486Y255476D01*
X343468Y255483D01*
X343468Y255483D01*
X343460Y255502D01*
X343450Y255542D01*
X343441Y255604D01*
X343436Y255716D01*
X343379Y255840D01*
X343323Y256118D01*
X343080Y256482D01*
X343080Y256482D01*
X338891Y260670D01*
X339015Y261241D01*
X339233Y261352D01*
X339379Y261343D01*
X339494Y261321D01*
X339622Y261283D01*
X339764Y261225D01*
X339919Y261145D01*
X340085Y261043D01*
X340255Y260922D01*
X340651Y260585D01*
X340859Y260382D01*
X340932Y260353D01*
X341506Y259912D01*
X342227Y259614D01*
X343000Y259512D01*
X343773Y259614D01*
X344494Y259912D01*
X345113Y260387D01*
X345587Y261006D01*
X345886Y261727D01*
X345988Y262500D01*
X345886Y263273D01*
X345587Y263994D01*
X345113Y264613D01*
X344494Y265088D01*
X343773Y265386D01*
X343000Y265488D01*
X342227Y265386D01*
X341506Y265088D01*
X340943Y264655D01*
X340869Y264628D01*
X340443Y264229D01*
X340262Y264083D01*
X340085Y263957D01*
X339919Y263855D01*
X339764Y263775D01*
X339622Y263717D01*
X339494Y263679D01*
X339379Y263657D01*
X339233Y263648D01*
X339179Y263622D01*
X338769D01*
X327597Y274793D01*
X327462Y274883D01*
X327368Y275447D01*
X327476Y275585D01*
X339263D01*
X339318Y275558D01*
X339456Y275550D01*
X339573Y275530D01*
X339710Y275492D01*
X339865Y275435D01*
X340039Y275358D01*
X340228Y275259D01*
X340427Y275141D01*
X340888Y274825D01*
X341136Y274635D01*
X341260Y274601D01*
X341506Y274412D01*
X342227Y274114D01*
X343000Y274012D01*
X343773Y274114D01*
X344494Y274412D01*
X345113Y274887D01*
X345587Y275506D01*
X345886Y276227D01*
X345988Y277000D01*
X345886Y277773D01*
X345587Y278494D01*
X345113Y279113D01*
X344494Y279588D01*
X343773Y279886D01*
X343000Y279988D01*
X342227Y279886D01*
X341506Y279588D01*
X340887Y279113D01*
X340722Y278897D01*
X340614Y278838D01*
X340439Y278620D01*
X340278Y278440D01*
X340122Y278288D01*
X339972Y278161D01*
X339829Y278059D01*
X339695Y277981D01*
X339569Y277924D01*
X339451Y277886D01*
X339338Y277864D01*
X339188Y277855D01*
X339168Y277845D01*
X339147Y277851D01*
X339107Y277828D01*
X336068D01*
X335914Y278314D01*
X335914Y278328D01*
X341091Y283505D01*
X341148Y283525D01*
X341258Y283621D01*
X341354Y283688D01*
X341472Y283751D01*
X341613Y283810D01*
X341779Y283863D01*
X341969Y283909D01*
X342175Y283943D01*
X342693Y283985D01*
X342983Y283988D01*
X343056Y284020D01*
X343773Y284114D01*
X344494Y284413D01*
X345113Y284887D01*
X345587Y285506D01*
X345886Y286227D01*
X345988Y287000D01*
X345886Y287773D01*
X345587Y288494D01*
X345113Y289113D01*
X344494Y289587D01*
X343773Y289886D01*
X343000Y289988D01*
X342227Y289886D01*
X341506Y289587D01*
X340887Y289113D01*
X340412Y288494D01*
X340114Y287773D01*
X340021Y287070D01*
X339989Y286998D01*
X339970Y286415D01*
X339945Y286184D01*
X339909Y285969D01*
X339863Y285779D01*
X339810Y285613D01*
X339751Y285472D01*
X339688Y285354D01*
X339621Y285258D01*
X339525Y285148D01*
X339505Y285091D01*
X334653Y280240D01*
X328406D01*
X328254Y280740D01*
X328470Y280884D01*
X341091Y293505D01*
X341148Y293525D01*
X341258Y293621D01*
X341354Y293688D01*
X341472Y293751D01*
X341613Y293810D01*
X341779Y293863D01*
X341969Y293909D01*
X342175Y293943D01*
X342693Y293985D01*
X342983Y293988D01*
X343056Y294020D01*
X343773Y294114D01*
X344494Y294412D01*
X345113Y294887D01*
X345587Y295506D01*
X345886Y296227D01*
X345988Y297000D01*
X345886Y297773D01*
X345587Y298494D01*
X345113Y299113D01*
X344494Y299587D01*
X343773Y299886D01*
X343000Y299988D01*
X342227Y299886D01*
X341506Y299587D01*
X340887Y299113D01*
X340412Y298494D01*
X340114Y297773D01*
X340021Y297070D01*
X339989Y296998D01*
X339970Y296415D01*
X339945Y296184D01*
X339909Y295969D01*
X339863Y295779D01*
X339810Y295613D01*
X339751Y295472D01*
X339688Y295354D01*
X339621Y295258D01*
X339525Y295148D01*
X339505Y295091D01*
X327213Y282799D01*
X326962D01*
X326898Y282826D01*
X326743Y282829D01*
X326591Y282841D01*
X326398Y283175D01*
X326376Y283289D01*
X326381Y283372D01*
X326570Y283655D01*
X326685Y284235D01*
X326570Y284814D01*
X326242Y285306D01*
X326213Y285325D01*
X325900Y285716D01*
X325946Y286063D01*
X325939Y286112D01*
X325944Y286158D01*
X325948Y286200D01*
X325948Y286201D01*
X325990Y286623D01*
X325988Y286640D01*
X325977Y287136D01*
Y289616D01*
X326181Y290032D01*
X326477Y290032D01*
X328650D01*
Y293000D01*
Y295969D01*
X326477D01*
X326181Y295969D01*
X325977Y296384D01*
Y298116D01*
X326181Y298532D01*
X326477Y298532D01*
X328650D01*
Y301500D01*
Y304468D01*
X326181D01*
Y302866D01*
X325681Y302767D01*
X325558Y303063D01*
X325419Y303245D01*
Y303366D01*
X325456Y303456D01*
X325450Y303473D01*
X325455Y303489D01*
X325419Y303566D01*
Y304068D01*
X325098D01*
X321329Y307474D01*
X321281Y307491D01*
X318561Y310211D01*
X317914Y310708D01*
X317160Y311020D01*
X316755Y311073D01*
X316350Y311127D01*
D02*
G37*
G36*
X317804Y281987D02*
X311399D01*
Y273219D01*
X317804D01*
Y281987D01*
D02*
G37*
G36*
X310399D02*
X303993D01*
Y273219D01*
X310399D01*
Y281987D01*
D02*
G37*
G36*
X317804Y272219D02*
X311399D01*
Y263451D01*
X317804D01*
Y272219D01*
D02*
G37*
G36*
X310399D02*
X303993D01*
Y263451D01*
X310399D01*
Y272219D01*
D02*
G37*
G36*
X282500Y176073D02*
X281187Y175900D01*
X279964Y175393D01*
X278913Y174587D01*
X278107Y173536D01*
X277600Y172313D01*
X277428Y171000D01*
X277600Y169687D01*
X278107Y168464D01*
X278913Y167413D01*
X279964Y166607D01*
X281187Y166100D01*
X282500Y165928D01*
X283813Y166100D01*
X285036Y166607D01*
X286087Y167413D01*
X286893Y168464D01*
X287400Y169687D01*
X287573Y171000D01*
X287400Y172313D01*
X286893Y173536D01*
X286087Y174587D01*
X285036Y175393D01*
X283813Y175900D01*
X282500Y176073D01*
D02*
G37*
G36*
X382000Y174515D02*
X380339Y174351D01*
X378741Y173867D01*
X377269Y173080D01*
X375979Y172021D01*
X374920Y170731D01*
X374133Y169258D01*
X373649Y167661D01*
X373485Y166000D01*
X373649Y164339D01*
X374133Y162741D01*
X374920Y161269D01*
X375979Y159979D01*
X377269Y158920D01*
X378741Y158133D01*
X380339Y157649D01*
X382000Y157485D01*
X383661Y157649D01*
X385259Y158133D01*
X386731Y158920D01*
X388021Y159979D01*
X389080Y161269D01*
X389867Y162741D01*
X390351Y164339D01*
X390515Y166000D01*
X390351Y167661D01*
X389867Y169258D01*
X389080Y170731D01*
X388021Y172021D01*
X386731Y173080D01*
X385259Y173867D01*
X383661Y174351D01*
X382000Y174515D01*
D02*
G37*
G36*
X144000D02*
X142339Y174351D01*
X140742Y173867D01*
X139269Y173080D01*
X137979Y172021D01*
X136920Y170731D01*
X136133Y169258D01*
X135649Y167661D01*
X135485Y166000D01*
X135649Y164339D01*
X136133Y162741D01*
X136920Y161269D01*
X137979Y159979D01*
X139269Y158920D01*
X140742Y158133D01*
X142339Y157649D01*
X144000Y157485D01*
X145661Y157649D01*
X147258Y158133D01*
X148731Y158920D01*
X150021Y159979D01*
X151080Y161269D01*
X151867Y162741D01*
X152351Y164339D01*
X152515Y166000D01*
X152351Y167661D01*
X151867Y169258D01*
X151080Y170731D01*
X150021Y172021D01*
X148731Y173080D01*
X147258Y173867D01*
X145661Y174351D01*
X144000Y174515D01*
D02*
G37*
%LPD*%
G36*
X250662Y289743D02*
X250628Y289693D01*
X250598Y289636D01*
X250572Y289571D01*
X250550Y289500D01*
X250532Y289421D01*
X250518Y289335D01*
X250508Y289242D01*
X250500Y289034D01*
X249500D01*
X249498Y289142D01*
X249482Y289335D01*
X249468Y289421D01*
X249450Y289500D01*
X249428Y289571D01*
X249402Y289636D01*
X249372Y289693D01*
X249338Y289743D01*
X249300Y289786D01*
X250700D01*
X250662Y289743D01*
D02*
G37*
G36*
X296286Y283412D02*
X296231Y283440D01*
X296155Y283465D01*
X296057Y283487D01*
X295938Y283506D01*
X295635Y283536D01*
X295019Y283558D01*
X294771Y283559D01*
X294801Y284559D01*
X294949Y284564D01*
X295097Y284579D01*
X295245Y284604D01*
X295393Y284639D01*
X295542Y284684D01*
X295690Y284739D01*
X295839Y284803D01*
X295988Y284878D01*
X296286Y285058D01*
Y283412D01*
D02*
G37*
G36*
X249376Y293493D02*
X250000Y293369D01*
X250624Y293493D01*
X250802Y293612D01*
X261148Y283266D01*
X261148Y283266D01*
X261364Y283121D01*
X261212Y282622D01*
X259000D01*
X259000Y282622D01*
X258571Y282536D01*
X258207Y282293D01*
X258096Y282182D01*
X258089Y282181D01*
X257725Y281938D01*
X257374Y282259D01*
X254407Y285226D01*
X253690Y284509D01*
X253449Y284681D01*
X253367Y284758D01*
X253308Y284781D01*
X253298Y284788D01*
X251121Y286965D01*
Y288949D01*
X251149Y289009D01*
X251156Y289195D01*
X251162Y289248D01*
X251170Y289297D01*
X251178Y289332D01*
X251184Y289353D01*
X251186Y289355D01*
X251188Y289362D01*
X251199Y289378D01*
X251201Y289387D01*
X251203Y289391D01*
X251204Y289403D01*
X251207Y289416D01*
X251214Y289437D01*
X251507Y289876D01*
X251631Y290500D01*
X251507Y291124D01*
X251153Y291653D01*
X250624Y292007D01*
X250000Y292131D01*
X249376Y292007D01*
X249149Y291856D01*
X248649Y292123D01*
Y293377D01*
X249149Y293644D01*
X249376Y293493D01*
D02*
G37*
G36*
X253059Y284155D02*
X253191Y284044D01*
X253316Y283954D01*
X253434Y283886D01*
X253545Y283839D01*
X253648Y283814D01*
X253744Y283810D01*
X253833Y283827D01*
X253914Y283865D01*
X253989Y283926D01*
X252574Y282511D01*
X252635Y282586D01*
X252673Y282667D01*
X252690Y282756D01*
X252686Y282852D01*
X252661Y282955D01*
X252614Y283066D01*
X252546Y283184D01*
X252456Y283309D01*
X252345Y283441D01*
X252213Y283580D01*
X252920Y284288D01*
X253059Y284155D01*
D02*
G37*
G36*
X296286Y280853D02*
X296231Y280880D01*
X296155Y280906D01*
X296057Y280928D01*
X295938Y280947D01*
X295635Y280976D01*
X295019Y280998D01*
X294771Y281000D01*
X294801Y282000D01*
X294949Y282005D01*
X295097Y282020D01*
X295245Y282045D01*
X295393Y282080D01*
X295542Y282125D01*
X295690Y282179D01*
X295839Y282244D01*
X295988Y282319D01*
X296286Y282499D01*
Y280853D01*
D02*
G37*
G36*
Y278293D02*
X296185Y278355D01*
X296076Y278410D01*
X295959Y278458D01*
X295834Y278500D01*
X295700Y278536D01*
X295559Y278565D01*
X295409Y278588D01*
X295085Y278613D01*
X294954Y278616D01*
X294881Y278614D01*
X294782Y278607D01*
X294694Y278594D01*
X294616Y278577D01*
X294548Y278555D01*
X294491Y278528D01*
X294443Y278496D01*
X294406Y278459D01*
X294379Y278417D01*
X294363Y278370D01*
X293688Y279553D01*
X294845Y279616D01*
X294910Y279163D01*
Y279616D01*
X295085Y279620D01*
X295409Y279646D01*
X295559Y279668D01*
X295700Y279697D01*
X295834Y279733D01*
X295959Y279775D01*
X296076Y279823D01*
X296185Y279878D01*
X296286Y279940D01*
Y278293D01*
D02*
G37*
G36*
X292425Y279878D02*
X292236Y279752D01*
X291882Y279223D01*
X291758Y278598D01*
X291876Y278003D01*
X291877Y277916D01*
X291621Y277503D01*
X262451D01*
X262389Y277531D01*
X262111Y277539D01*
X262087Y277598D01*
X262051Y277613D01*
X262032Y277647D01*
X261966Y277666D01*
X261792Y277840D01*
X261731Y277932D01*
X261639Y277994D01*
X259754Y279878D01*
X259961Y280379D01*
X292273D01*
X292425Y279878D01*
D02*
G37*
G36*
X249207Y285707D02*
X251712Y283202D01*
X251719Y283192D01*
X251742Y283133D01*
X251819Y283051D01*
X251991Y282810D01*
X250774Y281593D01*
X254077Y278290D01*
X251596Y275809D01*
X251406D01*
X251343Y275836D01*
X251148Y275841D01*
X251087Y275846D01*
X250963Y275862D01*
X250935Y275867D01*
X250913Y275873D01*
X250913Y275873D01*
X250906Y275877D01*
X250901Y275878D01*
X250884Y275886D01*
X250838Y275888D01*
X250793Y275894D01*
X250624Y276007D01*
X250000Y276131D01*
X249376Y276007D01*
X249149Y275856D01*
X248649Y276123D01*
Y285641D01*
X249149Y285793D01*
X249207Y285707D01*
D02*
G37*
G36*
X296286Y275734D02*
X296231Y275762D01*
X296155Y275787D01*
X296057Y275810D01*
X295938Y275829D01*
X295635Y275858D01*
X295019Y275880D01*
X294771Y275882D01*
X294801Y276882D01*
X294949Y276887D01*
X295096Y276902D01*
X295245Y276927D01*
X295393Y276962D01*
X295542Y277007D01*
X295690Y277061D01*
X295839Y277126D01*
X295988Y277201D01*
X296286Y277381D01*
Y275734D01*
D02*
G37*
G36*
X261589Y277090D02*
X261575Y277047D01*
X261586Y277008D01*
X261623Y276975D01*
X261685Y276946D01*
X261772Y276923D01*
X261884Y276905D01*
X262021Y276892D01*
X262370Y276882D01*
X261370Y275882D01*
X261175Y275877D01*
X260990Y275862D01*
X260815Y275837D01*
X260650Y275802D01*
X260495Y275757D01*
X260350Y275702D01*
X260215Y275637D01*
X260090Y275562D01*
X259975Y275477D01*
X259870Y275382D01*
X261628Y277139D01*
X261589Y277090D01*
D02*
G37*
G36*
X202567Y297348D02*
X202848Y297066D01*
X203000Y296699D01*
Y296500D01*
Y276000D01*
Y275801D01*
X202848Y275433D01*
X202567Y275152D01*
X202199Y275000D01*
X148909D01*
X147750Y275231D01*
X146658Y275683D01*
X145675Y276340D01*
X144840Y277175D01*
X144183Y278158D01*
X143731Y279250D01*
X143500Y280409D01*
Y281000D01*
Y291500D01*
Y292091D01*
X143731Y293250D01*
X144183Y294342D01*
X144840Y295325D01*
X145675Y296161D01*
X146658Y296817D01*
X147750Y297269D01*
X148909Y297500D01*
X202199D01*
X202567Y297348D01*
D02*
G37*
G36*
X250613Y275296D02*
X250663Y275273D01*
X250720Y275253D01*
X250784Y275235D01*
X250856Y275220D01*
X251022Y275199D01*
X251116Y275192D01*
X251327Y275187D01*
X251550Y274187D01*
X251442Y274184D01*
X251251Y274165D01*
X251168Y274148D01*
X251092Y274127D01*
X251024Y274100D01*
X250964Y274069D01*
X250912Y274033D01*
X250869Y273992D01*
X250832Y273946D01*
X250571Y275321D01*
X250613Y275296D01*
D02*
G37*
G36*
X258861Y273507D02*
X260226Y274872D01*
X260306Y274900D01*
X260387Y274974D01*
X260451Y275021D01*
X260524Y275065D01*
X260607Y275105D01*
X260701Y275140D01*
X260809Y275172D01*
X260929Y275197D01*
X261063Y275216D01*
X261210Y275228D01*
X261387Y275233D01*
X261449Y275260D01*
X272140D01*
X272292Y274760D01*
X272076Y274616D01*
X272076Y274616D01*
X271104Y273644D01*
X271040Y273620D01*
X270917Y273502D01*
X270820Y273422D01*
X270743Y273366D01*
X270728Y273358D01*
X269727Y274359D01*
X266424Y271056D01*
X265687Y271793D01*
X265323Y272036D01*
X264894Y272122D01*
X264894Y272122D01*
X251551D01*
X251491Y272149D01*
X251305Y272156D01*
X251252Y272162D01*
X251203Y272170D01*
X251168Y272178D01*
X251147Y272184D01*
X251145Y272186D01*
X251138Y272188D01*
X251122Y272199D01*
X251113Y272201D01*
X251109Y272203D01*
X251097Y272204D01*
X251084Y272207D01*
X251063Y272214D01*
X250652Y272489D01*
X250624Y272702D01*
Y272798D01*
X250652Y273011D01*
X251153Y273346D01*
X251251Y273492D01*
X251266Y273494D01*
X251273Y273497D01*
X251284Y273500D01*
X251298Y273510D01*
X251300Y273511D01*
X251322Y273517D01*
X251348Y273522D01*
X251482Y273536D01*
X251564Y273538D01*
X251625Y273565D01*
X251691Y273553D01*
X251709Y273565D01*
X252060D01*
X252060Y273565D01*
X252489Y273651D01*
X252853Y273894D01*
X255663Y276704D01*
X258861Y273507D01*
D02*
G37*
G36*
X296286Y273175D02*
X296231Y273203D01*
X296155Y273228D01*
X296057Y273251D01*
X295938Y273270D01*
X295635Y273299D01*
X295019Y273321D01*
X294771Y273323D01*
X294801Y274323D01*
X294949Y274328D01*
X295097Y274343D01*
X295245Y274368D01*
X295393Y274403D01*
X295542Y274447D01*
X295690Y274502D01*
X295839Y274567D01*
X295988Y274642D01*
X296286Y274821D01*
Y273175D01*
D02*
G37*
G36*
X272194Y272441D02*
X272063Y272303D01*
X271954Y272173D01*
X271865Y272049D01*
X271798Y271932D01*
X271752Y271823D01*
X271727Y271720D01*
X271724Y271624D01*
X271742Y271536D01*
X271780Y271455D01*
X271841Y271381D01*
X270426Y272795D01*
X270501Y272735D01*
X270582Y272696D01*
X270670Y272678D01*
X270766Y272682D01*
X270868Y272706D01*
X270978Y272752D01*
X271094Y272819D01*
X271218Y272908D01*
X271349Y273018D01*
X271487Y273148D01*
X272194Y272441D01*
D02*
G37*
G36*
X207002Y271858D02*
X207018Y271665D01*
X207032Y271579D01*
X207050Y271500D01*
X207072Y271428D01*
X207098Y271364D01*
X207128Y271307D01*
X207162Y271257D01*
X207200Y271214D01*
X205800D01*
X205838Y271257D01*
X205872Y271307D01*
X205902Y271364D01*
X205928Y271428D01*
X205950Y271500D01*
X205968Y271579D01*
X205982Y271665D01*
X205992Y271758D01*
X206000Y271966D01*
X207000D01*
X207002Y271858D01*
D02*
G37*
G36*
X296286Y270616D02*
X296231Y270644D01*
X296155Y270669D01*
X296057Y270691D01*
X295938Y270711D01*
X295635Y270740D01*
X295019Y270762D01*
X294771Y270764D01*
X294801Y271764D01*
X294949Y271769D01*
X295097Y271784D01*
X295245Y271809D01*
X295393Y271844D01*
X295542Y271888D01*
X295690Y271943D01*
X295839Y272008D01*
X295988Y272083D01*
X296286Y272263D01*
Y270616D01*
D02*
G37*
G36*
X250757Y271662D02*
X250807Y271628D01*
X250864Y271598D01*
X250928Y271572D01*
X251000Y271550D01*
X251079Y271532D01*
X251165Y271518D01*
X251258Y271508D01*
X251466Y271500D01*
Y270500D01*
X251358Y270498D01*
X251165Y270482D01*
X251079Y270468D01*
X251000Y270450D01*
X250928Y270428D01*
X250864Y270402D01*
X250807Y270372D01*
X250757Y270338D01*
X250714Y270300D01*
Y271700D01*
X250757Y271662D01*
D02*
G37*
G36*
X276421Y268214D02*
X276290Y268076D01*
X276181Y267945D01*
X276092Y267822D01*
X276025Y267705D01*
X275979Y267595D01*
X275955Y267493D01*
X275951Y267397D01*
X275969Y267309D01*
X276008Y267228D01*
X276068Y267154D01*
X274654Y268568D01*
X274728Y268508D01*
X274809Y268469D01*
X274897Y268451D01*
X274993Y268455D01*
X275095Y268479D01*
X275205Y268525D01*
X275322Y268592D01*
X275445Y268681D01*
X275576Y268790D01*
X275714Y268921D01*
X276421Y268214D01*
D02*
G37*
G36*
X296286Y268057D02*
X296231Y268085D01*
X296155Y268110D01*
X296057Y268132D01*
X295938Y268152D01*
X295635Y268181D01*
X295019Y268203D01*
X294771Y268205D01*
X294801Y269205D01*
X294949Y269210D01*
X295097Y269225D01*
X295245Y269250D01*
X295393Y269285D01*
X295542Y269329D01*
X295690Y269384D01*
X295839Y269449D01*
X295988Y269524D01*
X296286Y269703D01*
Y268057D01*
D02*
G37*
G36*
X264838Y269470D02*
X263166Y267798D01*
X263134Y267791D01*
X263106Y267744D01*
X263055Y267724D01*
X263030Y267662D01*
X262862Y267495D01*
X262831Y267486D01*
X262693Y267462D01*
X262261Y267427D01*
X261995Y267422D01*
X261931Y267394D01*
X251962D01*
X251919Y267438D01*
X251895Y267501D01*
X251760Y267643D01*
X251719Y267689D01*
X251643Y267788D01*
X251626Y267813D01*
X251615Y267833D01*
X251615Y267833D01*
X251613Y267841D01*
X251610Y267845D01*
X251603Y267862D01*
X251572Y267896D01*
X251546Y267931D01*
X251507Y268124D01*
X251153Y268653D01*
X250652Y268989D01*
X250624Y269202D01*
Y269298D01*
X250652Y269511D01*
X251063Y269786D01*
X251084Y269793D01*
X251097Y269796D01*
X251109Y269797D01*
X251113Y269799D01*
X251122Y269801D01*
X251138Y269812D01*
X251145Y269814D01*
X251147Y269816D01*
X251168Y269822D01*
X251203Y269830D01*
X251244Y269837D01*
X251391Y269849D01*
X251478Y269851D01*
X251542Y269879D01*
X264430D01*
X264838Y269470D01*
D02*
G37*
G36*
X284628Y269642D02*
X284412Y269498D01*
X284412Y269498D01*
X282081Y267167D01*
X282017Y267142D01*
X281894Y267025D01*
X281798Y266945D01*
X281720Y266889D01*
X281706Y266881D01*
X280727Y267860D01*
X277373Y264506D01*
X280953Y260926D01*
X279574Y259547D01*
X275994Y263127D01*
X275418Y262551D01*
X275123Y262595D01*
X274931Y262680D01*
X274802Y263170D01*
X277859Y266227D01*
X276631Y267456D01*
X276639Y267470D01*
X276695Y267547D01*
X276775Y267644D01*
X276892Y267767D01*
X276917Y267831D01*
X279228Y270142D01*
X284476D01*
X284628Y269642D01*
D02*
G37*
G36*
X283171Y265964D02*
X283040Y265826D01*
X282931Y265695D01*
X282842Y265572D01*
X282775Y265455D01*
X282729Y265345D01*
X282704Y265243D01*
X282701Y265147D01*
X282719Y265059D01*
X282758Y264978D01*
X282818Y264903D01*
X281403Y266318D01*
X281478Y266258D01*
X281559Y266219D01*
X281647Y266201D01*
X281743Y266205D01*
X281845Y266229D01*
X281955Y266275D01*
X282072Y266342D01*
X282195Y266431D01*
X282326Y266540D01*
X282464Y266671D01*
X283171Y265964D01*
D02*
G37*
G36*
X250995Y267634D02*
X251015Y267583D01*
X251041Y267529D01*
X251074Y267471D01*
X251115Y267410D01*
X251217Y267278D01*
X251279Y267206D01*
X251424Y267054D01*
X250879Y266185D01*
X250801Y266259D01*
X250652Y266381D01*
X250581Y266428D01*
X250512Y266466D01*
X250446Y266495D01*
X250381Y266515D01*
X250319Y266526D01*
X250259Y266528D01*
X250201Y266520D01*
X250983Y267682D01*
X250995Y267634D01*
D02*
G37*
G36*
X296286Y265498D02*
X296185Y265560D01*
X296076Y265615D01*
X295958Y265664D01*
X295832Y265706D01*
X295699Y265742D01*
X295557Y265771D01*
X295407Y265794D01*
X295083Y265820D01*
X294909Y265823D01*
X294911Y266823D01*
X295086Y266826D01*
X295410Y266852D01*
X295560Y266874D01*
X295702Y266903D01*
X295835Y266939D01*
X295960Y266980D01*
X296077Y267029D01*
X296186Y267083D01*
X296286Y267144D01*
Y265498D01*
D02*
G37*
G36*
X263514Y265281D02*
X263499Y265375D01*
X263454Y265458D01*
X263379Y265532D01*
X263273Y265596D01*
X263137Y265650D01*
X262971Y265694D01*
X262775Y265729D01*
X262549Y265753D01*
X262006Y265773D01*
Y266773D01*
X262293Y266778D01*
X262775Y266817D01*
X262971Y266851D01*
X263137Y266896D01*
X263273Y266950D01*
X263379Y267014D01*
X263454Y267088D01*
X263499Y267171D01*
X263514Y267264D01*
Y265281D01*
D02*
G37*
G36*
X296286Y262939D02*
X296231Y262967D01*
X296155Y262992D01*
X296057Y263014D01*
X295938Y263034D01*
X295635Y263063D01*
X295019Y263085D01*
X294771Y263087D01*
X294801Y264087D01*
X294949Y264092D01*
X295097Y264107D01*
X295245Y264131D01*
X295393Y264166D01*
X295542Y264211D01*
X295690Y264266D01*
X295839Y264331D01*
X295988Y264406D01*
X296286Y264585D01*
Y262939D01*
D02*
G37*
G36*
X274600Y262009D02*
X274732Y261898D01*
X274857Y261808D01*
X274975Y261740D01*
X275085Y261693D01*
X275188Y261667D01*
X275285Y261663D01*
X275373Y261681D01*
X275455Y261719D01*
X275529Y261779D01*
X274115Y260365D01*
X274175Y260439D01*
X274214Y260521D01*
X274231Y260610D01*
X274227Y260706D01*
X274201Y260809D01*
X274154Y260920D01*
X274086Y261037D01*
X273996Y261162D01*
X273885Y261295D01*
X273753Y261434D01*
X274460Y262141D01*
X274600Y262009D01*
D02*
G37*
G36*
X297262Y260324D02*
X297180Y260374D01*
X297085Y260397D01*
X296977Y260394D01*
X296856Y260363D01*
X296722Y260306D01*
X296575Y260222D01*
X296416Y260111D01*
X296243Y259973D01*
X295860Y259617D01*
X295078Y260250D01*
X295191Y260368D01*
X295389Y260612D01*
X295475Y260737D01*
X295552Y260866D01*
X295620Y260996D01*
X295679Y261129D01*
X295730Y261265D01*
X295771Y261403D01*
X295804Y261544D01*
X297262Y260324D01*
D02*
G37*
G36*
X292990Y260000D02*
X292933Y259997D01*
X292874Y259985D01*
X292812Y259966D01*
X292748Y259939D01*
X292682Y259904D01*
X292613Y259861D01*
X292543Y259810D01*
X292470Y259751D01*
X292317Y259610D01*
X291610Y260317D01*
X291685Y260394D01*
X291810Y260543D01*
X291861Y260613D01*
X291904Y260682D01*
X291939Y260748D01*
X291966Y260812D01*
X291985Y260874D01*
X291997Y260933D01*
X292000Y260990D01*
X292990Y260000D01*
D02*
G37*
G36*
X269773Y259006D02*
X269711Y259053D01*
X269641Y259081D01*
X269563Y259089D01*
X269476Y259077D01*
X269380Y259045D01*
X269277Y258993D01*
X269165Y258921D01*
X269044Y258829D01*
X268916Y258718D01*
X268778Y258586D01*
X268071Y259293D01*
X268203Y259433D01*
X268314Y259564D01*
X268404Y259689D01*
X268472Y259807D01*
X268518Y259917D01*
X268544Y260021D01*
X268548Y260117D01*
X268531Y260206D01*
X268493Y260288D01*
X268433Y260363D01*
X269773Y259006D01*
D02*
G37*
G36*
X273214Y260963D02*
X273299Y260771D01*
X273343Y260476D01*
X272640Y259773D01*
X276220Y256193D01*
X268922Y248895D01*
X265078D01*
X265018Y248922D01*
X264502Y248941D01*
X264322Y248961D01*
X264177Y248987D01*
X264134Y248999D01*
X263991Y249142D01*
X263953Y249232D01*
X263904Y249253D01*
X263876Y249298D01*
X263821Y249311D01*
X262102Y251031D01*
X269154Y258083D01*
X269172Y258096D01*
X269228Y258117D01*
X269294Y258181D01*
X269552Y258361D01*
X269773Y258140D01*
X270140Y258508D01*
X270229Y258544D01*
X270247Y258587D01*
X270287Y258610D01*
X270304Y258672D01*
X272724Y261092D01*
X273214Y260963D01*
D02*
G37*
G36*
X206905Y256520D02*
X206820Y256489D01*
X206745Y256439D01*
X206680Y256368D01*
X206625Y256277D01*
X206580Y256166D01*
X206545Y256034D01*
X206520Y255882D01*
X206505Y255710D01*
X206500Y255518D01*
X205500D01*
X205495Y255710D01*
X205480Y255882D01*
X205455Y256034D01*
X205420Y256166D01*
X205375Y256277D01*
X205320Y256368D01*
X205255Y256439D01*
X205180Y256489D01*
X205095Y256520D01*
X205000Y256530D01*
X207000D01*
X206905Y256520D01*
D02*
G37*
G36*
X249376Y265993D02*
X250000Y265869D01*
X250177Y265904D01*
X250189Y265895D01*
X250198Y265892D01*
X250206Y265886D01*
X250224Y265883D01*
X250225Y265882D01*
X250244Y265872D01*
X250267Y265857D01*
X250371Y265772D01*
X250430Y265716D01*
X250494Y265691D01*
X250533Y265635D01*
X250553Y265632D01*
X250705Y265480D01*
X250705Y265480D01*
X251068Y265237D01*
X251498Y265151D01*
X251498Y265151D01*
X261922D01*
X261982Y265124D01*
X262502Y265105D01*
X262684Y265085D01*
X262831Y265059D01*
X262862Y265051D01*
X263030Y264884D01*
X263055Y264822D01*
X263106Y264801D01*
X263134Y264755D01*
X263166Y264747D01*
X265273Y262641D01*
X268470Y265838D01*
X269338Y264970D01*
X266141Y261773D01*
X267850Y260064D01*
X267678Y259823D01*
X267600Y259740D01*
X267578Y259682D01*
X267571Y259672D01*
X260516Y252617D01*
X257273Y255859D01*
X253641Y252227D01*
X254468Y251399D01*
X254296Y251158D01*
X254219Y251077D01*
X254196Y251018D01*
X254189Y251008D01*
X251494Y248313D01*
X251401D01*
X251339Y248341D01*
X251143Y248345D01*
X251082Y248350D01*
X250958Y248366D01*
X250929Y248372D01*
X250907Y248377D01*
X250906Y248378D01*
X250900Y248381D01*
X250895Y248382D01*
X250877Y248390D01*
X250831Y248392D01*
X250788Y248398D01*
X250624Y248507D01*
X250000Y248631D01*
X249376Y248507D01*
X249149Y248356D01*
X248649Y248623D01*
Y265877D01*
X249149Y266144D01*
X249376Y265993D01*
D02*
G37*
G36*
X206502Y252358D02*
X206518Y252165D01*
X206532Y252079D01*
X206550Y252000D01*
X206572Y251928D01*
X206598Y251864D01*
X206628Y251807D01*
X206662Y251757D01*
X206700Y251714D01*
X205300D01*
X205338Y251757D01*
X205372Y251807D01*
X205402Y251864D01*
X205428Y251928D01*
X205450Y252000D01*
X205468Y252079D01*
X205482Y252165D01*
X205492Y252258D01*
X205500Y252466D01*
X206500D01*
X206502Y252358D01*
D02*
G37*
G36*
X256466Y250284D02*
X256392Y250344D01*
X256310Y250383D01*
X256221Y250400D01*
X256125Y250396D01*
X256022Y250371D01*
X255911Y250324D01*
X255793Y250255D01*
X255668Y250166D01*
X255536Y250055D01*
X255397Y249922D01*
X254690Y250629D01*
X254822Y250769D01*
X254933Y250901D01*
X255023Y251026D01*
X255091Y251144D01*
X255138Y251254D01*
X255163Y251358D01*
X255168Y251454D01*
X255150Y251542D01*
X255112Y251624D01*
X255052Y251698D01*
X256466Y250284D01*
D02*
G37*
G36*
X202444Y272627D02*
X202725Y272345D01*
X202878Y271978D01*
Y271779D01*
Y251279D01*
Y251080D01*
X202725Y250712D01*
X202444Y250431D01*
X202077Y250279D01*
X148787D01*
X147627Y250510D01*
X146536Y250962D01*
X145553Y251618D01*
X144717Y252454D01*
X144061Y253437D01*
X143608Y254529D01*
X143378Y255688D01*
Y256279D01*
Y266779D01*
Y267370D01*
X143608Y268529D01*
X144061Y269621D01*
X144717Y270604D01*
X145553Y271440D01*
X146536Y272096D01*
X147627Y272548D01*
X148787Y272779D01*
X202077D01*
X202444Y272627D01*
D02*
G37*
G36*
X263509Y248678D02*
X263554Y248593D01*
X263629Y248518D01*
X263734Y248453D01*
X263869Y248398D01*
X264034Y248353D01*
X264229Y248318D01*
X264454Y248293D01*
X264994Y248273D01*
Y247273D01*
X264709Y247268D01*
X264229Y247228D01*
X264034Y247193D01*
X263869Y247148D01*
X263734Y247093D01*
X263629Y247028D01*
X263554Y246953D01*
X263509Y246868D01*
X263494Y246773D01*
Y248773D01*
X263509Y248678D01*
D02*
G37*
G36*
X250609Y247798D02*
X250659Y247776D01*
X250716Y247756D01*
X250780Y247739D01*
X250852Y247724D01*
X251018Y247703D01*
X251112Y247697D01*
X251323Y247691D01*
X251551Y246691D01*
X251444Y246689D01*
X251253Y246670D01*
X251169Y246653D01*
X251094Y246631D01*
X251026Y246604D01*
X250966Y246573D01*
X250915Y246537D01*
X250871Y246496D01*
X250835Y246450D01*
X250567Y247824D01*
X250609Y247798D01*
D02*
G37*
G36*
X250757Y244162D02*
X250807Y244128D01*
X250864Y244098D01*
X250928Y244072D01*
X251000Y244050D01*
X251079Y244032D01*
X251165Y244018D01*
X251258Y244008D01*
X251466Y244000D01*
Y243000D01*
X251358Y242998D01*
X251165Y242982D01*
X251079Y242968D01*
X251000Y242950D01*
X250928Y242928D01*
X250864Y242902D01*
X250807Y242872D01*
X250757Y242838D01*
X250714Y242800D01*
Y244200D01*
X250757Y244162D01*
D02*
G37*
G36*
X291721Y261965D02*
X291493Y261624D01*
X291390Y261107D01*
X291380Y261087D01*
X291373Y261076D01*
X291365Y261067D01*
X291364Y261062D01*
X291359Y261054D01*
X291355Y261035D01*
X291352Y261029D01*
X291352Y261027D01*
X291341Y261007D01*
X291322Y260976D01*
X291298Y260943D01*
X291202Y260830D01*
X291142Y260768D01*
X291117Y260703D01*
X254035Y223622D01*
X251551D01*
X251491Y223649D01*
X251305Y223656D01*
X251252Y223662D01*
X251203Y223670D01*
X251168Y223678D01*
X251147Y223684D01*
X251145Y223686D01*
X251138Y223688D01*
X251122Y223699D01*
X251113Y223701D01*
X251109Y223703D01*
X251097Y223704D01*
X251084Y223707D01*
X251063Y223714D01*
X250652Y223989D01*
X250624Y224202D01*
Y224298D01*
X250652Y224511D01*
X251153Y224847D01*
X251507Y225376D01*
X251610Y225893D01*
X251620Y225913D01*
X251627Y225924D01*
X251635Y225933D01*
X251636Y225938D01*
X251641Y225946D01*
X251645Y225965D01*
X251648Y225971D01*
X251648Y225973D01*
X251659Y225993D01*
X251678Y226024D01*
X251702Y226057D01*
X251798Y226170D01*
X251858Y226233D01*
X251883Y226297D01*
X255914Y230328D01*
X255924Y230335D01*
X255983Y230358D01*
X256065Y230435D01*
X256306Y230607D01*
X257273Y229641D01*
X260627Y232995D01*
X256995Y236627D01*
X253641Y233273D01*
X254607Y232306D01*
X254435Y232065D01*
X254358Y231983D01*
X254335Y231924D01*
X254328Y231914D01*
X250303Y227889D01*
X250242Y227867D01*
X250106Y227741D01*
X250064Y227707D01*
X250024Y227678D01*
X249993Y227659D01*
X249973Y227648D01*
X249971Y227648D01*
X249965Y227645D01*
X249946Y227641D01*
X249938Y227636D01*
X249933Y227635D01*
X249924Y227627D01*
X249913Y227620D01*
X249893Y227610D01*
X249376Y227507D01*
X249149Y227356D01*
X248649Y227623D01*
Y241877D01*
X249149Y242144D01*
X249376Y241993D01*
X250000Y241869D01*
X250624Y241993D01*
X251063Y242286D01*
X251084Y242293D01*
X251097Y242296D01*
X251109Y242297D01*
X251113Y242299D01*
X251122Y242301D01*
X251138Y242312D01*
X251145Y242314D01*
X251147Y242316D01*
X251168Y242322D01*
X251203Y242330D01*
X251244Y242337D01*
X251391Y242349D01*
X251478Y242351D01*
X251542Y242378D01*
X252985D01*
X252985Y242378D01*
X253414Y242464D01*
X253778Y242707D01*
X258469Y247398D01*
X261727Y244141D01*
X263821Y246234D01*
X263876Y246248D01*
X263904Y246293D01*
X263953Y246314D01*
X263991Y246404D01*
X264134Y246547D01*
X264177Y246559D01*
X264314Y246583D01*
X264742Y246619D01*
X265005Y246623D01*
X265069Y246651D01*
X268858D01*
X269065Y246151D01*
X263331Y240417D01*
X263267Y240392D01*
X263144Y240275D01*
X263048Y240195D01*
X262970Y240139D01*
X262956Y240131D01*
X261727Y241359D01*
X258373Y238005D01*
X262005Y234373D01*
X265359Y237727D01*
X264631Y238456D01*
X264639Y238470D01*
X264695Y238547D01*
X264775Y238644D01*
X264892Y238767D01*
X264917Y238831D01*
X288551Y262465D01*
X291481D01*
X291721Y261965D01*
D02*
G37*
G36*
X264421Y239214D02*
X264290Y239076D01*
X264181Y238945D01*
X264092Y238822D01*
X264025Y238705D01*
X263979Y238595D01*
X263954Y238493D01*
X263951Y238397D01*
X263969Y238309D01*
X264008Y238228D01*
X264068Y238154D01*
X262653Y239568D01*
X262728Y239508D01*
X262809Y239469D01*
X262897Y239451D01*
X262993Y239455D01*
X263095Y239479D01*
X263205Y239525D01*
X263322Y239592D01*
X263445Y239681D01*
X263576Y239790D01*
X263714Y239921D01*
X264421Y239214D01*
D02*
G37*
G36*
X256605Y231191D02*
X256531Y231251D01*
X256449Y231290D01*
X256360Y231307D01*
X256264Y231303D01*
X256161Y231277D01*
X256050Y231230D01*
X255933Y231162D01*
X255808Y231072D01*
X255675Y230961D01*
X255536Y230829D01*
X254829Y231536D01*
X254961Y231675D01*
X255072Y231808D01*
X255162Y231933D01*
X255230Y232050D01*
X255277Y232161D01*
X255303Y232264D01*
X255307Y232360D01*
X255290Y232449D01*
X255251Y232531D01*
X255191Y232605D01*
X256605Y231191D01*
D02*
G37*
G36*
X206002Y226858D02*
X206018Y226665D01*
X206032Y226579D01*
X206050Y226500D01*
X206072Y226429D01*
X206098Y226364D01*
X206128Y226307D01*
X206162Y226257D01*
X206200Y226214D01*
X204800D01*
X204838Y226257D01*
X204872Y226307D01*
X204902Y226364D01*
X204928Y226429D01*
X204950Y226500D01*
X204968Y226579D01*
X204982Y226665D01*
X204992Y226758D01*
X205000Y226966D01*
X206000D01*
X206002Y226858D01*
D02*
G37*
G36*
X251390Y226683D02*
X251315Y226606D01*
X251190Y226457D01*
X251139Y226387D01*
X251096Y226318D01*
X251061Y226252D01*
X251034Y226188D01*
X251015Y226127D01*
X251003Y226067D01*
X251000Y226010D01*
X250010Y227000D01*
X250067Y227003D01*
X250127Y227015D01*
X250188Y227034D01*
X250252Y227061D01*
X250318Y227096D01*
X250387Y227139D01*
X250457Y227190D01*
X250530Y227249D01*
X250683Y227390D01*
X251390Y226683D01*
D02*
G37*
G36*
X202444Y248127D02*
X202725Y247845D01*
X202878Y247478D01*
Y247279D01*
Y226779D01*
Y226580D01*
X202725Y226213D01*
X202444Y225931D01*
X202077Y225779D01*
X148787D01*
X147627Y226009D01*
X146536Y226462D01*
X145553Y227118D01*
X144717Y227954D01*
X144061Y228937D01*
X143608Y230029D01*
X143378Y231188D01*
Y231779D01*
Y242279D01*
Y242870D01*
X143608Y244029D01*
X144061Y245121D01*
X144717Y246104D01*
X145553Y246939D01*
X146536Y247596D01*
X147627Y248048D01*
X148787Y248279D01*
X202077D01*
X202444Y248127D01*
D02*
G37*
G36*
X250757Y223162D02*
X250807Y223128D01*
X250864Y223098D01*
X250928Y223072D01*
X251000Y223050D01*
X251079Y223032D01*
X251165Y223018D01*
X251258Y223008D01*
X251466Y223000D01*
Y222000D01*
X251358Y221998D01*
X251165Y221982D01*
X251079Y221968D01*
X251000Y221950D01*
X250928Y221928D01*
X250864Y221902D01*
X250807Y221872D01*
X250757Y221838D01*
X250714Y221800D01*
Y223200D01*
X250757Y223162D01*
D02*
G37*
G36*
X259294Y225001D02*
X259264Y224850D01*
X259264Y224850D01*
Y211517D01*
X259035Y211265D01*
X258816Y211149D01*
X248649Y211149D01*
Y220877D01*
X249149Y221144D01*
X249376Y220993D01*
X250000Y220869D01*
X250624Y220993D01*
X251063Y221286D01*
X251084Y221293D01*
X251097Y221296D01*
X251109Y221297D01*
X251113Y221299D01*
X251122Y221301D01*
X251138Y221312D01*
X251145Y221314D01*
X251147Y221316D01*
X251168Y221322D01*
X251203Y221330D01*
X251244Y221337D01*
X251391Y221349D01*
X251478Y221351D01*
X251542Y221378D01*
X254500D01*
X254500Y221378D01*
X254929Y221464D01*
X255293Y221707D01*
X258833Y225247D01*
X259294Y225001D01*
D02*
G37*
G36*
X260891Y209989D02*
X260906Y209817D01*
X260931Y209665D01*
X260966Y209533D01*
X261011Y209422D01*
X261066Y209331D01*
X261131Y209260D01*
X261206Y209209D01*
X261291Y209179D01*
X261386Y209169D01*
X260930D01*
X260931Y209165D01*
X260966Y209033D01*
X261011Y208922D01*
X261066Y208831D01*
X261131Y208760D01*
X261206Y208709D01*
X261291Y208679D01*
X261386Y208669D01*
X259386D01*
X259481Y208679D01*
X259566Y208709D01*
X259641Y208760D01*
X259706Y208831D01*
X259761Y208922D01*
X259806Y209033D01*
X259841Y209165D01*
X259841Y209169D01*
X259386D01*
X259481Y209179D01*
X259566Y209209D01*
X259641Y209260D01*
X259706Y209331D01*
X259761Y209422D01*
X259806Y209533D01*
X259841Y209665D01*
X259866Y209817D01*
X259881Y209989D01*
X259886Y210181D01*
X260886D01*
X260891Y209989D01*
D02*
G37*
G36*
X214000Y300500D02*
X243499Y300500D01*
X243500Y300500D01*
X243500Y300500D01*
X243534Y300500D01*
X243970Y300494D01*
X244812Y300327D01*
X245631Y299988D01*
X246368Y299495D01*
X246995Y298869D01*
X247488Y298131D01*
X247827Y297313D01*
X248000Y296443D01*
X248000Y296000D01*
X248000Y210500D01*
X258816Y210500D01*
X259099Y210105D01*
X258970Y209646D01*
X258929Y209629D01*
X258927Y209628D01*
X258913Y209594D01*
X258880Y209577D01*
X258819Y209369D01*
X258736Y209169D01*
X258737Y209167D01*
X258750Y209135D01*
X258740Y209100D01*
X258836Y208925D01*
X258819Y208869D01*
X258737Y208672D01*
X258736Y208669D01*
X258750Y208635D01*
X258740Y208600D01*
X258844Y208410D01*
X258927Y208210D01*
X258928Y208209D01*
X258960Y208196D01*
X258978Y208164D01*
X258980Y208163D01*
X259186Y208102D01*
X259198Y208097D01*
X259203Y208092D01*
X259211Y208092D01*
X259264Y208070D01*
Y202500D01*
X259350Y202071D01*
X259593Y201707D01*
X259957Y201464D01*
X260386Y201378D01*
X260815Y201464D01*
X261179Y201707D01*
X261422Y202071D01*
X261507Y202500D01*
Y208070D01*
X261560Y208092D01*
X261569Y208092D01*
X261573Y208097D01*
X261586Y208102D01*
X261791Y208163D01*
X261794Y208164D01*
X261811Y208196D01*
X261845Y208210D01*
X261928Y208410D01*
X262032Y208600D01*
X262031Y208602D01*
X262021Y208635D01*
X262035Y208669D01*
X261952Y208869D01*
X261936Y208925D01*
X262032Y209100D01*
X262021Y209135D01*
X262034Y209166D01*
X262035Y209169D01*
X261952Y209369D01*
X261891Y209577D01*
X261859Y209594D01*
X261845Y209628D01*
X261843Y209629D01*
X261802Y209646D01*
X261673Y210105D01*
X261955Y210500D01*
X263232D01*
X263298Y210386D01*
X263398Y210144D01*
X263466Y209891D01*
X263500Y209631D01*
Y195500D01*
X263500Y195500D01*
X263500Y195204D01*
X263385Y194625D01*
X263159Y194079D01*
X262830Y193588D01*
X262412Y193170D01*
X261921Y192841D01*
X261375Y192615D01*
X260795Y192500D01*
X260500Y192500D01*
X241689D01*
X241689Y192500D01*
X241000Y192500D01*
X216500D01*
X215811Y192500D01*
X214458Y192769D01*
X213184Y193297D01*
X212038Y194063D01*
X211063Y195038D01*
X210297Y196184D01*
X209769Y197458D01*
X209500Y198811D01*
X209500Y199500D01*
Y235000D01*
X209500D01*
X209449Y235051D01*
Y235586D01*
X206500D01*
Y236586D01*
X209449D01*
Y238185D01*
X206500D01*
Y239185D01*
X209449D01*
Y239486D01*
Y240783D01*
X206500D01*
Y241283D01*
X206000D01*
Y243080D01*
X205884D01*
Y244500D01*
X209500Y244500D01*
X209500Y259000D01*
X209449D01*
Y259402D01*
X206500D01*
Y260402D01*
X209449D01*
Y262000D01*
X206500D01*
Y263000D01*
X209449D01*
Y263301D01*
Y264598D01*
X206500D01*
Y265098D01*
X206000D01*
Y267396D01*
D01*
Y268000D01*
X209500Y268000D01*
X209500Y283500D01*
X209500D01*
X209449Y283551D01*
Y283803D01*
X206500D01*
Y284803D01*
X209449D01*
Y286402D01*
X206500D01*
Y287402D01*
X209449D01*
Y287703D01*
Y289000D01*
X206500D01*
Y289500D01*
X206000D01*
Y291297D01*
X205500D01*
Y292500D01*
X209500Y292500D01*
Y296000D01*
X209500D01*
X209500Y296000D01*
X209509Y296490D01*
X209673Y297312D01*
X210012Y298131D01*
X210504Y298869D01*
X211131Y299495D01*
X211868Y299988D01*
X212687Y300327D01*
X213557Y300500D01*
X214000Y300500D01*
D02*
G37*
%LPC*%
G36*
X209449Y291297D02*
X207000D01*
Y290000D01*
X209449D01*
Y291297D01*
D02*
G37*
G36*
Y266896D02*
X207000D01*
Y265598D01*
X209449D01*
Y266896D01*
D02*
G37*
G36*
Y243080D02*
X207000D01*
Y241783D01*
X209449D01*
Y243080D01*
D02*
G37*
%LPD*%
G36*
X324807Y303456D02*
X320894Y299543D01*
X320859Y299651D01*
X320753Y299821D01*
X320576Y300054D01*
X320010Y300711D01*
X317358Y303456D01*
X320894Y306992D01*
X324807Y303456D01*
D02*
G37*
G36*
X342976Y294638D02*
X342663Y294635D01*
X342095Y294588D01*
X341840Y294546D01*
X341604Y294489D01*
X341388Y294420D01*
X341192Y294338D01*
X341015Y294242D01*
X340857Y294134D01*
X340719Y294012D01*
X340012Y294719D01*
X340134Y294857D01*
X340242Y295015D01*
X340338Y295192D01*
X340420Y295388D01*
X340489Y295604D01*
X340546Y295840D01*
X340588Y296095D01*
X340618Y296369D01*
X340638Y296976D01*
X342976Y294638D01*
D02*
G37*
G36*
Y284638D02*
X342663Y284634D01*
X342095Y284588D01*
X341840Y284545D01*
X341604Y284489D01*
X341388Y284420D01*
X341192Y284338D01*
X341015Y284242D01*
X340857Y284134D01*
X340719Y284012D01*
X340012Y284719D01*
X340134Y284857D01*
X340242Y285015D01*
X340338Y285192D01*
X340420Y285388D01*
X340489Y285604D01*
X340546Y285840D01*
X340588Y286095D01*
X340618Y286369D01*
X340638Y286976D01*
X342976Y284638D01*
D02*
G37*
G36*
X325612Y282438D02*
X325720Y282383D01*
X325837Y282335D01*
X325962Y282293D01*
X326096Y282258D01*
X326237Y282229D01*
X326387Y282206D01*
X326712Y282180D01*
X326886Y282177D01*
X326888Y281177D01*
X326714Y281174D01*
X326390Y281148D01*
X326240Y281125D01*
X326098Y281096D01*
X325965Y281060D01*
X325839Y281018D01*
X325722Y280969D01*
X325613Y280914D01*
X325511Y280853D01*
Y282499D01*
X325612Y282438D01*
D02*
G37*
G36*
Y279879D02*
X325720Y279824D01*
X325837Y279776D01*
X325962Y279734D01*
X326096Y279698D01*
X326237Y279670D01*
X326387Y279647D01*
X326712Y279621D01*
X326886Y279618D01*
X326888Y278618D01*
X326714Y278615D01*
X326390Y278589D01*
X326240Y278566D01*
X326098Y278537D01*
X325965Y278501D01*
X325839Y278459D01*
X325722Y278410D01*
X325613Y278355D01*
X325511Y278293D01*
Y279940D01*
X325612Y279879D01*
D02*
G37*
G36*
X325571Y277348D02*
X325645Y277318D01*
X325734Y277292D01*
X325838Y277269D01*
X325957Y277250D01*
X326238Y277222D01*
X326579Y277208D01*
X326772Y277207D01*
X326987Y276207D01*
X326834Y276202D01*
X326682Y276188D01*
X326531Y276164D01*
X326382Y276131D01*
X326234Y276089D01*
X326087Y276037D01*
X325941Y275975D01*
X325797Y275904D01*
X325653Y275824D01*
X325511Y275734D01*
Y277381D01*
X325571Y277348D01*
D02*
G37*
G36*
X341531Y275150D02*
X341270Y275351D01*
X340776Y275689D01*
X340545Y275826D01*
X340322Y275942D01*
X340110Y276038D01*
X339907Y276112D01*
X339714Y276164D01*
X339531Y276196D01*
X339358Y276207D01*
X339229Y277207D01*
X339421Y277219D01*
X339612Y277256D01*
X339802Y277317D01*
X339992Y277403D01*
X340182Y277513D01*
X340370Y277648D01*
X340559Y277807D01*
X340747Y277990D01*
X340934Y278199D01*
X341121Y278431D01*
X341531Y275150D01*
D02*
G37*
G36*
X325634Y274689D02*
X325669Y274649D01*
X325729Y274614D01*
X325811Y274584D01*
X325918Y274558D01*
X326048Y274537D01*
X326202Y274521D01*
X326580Y274502D01*
X326804Y274500D01*
Y273500D01*
X326580Y273498D01*
X326050Y273463D01*
X325921Y273442D01*
X325815Y273416D01*
X325732Y273386D01*
X325673Y273351D01*
X325638Y273311D01*
X325626Y273267D01*
X325622Y274733D01*
X325634Y274689D01*
D02*
G37*
G36*
X325876Y271910D02*
X325895Y271885D01*
X325932Y271864D01*
X325986Y271845D01*
X326058Y271829D01*
X326148Y271816D01*
X326380Y271799D01*
X326682Y271793D01*
Y270793D01*
X326473Y270792D01*
X325744Y270743D01*
X325662Y270725D01*
X325602Y270704D01*
X325563Y270680D01*
X325545Y270653D01*
X325874Y271937D01*
X325876Y271910D01*
D02*
G37*
G36*
X341313Y260846D02*
X341089Y261066D01*
X340655Y261435D01*
X340444Y261585D01*
X340238Y261712D01*
X340036Y261815D01*
X339839Y261896D01*
X339646Y261954D01*
X339458Y261988D01*
X339274Y262000D01*
Y263000D01*
X339458Y263012D01*
X339646Y263046D01*
X339839Y263104D01*
X340036Y263185D01*
X340238Y263288D01*
X340444Y263415D01*
X340655Y263565D01*
X340870Y263738D01*
X341313Y264154D01*
Y260846D01*
D02*
G37*
G36*
X320978Y260324D02*
X320899Y260377D01*
X320806Y260402D01*
X320700Y260400D01*
X320581Y260372D01*
X320449Y260316D01*
X320304Y260234D01*
X320146Y260124D01*
X319975Y259988D01*
X319791Y259824D01*
X319593Y259634D01*
X318880Y260335D01*
X319000Y260460D01*
X319210Y260707D01*
X319300Y260829D01*
X319379Y260951D01*
X319448Y261071D01*
X319507Y261191D01*
X319556Y261310D01*
X319595Y261427D01*
X319623Y261544D01*
X320978Y260324D01*
D02*
G37*
G36*
X342794Y255544D02*
X342812Y255413D01*
X342843Y255295D01*
X342887Y255189D01*
X342943Y255097D01*
X343011Y255017D01*
X343092Y254950D01*
X343186Y254896D01*
X343291Y254855D01*
X343410Y254826D01*
X341327Y254167D01*
X341414Y254266D01*
X341493Y254376D01*
X341562Y254498D01*
X341621Y254633D01*
X341672Y254779D01*
X341714Y254937D01*
X341746Y255107D01*
X341769Y255289D01*
X341783Y255483D01*
X341787Y255688D01*
X342787D01*
X342794Y255544D01*
D02*
G37*
G36*
X340857Y245366D02*
X341015Y245258D01*
X341192Y245162D01*
X341388Y245080D01*
X341604Y245011D01*
X341840Y244954D01*
X342095Y244912D01*
X342369Y244882D01*
X342976Y244862D01*
X340638Y242524D01*
X340635Y242837D01*
X340588Y243405D01*
X340546Y243660D01*
X340489Y243896D01*
X340420Y244112D01*
X340338Y244308D01*
X340242Y244485D01*
X340134Y244643D01*
X340012Y244781D01*
X340719Y245488D01*
X340857Y245366D01*
D02*
G37*
G36*
Y235366D02*
X341015Y235258D01*
X341192Y235162D01*
X341388Y235080D01*
X341604Y235011D01*
X341840Y234955D01*
X342095Y234912D01*
X342369Y234882D01*
X342976Y234862D01*
X340638Y232524D01*
X340635Y232837D01*
X340588Y233405D01*
X340546Y233660D01*
X340489Y233896D01*
X340420Y234112D01*
X340338Y234308D01*
X340242Y234485D01*
X340134Y234643D01*
X340012Y234781D01*
X340719Y235488D01*
X340857Y235366D01*
D02*
G37*
G36*
X284005Y218235D02*
X284019Y218065D01*
X284044Y217915D01*
X284078Y217785D01*
X284122Y217675D01*
X284176Y217585D01*
X284239Y217515D01*
X284312Y217465D01*
X284395Y217435D01*
X284488Y217425D01*
X282512D01*
X282605Y217435D01*
X282688Y217465D01*
X282761Y217515D01*
X282824Y217585D01*
X282878Y217675D01*
X282922Y217785D01*
X282956Y217915D01*
X282980Y218065D01*
X282995Y218235D01*
X283000Y218425D01*
X284000D01*
X284005Y218235D01*
D02*
G37*
G36*
X284417Y211502D02*
X284353Y211472D01*
X284297Y211422D01*
X284249Y211352D01*
X284208Y211262D01*
X284174Y211152D01*
X284148Y211022D01*
X284129Y210872D01*
X284118Y210702D01*
X284114Y210512D01*
X283114D01*
X283109Y210702D01*
X283094Y210872D01*
X283069Y211022D01*
X283034Y211152D01*
X282989Y211262D01*
X282934Y211352D01*
X282869Y211422D01*
X282794Y211472D01*
X282709Y211502D01*
X282614Y211512D01*
X284488D01*
X284417Y211502D01*
D02*
G37*
G36*
X284119Y209489D02*
X284134Y209317D01*
X284159Y209165D01*
X284194Y209033D01*
X284239Y208922D01*
X284294Y208831D01*
X284359Y208760D01*
X284434Y208709D01*
X284519Y208679D01*
X284614Y208669D01*
X282614D01*
X282709Y208679D01*
X282794Y208709D01*
X282869Y208760D01*
X282934Y208831D01*
X282989Y208922D01*
X283034Y209033D01*
X283069Y209165D01*
X283094Y209317D01*
X283109Y209489D01*
X283114Y209681D01*
X284114D01*
X284119Y209489D01*
D02*
G37*
G36*
X300500Y211500D02*
X301205Y211418D01*
X302580Y211072D01*
X303899Y210549D01*
X305138Y209858D01*
X306277Y209012D01*
X307295Y208024D01*
X308176Y206911D01*
X308903Y205694D01*
X309466Y204391D01*
X309854Y203027D01*
X310060Y201623D01*
X310082Y200205D01*
X310000Y199500D01*
X310000Y199500D01*
X310000Y199500D01*
X310000Y170500D01*
Y169761D01*
X309712Y168312D01*
X309146Y166947D01*
X308326Y165719D01*
X307281Y164674D01*
X306053Y163854D01*
X304688Y163288D01*
X303239Y163000D01*
X301311D01*
X299958Y163269D01*
X298684Y163797D01*
X297538Y164563D01*
X296563Y165538D01*
X295797Y166684D01*
X295269Y167958D01*
X295000Y169311D01*
Y170000D01*
X295000Y182000D01*
X294977Y182703D01*
X294793Y184097D01*
X294429Y185456D01*
X293891Y186755D01*
X293188Y187972D01*
X292332Y189088D01*
X291338Y190082D01*
X290222Y190938D01*
X289005Y191641D01*
X287705Y192180D01*
X286347Y192543D01*
X284953Y192727D01*
X284250Y192750D01*
X284250Y192750D01*
X284250Y192750D01*
X284249Y192750D01*
X283757Y192708D01*
X283283Y192729D01*
X282654Y192883D01*
X282067Y193157D01*
X281544Y193540D01*
X281107Y194017D01*
X280771Y194571D01*
X280549Y195180D01*
X280500Y195500D01*
X280500Y195500D01*
X280500Y208795D01*
X280615Y209375D01*
X280841Y209921D01*
X281170Y210412D01*
X281588Y210830D01*
X281944Y211069D01*
X282016Y211047D01*
X282436Y210873D01*
X282449Y210790D01*
X282460Y210665D01*
X282465Y210495D01*
X282493Y210433D01*
Y209760D01*
X282465Y209698D01*
X282460Y209525D01*
X282449Y209398D01*
X282434Y209301D01*
X282419Y209246D01*
X282355Y209211D01*
X282158Y209129D01*
X282155Y209128D01*
X282141Y209094D01*
X282112Y209078D01*
X282109Y209077D01*
X282048Y208869D01*
X281965Y208669D01*
X281979Y208635D01*
X281968Y208600D01*
X282072Y208410D01*
X282155Y208210D01*
X282158Y208209D01*
X282189Y208196D01*
X282206Y208164D01*
X282209Y208163D01*
X282414Y208102D01*
X282427Y208097D01*
X282431Y208092D01*
X282440Y208092D01*
X282493Y208070D01*
Y202000D01*
X282578Y201571D01*
X282821Y201207D01*
X283185Y200964D01*
X283614Y200879D01*
X284043Y200964D01*
X284407Y201207D01*
X284650Y201571D01*
X284736Y202000D01*
Y208070D01*
X284788Y208092D01*
X284797Y208092D01*
X284802Y208097D01*
X284814Y208102D01*
X285019Y208163D01*
X285022Y208164D01*
X285040Y208196D01*
X285073Y208210D01*
X285156Y208410D01*
X285260Y208600D01*
X285259Y208602D01*
X285250Y208635D01*
X285262Y208666D01*
X285264Y208669D01*
X285181Y208869D01*
X285120Y209077D01*
X285087Y209094D01*
X285073Y209128D01*
X285072Y209129D01*
X284873Y209211D01*
X284810Y209246D01*
X284795Y209301D01*
X284779Y209398D01*
X284768Y209525D01*
X284763Y209698D01*
X284736Y209760D01*
Y210436D01*
X284764Y210499D01*
X284767Y210674D01*
X284776Y210810D01*
X284789Y210918D01*
X284803Y210984D01*
X284954Y211047D01*
X284978Y211104D01*
X285007Y211121D01*
X285043Y211259D01*
X285142Y211500D01*
X300500Y211500D01*
D02*
G37*
D10*
X283614Y212386D02*
X283500Y212500D01*
X294178Y279117D02*
X298989D01*
X293660Y278598D02*
X294178Y279117D01*
X293389Y278598D02*
X293660D01*
X283614Y202000D02*
Y212386D01*
X283500Y224248D02*
X320457Y261205D01*
X283500Y216437D02*
Y224248D01*
X206500Y270500D02*
Y280741D01*
X322819Y281677D02*
X327677D01*
X343000Y297000D01*
X322819Y279118D02*
X335118D01*
X343000Y287000D01*
X323208Y276157D02*
X323356Y276305D01*
X322967Y276707D02*
X342707D01*
X343000Y277000D01*
X322819Y274000D02*
X326804D01*
X338304Y262500D02*
X343000D01*
X326804Y274000D02*
X338304Y262500D01*
X336216Y249284D02*
Y258932D01*
X322967Y271293D02*
X326682D01*
X322967Y268734D02*
X326413D01*
X326682Y271293D02*
X342287Y255688D01*
X326413Y268734D02*
X336216Y258932D01*
X342287Y253213D02*
Y255688D01*
Y253213D02*
X343000Y252500D01*
X336216Y249284D02*
X343000Y242500D01*
X326144Y266175D02*
X334216Y258103D01*
Y241284D02*
Y258103D01*
X322967Y266175D02*
X326144D01*
X334216Y241284D02*
X343000Y232500D01*
X320457Y261205D02*
X322819D01*
X260386Y202500D02*
Y224850D01*
X296740Y261205D01*
X299000D01*
X205500Y225500D02*
Y232691D01*
X206297Y233488D01*
X250000Y226000D02*
X257134Y233134D01*
X254500Y222500D02*
X293000Y261000D01*
X250000Y222500D02*
X254500D01*
X206000Y251000D02*
Y256803D01*
X206500Y257303D01*
X250000Y247000D02*
X250191Y247191D01*
X250000Y247000D02*
X250271D01*
X250191Y247191D02*
X251959D01*
X256995Y252227D01*
X256995D01*
X257134Y252366D01*
X260693Y247773D02*
X269387D01*
X252985Y243500D02*
X269227Y259742D01*
Y261540D01*
X250000Y243500D02*
X252985D01*
X287936Y266323D02*
X299000D01*
X269387Y247773D02*
X287936Y266323D01*
X273866Y266366D02*
X278764Y271264D01*
X269773Y270727D02*
X272869Y273823D01*
X278764Y271264D02*
X296000D01*
X272869Y273823D02*
X296000D01*
X259139Y277139D02*
X260938D01*
X259618Y276382D02*
X296000D01*
X259000Y277000D02*
X259139Y277139D01*
X261941Y284059D02*
X296000D01*
X251191Y294809D02*
X261941Y284059D01*
X258645Y281145D02*
X259000Y281500D01*
X296000D01*
X288087Y263587D02*
X296000D01*
X262366Y237866D02*
X288087Y263587D01*
X258518Y281145D02*
X258645D01*
X252060Y274687D02*
X258518Y281145D01*
X257134Y233134D02*
X257134D01*
Y233134D01*
X206297Y233488D02*
X206500D01*
X250000Y286500D02*
X254267Y282233D01*
X250000Y286500D02*
Y290500D01*
Y295000D02*
X250191Y294809D01*
X251191D01*
X261866Y237866D02*
X262366D01*
X269134Y261634D02*
X269227Y261540D01*
X280866Y264366D02*
X285205Y268705D01*
X296000D01*
X275773Y259634D02*
Y260121D01*
X264894Y271000D02*
X275773Y260121D01*
X250000Y271000D02*
X264894D01*
X275773Y259634D02*
X276134D01*
X264995Y266273D02*
X265134Y266134D01*
X251498Y266273D02*
X264995D01*
X250271Y267500D02*
X251498Y266273D01*
X250000Y267500D02*
X250271D01*
X250187Y274687D02*
X252060D01*
X250000Y274500D02*
X250187Y274687D01*
X254267Y281733D02*
Y282233D01*
X206500Y280741D02*
X207000Y281241D01*
X323208Y283835D02*
X323299Y283925D01*
X206537Y281705D02*
X207000Y281241D01*
X206500Y281705D02*
X206537D01*
D20*
X206500Y262500D02*
D03*
Y265098D02*
D03*
Y259902D02*
D03*
Y257303D02*
D03*
X194748Y262500D02*
D03*
Y265098D02*
D03*
Y259902D02*
D03*
Y257303D02*
D03*
Y233488D02*
D03*
Y236087D02*
D03*
Y241283D02*
D03*
Y238685D02*
D03*
X206500Y233488D02*
D03*
Y236087D02*
D03*
Y241283D02*
D03*
Y238685D02*
D03*
X194748Y281705D02*
D03*
Y284303D02*
D03*
Y289500D02*
D03*
Y286902D02*
D03*
X206500Y281705D02*
D03*
Y284303D02*
D03*
Y289500D02*
D03*
Y286902D02*
D03*
D21*
X198655Y261201D02*
D03*
Y237386D02*
D03*
Y285602D02*
D03*
D40*
X322819Y286063D02*
X322850Y286633D01*
X316350Y308000D02*
X322850Y301500D01*
X300000Y308000D02*
X316350D01*
X322850Y286633D02*
Y293000D01*
X322819Y286063D02*
X322819D01*
X322850Y293000D02*
Y301500D01*
Y293000D02*
X322850Y293000D01*
D41*
X207103Y371180D02*
Y387044D01*
X212241Y392182D02*
Y392182D01*
X207103Y387044D02*
X212241Y392182D01*
Y392182D02*
X232103Y412044D01*
X204467Y368544D02*
X207103Y371180D01*
X192603Y363044D02*
X198103Y368544D01*
X204467D01*
X197603Y378044D02*
Y394408D01*
X192603Y373044D02*
X197603Y378044D01*
X201739Y398544D02*
X208603D01*
X232103Y422044D01*
X197603Y394408D02*
X201739Y398544D01*
D42*
X326103Y367265D02*
D03*
Y381044D02*
D03*
Y435265D02*
D03*
Y449044D02*
D03*
D43*
X288603Y439044D02*
D03*
Y449044D02*
D03*
X216603Y372544D02*
D03*
Y382544D02*
D03*
X217103Y438044D02*
D03*
Y448044D02*
D03*
X343000Y242500D02*
D03*
Y232500D02*
D03*
Y252500D02*
D03*
Y262500D02*
D03*
Y287000D02*
D03*
Y277000D02*
D03*
Y297000D02*
D03*
Y307000D02*
D03*
X288603Y376044D02*
D03*
Y366044D02*
D03*
D44*
X232103Y402044D02*
D03*
Y412044D02*
D03*
Y422044D02*
D03*
X242103D02*
D03*
Y412044D02*
D03*
Y402044D02*
D03*
D45*
X202603Y363044D02*
D03*
D46*
Y373044D02*
D03*
Y383044D02*
D03*
Y393044D02*
D03*
X202603Y403044D02*
D03*
X202603Y413044D02*
D03*
Y423044D02*
D03*
Y433044D02*
D03*
Y443044D02*
D03*
Y453044D02*
D03*
X192603Y363044D02*
D03*
X192603Y373044D02*
D03*
X192603Y383044D02*
D03*
Y393044D02*
D03*
X192603Y403044D02*
D03*
X192603Y413044D02*
D03*
Y423044D02*
D03*
Y433044D02*
D03*
X192603Y443044D02*
D03*
Y453044D02*
D03*
X376000Y256000D02*
D03*
X372000Y200000D02*
D03*
X352000Y208000D02*
D03*
X380000Y200000D02*
D03*
X384000Y272000D02*
D03*
X324000Y216000D02*
D03*
X360000Y224000D02*
D03*
X316000Y232000D02*
D03*
X312000Y224000D02*
D03*
X376000Y304000D02*
D03*
X384000Y224000D02*
D03*
X380000Y280000D02*
D03*
X376000Y272000D02*
D03*
X356000Y200000D02*
D03*
X332000D02*
D03*
X344000Y192000D02*
D03*
X372000Y264000D02*
D03*
X344000Y208000D02*
D03*
X308000Y232000D02*
D03*
X320000Y240000D02*
D03*
X356000Y312000D02*
D03*
X296000Y224000D02*
D03*
X372000Y216000D02*
D03*
X360000Y208000D02*
D03*
X368000Y224000D02*
D03*
X348000Y200000D02*
D03*
X324000D02*
D03*
X340000Y216000D02*
D03*
X376000Y224000D02*
D03*
X380000Y216000D02*
D03*
X352000Y224000D02*
D03*
X364000Y216000D02*
D03*
X320000Y224000D02*
D03*
X364000Y312000D02*
D03*
X368000Y288000D02*
D03*
X324000Y232000D02*
D03*
X372000D02*
D03*
Y280000D02*
D03*
X384000Y288000D02*
D03*
X348000Y216000D02*
D03*
X336000Y208000D02*
D03*
X384000Y304000D02*
D03*
Y240000D02*
D03*
X336000Y224000D02*
D03*
X328000D02*
D03*
X380000Y232000D02*
D03*
X376000Y192000D02*
D03*
X368040Y255832D02*
D03*
X360000Y192000D02*
D03*
X380000Y312000D02*
D03*
X328000Y192000D02*
D03*
X304000Y224000D02*
D03*
X352040Y271832D02*
D03*
X380000Y264000D02*
D03*
X376000Y208000D02*
D03*
X364000Y200000D02*
D03*
X324000Y248000D02*
D03*
X384000Y256000D02*
D03*
X360000Y304000D02*
D03*
X320000Y192000D02*
D03*
X368000Y304000D02*
D03*
Y192000D02*
D03*
X372000Y312000D02*
D03*
X376000Y288000D02*
D03*
X352000Y192000D02*
D03*
X368000Y272000D02*
D03*
X340000Y200000D02*
D03*
X328000Y208000D02*
D03*
X372040Y247832D02*
D03*
X376000Y240000D02*
D03*
X356000Y216000D02*
D03*
X360040Y271832D02*
D03*
X336000Y192000D02*
D03*
X332000Y216000D02*
D03*
X384000Y208000D02*
D03*
X380000Y248000D02*
D03*
X352000Y304000D02*
D03*
X320000Y208000D02*
D03*
X368000D02*
D03*
X240000Y328000D02*
D03*
Y312000D02*
D03*
X232000Y328000D02*
D03*
X236000Y320000D02*
D03*
X232000Y312000D02*
D03*
X224000Y328000D02*
D03*
X228000Y320000D02*
D03*
X224000Y312000D02*
D03*
X216000Y328000D02*
D03*
X220000Y320000D02*
D03*
X216000Y312000D02*
D03*
X208000Y328000D02*
D03*
X212000Y320000D02*
D03*
X208000Y312000D02*
D03*
X200000Y328000D02*
D03*
X204000Y320000D02*
D03*
X200000Y312000D02*
D03*
X192000Y328000D02*
D03*
X196000Y320000D02*
D03*
X192000Y312000D02*
D03*
X184000Y328000D02*
D03*
X188000Y320000D02*
D03*
X184000Y312000D02*
D03*
X176000Y328000D02*
D03*
X180000Y320000D02*
D03*
X176000Y312000D02*
D03*
X168000Y328000D02*
D03*
X172000Y320000D02*
D03*
X168000Y312000D02*
D03*
X164000Y320000D02*
D03*
X200000Y216000D02*
D03*
Y200000D02*
D03*
X192000Y216000D02*
D03*
X196000Y208000D02*
D03*
X192000Y200000D02*
D03*
X184000Y216000D02*
D03*
X188000Y208000D02*
D03*
X184000Y200000D02*
D03*
X176000Y216000D02*
D03*
X180000Y208000D02*
D03*
X176000Y200000D02*
D03*
X168000Y216000D02*
D03*
X172000Y208000D02*
D03*
X168000Y200000D02*
D03*
X300000Y308000D02*
D03*
D47*
X382000Y166000D02*
D03*
Y333000D02*
D03*
X144000D02*
D03*
Y166000D02*
D03*
D48*
X302185Y171000D02*
D03*
D49*
X282500D02*
D03*
D50*
X149705Y281185D02*
D03*
Y261500D02*
D03*
Y241815D02*
D03*
D51*
X206500Y270500D02*
D03*
X205500Y225500D02*
D03*
X250000Y226000D02*
D03*
Y222500D02*
D03*
X206000Y251000D02*
D03*
X250000Y247000D02*
D03*
X293000Y261000D02*
D03*
X293389Y278598D02*
D03*
X250000Y290500D02*
D03*
Y243500D02*
D03*
Y271000D02*
D03*
Y267500D02*
D03*
Y274500D02*
D03*
Y295000D02*
D03*
D52*
X310899Y272719D02*
D03*
D53*
X298989Y261203D02*
D03*
Y263762D02*
D03*
Y266321D02*
D03*
Y268880D02*
D03*
Y271439D02*
D03*
Y273998D02*
D03*
Y276557D02*
D03*
Y279117D02*
D03*
Y281676D02*
D03*
Y284235D02*
D03*
X322808Y261203D02*
D03*
Y263762D02*
D03*
Y266321D02*
D03*
Y268880D02*
D03*
Y271439D02*
D03*
Y273998D02*
D03*
Y276557D02*
D03*
Y279117D02*
D03*
Y281676D02*
D03*
Y284235D02*
D03*
D54*
X322850Y301500D02*
D03*
X329150D02*
D03*
X322850Y293000D02*
D03*
X329150D02*
D03*
D55*
X283500Y212500D02*
D03*
Y216437D02*
D03*
D56*
X260386Y202000D02*
D03*
X283614D02*
D03*
D57*
X257134Y233134D02*
D03*
X261866Y237866D02*
D03*
X276134Y259634D02*
D03*
X280866Y264366D02*
D03*
X269634Y261634D02*
D03*
X274366Y266366D02*
D03*
X265134Y266134D02*
D03*
X269866Y270866D02*
D03*
D58*
X257134Y252366D02*
D03*
X261866Y247634D02*
D03*
X254267Y281733D02*
D03*
X259000Y277000D02*
D03*
D59*
X283485Y214472D02*
D03*
M02*
