G04*
G04 #@! TF.GenerationSoftware,Altium Limited,Altium Designer,20.0.12 (288)*
G04*
G04 Layer_Color=255*
%FSLAX25Y25*%
%MOIN*%
G70*
G01*
G75*
%ADD20R,0.03898X0.01595*%
%ADD21R,0.06791X0.08799*%
%ADD42C,0.07874*%
%ADD43C,0.04724*%
%ADD44C,0.06000*%
%ADD45R,0.05000X0.05000*%
%ADD46C,0.05000*%
%ADD47C,0.15748*%
%ADD48O,0.09252X0.08858*%
%ADD49C,0.08858*%
%ADD50C,0.11811*%
%ADD52R,0.11811X0.16535*%
%ADD53O,0.06496X0.01772*%
%ADD54R,0.03937X0.03937*%
%ADD55R,0.02000X0.02000*%
%ADD56R,0.05118X0.13386*%
G04:AMPARAMS|DCode=57|XSize=39.37mil|YSize=35.43mil|CornerRadius=0mil|HoleSize=0mil|Usage=FLASHONLY|Rotation=135.000|XOffset=0mil|YOffset=0mil|HoleType=Round|Shape=Rectangle|*
%AMROTATEDRECTD57*
4,1,4,0.02645,-0.00139,0.00139,-0.02645,-0.02645,0.00139,-0.00139,0.02645,0.02645,-0.00139,0.0*
%
%ADD57ROTATEDRECTD57*%

G04:AMPARAMS|DCode=58|XSize=39.37mil|YSize=35.43mil|CornerRadius=0mil|HoleSize=0mil|Usage=FLASHONLY|Rotation=45.000|XOffset=0mil|YOffset=0mil|HoleType=Round|Shape=Rectangle|*
%AMROTATEDRECTD58*
4,1,4,-0.00139,-0.02645,-0.02645,-0.00139,0.00139,0.02645,0.02645,0.00139,-0.00139,-0.02645,0.0*
%
%ADD58ROTATEDRECTD58*%

D20*
X206500Y262500D02*
D03*
Y265098D02*
D03*
Y259902D02*
D03*
Y257303D02*
D03*
X194748Y262500D02*
D03*
Y265098D02*
D03*
Y259902D02*
D03*
Y257303D02*
D03*
Y233488D02*
D03*
Y236087D02*
D03*
Y241283D02*
D03*
Y238685D02*
D03*
X206500Y233488D02*
D03*
Y236087D02*
D03*
Y241283D02*
D03*
Y238685D02*
D03*
X194748Y281705D02*
D03*
Y284303D02*
D03*
Y289500D02*
D03*
Y286902D02*
D03*
X206500Y281705D02*
D03*
Y284303D02*
D03*
Y289500D02*
D03*
Y286902D02*
D03*
D21*
X198655Y261201D02*
D03*
Y237386D02*
D03*
Y285602D02*
D03*
D42*
X326103Y367265D02*
D03*
Y381044D02*
D03*
Y435265D02*
D03*
Y449044D02*
D03*
D43*
X288603Y439044D02*
D03*
Y449044D02*
D03*
X216603Y372544D02*
D03*
Y382544D02*
D03*
X217103Y438044D02*
D03*
Y448044D02*
D03*
X343000Y242500D02*
D03*
Y232500D02*
D03*
Y252500D02*
D03*
Y262500D02*
D03*
Y287000D02*
D03*
Y277000D02*
D03*
Y297000D02*
D03*
Y307000D02*
D03*
X288603Y376044D02*
D03*
Y366044D02*
D03*
D44*
X232103Y402044D02*
D03*
Y412044D02*
D03*
Y422044D02*
D03*
X242103D02*
D03*
Y412044D02*
D03*
Y402044D02*
D03*
D45*
X202603Y363044D02*
D03*
D46*
Y373044D02*
D03*
Y383044D02*
D03*
Y393044D02*
D03*
X202603Y403044D02*
D03*
X202603Y413044D02*
D03*
Y423044D02*
D03*
Y433044D02*
D03*
Y443044D02*
D03*
Y453044D02*
D03*
X192603Y363044D02*
D03*
X192603Y373044D02*
D03*
X192603Y383044D02*
D03*
Y393044D02*
D03*
X192603Y403044D02*
D03*
X192603Y413044D02*
D03*
Y423044D02*
D03*
Y433044D02*
D03*
X192603Y443044D02*
D03*
Y453044D02*
D03*
D47*
X382000Y166000D02*
D03*
Y333000D02*
D03*
X144000D02*
D03*
Y166000D02*
D03*
D48*
X302185Y171000D02*
D03*
D49*
X282500D02*
D03*
D50*
X149705Y281185D02*
D03*
Y261500D02*
D03*
Y241815D02*
D03*
D52*
X310899Y272719D02*
D03*
D53*
X298989Y261203D02*
D03*
Y263762D02*
D03*
Y266321D02*
D03*
Y268880D02*
D03*
Y271439D02*
D03*
Y273998D02*
D03*
Y276557D02*
D03*
Y279117D02*
D03*
Y281676D02*
D03*
Y284235D02*
D03*
X322808Y261203D02*
D03*
Y263762D02*
D03*
Y266321D02*
D03*
Y268880D02*
D03*
Y271439D02*
D03*
Y273998D02*
D03*
Y276557D02*
D03*
Y279117D02*
D03*
Y281676D02*
D03*
Y284235D02*
D03*
D54*
X322850Y301500D02*
D03*
X329150D02*
D03*
X322850Y293000D02*
D03*
X329150D02*
D03*
D55*
X283500Y212500D02*
D03*
Y216437D02*
D03*
D56*
X260386Y202000D02*
D03*
X283614D02*
D03*
D57*
X257134Y233134D02*
D03*
X261866Y237866D02*
D03*
X276134Y259634D02*
D03*
X280866Y264366D02*
D03*
X269634Y261634D02*
D03*
X274366Y266366D02*
D03*
X265134Y266134D02*
D03*
X269866Y270866D02*
D03*
D58*
X257134Y252366D02*
D03*
X261866Y247634D02*
D03*
X254267Y281733D02*
D03*
X259000Y277000D02*
D03*
M02*
