G04*
G04 #@! TF.GenerationSoftware,Altium Limited,Altium Designer,20.0.12 (288)*
G04*
G04 Layer_Color=8388736*
%FSLAX25Y25*%
%MOIN*%
G70*
G01*
G75*
%ADD22R,0.14186X0.07099*%
%ADD23R,0.04343X0.04737*%
%ADD24R,0.04737X0.04737*%
%ADD25R,0.04540X0.03950*%
G04:AMPARAMS|DCode=26|XSize=33.59mil|YSize=72.96mil|CornerRadius=5.92mil|HoleSize=0mil|Usage=FLASHONLY|Rotation=90.000|XOffset=0mil|YOffset=0mil|HoleType=Round|Shape=RoundedRectangle|*
%AMROUNDEDRECTD26*
21,1,0.03359,0.06112,0,0,90.0*
21,1,0.02175,0.07296,0,0,90.0*
1,1,0.01184,0.03056,0.01088*
1,1,0.01184,0.03056,-0.01088*
1,1,0.01184,-0.03056,-0.01088*
1,1,0.01184,-0.03056,0.01088*
%
%ADD26ROUNDEDRECTD26*%
%ADD27R,0.04698X0.02395*%
%ADD28R,0.07591X0.09599*%
%ADD29C,0.08674*%
%ADD30C,0.05524*%
%ADD31C,0.06800*%
%ADD32R,0.05800X0.05800*%
%ADD33C,0.05800*%
%ADD34C,0.16548*%
%ADD35O,0.10052X0.09658*%
%ADD36C,0.09658*%
%ADD37C,0.12611*%
%ADD38C,0.02800*%
G36*
X286959Y307808D02*
X287868Y307431D01*
X288687Y306884D01*
X289384Y306187D01*
X289931Y305368D01*
X290308Y304458D01*
X290500Y303492D01*
X290500Y303000D01*
X290500Y226500D01*
Y190000D01*
X253000D01*
Y226750D01*
X253000Y226750D01*
D01*
X252952Y227238D01*
X252578Y228139D01*
X251889Y228829D01*
X250988Y229202D01*
X250500Y229250D01*
X226750Y229250D01*
X209500D01*
Y240000D01*
X250500D01*
X250988Y240048D01*
X251889Y240421D01*
X252579Y241111D01*
X252952Y242012D01*
X253000Y242500D01*
X253000Y242500D01*
X253000Y250500D01*
X253000Y250500D01*
X253000Y250500D01*
X252952Y250988D01*
X252579Y251889D01*
X251889Y252579D01*
X250988Y252952D01*
X250500Y253000D01*
X250500Y253000D01*
X209500Y253000D01*
Y263500D01*
X251000D01*
X251390Y263538D01*
X252111Y263837D01*
X252663Y264389D01*
X252962Y265110D01*
X253000Y265500D01*
Y275500D01*
X253000Y275500D01*
X253000Y275500D01*
X252952Y275988D01*
X252579Y276889D01*
X251889Y277579D01*
X250988Y277952D01*
X250500Y278000D01*
X250500Y278000D01*
X209500Y278000D01*
Y288000D01*
X250500D01*
X250988Y288048D01*
X251889Y288421D01*
X252579Y289111D01*
X252952Y290012D01*
X253000Y290500D01*
X253000Y290500D01*
X253000Y303000D01*
X253000Y303000D01*
X253000Y303492D01*
X253192Y304458D01*
X253569Y305368D01*
X254116Y306187D01*
X254813Y306884D01*
X255631Y307431D01*
X256541Y307808D01*
X257507Y308000D01*
X258000Y308000D01*
X285500Y308000D01*
Y308000D01*
X285993Y308000D01*
X286959Y307808D01*
D02*
G37*
G36*
X202567Y297348D02*
X202848Y297066D01*
X203000Y296699D01*
Y296500D01*
X203000Y291919D01*
X191000Y291919D01*
X191000Y279500D01*
X203000Y279500D01*
X203000Y276000D01*
Y275801D01*
X202848Y275433D01*
X202567Y275152D01*
X202199Y275000D01*
X149500D01*
X148909Y275000D01*
X147750Y275231D01*
X146658Y275683D01*
X145675Y276339D01*
X144840Y277175D01*
X144183Y278158D01*
X143731Y279250D01*
X143500Y280409D01*
X143500Y281000D01*
X143500Y281000D01*
Y291500D01*
Y292091D01*
X143731Y293250D01*
X144183Y294342D01*
X144839Y295324D01*
X145675Y296160D01*
X146658Y296817D01*
X147750Y297269D01*
X148909Y297500D01*
X149500Y297500D01*
X149500Y297500D01*
X202199D01*
X202567Y297348D01*
D02*
G37*
G36*
X202278Y272709D02*
X202640Y272476D01*
X202736Y272337D01*
X202931Y271911D01*
X202931Y271910D01*
X202931Y271910D01*
X202931Y271910D01*
X202931Y267354D01*
X202578Y267000D01*
X191500D01*
Y255394D01*
X202578D01*
X202931Y255041D01*
X202931Y251205D01*
X202899Y250981D01*
X202668Y250592D01*
X202306Y250321D01*
X202129Y250275D01*
X201643Y250241D01*
Y250241D01*
X149143D01*
X148552Y250241D01*
X147393Y250472D01*
X146301Y250924D01*
X145318Y251581D01*
X144483Y252416D01*
X143826Y253399D01*
X143374Y254491D01*
X143143Y255650D01*
X143143Y256241D01*
X143143Y256241D01*
Y266741D01*
X143143Y267332D01*
X143374Y268491D01*
X143826Y269583D01*
X144483Y270566D01*
X145318Y271402D01*
X146301Y272058D01*
X147393Y272510D01*
X148552Y272741D01*
X149143Y272741D01*
X149143Y272741D01*
X201643Y272741D01*
X201854Y272787D01*
X202278Y272709D01*
D02*
G37*
G36*
X202552Y248121D02*
X202775Y247899D01*
X202775Y247898D01*
X202895Y247451D01*
Y247451D01*
X202895Y247451D01*
X202895Y247451D01*
Y243211D01*
X191529D01*
Y231500D01*
X202895D01*
X202895Y226609D01*
X202900Y226447D01*
X202784Y226145D01*
X202562Y225910D01*
X202550Y225905D01*
X202105Y225774D01*
Y225774D01*
X149143Y225741D01*
X148552Y225741D01*
X147393Y225972D01*
X146301Y226424D01*
X145318Y227080D01*
X144483Y227916D01*
X143826Y228899D01*
X143374Y229991D01*
X143143Y231150D01*
X143143Y231741D01*
X143143Y231741D01*
Y242832D01*
X143374Y243991D01*
X143826Y245083D01*
X144483Y246066D01*
X145318Y246901D01*
X146301Y247558D01*
X147393Y248010D01*
X148552Y248241D01*
X149143Y248241D01*
X149143Y248241D01*
X202105Y248241D01*
X202262Y248241D01*
X202552Y248121D01*
D02*
G37*
D22*
X282795Y215500D02*
D03*
X307205D02*
D03*
X282795Y245500D02*
D03*
X307205D02*
D03*
X282795Y297000D02*
D03*
X307205D02*
D03*
X282795Y326500D02*
D03*
X307205D02*
D03*
D23*
X238949Y386044D02*
D03*
X232257D02*
D03*
X238949Y362544D02*
D03*
X232257D02*
D03*
X238949Y455544D02*
D03*
X232257D02*
D03*
X238949Y432544D02*
D03*
X232257D02*
D03*
D24*
X240603Y371395D02*
D03*
Y377694D02*
D03*
X229603Y371395D02*
D03*
Y377694D02*
D03*
X265103Y392194D02*
D03*
Y385895D02*
D03*
Y422895D02*
D03*
Y429194D02*
D03*
X240603Y440895D02*
D03*
Y447194D02*
D03*
X229603Y440895D02*
D03*
Y447194D02*
D03*
D25*
X302103Y368084D02*
D03*
Y373005D02*
D03*
Y442084D02*
D03*
Y447005D02*
D03*
D26*
X253981Y378544D02*
D03*
Y373544D02*
D03*
Y368544D02*
D03*
Y363544D02*
D03*
X276225Y378544D02*
D03*
Y373544D02*
D03*
Y368544D02*
D03*
Y363544D02*
D03*
X253981Y451544D02*
D03*
Y446544D02*
D03*
Y441544D02*
D03*
Y436544D02*
D03*
X276225Y451544D02*
D03*
Y446544D02*
D03*
Y441544D02*
D03*
Y436544D02*
D03*
D27*
X194748Y241295D02*
D03*
Y238697D02*
D03*
Y233500D02*
D03*
Y236098D02*
D03*
X206500Y241295D02*
D03*
Y238697D02*
D03*
Y233500D02*
D03*
Y236098D02*
D03*
X194748Y265098D02*
D03*
Y262500D02*
D03*
Y257303D02*
D03*
Y259902D02*
D03*
X206500Y265098D02*
D03*
Y262500D02*
D03*
Y257303D02*
D03*
Y259902D02*
D03*
X194748Y289500D02*
D03*
Y286901D02*
D03*
Y281705D02*
D03*
Y284303D02*
D03*
X206500Y289500D02*
D03*
Y286901D02*
D03*
Y281705D02*
D03*
Y284303D02*
D03*
D28*
X198655Y237398D02*
D03*
Y261201D02*
D03*
Y285602D02*
D03*
D29*
X326103Y367265D02*
D03*
Y381044D02*
D03*
Y435265D02*
D03*
Y449044D02*
D03*
D30*
X288603Y439044D02*
D03*
Y449044D02*
D03*
X216603Y372544D02*
D03*
Y382544D02*
D03*
X217103Y438044D02*
D03*
Y448044D02*
D03*
X343000Y242500D02*
D03*
Y232500D02*
D03*
Y252500D02*
D03*
Y262500D02*
D03*
Y287000D02*
D03*
Y277000D02*
D03*
Y297000D02*
D03*
Y307000D02*
D03*
X288603Y376044D02*
D03*
Y366044D02*
D03*
D31*
X232103Y402044D02*
D03*
Y412044D02*
D03*
Y422044D02*
D03*
X242103D02*
D03*
Y412044D02*
D03*
Y402044D02*
D03*
D32*
X202603Y363044D02*
D03*
D33*
Y373044D02*
D03*
Y383044D02*
D03*
Y393044D02*
D03*
X202603Y403044D02*
D03*
X202603Y413044D02*
D03*
Y423044D02*
D03*
Y433044D02*
D03*
Y443044D02*
D03*
Y453044D02*
D03*
X192603Y363044D02*
D03*
X192603Y373044D02*
D03*
X192603Y383044D02*
D03*
Y393044D02*
D03*
X192603Y403044D02*
D03*
X192603Y413044D02*
D03*
Y423044D02*
D03*
Y433044D02*
D03*
X192603Y443044D02*
D03*
Y453044D02*
D03*
X376000Y256000D02*
D03*
X372000Y200000D02*
D03*
X352000Y208000D02*
D03*
X380000Y200000D02*
D03*
X384000Y272000D02*
D03*
X324000Y216000D02*
D03*
X360000Y224000D02*
D03*
X316000Y232000D02*
D03*
X312000Y224000D02*
D03*
X376000Y304000D02*
D03*
X384000Y224000D02*
D03*
X380000Y280000D02*
D03*
X376000Y272000D02*
D03*
X356000Y200000D02*
D03*
X332000D02*
D03*
X344000Y192000D02*
D03*
X372000Y264000D02*
D03*
X344000Y208000D02*
D03*
X308000Y232000D02*
D03*
X320000Y240000D02*
D03*
X356000Y312000D02*
D03*
X296000Y224000D02*
D03*
X372000Y216000D02*
D03*
X360000Y208000D02*
D03*
X368000Y224000D02*
D03*
X348000Y200000D02*
D03*
X324000D02*
D03*
X340000Y216000D02*
D03*
X376000Y224000D02*
D03*
X380000Y216000D02*
D03*
X352000Y224000D02*
D03*
X364000Y216000D02*
D03*
X320000Y224000D02*
D03*
X364000Y312000D02*
D03*
X368000Y288000D02*
D03*
X324000Y232000D02*
D03*
X372000D02*
D03*
Y280000D02*
D03*
X384000Y288000D02*
D03*
X348000Y216000D02*
D03*
X336000Y208000D02*
D03*
X384000Y304000D02*
D03*
Y240000D02*
D03*
X336000Y224000D02*
D03*
X328000D02*
D03*
X380000Y232000D02*
D03*
X376000Y192000D02*
D03*
X368040Y255832D02*
D03*
X360000Y192000D02*
D03*
X380000Y312000D02*
D03*
X328000Y192000D02*
D03*
X304000Y224000D02*
D03*
X352040Y271832D02*
D03*
X380000Y264000D02*
D03*
X376000Y208000D02*
D03*
X364000Y200000D02*
D03*
X324000Y248000D02*
D03*
X384000Y256000D02*
D03*
X360000Y304000D02*
D03*
X320000Y192000D02*
D03*
X368000Y304000D02*
D03*
Y192000D02*
D03*
X372000Y312000D02*
D03*
X376000Y288000D02*
D03*
X352000Y192000D02*
D03*
X368000Y272000D02*
D03*
X340000Y200000D02*
D03*
X328000Y208000D02*
D03*
X372040Y247832D02*
D03*
X376000Y240000D02*
D03*
X356000Y216000D02*
D03*
X360040Y271832D02*
D03*
X336000Y192000D02*
D03*
X332000Y216000D02*
D03*
X384000Y208000D02*
D03*
X380000Y248000D02*
D03*
X352000Y304000D02*
D03*
X320000Y208000D02*
D03*
X368000D02*
D03*
X240000Y328000D02*
D03*
Y312000D02*
D03*
X232000Y328000D02*
D03*
X236000Y320000D02*
D03*
X232000Y312000D02*
D03*
X224000Y328000D02*
D03*
X228000Y320000D02*
D03*
X224000Y312000D02*
D03*
X216000Y328000D02*
D03*
X220000Y320000D02*
D03*
X216000Y312000D02*
D03*
X208000Y328000D02*
D03*
X212000Y320000D02*
D03*
X208000Y312000D02*
D03*
X200000Y328000D02*
D03*
X204000Y320000D02*
D03*
X200000Y312000D02*
D03*
X192000Y328000D02*
D03*
X196000Y320000D02*
D03*
X192000Y312000D02*
D03*
X184000Y328000D02*
D03*
X188000Y320000D02*
D03*
X184000Y312000D02*
D03*
X176000Y328000D02*
D03*
X180000Y320000D02*
D03*
X176000Y312000D02*
D03*
X168000Y328000D02*
D03*
X172000Y320000D02*
D03*
X168000Y312000D02*
D03*
X164000Y320000D02*
D03*
X200000Y216000D02*
D03*
Y200000D02*
D03*
X192000Y216000D02*
D03*
X196000Y208000D02*
D03*
X192000Y200000D02*
D03*
X184000Y216000D02*
D03*
X188000Y208000D02*
D03*
X184000Y200000D02*
D03*
X176000Y216000D02*
D03*
X180000Y208000D02*
D03*
X176000Y200000D02*
D03*
X168000Y216000D02*
D03*
X172000Y208000D02*
D03*
X168000Y200000D02*
D03*
X300000Y308000D02*
D03*
D34*
X382000Y166000D02*
D03*
Y333000D02*
D03*
X144000D02*
D03*
Y166000D02*
D03*
D35*
X302185Y171000D02*
D03*
D36*
X282500D02*
D03*
D37*
X149705Y281185D02*
D03*
Y261500D02*
D03*
Y241815D02*
D03*
D38*
X206500Y270500D02*
D03*
X205500Y225500D02*
D03*
X250000Y226000D02*
D03*
Y222500D02*
D03*
X206000Y251000D02*
D03*
X250000Y247000D02*
D03*
X293000Y261000D02*
D03*
X293389Y278598D02*
D03*
X250000Y290500D02*
D03*
Y243500D02*
D03*
Y271000D02*
D03*
Y267500D02*
D03*
Y274500D02*
D03*
Y295000D02*
D03*
M02*
