M48
;Layer_Color=9474304
;FILE_FORMAT=2:5
INCH,TZ
;TYPE=PLATED
T1F00S00C0.01200
T2F00S00C0.02000
T3F00S00C0.02500
T4F00S00C0.03543
T5F00S00C0.04000
T6F00S00C0.04882
T7F00S00C0.05512
T8F00S00C0.05906
T9F00S00C0.12598
%
T01
X205500Y225500
X206000Y251000
X206500Y270500
X250000Y271000
Y267500
Y274500
Y290500
Y295000
Y247000
Y243500
Y226000
Y222500
X293000Y261000
X293389Y278598
T02
X320000Y192000
X328000
X336000
X344000
X352000
X360000
X368000
X376000
X372000Y200000
X380000
X376000Y208000
X384000
X380000Y216000
X372000
X364000
X356000
X348000
X340000
X332000
X324000
X320000Y224000
X328000
X336000
X352000
X360000
X368000
X376000
X384000
X380000Y232000
X372000
X376000Y240000
X384000
X380000Y248000
X372040Y247832
X368040Y255832
X376000Y256000
X384000
X380000Y264000
X372000
X376000Y272000
X384000
X380000Y280000
X372000
X368000Y288000
X376000
X384000
Y304000
X376000
X368000
X360000
X352000
X356000Y312000
X364000
X372000
X380000
X368000Y272000
X360040Y271832
X352040
X324000Y248000
X320000Y240000
X316000Y232000
X324000
X328000Y208000
X336000
X344000
X352000
X360000
X368000
X364000Y200000
X356000
X348000
X340000
X332000
X324000
X320000Y208000
X312000Y224000
X304000
X296000
X308000Y232000
X300000Y308000
X240000Y312000
X232000
X224000
X216000
X208000
X200000
X192000
X184000
X176000
X168000
Y216000
X176000
X184000
X192000
X200000
X196000Y208000
X188000
X180000
X172000
X176000Y200000
X184000
X192000
X200000
X168000
X172000Y320000
X180000
X188000
X196000
X204000
X212000
X220000
X228000
X236000
X240000Y328000
X232000
X224000
X216000
X208000
X200000
X192000
X184000
X176000
X168000
X164000Y320000
T03
X192603Y363044
X202603
Y373044
Y383044
Y393044
X192603
Y383044
X192603Y373044
Y403044
X192603Y413044
Y423044
X202603
Y413044
X202603Y403044
X202603Y433044
Y443044
Y453044
X192603Y453044
Y443044
X192603Y433044
T04
X343000Y232500
Y242500
Y252500
Y262500
Y277000
Y287000
Y297000
Y307000
X288603Y366044
Y376044
Y439044
Y449044
X217103Y448044
Y438044
X216603Y382544
Y372544
T05
X232103Y402044
Y412044
Y422044
X242103
Y412044
Y402044
T06
X326103Y367265
Y381044
Y435265
Y449044
T07
X149705Y241815
Y261500
Y281185
T08
X282500Y171000
X302185
T09
X382000Y166000
X144000
Y333000
X382000
M30
