G04*
G04 #@! TF.GenerationSoftware,Altium Limited,Altium Designer,20.0.12 (288)*
G04*
G04 Layer_Color=16711935*
%FSLAX25Y25*%
%MOIN*%
G70*
G01*
G75*
%ADD27R,0.04698X0.02395*%
%ADD28R,0.07591X0.09599*%
%ADD29C,0.08674*%
%ADD30C,0.05524*%
%ADD31C,0.06800*%
%ADD32R,0.05800X0.05800*%
%ADD33C,0.05800*%
%ADD34C,0.16548*%
%ADD35O,0.10052X0.09658*%
%ADD36C,0.09658*%
%ADD37C,0.12611*%
%ADD38C,0.02800*%
%ADD60R,0.12611X0.17335*%
%ADD61O,0.07296X0.02572*%
%ADD62R,0.04737X0.04737*%
%ADD63R,0.02800X0.02800*%
%ADD64R,0.05918X0.14186*%
G04:AMPARAMS|DCode=65|XSize=47.37mil|YSize=43.43mil|CornerRadius=0mil|HoleSize=0mil|Usage=FLASHONLY|Rotation=135.000|XOffset=0mil|YOffset=0mil|HoleType=Round|Shape=Rectangle|*
%AMROTATEDRECTD65*
4,1,4,0.03210,-0.00139,0.00139,-0.03210,-0.03210,0.00139,-0.00139,0.03210,0.03210,-0.00139,0.0*
%
%ADD65ROTATEDRECTD65*%

G04:AMPARAMS|DCode=66|XSize=47.37mil|YSize=43.43mil|CornerRadius=0mil|HoleSize=0mil|Usage=FLASHONLY|Rotation=45.000|XOffset=0mil|YOffset=0mil|HoleType=Round|Shape=Rectangle|*
%AMROTATEDRECTD66*
4,1,4,-0.00139,-0.03210,-0.03210,-0.00139,0.00139,0.03210,0.03210,0.00139,-0.00139,-0.03210,0.0*
%
%ADD66ROTATEDRECTD66*%

G36*
X202567Y297348D02*
X202848Y297066D01*
X203000Y296699D01*
Y296500D01*
X203000Y296500D01*
X203000D01*
Y291765D01*
X191343D01*
Y279500D01*
X203000D01*
Y275801D01*
X202848Y275433D01*
X202567Y275152D01*
X202199Y275000D01*
X149500D01*
X148909Y275000D01*
X147750Y275231D01*
X146658Y275683D01*
X145675Y276339D01*
X144840Y277175D01*
X144183Y278158D01*
X143731Y279250D01*
X143500Y280409D01*
X143500Y281000D01*
X143500Y281000D01*
Y292091D01*
X143731Y293250D01*
X144183Y294342D01*
X144840Y295325D01*
X145675Y296160D01*
X146658Y296817D01*
X147750Y297269D01*
X148909Y297500D01*
X149500Y297500D01*
X149500Y297500D01*
X202199D01*
X202567Y297348D01*
D02*
G37*
G36*
X202444Y272627D02*
X202725Y272345D01*
X202878Y271978D01*
Y271779D01*
X202878Y271779D01*
X202878D01*
Y267500D01*
X191125D01*
Y255000D01*
X202878D01*
Y251080D01*
X202725Y250712D01*
X202444Y250431D01*
X202077Y250279D01*
X149378D01*
X148787Y250279D01*
X147627Y250510D01*
X146536Y250962D01*
X145553Y251618D01*
X144717Y252454D01*
X144061Y253437D01*
X143608Y254529D01*
X143378Y255688D01*
X143378Y256279D01*
X143378Y256279D01*
Y267370D01*
X143608Y268529D01*
X144061Y269621D01*
X144717Y270603D01*
X145553Y271439D01*
X146535Y272096D01*
X147627Y272548D01*
X148786Y272779D01*
X149377Y272779D01*
X149378Y272779D01*
X202077D01*
X202444Y272627D01*
D02*
G37*
G36*
Y248127D02*
X202725Y247845D01*
X202878Y247478D01*
Y247279D01*
X202878Y247279D01*
X202878D01*
Y243500D01*
X191206D01*
Y231427D01*
X202878Y231341D01*
X202878Y226580D01*
X202725Y226213D01*
X202444Y225931D01*
X202077Y225779D01*
X149378D01*
X148787Y225779D01*
X147627Y226009D01*
X146536Y226462D01*
X145553Y227118D01*
X144717Y227954D01*
X144061Y228937D01*
X143608Y230029D01*
X143378Y231188D01*
X143378Y231779D01*
X143378Y231779D01*
Y242870D01*
X143608Y244029D01*
X144060Y245121D01*
X144717Y246104D01*
X145553Y246939D01*
X146535Y247596D01*
X147627Y248048D01*
X148786Y248279D01*
X149377Y248279D01*
X149378Y248279D01*
X202077D01*
X202444Y248127D01*
D02*
G37*
G36*
X244813Y300327D02*
X245632Y299988D01*
X246369Y299495D01*
X246995Y298869D01*
X247488Y298131D01*
X247827Y297313D01*
X248000Y296443D01*
Y296000D01*
X248000Y296000D01*
X248000D01*
Y218500D01*
X209500D01*
Y296000D01*
Y296443D01*
X209673Y297313D01*
X210012Y298131D01*
X210505Y298869D01*
X211131Y299495D01*
X211868Y299988D01*
X212687Y300327D01*
X213557Y300500D01*
X243943D01*
X244813Y300327D01*
D02*
G37*
D27*
X206500Y262500D02*
D03*
Y265098D02*
D03*
Y259902D02*
D03*
Y257303D02*
D03*
X194748Y262500D02*
D03*
Y265098D02*
D03*
Y259902D02*
D03*
Y257303D02*
D03*
Y233488D02*
D03*
Y236087D02*
D03*
Y241283D02*
D03*
Y238685D02*
D03*
X206500Y233488D02*
D03*
Y236087D02*
D03*
Y241283D02*
D03*
Y238685D02*
D03*
X194748Y281705D02*
D03*
Y284303D02*
D03*
Y289500D02*
D03*
Y286902D02*
D03*
X206500Y281705D02*
D03*
Y284303D02*
D03*
Y289500D02*
D03*
Y286902D02*
D03*
D28*
X198655Y261201D02*
D03*
Y237386D02*
D03*
Y285602D02*
D03*
D29*
X326103Y367265D02*
D03*
Y381044D02*
D03*
Y435265D02*
D03*
Y449044D02*
D03*
D30*
X288603Y439044D02*
D03*
Y449044D02*
D03*
X216603Y372544D02*
D03*
Y382544D02*
D03*
X217103Y438044D02*
D03*
Y448044D02*
D03*
X343000Y242500D02*
D03*
Y232500D02*
D03*
Y252500D02*
D03*
Y262500D02*
D03*
Y287000D02*
D03*
Y277000D02*
D03*
Y297000D02*
D03*
Y307000D02*
D03*
X288603Y376044D02*
D03*
Y366044D02*
D03*
D31*
X232103Y402044D02*
D03*
Y412044D02*
D03*
Y422044D02*
D03*
X242103D02*
D03*
Y412044D02*
D03*
Y402044D02*
D03*
D32*
X202603Y363044D02*
D03*
D33*
Y373044D02*
D03*
Y383044D02*
D03*
Y393044D02*
D03*
X202603Y403044D02*
D03*
X202603Y413044D02*
D03*
Y423044D02*
D03*
Y433044D02*
D03*
Y443044D02*
D03*
Y453044D02*
D03*
X192603Y363044D02*
D03*
X192603Y373044D02*
D03*
X192603Y383044D02*
D03*
Y393044D02*
D03*
X192603Y403044D02*
D03*
X192603Y413044D02*
D03*
Y423044D02*
D03*
Y433044D02*
D03*
X192603Y443044D02*
D03*
Y453044D02*
D03*
X376000Y256000D02*
D03*
X372000Y200000D02*
D03*
X352000Y208000D02*
D03*
X380000Y200000D02*
D03*
X384000Y272000D02*
D03*
X324000Y216000D02*
D03*
X360000Y224000D02*
D03*
X316000Y232000D02*
D03*
X312000Y224000D02*
D03*
X376000Y304000D02*
D03*
X384000Y224000D02*
D03*
X380000Y280000D02*
D03*
X376000Y272000D02*
D03*
X356000Y200000D02*
D03*
X332000D02*
D03*
X344000Y192000D02*
D03*
X372000Y264000D02*
D03*
X344000Y208000D02*
D03*
X308000Y232000D02*
D03*
X320000Y240000D02*
D03*
X356000Y312000D02*
D03*
X296000Y224000D02*
D03*
X372000Y216000D02*
D03*
X360000Y208000D02*
D03*
X368000Y224000D02*
D03*
X348000Y200000D02*
D03*
X324000D02*
D03*
X340000Y216000D02*
D03*
X376000Y224000D02*
D03*
X380000Y216000D02*
D03*
X352000Y224000D02*
D03*
X364000Y216000D02*
D03*
X320000Y224000D02*
D03*
X364000Y312000D02*
D03*
X368000Y288000D02*
D03*
X324000Y232000D02*
D03*
X372000D02*
D03*
Y280000D02*
D03*
X384000Y288000D02*
D03*
X348000Y216000D02*
D03*
X336000Y208000D02*
D03*
X384000Y304000D02*
D03*
Y240000D02*
D03*
X336000Y224000D02*
D03*
X328000D02*
D03*
X380000Y232000D02*
D03*
X376000Y192000D02*
D03*
X368040Y255832D02*
D03*
X360000Y192000D02*
D03*
X380000Y312000D02*
D03*
X328000Y192000D02*
D03*
X304000Y224000D02*
D03*
X352040Y271832D02*
D03*
X380000Y264000D02*
D03*
X376000Y208000D02*
D03*
X364000Y200000D02*
D03*
X324000Y248000D02*
D03*
X384000Y256000D02*
D03*
X360000Y304000D02*
D03*
X320000Y192000D02*
D03*
X368000Y304000D02*
D03*
Y192000D02*
D03*
X372000Y312000D02*
D03*
X376000Y288000D02*
D03*
X352000Y192000D02*
D03*
X368000Y272000D02*
D03*
X340000Y200000D02*
D03*
X328000Y208000D02*
D03*
X372040Y247832D02*
D03*
X376000Y240000D02*
D03*
X356000Y216000D02*
D03*
X360040Y271832D02*
D03*
X336000Y192000D02*
D03*
X332000Y216000D02*
D03*
X384000Y208000D02*
D03*
X380000Y248000D02*
D03*
X352000Y304000D02*
D03*
X320000Y208000D02*
D03*
X368000D02*
D03*
X240000Y328000D02*
D03*
Y312000D02*
D03*
X232000Y328000D02*
D03*
X236000Y320000D02*
D03*
X232000Y312000D02*
D03*
X224000Y328000D02*
D03*
X228000Y320000D02*
D03*
X224000Y312000D02*
D03*
X216000Y328000D02*
D03*
X220000Y320000D02*
D03*
X216000Y312000D02*
D03*
X208000Y328000D02*
D03*
X212000Y320000D02*
D03*
X208000Y312000D02*
D03*
X200000Y328000D02*
D03*
X204000Y320000D02*
D03*
X200000Y312000D02*
D03*
X192000Y328000D02*
D03*
X196000Y320000D02*
D03*
X192000Y312000D02*
D03*
X184000Y328000D02*
D03*
X188000Y320000D02*
D03*
X184000Y312000D02*
D03*
X176000Y328000D02*
D03*
X180000Y320000D02*
D03*
X176000Y312000D02*
D03*
X168000Y328000D02*
D03*
X172000Y320000D02*
D03*
X168000Y312000D02*
D03*
X164000Y320000D02*
D03*
X200000Y216000D02*
D03*
Y200000D02*
D03*
X192000Y216000D02*
D03*
X196000Y208000D02*
D03*
X192000Y200000D02*
D03*
X184000Y216000D02*
D03*
X188000Y208000D02*
D03*
X184000Y200000D02*
D03*
X176000Y216000D02*
D03*
X180000Y208000D02*
D03*
X176000Y200000D02*
D03*
X168000Y216000D02*
D03*
X172000Y208000D02*
D03*
X168000Y200000D02*
D03*
X300000Y308000D02*
D03*
D34*
X382000Y166000D02*
D03*
Y333000D02*
D03*
X144000D02*
D03*
Y166000D02*
D03*
D35*
X302185Y171000D02*
D03*
D36*
X282500D02*
D03*
D37*
X149705Y281185D02*
D03*
Y261500D02*
D03*
Y241815D02*
D03*
D38*
X206500Y270500D02*
D03*
X205500Y225500D02*
D03*
X250000Y226000D02*
D03*
Y222500D02*
D03*
X206000Y251000D02*
D03*
X250000Y247000D02*
D03*
X293000Y261000D02*
D03*
X293389Y278598D02*
D03*
X250000Y290500D02*
D03*
Y243500D02*
D03*
Y271000D02*
D03*
Y267500D02*
D03*
Y274500D02*
D03*
Y295000D02*
D03*
D60*
X310899Y272719D02*
D03*
D61*
X298989Y261203D02*
D03*
Y263762D02*
D03*
Y266321D02*
D03*
Y268880D02*
D03*
Y271439D02*
D03*
Y273998D02*
D03*
Y276557D02*
D03*
Y279117D02*
D03*
Y281676D02*
D03*
Y284235D02*
D03*
X322808Y261203D02*
D03*
Y263762D02*
D03*
Y266321D02*
D03*
Y268880D02*
D03*
Y271439D02*
D03*
Y273998D02*
D03*
Y276557D02*
D03*
Y279117D02*
D03*
Y281676D02*
D03*
Y284235D02*
D03*
D62*
X322850Y301500D02*
D03*
X329150D02*
D03*
X322850Y293000D02*
D03*
X329150D02*
D03*
D63*
X283500Y212500D02*
D03*
Y216437D02*
D03*
D64*
X260386Y202000D02*
D03*
X283614D02*
D03*
D65*
X257134Y233134D02*
D03*
X261866Y237866D02*
D03*
X276134Y259634D02*
D03*
X280866Y264366D02*
D03*
X269634Y261634D02*
D03*
X274366Y266366D02*
D03*
X265134Y266134D02*
D03*
X269866Y270866D02*
D03*
D66*
X257134Y252366D02*
D03*
X261866Y247634D02*
D03*
X254267Y281733D02*
D03*
X259000Y277000D02*
D03*
M02*
