G04*
G04 #@! TF.GenerationSoftware,Altium Limited,Altium Designer,20.0.12 (288)*
G04*
G04 Layer_Color=32768*
%FSLAX25Y25*%
%MOIN*%
G70*
G01*
G75*
%ADD14C,0.00394*%
%ADD37C,0.00197*%
D14*
X262150Y395147D02*
X268056D01*
X262150Y382942D02*
X268056D01*
Y395147D01*
X262150Y382942D02*
Y395147D01*
X265103Y387174D02*
Y390914D01*
X263233Y389044D02*
X266973D01*
X227733Y374544D02*
X231473D01*
X229603Y372674D02*
Y376414D01*
X226650Y368442D02*
Y380647D01*
X232556Y368442D02*
Y380647D01*
X226650Y368442D02*
X232556D01*
X226650Y380647D02*
X232556D01*
X238733Y374544D02*
X242473D01*
X240603Y372674D02*
Y376414D01*
X237650Y368442D02*
Y380647D01*
X243556Y368442D02*
Y380647D01*
X237650Y368442D02*
X243556D01*
X237650Y380647D02*
X243556D01*
X235603Y384174D02*
Y387914D01*
X233733Y386044D02*
X237473D01*
X229501Y383091D02*
X241705D01*
X229501Y388997D02*
X241705D01*
Y383091D02*
Y388997D01*
X229501Y383091D02*
Y388997D01*
X235603Y360674D02*
Y364414D01*
X233733Y362544D02*
X237473D01*
X229501Y359591D02*
X241705D01*
X229501Y365497D02*
X241705D01*
Y359591D02*
Y365497D01*
X229501Y359591D02*
Y365497D01*
X300233Y370544D02*
X303973D01*
X302103Y368674D02*
Y372414D01*
X300233Y444544D02*
X303973D01*
X302103Y442674D02*
Y446414D01*
X263134Y371044D02*
X267072D01*
X265103Y369076D02*
Y373013D01*
X263134Y444044D02*
X267072D01*
X265103Y442076D02*
Y446013D01*
X262150Y419942D02*
X268056D01*
X262150Y432147D02*
X268056D01*
X262150Y419942D02*
Y432147D01*
X268056Y419942D02*
Y432147D01*
X265103Y424174D02*
Y427914D01*
X263233Y426044D02*
X266973D01*
X235603Y453674D02*
Y457414D01*
X233733Y455544D02*
X237473D01*
X229501Y452591D02*
X241705D01*
X229501Y458497D02*
X241705D01*
Y452591D02*
Y458497D01*
X229501Y452591D02*
Y458497D01*
X238733Y444044D02*
X242473D01*
X240603Y442174D02*
Y445914D01*
X237650Y437942D02*
Y450147D01*
X243556Y437942D02*
Y450147D01*
X237650Y437942D02*
X243556D01*
X237650Y450147D02*
X243556D01*
X227733Y444044D02*
X231473D01*
X229603Y442174D02*
Y445914D01*
X226650Y437942D02*
Y450147D01*
X232556Y437942D02*
Y450147D01*
X226650Y437942D02*
X232556D01*
X226650Y450147D02*
X232556D01*
X235603Y430674D02*
Y434414D01*
X233733Y432544D02*
X237473D01*
X229501Y429591D02*
X241705D01*
X229501Y435497D02*
X241705D01*
Y429591D02*
Y435497D01*
X229501Y429591D02*
Y435497D01*
D37*
X299150Y365426D02*
Y375662D01*
X305056Y365426D02*
Y375662D01*
X299150Y365426D02*
X305056D01*
X299150Y375662D02*
X305056D01*
X299150Y439426D02*
Y449662D01*
X305056Y439426D02*
Y449662D01*
X299150Y439426D02*
X305056D01*
X299150Y449662D02*
X305056D01*
X248764Y359233D02*
Y382855D01*
X281441Y359233D02*
Y382855D01*
X248764D02*
X281441D01*
X248764Y359233D02*
X281441D01*
X248764Y432233D02*
Y455855D01*
X281441Y432233D02*
Y455855D01*
X248764D02*
X281441D01*
X248764Y432233D02*
X281441D01*
M02*
