G04*
G04 #@! TF.GenerationSoftware,Altium Limited,Altium Designer,20.0.12 (288)*
G04*
G04 Layer_Color=16711935*
%FSLAX25Y25*%
%MOIN*%
G70*
G01*
G75*
%ADD13C,0.00787*%
%ADD14C,0.00394*%
%ADD35C,0.00200*%
%ADD36C,0.00500*%
D13*
X220222Y442597D02*
Y444263D01*
Y443430D01*
X216056D01*
X215223Y444263D01*
Y445096D01*
X216056Y445929D01*
X215223Y440931D02*
X220222D01*
Y438432D01*
X219389Y437599D01*
X217723D01*
X216890Y438432D01*
Y440931D01*
X215223Y433433D02*
X220222D01*
X217723Y435933D01*
Y432600D01*
X291285Y442345D02*
Y444011D01*
Y443178D01*
X287120D01*
X286286Y444011D01*
Y444844D01*
X287120Y445678D01*
X286286Y440679D02*
X291285D01*
Y438180D01*
X290452Y437347D01*
X288786D01*
X287952Y438180D01*
Y440679D01*
X286286Y432348D02*
Y435681D01*
X289619Y432348D01*
X290452D01*
X291285Y433181D01*
Y434848D01*
X290452Y435681D01*
X328785Y369044D02*
Y370711D01*
Y369878D01*
X324620D01*
X323786Y370711D01*
Y371544D01*
X324620Y372377D01*
X323786Y367378D02*
Y365712D01*
Y366545D01*
X328785D01*
X327952Y367378D01*
X219285Y375845D02*
Y377511D01*
Y376678D01*
X215120D01*
X214286Y377511D01*
Y378344D01*
X215120Y379177D01*
X214286Y374179D02*
X219285D01*
Y371680D01*
X218452Y370847D01*
X216786D01*
X215952Y371680D01*
Y374179D01*
X218452Y369181D02*
X219285Y368348D01*
Y366682D01*
X218452Y365848D01*
X217619D01*
X216786Y366682D01*
Y367515D01*
Y366682D01*
X215952Y365848D01*
X215120D01*
X214286Y366682D01*
Y368348D01*
X215120Y369181D01*
X291285Y368512D02*
Y370178D01*
Y369345D01*
X287120D01*
X286286Y370178D01*
Y371011D01*
X287120Y371844D01*
X286286Y366846D02*
X291285D01*
Y364347D01*
X290452Y363514D01*
X288786D01*
X287952Y364347D01*
Y366846D01*
X286286Y361848D02*
Y360181D01*
Y361015D01*
X291285D01*
X290452Y361848D01*
X328785Y437878D02*
Y439544D01*
Y438711D01*
X324620D01*
X323786Y439544D01*
Y440377D01*
X324620Y441210D01*
X323786Y432879D02*
Y436211D01*
X327119Y432879D01*
X327952D01*
X328785Y433712D01*
Y435378D01*
X327952Y436211D01*
D14*
X262741Y377343D02*
X262477Y378328D01*
X261756Y379048D01*
X260772Y379312D01*
X259788Y379048D01*
X259068Y378328D01*
X258804Y377343D01*
X259068Y376359D01*
X259788Y375639D01*
X260772Y375375D01*
X261756Y375639D01*
X262477Y376359D01*
X262741Y377343D01*
Y450343D02*
X262477Y451328D01*
X261756Y452048D01*
X260772Y452312D01*
X259788Y452048D01*
X259068Y451328D01*
X258804Y450343D01*
X259068Y449359D01*
X259788Y448639D01*
X260772Y448375D01*
X261756Y448639D01*
X262477Y449359D01*
X262741Y450343D01*
X263233Y392489D02*
X266973D01*
X263233Y385599D02*
X266973D01*
X266973Y392489D01*
X263233Y385599D02*
Y392489D01*
X227733Y371099D02*
Y377989D01*
X231473Y371099D02*
X231473Y377989D01*
X227733Y371099D02*
X231473D01*
X227733Y377989D02*
X231473D01*
X238733Y371099D02*
Y377989D01*
X242473Y371099D02*
X242473Y377989D01*
X238733Y371099D02*
X242473D01*
X238733Y377989D02*
X242473D01*
X232257Y384174D02*
X238949D01*
X232257Y387914D02*
X238949Y387914D01*
Y384174D02*
Y387914D01*
X232257Y384174D02*
Y387914D01*
Y360674D02*
X238949D01*
X232257Y364414D02*
X238949Y364414D01*
Y360674D02*
Y364414D01*
X232257Y360674D02*
Y364414D01*
X300233Y367296D02*
Y373792D01*
X303973Y367296D02*
Y373792D01*
X300233Y367296D02*
X303973D01*
X300233Y373792D02*
X303973D01*
X300233Y441296D02*
Y447792D01*
X303973Y441296D02*
Y447792D01*
X300233Y441296D02*
X303973D01*
X300233Y447792D02*
X303973D01*
X257229Y361202D02*
Y380887D01*
X272977Y361202D02*
Y380887D01*
X257229D02*
X272977D01*
X257229Y361202D02*
X272977D01*
X257229Y434202D02*
Y453887D01*
X272977Y434202D02*
Y453887D01*
X257229D02*
X272977D01*
X257229Y434202D02*
X272977D01*
X263233Y422599D02*
X266973D01*
X263233Y429489D02*
X266973D01*
X263233Y422599D02*
X263233Y429489D01*
X266973Y422599D02*
Y429489D01*
X232257Y453674D02*
X238949D01*
X232257Y457414D02*
X238949Y457414D01*
Y453674D02*
Y457414D01*
X232257Y453674D02*
Y457414D01*
X238733Y440599D02*
Y447489D01*
X242473Y440599D02*
X242473Y447489D01*
X238733Y440599D02*
X242473D01*
X238733Y447489D02*
X242473D01*
X227733Y440599D02*
Y447489D01*
X231473Y440599D02*
X231473Y447489D01*
X227733Y440599D02*
X231473D01*
X227733Y447489D02*
X231473D01*
X232257Y430674D02*
X238949D01*
X232257Y434414D02*
X238949Y434414D01*
Y430674D02*
Y434414D01*
X232257Y430674D02*
Y434414D01*
D35*
X246673Y455396D02*
Y460395D01*
X249172D01*
X250005Y459561D01*
Y457895D01*
X249172Y457062D01*
X246673D01*
X248339D02*
X250005Y455396D01*
X251671D02*
X253337D01*
X252504D01*
Y460395D01*
X251671Y459561D01*
X259169Y455396D02*
X255837D01*
X259169Y458728D01*
Y459561D01*
X258336Y460395D01*
X256670D01*
X255837Y459561D01*
X246673Y432396D02*
Y437395D01*
X249172D01*
X250005Y436561D01*
Y434895D01*
X249172Y434062D01*
X246673D01*
X248339D02*
X250005Y432396D01*
X251671D02*
X253337D01*
X252504D01*
Y437395D01*
X251671Y436561D01*
X255837D02*
X256670Y437395D01*
X258336D01*
X259169Y436561D01*
Y435728D01*
X258336Y434895D01*
X257503D01*
X258336D01*
X259169Y434062D01*
Y433229D01*
X258336Y432396D01*
X256670D01*
X255837Y433229D01*
X246673Y385896D02*
Y390895D01*
X249172D01*
X250005Y390061D01*
Y388395D01*
X249172Y387562D01*
X246673D01*
X248339D02*
X250005Y385896D01*
X251671D02*
X253337D01*
X252504D01*
Y390895D01*
X251671Y390061D01*
X255837D02*
X256670Y390895D01*
X258336D01*
X259169Y390061D01*
Y386729D01*
X258336Y385896D01*
X256670D01*
X255837Y386729D01*
Y390061D01*
X247506Y362396D02*
Y367395D01*
X250005D01*
X250838Y366562D01*
Y364895D01*
X250005Y364062D01*
X247506D01*
X249172D02*
X250838Y362396D01*
X252504D02*
X254170D01*
X253337D01*
Y367395D01*
X252504Y366562D01*
X256670Y362396D02*
X258336D01*
X257503D01*
Y367395D01*
X256670Y366562D01*
D36*
X268633Y377098D02*
X269466Y377931D01*
Y379597D01*
X268633Y380430D01*
X265301D01*
X264468Y379597D01*
Y377931D01*
X265301Y377098D01*
X264468Y375432D02*
Y373766D01*
Y374599D01*
X269466D01*
X268633Y375432D01*
X264468Y367934D02*
Y371267D01*
X267800Y367934D01*
X268633D01*
X269466Y368767D01*
Y370433D01*
X268633Y371267D01*
X233133Y430015D02*
X233966Y430848D01*
Y432514D01*
X233133Y433348D01*
X229801D01*
X228967Y432514D01*
Y430848D01*
X229801Y430015D01*
X233133Y428349D02*
X233966Y427516D01*
Y425850D01*
X233133Y425017D01*
X232300D01*
X231467Y425850D01*
Y426683D01*
Y425850D01*
X230634Y425017D01*
X229801D01*
X228967Y425850D01*
Y427516D01*
X229801Y428349D01*
X244133Y359682D02*
X244966Y360515D01*
Y362181D01*
X244133Y363015D01*
X240801D01*
X239967Y362181D01*
Y360515D01*
X240801Y359682D01*
X239967Y358016D02*
Y356350D01*
Y357183D01*
X244966D01*
X244133Y358016D01*
X233133Y360515D02*
X233966Y361348D01*
Y363015D01*
X233133Y363848D01*
X229801D01*
X228967Y363015D01*
Y361348D01*
X229801Y360515D01*
X228967Y355517D02*
Y358849D01*
X232300Y355517D01*
X233133D01*
X233966Y356350D01*
Y358016D01*
X233133Y358849D01*
X244133Y430015D02*
X244966Y430848D01*
Y432514D01*
X244133Y433348D01*
X240801D01*
X239967Y432514D01*
Y430848D01*
X240801Y430015D01*
X239967Y425850D02*
X244966D01*
X242467Y428349D01*
Y425017D01*
X261573Y438824D02*
X260740Y437991D01*
Y436324D01*
X261573Y435491D01*
X264905D01*
X265738Y436324D01*
Y437991D01*
X264905Y438824D01*
X265738Y440490D02*
Y442156D01*
Y441323D01*
X260740D01*
X261573Y440490D01*
X265738Y444655D02*
Y446321D01*
Y445488D01*
X260740D01*
X261573Y444655D01*
M02*
