G04*
G04 #@! TF.GenerationSoftware,Altium Limited,Altium Designer,20.0.12 (288)*
G04*
G04 Layer_Color=8421504*
%FSLAX25Y25*%
%MOIN*%
G70*
G01*
G75*
%ADD15R,0.03937X0.03937*%
%ADD16R,0.03543X0.03937*%
%ADD17R,0.03740X0.03150*%
G04:AMPARAMS|DCode=18|XSize=25.59mil|YSize=64.96mil|CornerRadius=1.92mil|HoleSize=0mil|Usage=FLASHONLY|Rotation=90.000|XOffset=0mil|YOffset=0mil|HoleType=Round|Shape=RoundedRectangle|*
%AMROUNDEDRECTD18*
21,1,0.02559,0.06112,0,0,90.0*
21,1,0.02175,0.06496,0,0,90.0*
1,1,0.00384,0.03056,0.01088*
1,1,0.00384,0.03056,-0.01088*
1,1,0.00384,-0.03056,-0.01088*
1,1,0.00384,-0.03056,0.01088*
%
%ADD18ROUNDEDRECTD18*%
D15*
X265103Y392194D02*
D03*
Y385895D02*
D03*
X229603Y371395D02*
D03*
Y377694D02*
D03*
X240603Y371395D02*
D03*
Y377694D02*
D03*
X265103Y422895D02*
D03*
Y429194D02*
D03*
X240603Y440895D02*
D03*
Y447194D02*
D03*
X229603Y440895D02*
D03*
Y447194D02*
D03*
D16*
X238949Y386044D02*
D03*
X232257D02*
D03*
X238949Y362544D02*
D03*
X232257D02*
D03*
X238949Y455544D02*
D03*
X232257D02*
D03*
X238949Y432544D02*
D03*
X232257D02*
D03*
D17*
X302103Y368084D02*
D03*
Y373005D02*
D03*
Y442084D02*
D03*
Y447005D02*
D03*
D18*
X253981Y378544D02*
D03*
Y373544D02*
D03*
Y368544D02*
D03*
Y363544D02*
D03*
X276225Y378544D02*
D03*
Y373544D02*
D03*
Y368544D02*
D03*
Y363544D02*
D03*
X253981Y451544D02*
D03*
Y446544D02*
D03*
Y441544D02*
D03*
Y436544D02*
D03*
X276225Y451544D02*
D03*
Y446544D02*
D03*
Y441544D02*
D03*
Y436544D02*
D03*
M02*
