G04*
G04 #@! TF.GenerationSoftware,Altium Limited,Altium Designer,20.0.12 (288)*
G04*
G04 Layer_Physical_Order=2*
G04 Layer_Color=16711680*
%FSLAX25Y25*%
%MOIN*%
G70*
G01*
G75*
%ADD29C,0.02000*%
%ADD30C,0.04724*%
%ADD31C,0.07874*%
%ADD32C,0.06000*%
%ADD33R,0.05000X0.05000*%
%ADD34C,0.05000*%
G36*
X340603Y357044D02*
X187603D01*
Y459044D01*
X340603D01*
Y357044D01*
D02*
G37*
%LPC*%
G36*
X192603Y456171D02*
X191794Y456064D01*
X191040Y455752D01*
X190392Y455255D01*
X189895Y454608D01*
X189583Y453854D01*
X189476Y453044D01*
X189583Y452235D01*
X189895Y451481D01*
X190392Y450833D01*
X191040Y450336D01*
X191794Y450024D01*
X192603Y449918D01*
X193412Y450024D01*
X194166Y450336D01*
X194814Y450833D01*
X195311Y451481D01*
X195623Y452235D01*
X195730Y453044D01*
X195623Y453854D01*
X195311Y454608D01*
X194814Y455255D01*
X194166Y455752D01*
X193412Y456064D01*
X192603Y456171D01*
D02*
G37*
G36*
X202603Y456171D02*
X201794Y456064D01*
X201040Y455752D01*
X200392Y455255D01*
X199895Y454608D01*
X199583Y453854D01*
X199476Y453044D01*
X199583Y452235D01*
X199895Y451481D01*
X200392Y450833D01*
X201040Y450336D01*
X201794Y450024D01*
X202603Y449918D01*
X203412Y450024D01*
X204166Y450336D01*
X204814Y450833D01*
X205311Y451481D01*
X205623Y452235D01*
X205730Y453044D01*
X205623Y453854D01*
X205311Y454608D01*
X204814Y455255D01*
X204166Y455752D01*
X203412Y456064D01*
X202603Y456171D01*
D02*
G37*
G36*
X288603Y452032D02*
X287830Y451930D01*
X287109Y451632D01*
X286490Y451157D01*
X286016Y450538D01*
X285717Y449818D01*
X285615Y449044D01*
X285717Y448271D01*
X286016Y447550D01*
X286490Y446932D01*
X287109Y446457D01*
X287830Y446158D01*
X288603Y446057D01*
X289376Y446158D01*
X290097Y446457D01*
X290716Y446932D01*
X291190Y447550D01*
X291489Y448271D01*
X291591Y449044D01*
X291489Y449818D01*
X291190Y450538D01*
X290716Y451157D01*
X290097Y451632D01*
X289376Y451930D01*
X288603Y452032D01*
D02*
G37*
G36*
X217103Y451032D02*
X216330Y450930D01*
X215609Y450632D01*
X214990Y450157D01*
X214515Y449538D01*
X214217Y448817D01*
X214115Y448044D01*
X214217Y447271D01*
X214515Y446550D01*
X214990Y445931D01*
X215609Y445457D01*
X216330Y445158D01*
X217103Y445056D01*
X217876Y445158D01*
X218597Y445457D01*
X219216Y445931D01*
X219690Y446550D01*
X219989Y447271D01*
X220091Y448044D01*
X219989Y448817D01*
X219690Y449538D01*
X219216Y450157D01*
X218597Y450632D01*
X217876Y450930D01*
X217103Y451032D01*
D02*
G37*
G36*
X326103Y453620D02*
X324919Y453464D01*
X323815Y453007D01*
X322867Y452280D01*
X322140Y451332D01*
X321683Y450229D01*
X321527Y449044D01*
X321683Y447860D01*
X322140Y446756D01*
X322867Y445808D01*
X323815Y445081D01*
X324919Y444624D01*
X326103Y444468D01*
X327287Y444624D01*
X328391Y445081D01*
X329339Y445808D01*
X330066Y446756D01*
X330523Y447860D01*
X330679Y449044D01*
X330523Y450229D01*
X330066Y451332D01*
X329339Y452280D01*
X328391Y453007D01*
X327287Y453464D01*
X326103Y453620D01*
D02*
G37*
G36*
X202603Y446171D02*
X201794Y446064D01*
X201040Y445752D01*
X200392Y445255D01*
X199895Y444608D01*
X199583Y443854D01*
X199476Y443044D01*
X199583Y442235D01*
X199895Y441481D01*
X200392Y440833D01*
X201040Y440336D01*
X201794Y440024D01*
X202603Y439918D01*
X203412Y440024D01*
X204166Y440336D01*
X204814Y440833D01*
X205311Y441481D01*
X205623Y442235D01*
X205730Y443044D01*
X205623Y443854D01*
X205311Y444608D01*
X204814Y445255D01*
X204166Y445752D01*
X203412Y446064D01*
X202603Y446171D01*
D02*
G37*
G36*
X192603Y446171D02*
X191794Y446064D01*
X191040Y445752D01*
X190392Y445255D01*
X189895Y444608D01*
X189583Y443853D01*
X189476Y443044D01*
X189583Y442235D01*
X189895Y441481D01*
X190392Y440833D01*
X191040Y440336D01*
X191794Y440024D01*
X192603Y439917D01*
X193412Y440024D01*
X194166Y440336D01*
X194814Y440833D01*
X195311Y441481D01*
X195623Y442235D01*
X195730Y443044D01*
X195623Y443853D01*
X195311Y444608D01*
X194814Y445255D01*
X194166Y445752D01*
X193412Y446064D01*
X192603Y446171D01*
D02*
G37*
G36*
X288603Y442032D02*
X287830Y441930D01*
X287109Y441632D01*
X286490Y441157D01*
X286016Y440538D01*
X285717Y439817D01*
X285615Y439044D01*
X285717Y438271D01*
X286016Y437550D01*
X286490Y436932D01*
X287109Y436457D01*
X287830Y436158D01*
X288603Y436057D01*
X289376Y436158D01*
X290097Y436457D01*
X290716Y436932D01*
X291190Y437550D01*
X291489Y438271D01*
X291591Y439044D01*
X291489Y439817D01*
X291190Y440538D01*
X290716Y441157D01*
X290097Y441632D01*
X289376Y441930D01*
X288603Y442032D01*
D02*
G37*
G36*
X217103Y441032D02*
X216330Y440930D01*
X215609Y440632D01*
X214990Y440157D01*
X214515Y439538D01*
X214217Y438818D01*
X214115Y438044D01*
X214217Y437271D01*
X214515Y436550D01*
X214990Y435931D01*
X215609Y435457D01*
X216330Y435158D01*
X217103Y435056D01*
X217876Y435158D01*
X218597Y435457D01*
X219216Y435931D01*
X219690Y436550D01*
X219989Y437271D01*
X220091Y438044D01*
X219989Y438818D01*
X219690Y439538D01*
X219216Y440157D01*
X218597Y440632D01*
X217876Y440930D01*
X217103Y441032D01*
D02*
G37*
G36*
X326103Y439841D02*
X324919Y439685D01*
X323815Y439228D01*
X322867Y438500D01*
X322140Y437553D01*
X321683Y436449D01*
X321527Y435265D01*
X321683Y434080D01*
X322140Y432977D01*
X322867Y432029D01*
X323815Y431302D01*
X324919Y430844D01*
X326103Y430688D01*
X327287Y430844D01*
X328391Y431302D01*
X329339Y432029D01*
X330066Y432977D01*
X330523Y434080D01*
X330679Y435265D01*
X330523Y436449D01*
X330066Y437553D01*
X329339Y438500D01*
X328391Y439228D01*
X327287Y439685D01*
X326103Y439841D01*
D02*
G37*
G36*
X202603Y436171D02*
X201794Y436064D01*
X201040Y435752D01*
X200392Y435255D01*
X199895Y434608D01*
X199583Y433853D01*
X199476Y433044D01*
X199583Y432235D01*
X199895Y431481D01*
X200392Y430833D01*
X201040Y430336D01*
X201794Y430024D01*
X202603Y429917D01*
X203412Y430024D01*
X204166Y430336D01*
X204814Y430833D01*
X205311Y431481D01*
X205623Y432235D01*
X205730Y433044D01*
X205623Y433853D01*
X205311Y434608D01*
X204814Y435255D01*
X204166Y435752D01*
X203412Y436064D01*
X202603Y436171D01*
D02*
G37*
G36*
X192603D02*
X191794Y436064D01*
X191040Y435752D01*
X190392Y435255D01*
X189895Y434608D01*
X189583Y433853D01*
X189476Y433044D01*
X189583Y432235D01*
X189895Y431481D01*
X190392Y430833D01*
X191040Y430336D01*
X191794Y430024D01*
X192603Y429917D01*
X193412Y430024D01*
X194166Y430336D01*
X194814Y430833D01*
X195311Y431481D01*
X195623Y432235D01*
X195730Y433044D01*
X195623Y433853D01*
X195311Y434608D01*
X194814Y435255D01*
X194166Y435752D01*
X193412Y436064D01*
X192603Y436171D01*
D02*
G37*
G36*
X202603Y426171D02*
X201794Y426064D01*
X201040Y425752D01*
X200392Y425255D01*
X199895Y424608D01*
X199583Y423853D01*
X199476Y423044D01*
X199583Y422235D01*
X199895Y421481D01*
X200392Y420833D01*
X201040Y420336D01*
X201794Y420024D01*
X202603Y419917D01*
X203412Y420024D01*
X204166Y420336D01*
X204814Y420833D01*
X205311Y421481D01*
X205623Y422235D01*
X205730Y423044D01*
X205623Y423853D01*
X205311Y424608D01*
X204814Y425255D01*
X204166Y425752D01*
X203412Y426064D01*
X202603Y426171D01*
D02*
G37*
G36*
X192603D02*
X191794Y426064D01*
X191040Y425752D01*
X190392Y425255D01*
X189895Y424608D01*
X189583Y423853D01*
X189476Y423044D01*
X189583Y422235D01*
X189895Y421481D01*
X190392Y420833D01*
X191040Y420336D01*
X191794Y420024D01*
X192603Y419917D01*
X193412Y420024D01*
X194166Y420336D01*
X194814Y420833D01*
X195311Y421481D01*
X195623Y422235D01*
X195730Y423044D01*
X195623Y423853D01*
X195311Y424608D01*
X194814Y425255D01*
X194166Y425752D01*
X193412Y426064D01*
X192603Y426171D01*
D02*
G37*
G36*
X242103Y425675D02*
X241163Y425552D01*
X240287Y425189D01*
X239535Y424612D01*
X238958Y423860D01*
X238596Y422984D01*
X238472Y422044D01*
X238596Y421104D01*
X238958Y420229D01*
X239535Y419477D01*
X240287Y418900D01*
X241163Y418537D01*
X242103Y418413D01*
X243043Y418537D01*
X243918Y418900D01*
X244671Y419477D01*
X245248Y420229D01*
X245610Y421104D01*
X245734Y422044D01*
X245610Y422984D01*
X245248Y423860D01*
X244671Y424612D01*
X243918Y425189D01*
X243043Y425552D01*
X242103Y425675D01*
D02*
G37*
G36*
X203103Y416509D02*
Y413544D01*
X206067D01*
X206013Y413958D01*
X205660Y414809D01*
X205099Y415540D01*
X204368Y416101D01*
X203517Y416454D01*
X203103Y416509D01*
D02*
G37*
G36*
X202103D02*
X201689Y416454D01*
X200838Y416101D01*
X200107Y415540D01*
X199546Y414809D01*
X199193Y413958D01*
X199139Y413544D01*
X202103D01*
Y416509D01*
D02*
G37*
G36*
X192603Y416171D02*
X191794Y416064D01*
X191040Y415752D01*
X190392Y415255D01*
X189895Y414608D01*
X189583Y413854D01*
X189476Y413044D01*
X189583Y412235D01*
X189895Y411481D01*
X190392Y410833D01*
X191040Y410336D01*
X191794Y410024D01*
X192603Y409917D01*
X193412Y410024D01*
X194166Y410336D01*
X194814Y410833D01*
X195311Y411481D01*
X195623Y412235D01*
X195730Y413044D01*
X195623Y413854D01*
X195311Y414608D01*
X194814Y415255D01*
X194166Y415752D01*
X193412Y416064D01*
X192603Y416171D01*
D02*
G37*
G36*
X206067Y412544D02*
X203103D01*
Y409580D01*
X203517Y409634D01*
X204368Y409987D01*
X205099Y410548D01*
X205660Y411279D01*
X206013Y412130D01*
X206067Y412544D01*
D02*
G37*
G36*
X202103D02*
X199139D01*
X199193Y412130D01*
X199546Y411279D01*
X200107Y410548D01*
X200838Y409987D01*
X201689Y409634D01*
X202103Y409580D01*
Y412544D01*
D02*
G37*
G36*
X242103Y415675D02*
X241163Y415552D01*
X240287Y415189D01*
X239535Y414612D01*
X238958Y413860D01*
X238596Y412984D01*
X238472Y412044D01*
X238596Y411104D01*
X238958Y410229D01*
X239535Y409477D01*
X240287Y408900D01*
X241163Y408537D01*
X242103Y408413D01*
X243043Y408537D01*
X243918Y408900D01*
X244671Y409477D01*
X245248Y410229D01*
X245610Y411104D01*
X245734Y412044D01*
X245610Y412984D01*
X245248Y413860D01*
X244671Y414612D01*
X243918Y415189D01*
X243043Y415552D01*
X242103Y415675D01*
D02*
G37*
G36*
X193103Y406509D02*
Y403544D01*
X196067D01*
X196013Y403958D01*
X195660Y404809D01*
X195099Y405540D01*
X194368Y406102D01*
X193517Y406454D01*
X193103Y406509D01*
D02*
G37*
G36*
X192103Y406509D02*
X191689Y406454D01*
X190838Y406102D01*
X190107Y405540D01*
X189546Y404809D01*
X189193Y403958D01*
X189139Y403544D01*
X192103D01*
Y406509D01*
D02*
G37*
G36*
X232103Y425675D02*
X231163Y425552D01*
X230287Y425189D01*
X229535Y424612D01*
X228958Y423860D01*
X228596Y422984D01*
X228477Y422081D01*
X228454Y422029D01*
X228447Y421749D01*
X228424Y421504D01*
X228385Y421272D01*
X228330Y421053D01*
X228260Y420845D01*
X228173Y420647D01*
X228071Y420458D01*
X227953Y420278D01*
X227817Y420104D01*
X227646Y419919D01*
X227631Y419880D01*
X207927Y400176D01*
X204778D01*
X204608Y400676D01*
X204814Y400833D01*
X205311Y401481D01*
X205623Y402235D01*
X205730Y403044D01*
X205623Y403854D01*
X205311Y404608D01*
X204814Y405255D01*
X204166Y405752D01*
X203412Y406064D01*
X202603Y406171D01*
X201794Y406064D01*
X201040Y405752D01*
X200392Y405255D01*
X199895Y404608D01*
X199583Y403854D01*
X199476Y403044D01*
X199583Y402235D01*
X199895Y401481D01*
X200392Y400833D01*
X200863Y400472D01*
X200884Y399959D01*
X200849Y399874D01*
X200585Y399698D01*
X196449Y395562D01*
X196096Y395033D01*
X195972Y394408D01*
Y394319D01*
X195472Y394219D01*
X195311Y394608D01*
X194814Y395255D01*
X194166Y395752D01*
X193412Y396064D01*
X192603Y396171D01*
X191794Y396064D01*
X191040Y395752D01*
X190392Y395255D01*
X189895Y394608D01*
X189583Y393853D01*
X189476Y393044D01*
X189583Y392235D01*
X189895Y391481D01*
X190392Y390833D01*
X191040Y390336D01*
X191794Y390024D01*
X192603Y389917D01*
X193412Y390024D01*
X194166Y390336D01*
X194814Y390833D01*
X195311Y391481D01*
X195472Y391869D01*
X195972Y391770D01*
Y384319D01*
X195472Y384219D01*
X195311Y384608D01*
X194814Y385255D01*
X194166Y385752D01*
X193412Y386064D01*
X192603Y386171D01*
X191794Y386064D01*
X191040Y385752D01*
X190392Y385255D01*
X189895Y384608D01*
X189583Y383854D01*
X189476Y383044D01*
X189583Y382235D01*
X189895Y381481D01*
X190392Y380833D01*
X191040Y380336D01*
X191794Y380024D01*
X192603Y379918D01*
X193412Y380024D01*
X194166Y380336D01*
X194814Y380833D01*
X195311Y381481D01*
X195472Y381869D01*
X195972Y381770D01*
Y378720D01*
X194172Y376920D01*
X194132Y376905D01*
X193965Y376749D01*
X193815Y376624D01*
X193665Y376517D01*
X193517Y376427D01*
X193371Y376352D01*
X193226Y376293D01*
X193080Y376249D01*
X192934Y376217D01*
X192786Y376199D01*
X192606Y376193D01*
X192539Y376163D01*
X191794Y376064D01*
X191040Y375752D01*
X190392Y375255D01*
X189895Y374608D01*
X189583Y373853D01*
X189476Y373044D01*
X189583Y372235D01*
X189895Y371481D01*
X190392Y370833D01*
X191040Y370336D01*
X191794Y370024D01*
X192603Y369917D01*
X193412Y370024D01*
X194166Y370336D01*
X194814Y370833D01*
X195311Y371481D01*
X195623Y372235D01*
X195721Y372980D01*
X195752Y373047D01*
X195758Y373227D01*
X195776Y373376D01*
X195807Y373522D01*
X195852Y373667D01*
X195911Y373812D01*
X195985Y373959D01*
X196075Y374106D01*
X196183Y374256D01*
X196307Y374407D01*
X196464Y374573D01*
X196479Y374613D01*
X198757Y376891D01*
X199110Y377420D01*
X199234Y378044D01*
Y381770D01*
X199734Y381869D01*
X199895Y381481D01*
X200392Y380833D01*
X201040Y380336D01*
X201794Y380024D01*
X202603Y379918D01*
X203412Y380024D01*
X204166Y380336D01*
X204814Y380833D01*
X204972Y381039D01*
X205472Y380869D01*
Y375219D01*
X204972Y375050D01*
X204814Y375255D01*
X204166Y375752D01*
X203412Y376064D01*
X202603Y376171D01*
X201794Y376064D01*
X201040Y375752D01*
X200392Y375255D01*
X199895Y374608D01*
X199583Y373853D01*
X199476Y373044D01*
X199583Y372235D01*
X199895Y371481D01*
X200392Y370833D01*
X200598Y370676D01*
X200428Y370176D01*
X198103D01*
X197479Y370051D01*
X196949Y369698D01*
X194172Y366920D01*
X194132Y366905D01*
X193965Y366749D01*
X193815Y366624D01*
X193665Y366517D01*
X193517Y366426D01*
X193371Y366352D01*
X193226Y366293D01*
X193080Y366249D01*
X192934Y366217D01*
X192786Y366199D01*
X192606Y366193D01*
X192539Y366162D01*
X191794Y366064D01*
X191040Y365752D01*
X190392Y365255D01*
X189895Y364608D01*
X189583Y363854D01*
X189476Y363044D01*
X189583Y362235D01*
X189895Y361481D01*
X190392Y360833D01*
X191040Y360336D01*
X191794Y360024D01*
X192603Y359917D01*
X193412Y360024D01*
X194166Y360336D01*
X194814Y360833D01*
X195311Y361481D01*
X195623Y362235D01*
X195721Y362980D01*
X195752Y363047D01*
X195758Y363227D01*
X195776Y363376D01*
X195807Y363522D01*
X195852Y363667D01*
X195911Y363812D01*
X195985Y363959D01*
X196075Y364106D01*
X196183Y364256D01*
X196307Y364407D01*
X196464Y364573D01*
X196479Y364613D01*
X198779Y366913D01*
X204467D01*
X205091Y367037D01*
X205620Y367391D01*
X208257Y370027D01*
X208610Y370556D01*
X208734Y371180D01*
Y386368D01*
X213394Y391028D01*
X213394Y391028D01*
X229939Y407573D01*
X229978Y407587D01*
X230163Y407758D01*
X230336Y407894D01*
X230517Y408012D01*
X230705Y408115D01*
X230904Y408201D01*
X231112Y408271D01*
X231331Y408326D01*
X231563Y408366D01*
X231808Y408389D01*
X232088Y408395D01*
X232140Y408418D01*
X233043Y408537D01*
X233918Y408900D01*
X234670Y409477D01*
X235247Y410229D01*
X235610Y411104D01*
X235734Y412044D01*
X235610Y412984D01*
X235247Y413860D01*
X234670Y414612D01*
X233918Y415189D01*
X233043Y415552D01*
X232103Y415675D01*
X231163Y415552D01*
X230287Y415189D01*
X229535Y414612D01*
X228958Y413860D01*
X228596Y412984D01*
X228477Y412081D01*
X228454Y412029D01*
X228447Y411750D01*
X228424Y411504D01*
X228385Y411272D01*
X228330Y411053D01*
X228260Y410845D01*
X228173Y410647D01*
X228071Y410458D01*
X227953Y410278D01*
X227817Y410104D01*
X227646Y409919D01*
X227631Y409880D01*
X211087Y393336D01*
X211087Y393336D01*
X205949Y388198D01*
X205596Y387668D01*
X205472Y387044D01*
Y385219D01*
X204972Y385050D01*
X204814Y385255D01*
X204166Y385752D01*
X203412Y386064D01*
X202603Y386171D01*
X201794Y386064D01*
X201040Y385752D01*
X200392Y385255D01*
X199895Y384608D01*
X199734Y384219D01*
X199234Y384319D01*
Y391770D01*
X199734Y391869D01*
X199895Y391481D01*
X200392Y390833D01*
X201040Y390336D01*
X201794Y390024D01*
X202603Y389917D01*
X203412Y390024D01*
X204166Y390336D01*
X204814Y390833D01*
X205311Y391481D01*
X205623Y392235D01*
X205730Y393044D01*
X205623Y393853D01*
X205311Y394608D01*
X204814Y395255D01*
X204166Y395752D01*
X203412Y396064D01*
X202603Y396171D01*
X202444Y396150D01*
X202219Y396597D01*
X202469Y396913D01*
X208603D01*
X209227Y397037D01*
X209756Y397391D01*
X229939Y417573D01*
X229978Y417587D01*
X230163Y417758D01*
X230336Y417894D01*
X230517Y418013D01*
X230705Y418115D01*
X230904Y418201D01*
X231112Y418271D01*
X231331Y418327D01*
X231563Y418366D01*
X231808Y418389D01*
X232088Y418395D01*
X232140Y418418D01*
X233043Y418537D01*
X233918Y418900D01*
X234670Y419477D01*
X235247Y420229D01*
X235610Y421104D01*
X235734Y422044D01*
X235610Y422984D01*
X235247Y423860D01*
X234670Y424612D01*
X233918Y425189D01*
X233043Y425552D01*
X232103Y425675D01*
D02*
G37*
G36*
X192103Y402544D02*
X189139D01*
X189193Y402131D01*
X189546Y401279D01*
X190107Y400548D01*
X190838Y399987D01*
X191689Y399634D01*
X192103Y399580D01*
Y402544D01*
D02*
G37*
G36*
X196067D02*
X193103D01*
Y399580D01*
X193517Y399634D01*
X194368Y399987D01*
X195099Y400548D01*
X195660Y401279D01*
X196013Y402131D01*
X196067Y402544D01*
D02*
G37*
G36*
X242103Y405675D02*
X241163Y405551D01*
X240287Y405189D01*
X239535Y404612D01*
X238958Y403860D01*
X238596Y402984D01*
X238472Y402044D01*
X238596Y401104D01*
X238958Y400229D01*
X239535Y399477D01*
X240287Y398900D01*
X241163Y398537D01*
X242103Y398413D01*
X243043Y398537D01*
X243918Y398900D01*
X244671Y399477D01*
X245248Y400229D01*
X245610Y401104D01*
X245734Y402044D01*
X245610Y402984D01*
X245248Y403860D01*
X244671Y404612D01*
X243918Y405189D01*
X243043Y405551D01*
X242103Y405675D01*
D02*
G37*
G36*
X232103D02*
X231163Y405551D01*
X230287Y405189D01*
X229535Y404612D01*
X228958Y403860D01*
X228596Y402984D01*
X228472Y402044D01*
X228596Y401104D01*
X228958Y400229D01*
X229535Y399477D01*
X230287Y398900D01*
X231163Y398537D01*
X232103Y398413D01*
X233043Y398537D01*
X233918Y398900D01*
X234670Y399477D01*
X235247Y400229D01*
X235610Y401104D01*
X235734Y402044D01*
X235610Y402984D01*
X235247Y403860D01*
X234670Y404612D01*
X233918Y405189D01*
X233043Y405551D01*
X232103Y405675D01*
D02*
G37*
G36*
X216603Y385532D02*
X215830Y385430D01*
X215109Y385132D01*
X214490Y384657D01*
X214016Y384038D01*
X213717Y383317D01*
X213615Y382544D01*
X213717Y381771D01*
X214016Y381050D01*
X214490Y380432D01*
X215109Y379957D01*
X215830Y379658D01*
X216603Y379556D01*
X217376Y379658D01*
X218097Y379957D01*
X218716Y380432D01*
X219190Y381050D01*
X219489Y381771D01*
X219591Y382544D01*
X219489Y383317D01*
X219190Y384038D01*
X218716Y384657D01*
X218097Y385132D01*
X217376Y385430D01*
X216603Y385532D01*
D02*
G37*
G36*
X326103Y385620D02*
X324919Y385464D01*
X323815Y385007D01*
X322867Y384280D01*
X322140Y383332D01*
X321683Y382229D01*
X321527Y381044D01*
X321683Y379860D01*
X322140Y378756D01*
X322867Y377808D01*
X323815Y377081D01*
X324919Y376624D01*
X326103Y376468D01*
X327287Y376624D01*
X328391Y377081D01*
X329339Y377808D01*
X330066Y378756D01*
X330523Y379860D01*
X330679Y381044D01*
X330523Y382229D01*
X330066Y383332D01*
X329339Y384280D01*
X328391Y385007D01*
X327287Y385464D01*
X326103Y385620D01*
D02*
G37*
G36*
X288603Y379032D02*
X287830Y378930D01*
X287109Y378632D01*
X286490Y378157D01*
X286016Y377538D01*
X285717Y376817D01*
X285615Y376044D01*
X285717Y375271D01*
X286016Y374550D01*
X286490Y373932D01*
X287109Y373457D01*
X287830Y373158D01*
X288603Y373056D01*
X289376Y373158D01*
X290097Y373457D01*
X290716Y373932D01*
X291190Y374550D01*
X291489Y375271D01*
X291591Y376044D01*
X291489Y376817D01*
X291190Y377538D01*
X290716Y378157D01*
X290097Y378632D01*
X289376Y378930D01*
X288603Y379032D01*
D02*
G37*
G36*
X216603Y375532D02*
X215830Y375430D01*
X215109Y375132D01*
X214490Y374657D01*
X214016Y374038D01*
X213717Y373318D01*
X213615Y372544D01*
X213717Y371771D01*
X214016Y371050D01*
X214490Y370431D01*
X215109Y369957D01*
X215830Y369658D01*
X216603Y369556D01*
X217376Y369658D01*
X218097Y369957D01*
X218716Y370431D01*
X219190Y371050D01*
X219489Y371771D01*
X219591Y372544D01*
X219489Y373318D01*
X219190Y374038D01*
X218716Y374657D01*
X218097Y375132D01*
X217376Y375430D01*
X216603Y375532D01*
D02*
G37*
G36*
X288603Y369032D02*
X287830Y368930D01*
X287109Y368632D01*
X286490Y368157D01*
X286016Y367538D01*
X285717Y366817D01*
X285615Y366044D01*
X285717Y365271D01*
X286016Y364550D01*
X286490Y363931D01*
X287109Y363457D01*
X287830Y363158D01*
X288603Y363056D01*
X289376Y363158D01*
X290097Y363457D01*
X290716Y363931D01*
X291190Y364550D01*
X291489Y365271D01*
X291591Y366044D01*
X291489Y366817D01*
X291190Y367538D01*
X290716Y368157D01*
X290097Y368632D01*
X289376Y368930D01*
X288603Y369032D01*
D02*
G37*
G36*
X326103Y371841D02*
X324919Y371685D01*
X323815Y371228D01*
X322867Y370500D01*
X322140Y369553D01*
X321683Y368449D01*
X321527Y367265D01*
X321683Y366080D01*
X322140Y364977D01*
X322867Y364029D01*
X323815Y363302D01*
X324919Y362844D01*
X326103Y362688D01*
X327287Y362844D01*
X328391Y363302D01*
X329339Y364029D01*
X330066Y364977D01*
X330523Y366080D01*
X330679Y367265D01*
X330523Y368449D01*
X330066Y369553D01*
X329339Y370500D01*
X328391Y371228D01*
X327287Y371685D01*
X326103Y371841D01*
D02*
G37*
G36*
X205703Y366144D02*
X199503D01*
Y359944D01*
X205703D01*
Y366144D01*
D02*
G37*
%LPD*%
G36*
X232073Y419044D02*
X231770Y419037D01*
X231479Y419010D01*
X231198Y418963D01*
X230928Y418895D01*
X230669Y418807D01*
X230421Y418699D01*
X230184Y418571D01*
X229957Y418422D01*
X229742Y418253D01*
X229537Y418064D01*
X228123Y419479D01*
X228312Y419683D01*
X228481Y419899D01*
X228629Y420125D01*
X228758Y420362D01*
X228866Y420610D01*
X228954Y420869D01*
X229021Y421139D01*
X229069Y421420D01*
X229096Y421712D01*
X229103Y422014D01*
X232073Y419044D01*
D02*
G37*
G36*
Y409044D02*
X231770Y409037D01*
X231479Y409010D01*
X231198Y408963D01*
X230928Y408895D01*
X230669Y408807D01*
X230421Y408699D01*
X230184Y408571D01*
X229957Y408422D01*
X229742Y408253D01*
X229537Y408064D01*
X228123Y409479D01*
X228312Y409683D01*
X228481Y409899D01*
X228629Y410125D01*
X228758Y410362D01*
X228866Y410610D01*
X228954Y410869D01*
X229021Y411139D01*
X229069Y411420D01*
X229096Y411712D01*
X229103Y412014D01*
X232073Y409044D01*
D02*
G37*
G36*
X195991Y375018D02*
X195820Y374837D01*
X195668Y374652D01*
X195534Y374465D01*
X195417Y374275D01*
X195320Y374081D01*
X195240Y373885D01*
X195178Y373686D01*
X195135Y373483D01*
X195110Y373278D01*
X195103Y373069D01*
X192628Y375544D01*
X192836Y375551D01*
X193042Y375576D01*
X193244Y375620D01*
X193444Y375681D01*
X193640Y375761D01*
X193833Y375859D01*
X194024Y375975D01*
X194211Y376109D01*
X194395Y376261D01*
X194577Y376432D01*
X195991Y375018D01*
D02*
G37*
G36*
X195991Y365018D02*
X195820Y364837D01*
X195668Y364652D01*
X195534Y364465D01*
X195417Y364275D01*
X195320Y364082D01*
X195240Y363885D01*
X195178Y363686D01*
X195135Y363483D01*
X195110Y363278D01*
X195103Y363069D01*
X192628Y365544D01*
X192836Y365551D01*
X193042Y365576D01*
X193244Y365620D01*
X193444Y365681D01*
X193640Y365761D01*
X193834Y365859D01*
X194024Y365975D01*
X194211Y366109D01*
X194395Y366262D01*
X194577Y366432D01*
X195991Y365018D01*
D02*
G37*
D29*
X207103Y371180D02*
Y387044D01*
X212241Y392182D02*
Y392182D01*
X207103Y387044D02*
X212241Y392182D01*
Y392182D02*
X232103Y412044D01*
X204467Y368544D02*
X207103Y371180D01*
X192603Y363044D02*
X198103Y368544D01*
X204467D01*
X197603Y378044D02*
Y394408D01*
X192603Y373044D02*
X197603Y378044D01*
X201739Y398544D02*
X208603D01*
X232103Y422044D01*
X197603Y394408D02*
X201739Y398544D01*
D30*
X216603Y372544D02*
D03*
Y382544D02*
D03*
X288603Y376044D02*
D03*
Y366044D02*
D03*
Y439044D02*
D03*
Y449044D02*
D03*
X217103Y438044D02*
D03*
Y448044D02*
D03*
D31*
X326103Y367265D02*
D03*
Y381044D02*
D03*
Y435265D02*
D03*
Y449044D02*
D03*
D32*
X232103Y402044D02*
D03*
Y412044D02*
D03*
Y422044D02*
D03*
X242103D02*
D03*
Y412044D02*
D03*
Y402044D02*
D03*
D33*
X202603Y363044D02*
D03*
D34*
Y373044D02*
D03*
Y383044D02*
D03*
Y393044D02*
D03*
X202603Y403044D02*
D03*
X202603Y413044D02*
D03*
Y423044D02*
D03*
Y433044D02*
D03*
Y443044D02*
D03*
Y453044D02*
D03*
X192603Y363044D02*
D03*
X192603Y373044D02*
D03*
X192603Y383044D02*
D03*
Y393044D02*
D03*
X192603Y403044D02*
D03*
X192603Y413044D02*
D03*
Y423044D02*
D03*
Y433044D02*
D03*
X192603Y443044D02*
D03*
Y453044D02*
D03*
M02*
