G04*
G04 #@! TF.GenerationSoftware,Altium Limited,Altium Designer,20.0.12 (288)*
G04*
G04 Layer_Color=32896*
%FSLAX25Y25*%
%MOIN*%
G70*
G01*
G75*
%ADD10C,0.01000*%
D10*
X207603Y363044D02*
X222603D01*
X221103Y372544D02*
X235603D01*
X206603Y381544D02*
X211603Y376544D01*
X235103D01*
X221103Y382544D02*
X234603D01*
X206603Y393044D02*
X208603D01*
X215103Y386544D01*
X234603D01*
X206603Y400544D02*
X214103Y393044D01*
X229103D01*
X206603Y424544D02*
X209103Y427044D01*
X209603D01*
X247103D01*
X207603Y432544D02*
X225103D01*
X221103Y438044D02*
X225603D01*
X221603Y447544D02*
X226603D01*
X207103Y443044D02*
X226103D01*
X206603Y454044D02*
X219603D01*
X333334Y417896D02*
X334667D01*
X334001D01*
Y414563D01*
X334667Y413897D01*
X335334D01*
X336000Y414563D01*
X330002Y413897D02*
X331335D01*
X332001Y414563D01*
Y415896D01*
X331335Y416563D01*
X330002D01*
X329335Y415896D01*
Y415230D01*
X332001D01*
X327336Y417229D02*
Y416563D01*
X328003D01*
X326670D01*
X327336D01*
Y414563D01*
X326670Y413897D01*
X324670D02*
X322671D01*
X322005Y414563D01*
X322671Y415230D01*
X324004D01*
X324670Y415896D01*
X324004Y416563D01*
X322005D01*
X320005Y413897D02*
X318672D01*
X318006Y414563D01*
Y415896D01*
X318672Y416563D01*
X320005D01*
X320672Y415896D01*
Y414563D01*
X320005Y413897D01*
X316673D02*
Y416563D01*
X314673D01*
X314007Y415896D01*
Y413897D01*
X306010Y417229D02*
X306676Y417896D01*
X308009D01*
X308676Y417229D01*
Y414563D01*
X308009Y413897D01*
X306676D01*
X306010Y414563D01*
X304677Y413897D02*
Y416563D01*
X303344Y417896D01*
X302011Y416563D01*
Y413897D01*
Y415896D01*
X304677D01*
X300678Y413897D02*
Y417896D01*
X298012Y413897D01*
Y417896D01*
X292681D02*
X290015D01*
X291348D01*
Y413897D01*
X288682Y416563D02*
Y413897D01*
Y415230D01*
X288016Y415896D01*
X287349Y416563D01*
X286683D01*
X284017D02*
X282684D01*
X282017Y415896D01*
Y413897D01*
X284017D01*
X284683Y414563D01*
X284017Y415230D01*
X282017D01*
X280684Y413897D02*
Y416563D01*
X278685D01*
X278019Y415896D01*
Y413897D01*
X276686D02*
X274687D01*
X274020Y414563D01*
X274687Y415230D01*
X276019D01*
X276686Y415896D01*
X276019Y416563D01*
X274020D01*
X270021D02*
X272021D01*
X272687Y415896D01*
Y414563D01*
X272021Y413897D01*
X270021D01*
X268688D02*
X267355D01*
X268022D01*
Y416563D01*
X268688D01*
X263357Y413897D02*
X264690D01*
X265356Y414563D01*
Y415896D01*
X264690Y416563D01*
X263357D01*
X262690Y415896D01*
Y415230D01*
X265356D01*
X261357Y416563D02*
X260024Y413897D01*
X258692Y416563D01*
X255359Y413897D02*
X256692D01*
X257359Y414563D01*
Y415896D01*
X256692Y416563D01*
X255359D01*
X254693Y415896D01*
Y415230D01*
X257359D01*
X253360Y416563D02*
Y413897D01*
Y415230D01*
X252694Y415896D01*
X252027Y416563D01*
X251361D01*
X336000Y406699D02*
Y410697D01*
X334001D01*
X333334Y410031D01*
Y408698D01*
X334001Y408031D01*
X336000D01*
X334667D02*
X333334Y406699D01*
X330002D02*
X331335D01*
X332001Y407365D01*
Y408698D01*
X331335Y409364D01*
X330002D01*
X329335Y408698D01*
Y408031D01*
X332001D01*
X328003Y409364D02*
X326670Y406699D01*
X325337Y409364D01*
X320005Y406699D02*
Y409364D01*
X318672Y410697D01*
X317339Y409364D01*
Y406699D01*
Y408698D01*
X320005D01*
X315340Y406032D02*
X314673Y406699D01*
Y407365D01*
X315340D01*
Y406699D01*
X314673D01*
X315340Y406032D01*
X316006Y405366D01*
X308009Y406699D02*
Y409364D01*
X306676Y410697D01*
X305343Y409364D01*
Y406699D01*
Y408698D01*
X308009D01*
X304010Y410697D02*
Y407365D01*
X303344Y406699D01*
X302011D01*
X301344Y407365D01*
Y410697D01*
X300012D02*
Y408031D01*
X298679Y406699D01*
X297346Y408031D01*
Y410697D01*
X296013D02*
X294680D01*
X295346D01*
Y406699D01*
X296013D01*
X294680D01*
X290015Y410031D02*
X290681Y410697D01*
X292014D01*
X292681Y410031D01*
Y407365D01*
X292014Y406699D01*
X290681D01*
X290015Y407365D01*
X282017Y406699D02*
X284683D01*
X282017Y409364D01*
Y410031D01*
X282684Y410697D01*
X284017D01*
X284683Y410031D01*
X280684D02*
X280018Y410697D01*
X278685D01*
X278019Y410031D01*
Y407365D01*
X278685Y406699D01*
X280018D01*
X280684Y407365D01*
Y410031D01*
X274020Y406699D02*
X276686D01*
X274020Y409364D01*
Y410031D01*
X274687Y410697D01*
X276019D01*
X276686Y410031D01*
X272687D02*
X272021Y410697D01*
X270688D01*
X270021Y410031D01*
Y407365D01*
X270688Y406699D01*
X272021D01*
X272687Y407365D01*
Y410031D01*
X336000Y399500D02*
Y403499D01*
X334001D01*
X333334Y402832D01*
Y401499D01*
X334001Y400833D01*
X336000D01*
X331335Y399500D02*
X330002D01*
X329335Y400166D01*
Y401499D01*
X330002Y402166D01*
X331335D01*
X332001Y401499D01*
Y400166D01*
X331335Y399500D01*
X327336D02*
X326003D01*
X325337Y400166D01*
Y401499D01*
X326003Y402166D01*
X327336D01*
X328003Y401499D01*
Y400166D01*
X327336Y399500D01*
X324004Y402166D02*
Y399500D01*
Y400833D01*
X323337Y401499D01*
X322671Y402166D01*
X322005D01*
X320005Y399500D02*
Y402166D01*
X318006D01*
X317339Y401499D01*
Y399500D01*
X315340Y402166D02*
X314007D01*
X313341Y401499D01*
Y399500D01*
X315340D01*
X316006Y400166D01*
X315340Y400833D01*
X313341D01*
X305343Y402832D02*
X306010Y403499D01*
X307343D01*
X308009Y402832D01*
Y400166D01*
X307343Y399500D01*
X306010D01*
X305343Y400166D01*
X304010Y403499D02*
Y399500D01*
Y401499D01*
X303344Y402166D01*
X302011D01*
X301344Y401499D01*
Y399500D01*
X299345Y402166D02*
X298012D01*
X297346Y401499D01*
Y399500D01*
X299345D01*
X300012Y400166D01*
X299345Y400833D01*
X297346D01*
X296013Y399500D02*
Y402166D01*
X294014D01*
X293347Y401499D01*
Y399500D01*
X289348Y403499D02*
Y399500D01*
X291348D01*
X292014Y400166D01*
Y401499D01*
X291348Y402166D01*
X289348D01*
X286016Y399500D02*
X287349D01*
X288016Y400166D01*
Y401499D01*
X287349Y402166D01*
X286016D01*
X285350Y401499D01*
Y400833D01*
X288016D01*
X284017Y402166D02*
Y399500D01*
Y400833D01*
X283350Y401499D01*
X282684Y402166D01*
X282017D01*
X276019Y403499D02*
Y399500D01*
Y400833D01*
X273354Y403499D01*
X275353Y401499D01*
X273354Y399500D01*
X271354Y402166D02*
X270021D01*
X269355Y401499D01*
Y399500D01*
X271354D01*
X272021Y400166D01*
X271354Y400833D01*
X269355D01*
X268022Y399500D02*
X266689D01*
X267355D01*
Y403499D01*
X268022D01*
X264690Y399500D02*
X263357D01*
X264023D01*
Y402166D01*
X264690D01*
X258692Y403499D02*
Y399500D01*
X260691D01*
X261357Y400166D01*
Y401499D01*
X260691Y402166D01*
X258692D01*
X256692D02*
X255359D01*
X254693Y401499D01*
Y399500D01*
X256692D01*
X257359Y400166D01*
X256692Y400833D01*
X254693D01*
X253360Y399500D02*
X251361D01*
X250694Y400166D01*
X251361Y400833D01*
X252694D01*
X253360Y401499D01*
X252694Y402166D01*
X250694D01*
X272604Y365542D02*
X273604Y366542D01*
X275603D01*
X276603Y365542D01*
Y361544D01*
X275603Y360544D01*
X273604D01*
X272604Y361544D01*
X270605Y360544D02*
Y364543D01*
X268605Y366542D01*
X266606Y364543D01*
Y360544D01*
Y363543D01*
X270605D01*
X264607Y360544D02*
Y366542D01*
X260608Y360544D01*
Y366542D01*
X258609Y365542D02*
X257609Y366542D01*
X255610D01*
X254610Y365542D01*
Y361544D01*
X255610Y360544D01*
X257609D01*
X258609Y361544D01*
Y365542D01*
X252611Y359544D02*
X248612D01*
X246613Y366542D02*
Y360544D01*
X244613Y362543D01*
X242614Y360544D01*
Y366542D01*
X240615Y360544D02*
Y364543D01*
X238615Y366542D01*
X236616Y364543D01*
Y360544D01*
Y363543D01*
X240615D01*
X234616Y366542D02*
Y360544D01*
Y362543D01*
X230618Y366542D01*
X233617Y363543D01*
X230618Y360544D01*
X224620Y366542D02*
X228619D01*
Y360544D01*
X224620D01*
X228619Y363543D02*
X226619D01*
X273104Y375542D02*
X274104Y376542D01*
X276103D01*
X277103Y375542D01*
Y371544D01*
X276103Y370544D01*
X274104D01*
X273104Y371544D01*
X271105Y370544D02*
Y374543D01*
X269106Y376542D01*
X267106Y374543D01*
Y370544D01*
Y373543D01*
X271105D01*
X265107Y370544D02*
Y376542D01*
X261108Y370544D01*
Y376542D01*
X259109Y375542D02*
X258109Y376542D01*
X256110D01*
X255110Y375542D01*
Y371544D01*
X256110Y370544D01*
X258109D01*
X259109Y371544D01*
Y375542D01*
X253111Y369544D02*
X249112D01*
X247113Y370544D02*
Y376542D01*
X244114D01*
X243114Y375542D01*
Y373543D01*
X244114Y372543D01*
X247113D01*
X245113D02*
X243114Y370544D01*
X241115Y376542D02*
X237116Y370544D01*
Y376542D02*
X241115Y370544D01*
X273104Y385542D02*
X274104Y386542D01*
X276103D01*
X277103Y385542D01*
Y381544D01*
X276103Y380544D01*
X274104D01*
X273104Y381544D01*
X271105Y380544D02*
Y384543D01*
X269106Y386542D01*
X267106Y384543D01*
Y380544D01*
Y383543D01*
X271105D01*
X265107Y380544D02*
Y386542D01*
X261108Y380544D01*
Y386542D01*
X259109Y385542D02*
X258109Y386542D01*
X256110D01*
X255110Y385542D01*
Y381544D01*
X256110Y380544D01*
X258109D01*
X259109Y381544D01*
Y385542D01*
X253111Y379544D02*
X249112D01*
X247113Y386542D02*
X243114D01*
X245113D01*
Y380544D01*
X241115Y386542D02*
X237116Y380544D01*
Y386542D02*
X241115Y380544D01*
X273104Y395042D02*
X274104Y396042D01*
X276103D01*
X277103Y395042D01*
Y391044D01*
X276103Y390044D01*
X274104D01*
X273104Y391044D01*
X271105Y390044D02*
Y394043D01*
X269106Y396042D01*
X267106Y394043D01*
Y390044D01*
Y393043D01*
X271105D01*
X265107Y390044D02*
Y396042D01*
X261108Y390044D01*
Y396042D01*
X259109Y395042D02*
X258109Y396042D01*
X256110D01*
X255110Y395042D01*
Y391044D01*
X256110Y390044D01*
X258109D01*
X259109Y391044D01*
Y395042D01*
X253111Y389044D02*
X249112D01*
X243114Y396042D02*
X247113D01*
Y390044D01*
X243114D01*
X247113Y393043D02*
X245113D01*
X241115Y390044D02*
Y396042D01*
X238116D01*
X237116Y395042D01*
Y393043D01*
X238116Y392043D01*
X241115D01*
X239115D02*
X237116Y390044D01*
X235117D02*
Y396042D01*
X232118D01*
X231118Y395042D01*
Y393043D01*
X232118Y392043D01*
X235117D01*
X233117D02*
X231118Y390044D01*
X297104Y426542D02*
X298104Y427542D01*
X300103D01*
X301103Y426542D01*
Y422544D01*
X300103Y421544D01*
X298104D01*
X297104Y422544D01*
X295105Y421544D02*
Y425543D01*
X293106Y427542D01*
X291106Y425543D01*
Y421544D01*
Y424543D01*
X295105D01*
X289107Y421544D02*
Y427542D01*
X285108Y421544D01*
Y427542D01*
X283109Y421544D02*
X281109D01*
X282109D01*
Y427542D01*
X283109Y426542D01*
X278110Y420544D02*
X274112D01*
X268114Y426542D02*
X269113Y427542D01*
X271113D01*
X272112Y426542D01*
Y425543D01*
X271113Y424543D01*
X269113D01*
X268114Y423543D01*
Y422544D01*
X269113Y421544D01*
X271113D01*
X272112Y422544D01*
X266114Y427542D02*
X262116D01*
X264115D01*
Y421544D01*
X260116Y427542D02*
Y421544D01*
X257117D01*
X256118Y422544D01*
Y423543D01*
X257117Y424543D01*
X260116D01*
X257117D01*
X256118Y425543D01*
Y426542D01*
X257117Y427542D01*
X260116D01*
X254118D02*
Y426542D01*
X252119Y424543D01*
X250119Y426542D01*
Y427542D01*
X252119Y424543D02*
Y421544D01*
X262604Y437542D02*
X263604Y438542D01*
X265603D01*
X266603Y437542D01*
Y433544D01*
X265603Y432544D01*
X263604D01*
X262604Y433544D01*
X260605Y432544D02*
Y436543D01*
X258606Y438542D01*
X256606Y436543D01*
Y432544D01*
Y435543D01*
X260605D01*
X254607Y432544D02*
Y438542D01*
X250608Y432544D01*
Y438542D01*
X248609Y432544D02*
X246609D01*
X247609D01*
Y438542D01*
X248609Y437542D01*
X243610Y431544D02*
X239612D01*
X237612Y432544D02*
Y438542D01*
X234613D01*
X233614Y437542D01*
Y435543D01*
X234613Y434543D01*
X237612D01*
X235613D02*
X233614Y432544D01*
X231614Y438542D02*
X227616Y432544D01*
Y438542D02*
X231614Y432544D01*
X263104Y446542D02*
X264104Y447542D01*
X266103D01*
X267103Y446542D01*
Y442544D01*
X266103Y441544D01*
X264104D01*
X263104Y442544D01*
X261105Y441544D02*
Y445543D01*
X259105Y447542D01*
X257106Y445543D01*
Y441544D01*
Y444543D01*
X261105D01*
X255107Y441544D02*
Y447542D01*
X251108Y441544D01*
Y447542D01*
X249109Y441544D02*
X247109D01*
X248109D01*
Y447542D01*
X249109Y446542D01*
X244110Y440544D02*
X240112D01*
X238112Y447542D02*
X234114D01*
X236113D01*
Y441544D01*
X232114Y447542D02*
X228116Y441544D01*
Y447542D02*
X232114Y441544D01*
X263104Y456042D02*
X264104Y457042D01*
X266103D01*
X267103Y456042D01*
Y452044D01*
X266103Y451044D01*
X264104D01*
X263104Y452044D01*
X261105Y451044D02*
Y455043D01*
X259105Y457042D01*
X257106Y455043D01*
Y451044D01*
Y454043D01*
X261105D01*
X255107Y451044D02*
Y457042D01*
X251108Y451044D01*
Y457042D01*
X249109Y451044D02*
X247109D01*
X248109D01*
Y457042D01*
X249109Y456042D01*
X244110Y450044D02*
X240112D01*
X234114Y457042D02*
X238112D01*
Y451044D01*
X234114D01*
X238112Y454043D02*
X236113D01*
X232114Y451044D02*
Y457042D01*
X229115D01*
X228116Y456042D01*
Y454043D01*
X229115Y453043D01*
X232114D01*
X230115D02*
X228116Y451044D01*
X226116D02*
Y457042D01*
X223117D01*
X222117Y456042D01*
Y454043D01*
X223117Y453043D01*
X226116D01*
X224117D02*
X222117Y451044D01*
X213936Y410045D02*
X214602Y409378D01*
Y408045D01*
X213936Y407379D01*
X211270D01*
X210604Y408045D01*
Y409378D01*
X211270Y410045D01*
X210604Y411378D02*
X214602D01*
X210604Y414044D01*
X214602D01*
X210604Y415377D02*
Y416709D01*
Y416043D01*
X214602D01*
X213936Y415377D01*
M02*
