M48
;Layer_Color=9474304
;FILE_FORMAT=2:5
INCH,TZ
;TYPE=PLATED
T1F00S00C0.02500
T2F00S00C0.03543
T3F00S00C0.04000
T4F00S00C0.04882
%
T01
X192603Y363044
X202603
Y373044
Y383044
Y393044
X192603
Y383044
X192603Y373044
Y403044
X192603Y413044
Y423044
X202603
Y413044
X202603Y403044
X202603Y433044
Y443044
Y453044
X192603Y453044
Y443044
X192603Y433044
T02
X216603Y372544
Y382544
X217103Y438044
Y448044
X288603Y449044
Y439044
Y376044
Y366044
T03
X232103Y402044
Y412044
Y422044
X242103
Y412044
Y402044
T04
X326103Y367265
Y381044
Y435265
Y449044
M30
