G04*
G04 #@! TF.GenerationSoftware,Altium Limited,Altium Designer,20.0.12 (288)*
G04*
G04 Layer_Physical_Order=1*
G04 Layer_Color=255*
%FSLAX25Y25*%
%MOIN*%
G70*
G01*
G75*
%ADD10C,0.01000*%
%ADD15R,0.03937X0.03937*%
%ADD16R,0.03543X0.03937*%
%ADD17R,0.03740X0.03150*%
G04:AMPARAMS|DCode=18|XSize=25.59mil|YSize=64.96mil|CornerRadius=1.92mil|HoleSize=0mil|Usage=FLASHONLY|Rotation=90.000|XOffset=0mil|YOffset=0mil|HoleType=Round|Shape=RoundedRectangle|*
%AMROUNDEDRECTD18*
21,1,0.02559,0.06112,0,0,90.0*
21,1,0.02175,0.06496,0,0,90.0*
1,1,0.00384,0.03056,0.01088*
1,1,0.00384,0.03056,-0.01088*
1,1,0.00384,-0.03056,-0.01088*
1,1,0.00384,-0.03056,0.01088*
%
%ADD18ROUNDEDRECTD18*%
%ADD28C,0.01500*%
%ADD29C,0.02000*%
%ADD30C,0.04724*%
%ADD31C,0.07874*%
%ADD32C,0.06000*%
%ADD33R,0.05000X0.05000*%
%ADD34C,0.05000*%
G36*
X340603Y357044D02*
X187603D01*
Y459044D01*
X340603D01*
Y357044D01*
D02*
G37*
%LPC*%
G36*
X234628Y458113D02*
X229885D01*
Y455259D01*
X229874Y455256D01*
X229779Y455240D01*
X229652Y455229D01*
X229480Y455225D01*
X229418Y455197D01*
X227564D01*
X227134Y455112D01*
X226770Y454869D01*
X226770Y454869D01*
X221068Y449166D01*
X220924D01*
X220870Y449192D01*
X220724Y449201D01*
X220609Y449223D01*
X220481Y449261D01*
X220339Y449319D01*
X220184Y449399D01*
X220018Y449501D01*
X219848Y449622D01*
X219452Y449959D01*
X219244Y450162D01*
X219171Y450191D01*
X218597Y450632D01*
X217876Y450930D01*
X217103Y451032D01*
X216330Y450930D01*
X215609Y450632D01*
X214990Y450157D01*
X214515Y449538D01*
X214217Y448817D01*
X214124Y448114D01*
X214092Y448042D01*
X214073Y447459D01*
X214048Y447228D01*
X214012Y447013D01*
X213966Y446823D01*
X213913Y446658D01*
X213854Y446516D01*
X213790Y446398D01*
X213724Y446302D01*
X213628Y446193D01*
X213608Y446135D01*
X211638Y444166D01*
X206649D01*
X206595Y444192D01*
X206444Y444202D01*
X206323Y444225D01*
X206186Y444268D01*
X206033Y444332D01*
X205866Y444420D01*
X205686Y444533D01*
X205500Y444667D01*
X205069Y445036D01*
X204843Y445258D01*
X204774Y445286D01*
X204166Y445752D01*
X203412Y446064D01*
X202603Y446171D01*
X201794Y446064D01*
X201040Y445752D01*
X200392Y445255D01*
X199895Y444608D01*
X199583Y443854D01*
X199476Y443044D01*
X199583Y442235D01*
X199895Y441481D01*
X200392Y440833D01*
X200863Y440472D01*
X200884Y439959D01*
X200849Y439874D01*
X200585Y439698D01*
X196449Y435562D01*
X196096Y435033D01*
X195972Y434408D01*
Y434319D01*
X195472Y434219D01*
X195311Y434608D01*
X194814Y435255D01*
X194166Y435752D01*
X193412Y436064D01*
X192603Y436171D01*
X191794Y436064D01*
X191040Y435752D01*
X190392Y435255D01*
X189895Y434608D01*
X189583Y433853D01*
X189476Y433044D01*
X189583Y432235D01*
X189895Y431481D01*
X190392Y430833D01*
X191040Y430336D01*
X191794Y430024D01*
X192603Y429917D01*
X193412Y430024D01*
X194166Y430336D01*
X194814Y430833D01*
X195311Y431481D01*
X195472Y431869D01*
X195972Y431770D01*
Y424319D01*
X195472Y424219D01*
X195311Y424608D01*
X194814Y425255D01*
X194166Y425752D01*
X193412Y426064D01*
X192603Y426171D01*
X191794Y426064D01*
X191040Y425752D01*
X190392Y425255D01*
X189895Y424608D01*
X189583Y423853D01*
X189476Y423044D01*
X189583Y422235D01*
X189895Y421481D01*
X190392Y420833D01*
X191040Y420336D01*
X191794Y420024D01*
X192603Y419917D01*
X193412Y420024D01*
X194166Y420336D01*
X194814Y420833D01*
X195311Y421481D01*
X195472Y421869D01*
X195972Y421770D01*
Y414319D01*
X195472Y414219D01*
X195311Y414608D01*
X194814Y415255D01*
X194166Y415752D01*
X193412Y416064D01*
X192603Y416171D01*
X191794Y416064D01*
X191040Y415752D01*
X190392Y415255D01*
X189895Y414608D01*
X189583Y413854D01*
X189476Y413044D01*
X189583Y412235D01*
X189895Y411481D01*
X190392Y410833D01*
X191040Y410336D01*
X191794Y410024D01*
X192603Y409917D01*
X193412Y410024D01*
X194166Y410336D01*
X194814Y410833D01*
X195311Y411481D01*
X195472Y411869D01*
X195972Y411770D01*
Y405225D01*
X195472Y405055D01*
X195099Y405540D01*
X194368Y406102D01*
X193517Y406454D01*
X193103Y406509D01*
Y403044D01*
Y399580D01*
X193517Y399634D01*
X194368Y399987D01*
X195099Y400548D01*
X195472Y401033D01*
X195972Y400864D01*
Y398745D01*
X195937Y398710D01*
X195919Y398667D01*
X194172Y396920D01*
X194132Y396905D01*
X193965Y396749D01*
X193815Y396624D01*
X193665Y396517D01*
X193517Y396427D01*
X193371Y396352D01*
X193226Y396293D01*
X193080Y396249D01*
X192934Y396217D01*
X192786Y396199D01*
X192606Y396193D01*
X192539Y396163D01*
X191794Y396064D01*
X191040Y395752D01*
X190392Y395255D01*
X189895Y394608D01*
X189583Y393853D01*
X189476Y393044D01*
X189583Y392235D01*
X189895Y391481D01*
X190392Y390833D01*
X191040Y390336D01*
X191794Y390024D01*
X192539Y389926D01*
X192606Y389895D01*
X192786Y389889D01*
X192934Y389871D01*
X193080Y389840D01*
X193226Y389795D01*
X193371Y389736D01*
X193517Y389662D01*
X193665Y389572D01*
X193815Y389465D01*
X193965Y389340D01*
X194132Y389183D01*
X194172Y389168D01*
X195949Y387391D01*
X196479Y387037D01*
X197103Y386913D01*
X202737D01*
X202987Y386597D01*
X202762Y386150D01*
X202603Y386171D01*
X201794Y386064D01*
X201040Y385752D01*
X200392Y385255D01*
X199895Y384608D01*
X199583Y383854D01*
X199476Y383044D01*
X199583Y382235D01*
X199895Y381481D01*
X200392Y380833D01*
X201040Y380336D01*
X201794Y380024D01*
X202540Y379926D01*
X202608Y379895D01*
X203241Y379876D01*
X203495Y379849D01*
X203730Y379812D01*
X203938Y379764D01*
X204118Y379708D01*
X204271Y379646D01*
X204398Y379579D01*
X204500Y379509D01*
X204614Y379410D01*
X204671Y379390D01*
X211948Y372113D01*
X211948Y372113D01*
X212312Y371870D01*
X212670Y371799D01*
X212725Y371765D01*
X212757Y371773D01*
X212786Y371758D01*
X212937Y371749D01*
X213048Y371727D01*
X213164Y371689D01*
X213286Y371633D01*
X213415Y371556D01*
X213552Y371455D01*
X213696Y371328D01*
X213845Y371176D01*
X213998Y370997D01*
X214165Y370777D01*
X214275Y370712D01*
X214490Y370431D01*
X215109Y369957D01*
X215830Y369658D01*
X216533Y369566D01*
X216605Y369533D01*
X217188Y369514D01*
X217419Y369489D01*
X217634Y369453D01*
X217824Y369408D01*
X217990Y369355D01*
X218131Y369295D01*
X218249Y369232D01*
X218345Y369165D01*
X218455Y369069D01*
X218512Y369049D01*
X225810Y361751D01*
X225810Y361751D01*
X226174Y361508D01*
X226603Y361423D01*
X226603Y361423D01*
X229418D01*
X229480Y361395D01*
X229652Y361390D01*
X229780Y361379D01*
X229876Y361364D01*
X229885Y361361D01*
Y359976D01*
X234628D01*
Y365113D01*
X229885D01*
Y363727D01*
X229876Y363725D01*
X229780Y363709D01*
X229652Y363698D01*
X229480Y363693D01*
X229418Y363666D01*
X227067D01*
X220098Y370635D01*
X220078Y370693D01*
X219982Y370802D01*
X219915Y370899D01*
X219852Y371016D01*
X219793Y371158D01*
X219740Y371323D01*
X219694Y371513D01*
X219660Y371719D01*
X219618Y372237D01*
X219614Y372528D01*
X219583Y372601D01*
X219489Y373318D01*
X219190Y374038D01*
X218716Y374657D01*
X218675Y374688D01*
X218808Y375216D01*
X219025Y375251D01*
X223885Y370391D01*
X224414Y370037D01*
X225038Y369913D01*
X225589D01*
X225629Y369895D01*
X225991Y369885D01*
X226288Y369859D01*
X226534Y369819D01*
X226725Y369767D01*
X226861Y369712D01*
X226942Y369663D01*
X226980Y369628D01*
X226993Y369609D01*
X227000Y369588D01*
X227013Y369474D01*
X227034Y369434D01*
Y368826D01*
X231427D01*
X231488Y368793D01*
X231525Y368803D01*
X231559Y368789D01*
X231650Y368826D01*
X232172D01*
Y369306D01*
X232205Y369367D01*
X232216Y369470D01*
X232220Y369479D01*
X232228Y369491D01*
X232263Y369522D01*
X232343Y369569D01*
X232479Y369622D01*
X232672Y369672D01*
X232918Y369711D01*
X233215Y369736D01*
X233576Y369745D01*
X233616Y369763D01*
X236590D01*
X236630Y369745D01*
X236991Y369736D01*
X237288Y369711D01*
X237534Y369672D01*
X237726Y369622D01*
X237862Y369569D01*
X237943Y369522D01*
X237978Y369491D01*
X237986Y369479D01*
X237990Y369470D01*
X238001Y369367D01*
X238035Y369306D01*
Y368826D01*
X238556D01*
X238647Y368789D01*
X238681Y368803D01*
X238718Y368793D01*
X238778Y368826D01*
X240864D01*
X241800Y367891D01*
X242329Y367537D01*
X242953Y367413D01*
X248675D01*
X248716Y367395D01*
X249037Y367388D01*
X249309Y367369D01*
X249546Y367338D01*
X249745Y367297D01*
X249905Y367250D01*
X250024Y367200D01*
X250104Y367154D01*
X250151Y367116D01*
X250173Y367089D01*
X250216Y367010D01*
X250277Y366960D01*
X250303Y366886D01*
X250464Y366809D01*
X250602Y366696D01*
X250658Y366702D01*
X250705Y366693D01*
X250751Y366670D01*
X250776Y366679D01*
X250925Y366649D01*
X257037D01*
X257346Y366711D01*
X257608Y366886D01*
X257783Y367148D01*
X257844Y367457D01*
Y369632D01*
X257783Y369941D01*
X257608Y370203D01*
X257346Y370378D01*
X257037Y370439D01*
X252305D01*
X252137Y370551D01*
X251512Y370676D01*
X249521D01*
X249281Y370690D01*
X249263Y370684D01*
X249244Y370691D01*
X248733Y370694D01*
X248731Y370693D01*
X248730Y370694D01*
X248686Y370676D01*
X243629D01*
X243172Y371133D01*
Y373963D01*
X238779D01*
X238718Y373997D01*
X238681Y373986D01*
X238647Y374001D01*
X238556Y373963D01*
X238035D01*
Y373483D01*
X238001Y373422D01*
X237990Y373320D01*
X237986Y373310D01*
X237978Y373298D01*
X237943Y373267D01*
X237862Y373220D01*
X237726Y373167D01*
X237534Y373117D01*
X237288Y373078D01*
X236991Y373053D01*
X236630Y373044D01*
X236590Y373026D01*
X233616D01*
X233576Y373044D01*
X233215Y373053D01*
X232918Y373078D01*
X232672Y373117D01*
X232479Y373167D01*
X232343Y373220D01*
X232263Y373267D01*
X232228Y373298D01*
X232220Y373310D01*
X232216Y373320D01*
X232205Y373422D01*
X232172Y373483D01*
Y373963D01*
X231650D01*
X231559Y374001D01*
X231525Y373986D01*
X231488Y373997D01*
X231427Y373963D01*
X227786D01*
X227730Y373995D01*
X227687Y373983D01*
X227644Y374001D01*
X227555Y373963D01*
X227034D01*
Y373491D01*
X227003Y373435D01*
X226998Y373400D01*
X226985Y373391D01*
X226900Y373348D01*
X226755Y373301D01*
X226565Y373259D01*
X225987Y373201D01*
X225694Y373195D01*
X220692Y378198D01*
X220162Y378551D01*
X219538Y378676D01*
X215643D01*
X214605Y379714D01*
X214935Y380090D01*
X215109Y379957D01*
X215830Y379658D01*
X216603Y379556D01*
X217376Y379658D01*
X218097Y379957D01*
X218716Y380432D01*
X219190Y381050D01*
X219489Y381771D01*
X219582Y382475D01*
X219614Y382547D01*
X219633Y383129D01*
X219658Y383361D01*
X219694Y383575D01*
X219740Y383765D01*
X219793Y383931D01*
X219852Y384072D01*
X219915Y384190D01*
X219982Y384287D01*
X220078Y384396D01*
X220098Y384453D01*
X220567Y384923D01*
X229418D01*
X229480Y384895D01*
X229652Y384891D01*
X229780Y384879D01*
X229876Y384863D01*
X229885Y384861D01*
Y383476D01*
X234628D01*
Y388613D01*
X229885D01*
Y387227D01*
X229876Y387225D01*
X229780Y387209D01*
X229652Y387198D01*
X229480Y387193D01*
X229418Y387166D01*
X220103D01*
X220103Y387166D01*
X219674Y387080D01*
X219310Y386837D01*
X219310Y386837D01*
X218512Y386039D01*
X218455Y386019D01*
X218345Y385923D01*
X218249Y385857D01*
X218131Y385793D01*
X217990Y385734D01*
X217824Y385681D01*
X217634Y385636D01*
X217428Y385601D01*
X216910Y385559D01*
X216620Y385556D01*
X216547Y385525D01*
X215830Y385430D01*
X215109Y385132D01*
X214925Y384991D01*
X214809Y384963D01*
X214547Y384773D01*
X214312Y384614D01*
X213863Y384347D01*
X213674Y384253D01*
X213497Y384176D01*
X213338Y384120D01*
X213199Y384083D01*
X213158Y384076D01*
X206257Y390977D01*
X206238Y391033D01*
X206138Y391147D01*
X206068Y391249D01*
X206001Y391376D01*
X205939Y391529D01*
X205883Y391709D01*
X205836Y391917D01*
X205799Y392144D01*
X205755Y392708D01*
X205752Y393026D01*
X205723Y393094D01*
X205623Y393853D01*
X205311Y394608D01*
X204814Y395255D01*
X204608Y395413D01*
X204778Y395913D01*
X227603D01*
X228227Y396037D01*
X228756Y396391D01*
X229939Y397573D01*
X229978Y397587D01*
X230163Y397758D01*
X230336Y397894D01*
X230517Y398012D01*
X230705Y398115D01*
X230904Y398201D01*
X231112Y398271D01*
X231331Y398326D01*
X231563Y398366D01*
X231808Y398389D01*
X232088Y398395D01*
X232140Y398418D01*
X233043Y398537D01*
X233918Y398900D01*
X234670Y399477D01*
X235247Y400229D01*
X235610Y401104D01*
X235734Y402044D01*
X235610Y402984D01*
X235247Y403860D01*
X234670Y404612D01*
X233918Y405189D01*
X233043Y405551D01*
X232103Y405675D01*
X231163Y405551D01*
X230287Y405189D01*
X229535Y404612D01*
X228958Y403860D01*
X228596Y402984D01*
X228477Y402081D01*
X228454Y402029D01*
X228447Y401750D01*
X228424Y401504D01*
X228385Y401272D01*
X228330Y401053D01*
X228260Y400845D01*
X228173Y400647D01*
X228071Y400458D01*
X227953Y400278D01*
X227817Y400104D01*
X227646Y399919D01*
X227631Y399880D01*
X226927Y399176D01*
X199234D01*
Y401770D01*
X199734Y401869D01*
X199895Y401481D01*
X200392Y400833D01*
X201040Y400336D01*
X201794Y400024D01*
X202603Y399918D01*
X203412Y400024D01*
X204166Y400336D01*
X204814Y400833D01*
X205311Y401481D01*
X205623Y402235D01*
X205730Y403044D01*
X205623Y403854D01*
X205311Y404608D01*
X204814Y405255D01*
X204166Y405752D01*
X203412Y406064D01*
X202603Y406171D01*
X201794Y406064D01*
X201040Y405752D01*
X200392Y405255D01*
X199895Y404608D01*
X199734Y404219D01*
X199234Y404319D01*
Y410864D01*
X199734Y411033D01*
X200107Y410548D01*
X200838Y409987D01*
X201689Y409634D01*
X202103Y409580D01*
Y413044D01*
Y416509D01*
X201689Y416454D01*
X200838Y416101D01*
X200107Y415540D01*
X199734Y415055D01*
X199234Y415225D01*
Y421770D01*
X199734Y421869D01*
X199895Y421481D01*
X200392Y420833D01*
X201040Y420336D01*
X201794Y420024D01*
X202603Y419917D01*
X203412Y420024D01*
X204166Y420336D01*
X204814Y420833D01*
X205311Y421481D01*
X205623Y422235D01*
X205730Y423044D01*
X205623Y423853D01*
X205311Y424608D01*
X204814Y425255D01*
X204166Y425752D01*
X203412Y426064D01*
X202603Y426171D01*
X201794Y426064D01*
X201040Y425752D01*
X200392Y425255D01*
X199895Y424608D01*
X199734Y424219D01*
X199234Y424319D01*
Y431770D01*
X199734Y431869D01*
X199895Y431481D01*
X200392Y430833D01*
X201040Y430336D01*
X201794Y430024D01*
X202603Y429917D01*
X203412Y430024D01*
X204166Y430336D01*
X204764Y430795D01*
X204833Y430821D01*
X205295Y431255D01*
X205493Y431416D01*
X205686Y431555D01*
X205866Y431669D01*
X206033Y431756D01*
X206186Y431821D01*
X206323Y431863D01*
X206444Y431886D01*
X206595Y431896D01*
X206649Y431923D01*
X212103D01*
X212103Y431923D01*
X212532Y432008D01*
X212896Y432251D01*
X215194Y434549D01*
X215251Y434569D01*
X215361Y434665D01*
X215457Y434732D01*
X215575Y434795D01*
X215716Y434855D01*
X215882Y434908D01*
X216072Y434953D01*
X216278Y434987D01*
X216796Y435030D01*
X217086Y435033D01*
X217159Y435064D01*
X217876Y435158D01*
X218539Y435433D01*
X218621Y435443D01*
X218916Y435612D01*
X219447Y435891D01*
X219903Y436095D01*
X220090Y436164D01*
X220259Y436217D01*
X220402Y436252D01*
X220516Y436271D01*
X220639Y436278D01*
X220694Y436305D01*
X227107D01*
X229291Y434120D01*
X229314Y434058D01*
X229668Y433678D01*
X229783Y433535D01*
X229869Y433413D01*
X229885Y433385D01*
Y433148D01*
X229859Y433086D01*
X229880Y433036D01*
X229868Y432983D01*
X229885Y432955D01*
Y429976D01*
X234628D01*
Y435113D01*
X232042D01*
X232015Y435130D01*
X231961Y435117D01*
X231911Y435138D01*
X231850Y435113D01*
X231612D01*
X231585Y435129D01*
X231470Y435210D01*
X231139Y435490D01*
X230948Y435675D01*
X230883Y435700D01*
X228758Y437826D01*
X228965Y438326D01*
X232172D01*
Y439434D01*
X232193Y439474D01*
X232206Y439587D01*
X232213Y439609D01*
X232226Y439628D01*
X232264Y439663D01*
X232345Y439712D01*
X232481Y439767D01*
X232672Y439819D01*
X232918Y439859D01*
X233215Y439886D01*
X233576Y439895D01*
X233617Y439913D01*
X236589D01*
X236629Y439895D01*
X236991Y439886D01*
X237288Y439859D01*
X237534Y439819D01*
X237725Y439767D01*
X237861Y439712D01*
X237942Y439663D01*
X237980Y439628D01*
X237993Y439609D01*
X238000Y439587D01*
X238013Y439474D01*
X238035Y439434D01*
Y438326D01*
X243172D01*
Y439434D01*
X243193Y439474D01*
X243205Y439587D01*
X243213Y439609D01*
X243226Y439628D01*
X243264Y439663D01*
X243345Y439712D01*
X243481Y439767D01*
X243672Y439819D01*
X243918Y439859D01*
X244215Y439886D01*
X244577Y439895D01*
X244617Y439913D01*
X248676D01*
X248717Y439895D01*
X249710Y439875D01*
X250160Y439842D01*
X250308Y439822D01*
X250406Y439803D01*
X250431Y439795D01*
X250454Y439784D01*
X250475Y439782D01*
X250488Y439778D01*
X250503Y439780D01*
X250514Y439779D01*
X250616Y439711D01*
X250695Y439695D01*
X250743Y439671D01*
X250765Y439678D01*
X250787Y439670D01*
X250799Y439674D01*
X250925Y439649D01*
X257037D01*
X257346Y439711D01*
X257608Y439886D01*
X257783Y440148D01*
X257844Y440457D01*
Y442632D01*
X257783Y442941D01*
X257608Y443203D01*
X257346Y443378D01*
X257037Y443439D01*
X250925D01*
X250799Y443414D01*
X250787Y443419D01*
X250765Y443410D01*
X250743Y443418D01*
X250695Y443394D01*
X250616Y443378D01*
X250514Y443310D01*
X250503Y443309D01*
X250488Y443310D01*
X250475Y443306D01*
X250454Y443305D01*
X250431Y443293D01*
X250406Y443286D01*
X250331Y443271D01*
X249083Y443196D01*
X248726Y443194D01*
X248683Y443176D01*
X244612D01*
X244570Y443194D01*
X243866Y443206D01*
X243341Y443240D01*
X243172Y443261D01*
Y443463D01*
X242651D01*
X242562Y443501D01*
X242471Y443463D01*
X242386D01*
X242349Y443465D01*
X242346Y443463D01*
X238860D01*
X238857Y443465D01*
X238820Y443463D01*
X238735D01*
X238644Y443501D01*
X238555Y443463D01*
X238035D01*
Y443264D01*
X237002Y443197D01*
X236641Y443194D01*
X236598Y443176D01*
X233612D01*
X233571Y443194D01*
X232866Y443206D01*
X232341Y443240D01*
X232172Y443261D01*
Y443463D01*
X231651D01*
X231562Y443501D01*
X231470Y443463D01*
X231386D01*
X231349Y443465D01*
X231346Y443463D01*
X228792D01*
X228634Y443495D01*
X228172D01*
X228087Y443551D01*
X227463Y443676D01*
X222190D01*
X221834Y443914D01*
X221209Y444038D01*
X215390D01*
X215372Y444081D01*
X215251Y444569D01*
X215361Y444665D01*
X215457Y444732D01*
X215575Y444795D01*
X215716Y444855D01*
X215882Y444908D01*
X216072Y444953D01*
X216278Y444987D01*
X216796Y445030D01*
X217086Y445033D01*
X217159Y445064D01*
X217876Y445158D01*
X218597Y445457D01*
X219160Y445889D01*
X219234Y445917D01*
X219659Y446315D01*
X219841Y446461D01*
X220018Y446587D01*
X220184Y446690D01*
X220339Y446769D01*
X220481Y446827D01*
X220609Y446866D01*
X220724Y446887D01*
X220870Y446896D01*
X220924Y446923D01*
X221532D01*
X221532Y446923D01*
X221961Y447008D01*
X222325Y447251D01*
X228028Y452954D01*
X229430D01*
X229497Y452926D01*
X229498Y452926D01*
X229498Y452926D01*
X230008Y452927D01*
X230012Y452929D01*
X230016Y452927D01*
X230466Y452934D01*
X230483Y452941D01*
X230488Y452940D01*
X230492Y452938D01*
X230492Y452939D01*
X230501Y452936D01*
X230531Y452938D01*
X230564Y452954D01*
X230620D01*
X230631Y452952D01*
X230640Y452954D01*
X230985D01*
X230985Y452954D01*
X231093Y452976D01*
X234628D01*
Y458113D01*
D02*
G37*
G36*
X279281Y453847D02*
X276725D01*
Y452044D01*
X280496D01*
Y452632D01*
X280404Y453097D01*
X280140Y453491D01*
X279746Y453755D01*
X279281Y453847D01*
D02*
G37*
G36*
X275725D02*
X273169D01*
X272704Y453755D01*
X272310Y453491D01*
X272046Y453097D01*
X271954Y452632D01*
Y452044D01*
X275725D01*
Y453847D01*
D02*
G37*
G36*
X192603Y456171D02*
X191794Y456064D01*
X191040Y455752D01*
X190392Y455255D01*
X189895Y454608D01*
X189583Y453854D01*
X189476Y453044D01*
X189583Y452235D01*
X189895Y451481D01*
X190392Y450833D01*
X191040Y450336D01*
X191794Y450024D01*
X192603Y449918D01*
X193412Y450024D01*
X194166Y450336D01*
X194814Y450833D01*
X195311Y451481D01*
X195623Y452235D01*
X195730Y453044D01*
X195623Y453854D01*
X195311Y454608D01*
X194814Y455255D01*
X194166Y455752D01*
X193412Y456064D01*
X192603Y456171D01*
D02*
G37*
G36*
X202603Y456171D02*
X201794Y456064D01*
X201040Y455752D01*
X200392Y455255D01*
X199895Y454608D01*
X199583Y453854D01*
X199476Y453044D01*
X199583Y452235D01*
X199895Y451481D01*
X200392Y450833D01*
X201040Y450336D01*
X201794Y450024D01*
X202603Y449918D01*
X203412Y450024D01*
X204166Y450336D01*
X204814Y450833D01*
X205311Y451481D01*
X205623Y452235D01*
X205730Y453044D01*
X205623Y453854D01*
X205311Y454608D01*
X204814Y455255D01*
X204166Y455752D01*
X203412Y456064D01*
X202603Y456171D01*
D02*
G37*
G36*
X241321Y458113D02*
X236578D01*
Y452976D01*
X241321D01*
Y454359D01*
X241337Y454364D01*
X241431Y454380D01*
X241556Y454390D01*
X241726Y454395D01*
X241788Y454423D01*
X247548D01*
X249524Y452446D01*
X249547Y452385D01*
X249898Y452006D01*
X250011Y451865D01*
X250096Y451744D01*
X250117Y451706D01*
Y451501D01*
X250081Y451412D01*
X250101Y451363D01*
X250089Y451311D01*
X250117Y451264D01*
Y450457D01*
X250179Y450148D01*
X250354Y449886D01*
X250616Y449711D01*
X250925Y449649D01*
X257037D01*
X257346Y449711D01*
X257608Y449886D01*
X257783Y450148D01*
X257844Y450457D01*
Y452632D01*
X257783Y452941D01*
X257608Y453203D01*
X257346Y453378D01*
X257037Y453439D01*
X252293D01*
X252245Y453468D01*
X252194Y453456D01*
X252144Y453476D01*
X252056Y453439D01*
X251851D01*
X251813Y453461D01*
X251699Y453540D01*
X251371Y453818D01*
X251181Y454001D01*
X251116Y454026D01*
X248805Y456337D01*
X248442Y456580D01*
X248012Y456666D01*
X248012Y456666D01*
X241788D01*
X241726Y456693D01*
X241556Y456698D01*
X241431Y456709D01*
X241337Y456725D01*
X241321Y456729D01*
Y458113D01*
D02*
G37*
G36*
X275725Y451044D02*
X271954D01*
Y450457D01*
X272046Y449992D01*
X272310Y449597D01*
X272704Y449334D01*
X273169Y449241D01*
X275725D01*
Y451044D01*
D02*
G37*
G36*
X326103Y453620D02*
X324919Y453464D01*
X323815Y453007D01*
X322867Y452280D01*
X322140Y451332D01*
X321683Y450229D01*
X321527Y449044D01*
X321565Y448757D01*
X321235Y448381D01*
X305529D01*
X305478Y448404D01*
X305211Y448411D01*
X304998Y448430D01*
X304827Y448458D01*
X304700Y448492D01*
X304619Y448525D01*
X304599Y448537D01*
X304595Y448573D01*
X304573Y448613D01*
Y449180D01*
X301579D01*
X300742Y450017D01*
X300295Y450316D01*
X299768Y450421D01*
X292336D01*
X292287Y450443D01*
X292100Y450451D01*
X291945Y450471D01*
X291793Y450504D01*
X291644Y450551D01*
X291496Y450611D01*
X291348Y450686D01*
X291200Y450777D01*
X291052Y450885D01*
X290903Y451010D01*
X290739Y451167D01*
X290666Y451195D01*
X290097Y451632D01*
X289376Y451930D01*
X288603Y452032D01*
X287830Y451930D01*
X287109Y451632D01*
X286541Y451195D01*
X286467Y451167D01*
X286303Y451010D01*
X286154Y450885D01*
X286006Y450777D01*
X285858Y450686D01*
X285710Y450611D01*
X285562Y450551D01*
X285412Y450504D01*
X285261Y450471D01*
X285105Y450451D01*
X284918Y450443D01*
X284870Y450421D01*
X280975D01*
X280684Y450443D01*
X280496Y450891D01*
Y451044D01*
X276725D01*
Y449241D01*
X278233D01*
X278351Y448741D01*
X278224Y448640D01*
X278021Y448497D01*
X277920Y448439D01*
X277414D01*
X277355Y448464D01*
X277304Y448443D01*
X277252Y448456D01*
X277225Y448439D01*
X273169D01*
X272860Y448378D01*
X272598Y448203D01*
X272423Y447941D01*
X272361Y447632D01*
Y445457D01*
X272423Y445148D01*
X272598Y444886D01*
X272860Y444711D01*
X273169Y444649D01*
X279281D01*
X279590Y444711D01*
X279852Y444886D01*
X280027Y445148D01*
X280088Y445457D01*
Y445576D01*
X280105Y445602D01*
X280093Y445655D01*
X280113Y445705D01*
X280088Y445765D01*
Y446271D01*
X280147Y446372D01*
X280284Y446568D01*
X280720Y447082D01*
X281004Y447375D01*
X281025Y447429D01*
X281264Y447668D01*
X284870D01*
X284918Y447645D01*
X285105Y447638D01*
X285261Y447617D01*
X285412Y447584D01*
X285562Y447538D01*
X285710Y447477D01*
X285858Y447402D01*
X286006Y447311D01*
X286154Y447204D01*
X286303Y447079D01*
X286467Y446922D01*
X286541Y446893D01*
X287109Y446457D01*
X287830Y446158D01*
X288603Y446057D01*
X289376Y446158D01*
X290097Y446457D01*
X290666Y446893D01*
X290739Y446922D01*
X290903Y447079D01*
X291052Y447203D01*
X291200Y447311D01*
X291348Y447402D01*
X291496Y447477D01*
X291644Y447538D01*
X291793Y447584D01*
X291945Y447617D01*
X292100Y447638D01*
X292287Y447645D01*
X292336Y447668D01*
X299198D01*
X299633Y447233D01*
Y444830D01*
X304573D01*
Y445396D01*
X304595Y445436D01*
X304599Y445473D01*
X304619Y445485D01*
X304700Y445518D01*
X304827Y445552D01*
X304998Y445580D01*
X305211Y445599D01*
X305478Y445606D01*
X305529Y445628D01*
X322339D01*
X322866Y445733D01*
X322919Y445769D01*
X323815Y445081D01*
X324919Y444624D01*
X326103Y444468D01*
X327287Y444624D01*
X328391Y445081D01*
X329339Y445808D01*
X330066Y446756D01*
X330523Y447860D01*
X330679Y449044D01*
X330523Y450229D01*
X330066Y451332D01*
X329339Y452280D01*
X328391Y453007D01*
X327287Y453464D01*
X326103Y453620D01*
D02*
G37*
G36*
X243571Y450162D02*
X241103D01*
Y447694D01*
X243571D01*
Y450162D01*
D02*
G37*
G36*
X240103D02*
X237634D01*
Y447694D01*
X240103D01*
Y450162D01*
D02*
G37*
G36*
X232572D02*
X230103D01*
Y447694D01*
X232572D01*
Y450162D01*
D02*
G37*
G36*
X229103D02*
X226635D01*
Y447694D01*
X229103D01*
Y450162D01*
D02*
G37*
G36*
X257037Y448847D02*
X254481D01*
Y447044D01*
X258252D01*
Y447632D01*
X258160Y448097D01*
X257896Y448491D01*
X257502Y448755D01*
X257037Y448847D01*
D02*
G37*
G36*
X253481D02*
X250925D01*
X250460Y448755D01*
X250065Y448491D01*
X249802Y448097D01*
X249710Y447632D01*
Y447044D01*
X253481D01*
Y448847D01*
D02*
G37*
G36*
X258252Y446044D02*
X254481D01*
Y444241D01*
X257037D01*
X257502Y444334D01*
X257896Y444597D01*
X258160Y444991D01*
X258252Y445457D01*
Y446044D01*
D02*
G37*
G36*
X253481D02*
X249710D01*
Y445457D01*
X249802Y444991D01*
X250065Y444597D01*
X250460Y444334D01*
X250925Y444241D01*
X253481D01*
Y446044D01*
D02*
G37*
G36*
X243571Y446694D02*
X241103D01*
Y444225D01*
X243571D01*
Y446694D01*
D02*
G37*
G36*
X240103D02*
X237634D01*
Y444225D01*
X240103D01*
Y446694D01*
D02*
G37*
G36*
X232572D02*
X230103D01*
Y444225D01*
X232572D01*
Y446694D01*
D02*
G37*
G36*
X229103D02*
X226635D01*
Y444225D01*
X229103D01*
Y446694D01*
D02*
G37*
G36*
X304573Y444258D02*
X299633D01*
Y442792D01*
X299603Y442743D01*
X299616Y442691D01*
X299595Y442642D01*
X299633Y442552D01*
Y442085D01*
X299568Y441971D01*
X299432Y441776D01*
X298999Y441264D01*
X298717Y440972D01*
X298696Y440918D01*
X298198Y440421D01*
X292336D01*
X292287Y440443D01*
X292100Y440451D01*
X291945Y440471D01*
X291793Y440504D01*
X291644Y440551D01*
X291496Y440611D01*
X291348Y440686D01*
X291200Y440777D01*
X291052Y440885D01*
X290903Y441010D01*
X290739Y441167D01*
X290666Y441195D01*
X290097Y441632D01*
X289376Y441930D01*
X288603Y442032D01*
X287830Y441930D01*
X287109Y441632D01*
X286541Y441195D01*
X286467Y441167D01*
X286303Y441010D01*
X286154Y440885D01*
X286006Y440777D01*
X285858Y440686D01*
X285710Y440611D01*
X285562Y440551D01*
X285412Y440504D01*
X285261Y440471D01*
X285105Y440451D01*
X284918Y440443D01*
X284870Y440421D01*
X281264D01*
X281031Y440653D01*
X281012Y440704D01*
X280474Y441283D01*
X280289Y441513D01*
X280147Y441717D01*
X280088Y441818D01*
Y442323D01*
X280113Y442383D01*
X280093Y442433D01*
X280105Y442486D01*
X280088Y442513D01*
Y442632D01*
X280027Y442941D01*
X279852Y443203D01*
X279590Y443378D01*
X279281Y443439D01*
X273169D01*
X272860Y443378D01*
X272598Y443203D01*
X272423Y442941D01*
X272361Y442632D01*
Y440457D01*
X272423Y440148D01*
X272598Y439886D01*
X272860Y439711D01*
X273169Y439649D01*
X277225D01*
X277252Y439633D01*
X277304Y439645D01*
X277355Y439624D01*
X277414Y439649D01*
X277920D01*
X278021Y439591D01*
X278217Y439454D01*
X278731Y439018D01*
X278812Y438939D01*
X278610Y438439D01*
X273169D01*
X272860Y438378D01*
X272598Y438203D01*
X272423Y437941D01*
X272414Y437896D01*
X272174D01*
X271550Y437772D01*
X271020Y437418D01*
X266657Y433055D01*
X266617Y433040D01*
X265843Y432321D01*
X265525Y432067D01*
X265241Y431870D01*
X265054Y431762D01*
X264321D01*
X264231Y431800D01*
X264182Y431779D01*
X264130Y431792D01*
X264082Y431762D01*
X263279D01*
X263217Y431796D01*
X263181Y431785D01*
X263146Y431800D01*
X263056Y431762D01*
X262534D01*
Y431282D01*
X262501Y431221D01*
X262490Y431119D01*
X262486Y431109D01*
X262478Y431097D01*
X262443Y431066D01*
X262363Y431019D01*
X262227Y430966D01*
X262034Y430916D01*
X261788Y430877D01*
X261491Y430852D01*
X261130Y430843D01*
X261090Y430825D01*
X248369D01*
X247744Y430701D01*
X247215Y430347D01*
X243606Y426738D01*
X243566Y426723D01*
X243385Y426554D01*
X243210Y426410D01*
X243023Y426276D01*
X242825Y426152D01*
X242616Y426038D01*
X242394Y425934D01*
X242168Y425843D01*
X241644Y425681D01*
X241363Y425618D01*
X241294Y425569D01*
X241163Y425552D01*
X240287Y425189D01*
X239535Y424612D01*
X238958Y423860D01*
X238596Y422984D01*
X238472Y422044D01*
X238596Y421104D01*
X238958Y420229D01*
X239513Y419506D01*
X239533Y419453D01*
X239726Y419251D01*
X239884Y419061D01*
X240020Y418870D01*
X240136Y418675D01*
X240233Y418478D01*
X240312Y418277D01*
X240374Y418072D01*
X240418Y417860D01*
X240444Y417642D01*
X240454Y417390D01*
X240472Y417352D01*
Y416736D01*
X240454Y416698D01*
X240444Y416446D01*
X240418Y416228D01*
X240374Y416016D01*
X240312Y415811D01*
X240233Y415610D01*
X240136Y415413D01*
X240020Y415219D01*
X239884Y415027D01*
X239726Y414838D01*
X239533Y414635D01*
X239513Y414582D01*
X238958Y413860D01*
X238596Y412984D01*
X238472Y412044D01*
X238596Y411104D01*
X238958Y410229D01*
X239513Y409506D01*
X239533Y409453D01*
X239726Y409251D01*
X239884Y409061D01*
X240020Y408870D01*
X240136Y408675D01*
X240233Y408478D01*
X240312Y408277D01*
X240374Y408072D01*
X240418Y407860D01*
X240444Y407642D01*
X240454Y407390D01*
X240472Y407352D01*
Y406736D01*
X240454Y406698D01*
X240444Y406447D01*
X240418Y406228D01*
X240374Y406016D01*
X240312Y405811D01*
X240233Y405610D01*
X240136Y405413D01*
X240020Y405219D01*
X239884Y405027D01*
X239726Y404838D01*
X239533Y404635D01*
X239513Y404582D01*
X238958Y403860D01*
X238596Y402984D01*
X238472Y402044D01*
X238596Y401104D01*
X238958Y400229D01*
X239513Y399506D01*
X239533Y399453D01*
X239726Y399251D01*
X239884Y399061D01*
X240020Y398870D01*
X240136Y398675D01*
X240233Y398478D01*
X240312Y398277D01*
X240374Y398072D01*
X240418Y397860D01*
X240444Y397642D01*
X240454Y397390D01*
X240472Y397352D01*
Y391989D01*
X240596Y391365D01*
X240949Y390836D01*
X244119Y387666D01*
X243912Y387166D01*
X241788D01*
X241726Y387193D01*
X241556Y387198D01*
X241431Y387209D01*
X241337Y387225D01*
X241321Y387229D01*
Y388613D01*
X236578D01*
Y383476D01*
X241321D01*
Y384859D01*
X241337Y384864D01*
X241431Y384879D01*
X241556Y384891D01*
X241726Y384895D01*
X241788Y384923D01*
X244048D01*
X249524Y379446D01*
X249547Y379385D01*
X249898Y379006D01*
X250011Y378865D01*
X250096Y378744D01*
X250117Y378706D01*
Y378501D01*
X250081Y378412D01*
X250101Y378363D01*
X250089Y378311D01*
X250117Y378264D01*
Y377457D01*
X250179Y377148D01*
X250354Y376886D01*
X250616Y376711D01*
X250925Y376649D01*
X257037D01*
X257346Y376711D01*
X257608Y376886D01*
X257783Y377148D01*
X257844Y377457D01*
Y379632D01*
X257783Y379941D01*
X257608Y380203D01*
X257346Y380378D01*
X257037Y380439D01*
X252293D01*
X252245Y380468D01*
X252194Y380456D01*
X252144Y380476D01*
X252056Y380439D01*
X251851D01*
X251813Y380461D01*
X251699Y380540D01*
X251371Y380818D01*
X251181Y381001D01*
X251116Y381026D01*
X248379Y383763D01*
X248587Y384263D01*
X261090D01*
X261130Y384245D01*
X261491Y384236D01*
X261788Y384211D01*
X262034Y384172D01*
X262227Y384122D01*
X262363Y384069D01*
X262443Y384022D01*
X262478Y383991D01*
X262486Y383979D01*
X262490Y383970D01*
X262501Y383867D01*
X262534Y383806D01*
Y383326D01*
X263014D01*
X263075Y383293D01*
X263178Y383281D01*
X263188Y383278D01*
X263200Y383269D01*
X263230Y383235D01*
X263278Y383154D01*
X263331Y383018D01*
X263380Y382826D01*
X263420Y382580D01*
X263445Y382282D01*
X263454Y381922D01*
X263472Y381881D01*
Y372423D01*
X263596Y371798D01*
X263949Y371269D01*
X271078Y364141D01*
X271095Y364098D01*
X271357Y363829D01*
X271580Y363587D01*
X271951Y363141D01*
X272081Y362958D01*
X272185Y362793D01*
X272258Y362656D01*
X272301Y362550D01*
X272319Y362483D01*
X272328Y362393D01*
X272401Y362255D01*
X272423Y362148D01*
X272480Y362062D01*
X272497Y362016D01*
X272517Y362007D01*
X272598Y361886D01*
X272860Y361711D01*
X273169Y361649D01*
X279281D01*
X279590Y361711D01*
X279852Y361886D01*
X280027Y362148D01*
X280088Y362457D01*
Y364632D01*
X280027Y364941D01*
X279852Y365203D01*
X279590Y365378D01*
X279281Y365439D01*
X276025D01*
X275945Y365455D01*
X275571D01*
X275553Y365463D01*
X275531Y365455D01*
X274679D01*
X274507Y365554D01*
X274232Y365746D01*
X273755Y366149D01*
X273939Y366649D01*
X279281D01*
X279407Y366674D01*
X279416Y366671D01*
X279419Y366669D01*
X279452Y366683D01*
X279537Y366700D01*
X279593Y366693D01*
X279724Y366796D01*
X279878Y366860D01*
X279879Y366861D01*
X279913Y366944D01*
X279944Y366968D01*
X279948Y366970D01*
X279952Y366975D01*
X279984Y367000D01*
X279990Y367010D01*
X280022Y367026D01*
X280098Y367054D01*
X280210Y367083D01*
X280348Y367107D01*
X280749Y367141D01*
X280988Y367145D01*
X281040Y367168D01*
X284660D01*
X284778Y367050D01*
X284798Y366998D01*
X284922Y366865D01*
X285027Y366738D01*
X285127Y366599D01*
X285218Y366456D01*
X285403Y366104D01*
X285477Y365931D01*
X285627Y365505D01*
X285691Y365274D01*
X285742Y365210D01*
X286016Y364550D01*
X286490Y363931D01*
X287109Y363457D01*
X287830Y363158D01*
X288603Y363056D01*
X289376Y363158D01*
X290097Y363457D01*
X290666Y363893D01*
X290739Y363922D01*
X290903Y364079D01*
X291052Y364204D01*
X291200Y364311D01*
X291348Y364402D01*
X291496Y364477D01*
X291644Y364538D01*
X291793Y364584D01*
X291945Y364617D01*
X292100Y364637D01*
X292287Y364645D01*
X292336Y364668D01*
X299768D01*
X300295Y364773D01*
X300742Y365071D01*
X301579Y365909D01*
X303798D01*
X303836Y365883D01*
X303902Y365897D01*
X303964Y365871D01*
X304053Y365909D01*
X304573D01*
Y366211D01*
X304618Y366220D01*
X304764Y366242D01*
X305202Y366271D01*
X305470Y366275D01*
X305523Y366298D01*
X319714D01*
X319750Y366278D01*
X319762Y366282D01*
X319774Y366276D01*
X320038Y366258D01*
X320266Y366212D01*
X320506Y366131D01*
X320760Y366012D01*
X321026Y365854D01*
X321304Y365653D01*
X321586Y365415D01*
X322204Y364781D01*
X322521Y364401D01*
X322623Y364347D01*
X322867Y364029D01*
X323815Y363302D01*
X324919Y362844D01*
X326103Y362688D01*
X327287Y362844D01*
X328391Y363302D01*
X329339Y364029D01*
X330066Y364977D01*
X330523Y366080D01*
X330679Y367265D01*
X330523Y368449D01*
X330066Y369553D01*
X329339Y370500D01*
X328391Y371228D01*
X327287Y371685D01*
X326103Y371841D01*
X324919Y371685D01*
X323815Y371228D01*
X323310Y370841D01*
X323187Y370805D01*
X322751Y370455D01*
X322350Y370155D01*
X321591Y369654D01*
X321259Y369470D01*
X320946Y369320D01*
X320659Y369208D01*
X320402Y369131D01*
X320175Y369088D01*
X319935Y369072D01*
X319891Y369051D01*
X305529D01*
X305478Y369073D01*
X305211Y369080D01*
X304999Y369099D01*
X304829Y369127D01*
X304702Y369161D01*
X304621Y369194D01*
X304599Y369207D01*
X304594Y369245D01*
X304573Y369285D01*
Y370258D01*
X299633D01*
Y367855D01*
X299198Y367421D01*
X292336D01*
X292287Y367443D01*
X292100Y367451D01*
X291945Y367471D01*
X291793Y367504D01*
X291644Y367550D01*
X291496Y367611D01*
X291348Y367686D01*
X291200Y367777D01*
X291052Y367885D01*
X290903Y368010D01*
X290739Y368167D01*
X290666Y368195D01*
X290097Y368632D01*
X289376Y368930D01*
X288603Y369032D01*
X287890Y368938D01*
X287815Y368950D01*
X287622Y368905D01*
X287469Y368884D01*
X287328Y368879D01*
X287197Y368889D01*
X287075Y368913D01*
X286957Y368950D01*
X286840Y369002D01*
X286724Y369071D01*
X286606Y369159D01*
X286465Y369288D01*
X286415Y369306D01*
X286204Y369517D01*
X285757Y369816D01*
X285230Y369921D01*
X281050D01*
X281001Y369943D01*
X280527Y369961D01*
X280356Y369980D01*
X280210Y370006D01*
X280098Y370034D01*
X280022Y370062D01*
X279990Y370078D01*
X279984Y370089D01*
X279952Y370114D01*
X279948Y370119D01*
X279944Y370121D01*
X279913Y370145D01*
X279879Y370226D01*
X279878Y370229D01*
X279724Y370293D01*
X279593Y370395D01*
X279537Y370388D01*
X279452Y370405D01*
X279419Y370419D01*
X279417Y370418D01*
X279407Y370414D01*
X279281Y370439D01*
X273169D01*
X272860Y370378D01*
X272598Y370203D01*
X272423Y369941D01*
X272361Y369632D01*
Y368125D01*
X271900Y367933D01*
X266734Y373098D01*
Y381881D01*
X266752Y381922D01*
X266761Y382282D01*
X266786Y382580D01*
X266826Y382826D01*
X266875Y383018D01*
X266928Y383154D01*
X266976Y383235D01*
X267006Y383269D01*
X267018Y383278D01*
X267028Y383281D01*
X267130Y383293D01*
X267192Y383326D01*
X267671D01*
Y383848D01*
X267709Y383938D01*
X267694Y383973D01*
X267705Y384009D01*
X267671Y384070D01*
Y388463D01*
X263279D01*
X263217Y388497D01*
X263181Y388486D01*
X263146Y388500D01*
X263056Y388463D01*
X262534D01*
Y387983D01*
X262501Y387922D01*
X262490Y387820D01*
X262486Y387810D01*
X262478Y387798D01*
X262443Y387767D01*
X262363Y387720D01*
X262227Y387667D01*
X262034Y387617D01*
X261788Y387578D01*
X261491Y387553D01*
X261130Y387544D01*
X261090Y387526D01*
X248873D01*
X243734Y392665D01*
Y397352D01*
X243752Y397390D01*
X243762Y397642D01*
X243788Y397860D01*
X243832Y398072D01*
X243894Y398277D01*
X243972Y398478D01*
X244070Y398675D01*
X244186Y398870D01*
X244322Y399061D01*
X244479Y399251D01*
X244673Y399453D01*
X244693Y399506D01*
X245248Y400229D01*
X245610Y401104D01*
X245734Y402044D01*
X245610Y402984D01*
X245248Y403860D01*
X244693Y404582D01*
X244673Y404635D01*
X244479Y404838D01*
X244322Y405027D01*
X244186Y405219D01*
X244070Y405413D01*
X243972Y405610D01*
X243894Y405811D01*
X243832Y406017D01*
X243788Y406228D01*
X243762Y406447D01*
X243752Y406698D01*
X243734Y406736D01*
Y407352D01*
X243752Y407390D01*
X243762Y407642D01*
X243788Y407860D01*
X243832Y408072D01*
X243894Y408277D01*
X243972Y408478D01*
X244070Y408675D01*
X244186Y408870D01*
X244322Y409061D01*
X244479Y409251D01*
X244673Y409453D01*
X244693Y409506D01*
X245248Y410229D01*
X245610Y411104D01*
X245734Y412044D01*
X245610Y412984D01*
X245248Y413860D01*
X244693Y414582D01*
X244673Y414635D01*
X244479Y414838D01*
X244322Y415027D01*
X244186Y415219D01*
X244070Y415413D01*
X243972Y415610D01*
X243894Y415811D01*
X243832Y416017D01*
X243788Y416228D01*
X243762Y416446D01*
X243752Y416698D01*
X243734Y416736D01*
Y417352D01*
X243752Y417390D01*
X243762Y417642D01*
X243788Y417860D01*
X243832Y418072D01*
X243894Y418277D01*
X243972Y418478D01*
X244070Y418676D01*
X244186Y418870D01*
X244322Y419061D01*
X244479Y419251D01*
X244673Y419453D01*
X244693Y419506D01*
X245248Y420229D01*
X245610Y421104D01*
X245734Y422044D01*
X245647Y422707D01*
X245670Y422813D01*
X245625Y423064D01*
X245607Y423275D01*
X245610Y423475D01*
X245633Y423663D01*
X245675Y423844D01*
X245736Y424019D01*
X245818Y424190D01*
X245923Y424360D01*
X246051Y424529D01*
X246224Y424718D01*
X246238Y424756D01*
X246286Y424804D01*
X246295Y424811D01*
X246296Y424814D01*
X249044Y427563D01*
X261090D01*
X261130Y427545D01*
X261491Y427535D01*
X261788Y427510D01*
X262034Y427471D01*
X262227Y427422D01*
X262363Y427368D01*
X262443Y427321D01*
X262478Y427291D01*
X262486Y427279D01*
X262490Y427269D01*
X262501Y427166D01*
X262534Y427105D01*
Y426625D01*
X263056D01*
X263146Y426588D01*
X263181Y426602D01*
X263217Y426592D01*
X263279Y426625D01*
X267671D01*
Y428172D01*
X267701Y428221D01*
X267688Y428272D01*
X267709Y428322D01*
X267671Y428412D01*
Y429145D01*
X267779Y429332D01*
X267971Y429609D01*
X268560Y430304D01*
X268941Y430699D01*
X268957Y430741D01*
X272849Y434633D01*
X275945D01*
X276025Y434649D01*
X279281D01*
X279590Y434711D01*
X279852Y434886D01*
X280027Y435148D01*
X280088Y435457D01*
Y437263D01*
X280570Y437677D01*
X280615Y437668D01*
X284870D01*
X284918Y437645D01*
X285105Y437638D01*
X285261Y437617D01*
X285412Y437584D01*
X285562Y437538D01*
X285710Y437477D01*
X285858Y437402D01*
X286006Y437311D01*
X286154Y437204D01*
X286303Y437079D01*
X286467Y436922D01*
X286541Y436893D01*
X287109Y436457D01*
X287830Y436158D01*
X288603Y436057D01*
X289376Y436158D01*
X290097Y436457D01*
X290666Y436893D01*
X290739Y436922D01*
X290903Y437079D01*
X291052Y437204D01*
X291200Y437311D01*
X291348Y437402D01*
X291496Y437477D01*
X291644Y437538D01*
X291793Y437584D01*
X291945Y437617D01*
X292100Y437638D01*
X292287Y437645D01*
X292336Y437668D01*
X298768D01*
X299295Y437773D01*
X299742Y438071D01*
X300636Y438965D01*
X300687Y438984D01*
X301263Y439520D01*
X301493Y439703D01*
X301695Y439844D01*
X301809Y439909D01*
X302276D01*
X302366Y439871D01*
X302415Y439892D01*
X302467Y439879D01*
X302516Y439909D01*
X304573D01*
Y440475D01*
X304595Y440515D01*
X304599Y440551D01*
X304619Y440564D01*
X304700Y440597D01*
X304827Y440630D01*
X304998Y440659D01*
X305211Y440677D01*
X305478Y440684D01*
X305529Y440707D01*
X320493D01*
X321502Y439698D01*
X321511Y439633D01*
X321561Y439595D01*
X321581Y439535D01*
X321749Y439341D01*
X321859Y439167D01*
X321945Y438972D01*
X322007Y438750D01*
X322045Y438497D01*
X322054Y438211D01*
X322031Y437890D01*
X321975Y437535D01*
X321884Y437148D01*
X321751Y436711D01*
X321759Y436632D01*
X321683Y436449D01*
X321527Y435265D01*
X321683Y434080D01*
X322140Y432977D01*
X322867Y432029D01*
X323815Y431302D01*
X324919Y430844D01*
X326103Y430688D01*
X327287Y430844D01*
X328391Y431302D01*
X329339Y432029D01*
X330066Y432977D01*
X330523Y434080D01*
X330679Y435265D01*
X330523Y436449D01*
X330066Y437553D01*
X329339Y438500D01*
X328391Y439228D01*
X327568Y439569D01*
X327490Y439636D01*
X326342Y440018D01*
X325405Y440371D01*
X324667Y440698D01*
X324386Y440844D01*
X324157Y440981D01*
X323987Y441101D01*
X323842Y441227D01*
X323796Y441243D01*
X323686Y441353D01*
X323576Y441517D01*
X322037Y443057D01*
X321590Y443355D01*
X321064Y443460D01*
X305529D01*
X305478Y443483D01*
X305211Y443490D01*
X304998Y443508D01*
X304827Y443537D01*
X304700Y443571D01*
X304619Y443603D01*
X304599Y443616D01*
X304595Y443652D01*
X304573Y443692D01*
Y444258D01*
D02*
G37*
G36*
X192603Y446171D02*
X191794Y446064D01*
X191040Y445752D01*
X190392Y445255D01*
X189895Y444608D01*
X189583Y443853D01*
X189476Y443044D01*
X189583Y442235D01*
X189895Y441481D01*
X190392Y440833D01*
X191040Y440336D01*
X191794Y440024D01*
X192603Y439917D01*
X193412Y440024D01*
X194166Y440336D01*
X194814Y440833D01*
X195311Y441481D01*
X195623Y442235D01*
X195730Y443044D01*
X195623Y443853D01*
X195311Y444608D01*
X194814Y445255D01*
X194166Y445752D01*
X193412Y446064D01*
X192603Y446171D01*
D02*
G37*
G36*
X257037Y438439D02*
X250925D01*
X250616Y438378D01*
X250354Y438203D01*
X250179Y437941D01*
X250117Y437632D01*
Y436806D01*
X250101Y436780D01*
X250114Y436727D01*
X250093Y436676D01*
X250117Y436616D01*
Y436376D01*
X250102Y436350D01*
X250021Y436235D01*
X249741Y435904D01*
X249556Y435713D01*
X249530Y435648D01*
X247548Y433666D01*
X241788D01*
X241726Y433693D01*
X241556Y433698D01*
X241431Y433709D01*
X241337Y433725D01*
X241321Y433729D01*
Y435113D01*
X236578D01*
Y429976D01*
X241321D01*
Y431359D01*
X241337Y431364D01*
X241431Y431380D01*
X241556Y431390D01*
X241726Y431395D01*
X241788Y431423D01*
X248012D01*
X248012Y431423D01*
X248442Y431508D01*
X248805Y431751D01*
X251111Y434056D01*
X251172Y434079D01*
X251553Y434433D01*
X251696Y434548D01*
X251818Y434634D01*
X251845Y434649D01*
X252084D01*
X252144Y434624D01*
X252195Y434645D01*
X252248Y434633D01*
X252274Y434649D01*
X257037D01*
X257346Y434711D01*
X257608Y434886D01*
X257783Y435148D01*
X257844Y435457D01*
Y437632D01*
X257783Y437941D01*
X257608Y438203D01*
X257346Y438378D01*
X257037Y438439D01*
D02*
G37*
G36*
X268072Y425863D02*
X265603D01*
Y423395D01*
X268072D01*
Y425863D01*
D02*
G37*
G36*
X264603D02*
X262135D01*
Y423395D01*
X264603D01*
Y425863D01*
D02*
G37*
G36*
X268072Y422395D02*
X265603D01*
Y419926D01*
X268072D01*
Y422395D01*
D02*
G37*
G36*
X264603D02*
X262135D01*
Y419926D01*
X264603D01*
Y422395D01*
D02*
G37*
G36*
X232103Y425675D02*
X231163Y425552D01*
X230287Y425189D01*
X229535Y424612D01*
X228958Y423860D01*
X228596Y422984D01*
X228472Y422044D01*
X228596Y421104D01*
X228958Y420229D01*
X229535Y419477D01*
X230287Y418900D01*
X231163Y418537D01*
X232103Y418413D01*
X233043Y418537D01*
X233918Y418900D01*
X234670Y419477D01*
X235247Y420229D01*
X235610Y421104D01*
X235734Y422044D01*
X235610Y422984D01*
X235247Y423860D01*
X234670Y424612D01*
X233918Y425189D01*
X233043Y425552D01*
X232103Y425675D01*
D02*
G37*
G36*
X203103Y416509D02*
Y413544D01*
X206067D01*
X206013Y413958D01*
X205660Y414809D01*
X205099Y415540D01*
X204368Y416101D01*
X203517Y416454D01*
X203103Y416509D01*
D02*
G37*
G36*
X206067Y412544D02*
X203103D01*
Y409580D01*
X203517Y409634D01*
X204368Y409987D01*
X205099Y410548D01*
X205660Y411279D01*
X206013Y412130D01*
X206067Y412544D01*
D02*
G37*
G36*
X232103Y415675D02*
X231163Y415552D01*
X230287Y415189D01*
X229535Y414612D01*
X228958Y413860D01*
X228596Y412984D01*
X228472Y412044D01*
X228596Y411104D01*
X228958Y410229D01*
X229535Y409477D01*
X230287Y408900D01*
X231163Y408537D01*
X232103Y408413D01*
X233043Y408537D01*
X233918Y408900D01*
X234670Y409477D01*
X235247Y410229D01*
X235610Y411104D01*
X235734Y412044D01*
X235610Y412984D01*
X235247Y413860D01*
X234670Y414612D01*
X233918Y415189D01*
X233043Y415552D01*
X232103Y415675D01*
D02*
G37*
G36*
X192103Y406509D02*
X191689Y406454D01*
X190838Y406102D01*
X190107Y405540D01*
X189546Y404809D01*
X189193Y403958D01*
X189139Y403544D01*
X192103D01*
Y406509D01*
D02*
G37*
G36*
Y402544D02*
X189139D01*
X189193Y402131D01*
X189546Y401279D01*
X190107Y400548D01*
X190838Y399987D01*
X191689Y399634D01*
X192103Y399580D01*
Y402544D01*
D02*
G37*
G36*
X268072Y395162D02*
X265603D01*
Y392694D01*
X268072D01*
Y395162D01*
D02*
G37*
G36*
X264603D02*
X262135D01*
Y392694D01*
X264603D01*
Y395162D01*
D02*
G37*
G36*
X268072Y391694D02*
X265603D01*
Y389225D01*
X268072D01*
Y391694D01*
D02*
G37*
G36*
X264603D02*
X262135D01*
Y389225D01*
X264603D01*
Y391694D01*
D02*
G37*
G36*
X192603Y386171D02*
X191794Y386064D01*
X191040Y385752D01*
X190392Y385255D01*
X189895Y384608D01*
X189583Y383854D01*
X189476Y383044D01*
X189583Y382235D01*
X189895Y381481D01*
X190392Y380833D01*
X191040Y380336D01*
X191794Y380024D01*
X192603Y379918D01*
X193412Y380024D01*
X194166Y380336D01*
X194814Y380833D01*
X195311Y381481D01*
X195623Y382235D01*
X195730Y383044D01*
X195623Y383854D01*
X195311Y384608D01*
X194814Y385255D01*
X194166Y385752D01*
X193412Y386064D01*
X192603Y386171D01*
D02*
G37*
G36*
X279281Y380847D02*
X276725D01*
Y379044D01*
X280496D01*
Y379632D01*
X280404Y380097D01*
X280140Y380491D01*
X279746Y380755D01*
X279281Y380847D01*
D02*
G37*
G36*
X275725D02*
X273169D01*
X272704Y380755D01*
X272310Y380491D01*
X272046Y380097D01*
X271954Y379632D01*
Y379044D01*
X275725D01*
Y380847D01*
D02*
G37*
G36*
X243571Y380662D02*
X241103D01*
Y378194D01*
X243571D01*
Y380662D01*
D02*
G37*
G36*
X240103D02*
X237634D01*
Y378194D01*
X240103D01*
Y380662D01*
D02*
G37*
G36*
X232572D02*
X230103D01*
Y378194D01*
X232572D01*
Y380662D01*
D02*
G37*
G36*
X229103D02*
X226635D01*
Y378194D01*
X229103D01*
Y380662D01*
D02*
G37*
G36*
X280496Y378044D02*
X276725D01*
Y376241D01*
X279281D01*
X279746Y376334D01*
X280140Y376597D01*
X280404Y376992D01*
X280496Y377457D01*
Y378044D01*
D02*
G37*
G36*
X275725D02*
X271954D01*
Y377457D01*
X272046Y376992D01*
X272310Y376597D01*
X272704Y376334D01*
X273169Y376241D01*
X275725D01*
Y378044D01*
D02*
G37*
G36*
X243571Y377194D02*
X241103D01*
Y374725D01*
X243571D01*
Y377194D01*
D02*
G37*
G36*
X240103D02*
X237634D01*
Y374725D01*
X240103D01*
Y377194D01*
D02*
G37*
G36*
X232572D02*
X230103D01*
Y374725D01*
X232572D01*
Y377194D01*
D02*
G37*
G36*
X229103D02*
X226635D01*
Y374725D01*
X229103D01*
Y377194D01*
D02*
G37*
G36*
X326103Y385620D02*
X324919Y385464D01*
X323815Y385007D01*
X322867Y384280D01*
X322140Y383332D01*
X321683Y382229D01*
X321527Y381046D01*
X321517Y381024D01*
X321487Y379995D01*
X321444Y379562D01*
X321382Y379164D01*
X321302Y378806D01*
X321207Y378491D01*
X321098Y378217D01*
X320977Y377984D01*
X320847Y377790D01*
X320680Y377598D01*
X320665Y377553D01*
X317493Y374381D01*
X305529D01*
X305478Y374404D01*
X305211Y374411D01*
X304998Y374430D01*
X304827Y374458D01*
X304700Y374492D01*
X304619Y374525D01*
X304599Y374537D01*
X304595Y374573D01*
X304573Y374613D01*
Y375180D01*
X302497D01*
X302469Y375197D01*
X302416Y375184D01*
X302366Y375205D01*
X302305Y375180D01*
X301802D01*
X301700Y375239D01*
X301504Y375376D01*
X300990Y375812D01*
X300696Y376095D01*
X300643Y376116D01*
X299742Y377017D01*
X299295Y377316D01*
X298768Y377421D01*
X292336D01*
X292287Y377443D01*
X292100Y377451D01*
X291945Y377471D01*
X291793Y377504D01*
X291644Y377551D01*
X291496Y377611D01*
X291348Y377686D01*
X291200Y377777D01*
X291052Y377885D01*
X290903Y378010D01*
X290739Y378167D01*
X290666Y378195D01*
X290097Y378632D01*
X289376Y378930D01*
X288603Y379032D01*
X287830Y378930D01*
X287109Y378632D01*
X286490Y378157D01*
X286016Y377538D01*
X285742Y376879D01*
X285691Y376814D01*
X285625Y376576D01*
X285558Y376371D01*
X285396Y375970D01*
X285314Y375802D01*
X285223Y375640D01*
X285127Y375490D01*
X285027Y375351D01*
X284922Y375223D01*
X284798Y375090D01*
X284778Y375039D01*
X284660Y374921D01*
X281050D01*
X281001Y374943D01*
X280527Y374961D01*
X280356Y374980D01*
X280210Y375006D01*
X280098Y375034D01*
X280022Y375062D01*
X279990Y375078D01*
X279984Y375089D01*
X279952Y375114D01*
X279948Y375119D01*
X279944Y375121D01*
X279913Y375145D01*
X279879Y375226D01*
X279878Y375229D01*
X279724Y375293D01*
X279593Y375395D01*
X279537Y375388D01*
X279452Y375405D01*
X279419Y375419D01*
X279417Y375418D01*
X279407Y375414D01*
X279281Y375439D01*
X273169D01*
X272860Y375378D01*
X272598Y375203D01*
X272423Y374941D01*
X272361Y374632D01*
Y372457D01*
X272423Y372148D01*
X272598Y371886D01*
X272860Y371711D01*
X273169Y371649D01*
X279281D01*
X279407Y371674D01*
X279416Y371671D01*
X279419Y371669D01*
X279452Y371683D01*
X279537Y371700D01*
X279593Y371693D01*
X279724Y371796D01*
X279878Y371860D01*
X279879Y371861D01*
X279913Y371944D01*
X279944Y371968D01*
X279948Y371970D01*
X279952Y371975D01*
X279984Y372000D01*
X279990Y372010D01*
X280022Y372026D01*
X280098Y372054D01*
X280210Y372083D01*
X280348Y372107D01*
X280749Y372141D01*
X280988Y372145D01*
X281040Y372168D01*
X285230D01*
X285757Y372272D01*
X286204Y372571D01*
X286415Y372783D01*
X286465Y372800D01*
X286606Y372929D01*
X286724Y373017D01*
X286840Y373086D01*
X286957Y373138D01*
X287075Y373176D01*
X287197Y373199D01*
X287328Y373209D01*
X287469Y373204D01*
X287622Y373183D01*
X287815Y373138D01*
X287890Y373150D01*
X288603Y373056D01*
X289376Y373158D01*
X290097Y373457D01*
X290666Y373893D01*
X290739Y373922D01*
X290903Y374079D01*
X291052Y374203D01*
X291200Y374311D01*
X291348Y374402D01*
X291496Y374477D01*
X291644Y374538D01*
X291793Y374584D01*
X291945Y374618D01*
X292100Y374638D01*
X292287Y374645D01*
X292336Y374668D01*
X298198D01*
X298690Y374176D01*
X298709Y374126D01*
X299247Y373547D01*
X299432Y373316D01*
X299574Y373113D01*
X299633Y373010D01*
Y372508D01*
X299607Y372446D01*
X299628Y372396D01*
X299616Y372343D01*
X299633Y372316D01*
Y370830D01*
X304573D01*
Y371396D01*
X304595Y371436D01*
X304599Y371473D01*
X304619Y371485D01*
X304700Y371518D01*
X304827Y371552D01*
X304998Y371580D01*
X305211Y371599D01*
X305478Y371606D01*
X305529Y371628D01*
X318064D01*
X318590Y371733D01*
X319037Y372031D01*
X322611Y375606D01*
X322657Y375621D01*
X322849Y375789D01*
X323042Y375919D01*
X323275Y376039D01*
X323550Y376148D01*
X323865Y376243D01*
X324223Y376323D01*
X324613Y376384D01*
X325547Y376453D01*
X326069Y376458D01*
X326095Y376469D01*
X326103Y376468D01*
X327287Y376624D01*
X328391Y377081D01*
X329339Y377808D01*
X330066Y378756D01*
X330523Y379860D01*
X330679Y381044D01*
X330523Y382229D01*
X330066Y383332D01*
X329339Y384280D01*
X328391Y385007D01*
X327287Y385464D01*
X326103Y385620D01*
D02*
G37*
G36*
X257037Y375847D02*
X254481D01*
Y374044D01*
X258252D01*
Y374632D01*
X258160Y375097D01*
X257896Y375491D01*
X257502Y375755D01*
X257037Y375847D01*
D02*
G37*
G36*
X253481D02*
X250925D01*
X250460Y375755D01*
X250065Y375491D01*
X249802Y375097D01*
X249710Y374632D01*
Y374044D01*
X253481D01*
Y375847D01*
D02*
G37*
G36*
X258252Y373044D02*
X254481D01*
Y371241D01*
X257037D01*
X257502Y371334D01*
X257896Y371597D01*
X258160Y371991D01*
X258252Y372457D01*
Y373044D01*
D02*
G37*
G36*
X253481D02*
X249710D01*
Y372457D01*
X249802Y371991D01*
X250065Y371597D01*
X250460Y371334D01*
X250925Y371241D01*
X253481D01*
Y373044D01*
D02*
G37*
G36*
X202603Y376171D02*
X201794Y376064D01*
X201040Y375752D01*
X200392Y375255D01*
X199895Y374608D01*
X199583Y373853D01*
X199476Y373044D01*
X199583Y372235D01*
X199895Y371481D01*
X200392Y370833D01*
X201040Y370336D01*
X201794Y370024D01*
X202603Y369917D01*
X203412Y370024D01*
X204166Y370336D01*
X204814Y370833D01*
X205311Y371481D01*
X205623Y372235D01*
X205730Y373044D01*
X205623Y373853D01*
X205311Y374608D01*
X204814Y375255D01*
X204166Y375752D01*
X203412Y376064D01*
X202603Y376171D01*
D02*
G37*
G36*
X192603D02*
X191794Y376064D01*
X191040Y375752D01*
X190392Y375255D01*
X189895Y374608D01*
X189583Y373853D01*
X189476Y373044D01*
X189583Y372235D01*
X189895Y371481D01*
X190392Y370833D01*
X191040Y370336D01*
X191794Y370024D01*
X192603Y369917D01*
X193412Y370024D01*
X194166Y370336D01*
X194814Y370833D01*
X195311Y371481D01*
X195623Y372235D01*
X195730Y373044D01*
X195623Y373853D01*
X195311Y374608D01*
X194814Y375255D01*
X194166Y375752D01*
X193412Y376064D01*
X192603Y376171D01*
D02*
G37*
G36*
X257037Y365439D02*
X250925D01*
X250616Y365378D01*
X250354Y365203D01*
X250179Y364941D01*
X250117Y364632D01*
Y363722D01*
X250040Y363709D01*
X249901Y363698D01*
X249714Y363693D01*
X249652Y363666D01*
X241788D01*
X241726Y363693D01*
X241556Y363698D01*
X241431Y363709D01*
X241337Y363725D01*
X241321Y363729D01*
Y365113D01*
X236578D01*
Y359976D01*
X241321D01*
Y361360D01*
X241337Y361364D01*
X241431Y361380D01*
X241556Y361390D01*
X241726Y361395D01*
X241788Y361423D01*
X249663D01*
X249730Y361395D01*
X249738Y361398D01*
X249745Y361395D01*
X250575Y361415D01*
X250594Y361423D01*
X250613Y361417D01*
X250688Y361423D01*
X251012D01*
X251012Y361423D01*
X251442Y361508D01*
X251653Y361649D01*
X257037D01*
X257346Y361711D01*
X257608Y361886D01*
X257783Y362148D01*
X257844Y362457D01*
Y364632D01*
X257783Y364941D01*
X257608Y365203D01*
X257346Y365378D01*
X257037Y365439D01*
D02*
G37*
G36*
X205703Y366144D02*
X199503D01*
Y359944D01*
X205703D01*
Y366144D01*
D02*
G37*
G36*
X192603Y366171D02*
X191794Y366064D01*
X191040Y365752D01*
X190392Y365255D01*
X189895Y364608D01*
X189583Y363854D01*
X189476Y363044D01*
X189583Y362235D01*
X189895Y361481D01*
X190392Y360833D01*
X191040Y360336D01*
X191794Y360024D01*
X192603Y359917D01*
X193412Y360024D01*
X194166Y360336D01*
X194814Y360833D01*
X195311Y361481D01*
X195623Y362235D01*
X195730Y363044D01*
X195623Y363854D01*
X195311Y364608D01*
X194814Y365255D01*
X194166Y365752D01*
X193412Y366064D01*
X192603Y366171D01*
D02*
G37*
%LPD*%
G36*
X230497Y453588D02*
X230487Y453585D01*
X230457Y453583D01*
X230007Y453577D01*
X229497Y453576D01*
Y454576D01*
X229688Y454581D01*
X229860Y454596D01*
X230011Y454621D01*
X230143Y454656D01*
X230254Y454701D01*
X230345Y454756D01*
X230416Y454821D01*
X230467Y454896D01*
X230498Y454981D01*
X230509Y455076D01*
X230497Y453588D01*
D02*
G37*
G36*
X219014Y449479D02*
X219448Y449110D01*
X219659Y448959D01*
X219865Y448833D01*
X220067Y448729D01*
X220264Y448648D01*
X220457Y448590D01*
X220645Y448556D01*
X220829Y448544D01*
Y447544D01*
X220645Y447533D01*
X220457Y447498D01*
X220264Y447440D01*
X220067Y447360D01*
X219865Y447256D01*
X219659Y447129D01*
X219448Y446979D01*
X219233Y446806D01*
X218790Y446391D01*
Y449698D01*
X219014Y449479D01*
D02*
G37*
G36*
X217079Y445682D02*
X216766Y445679D01*
X216198Y445633D01*
X215943Y445590D01*
X215707Y445534D01*
X215491Y445465D01*
X215295Y445382D01*
X215118Y445287D01*
X214960Y445178D01*
X214822Y445056D01*
X214115Y445763D01*
X214237Y445901D01*
X214345Y446059D01*
X214441Y446236D01*
X214523Y446433D01*
X214592Y446649D01*
X214648Y446884D01*
X214691Y447139D01*
X214721Y447413D01*
X214741Y448021D01*
X217079Y445682D01*
D02*
G37*
G36*
X204630Y444557D02*
X205098Y444157D01*
X205323Y443994D01*
X205542Y443857D01*
X205755Y443744D01*
X205963Y443657D01*
X206165Y443594D01*
X206362Y443557D01*
X206552Y443544D01*
Y442544D01*
X206362Y442532D01*
X206165Y442494D01*
X205963Y442432D01*
X205755Y442344D01*
X205542Y442232D01*
X205323Y442094D01*
X205098Y441932D01*
X204867Y441744D01*
X204388Y441294D01*
Y444794D01*
X204630Y444557D01*
D02*
G37*
G36*
X250787Y440319D02*
X250750Y440362D01*
X250675Y440400D01*
X250563Y440434D01*
X250413Y440463D01*
X250226Y440488D01*
X249740Y440524D01*
X248730Y440544D01*
Y442544D01*
X249104Y442547D01*
X250413Y442625D01*
X250563Y442655D01*
X250675Y442688D01*
X250750Y442727D01*
X250787Y442769D01*
Y440319D01*
D02*
G37*
G36*
X242579Y442793D02*
X242639Y442741D01*
X242739Y442695D01*
X242879Y442655D01*
X243059Y442621D01*
X243279Y442593D01*
X243839Y442556D01*
X244560Y442544D01*
Y440544D01*
X244178Y440534D01*
X243836Y440504D01*
X243535Y440454D01*
X243273Y440384D01*
X243052Y440294D01*
X242871Y440184D01*
X242730Y440054D01*
X242629Y439904D01*
X242568Y439734D01*
X242547Y439544D01*
X242560Y442851D01*
X242579Y442793D01*
D02*
G37*
G36*
X238658Y439544D02*
X238638Y439734D01*
X238577Y439904D01*
X238476Y440054D01*
X238335Y440184D01*
X238154Y440294D01*
X237932Y440384D01*
X237671Y440454D01*
X237370Y440504D01*
X237028Y440534D01*
X236647Y440544D01*
Y442544D01*
X237027Y442547D01*
X238146Y442621D01*
X238327Y442655D01*
X238466Y442695D01*
X238566Y442741D01*
X238627Y442793D01*
X238647Y442851D01*
X238658Y439544D01*
D02*
G37*
G36*
X231579Y442793D02*
X231639Y442741D01*
X231739Y442695D01*
X231879Y442655D01*
X232060Y442621D01*
X232279Y442593D01*
X232839Y442556D01*
X233559Y442544D01*
Y440544D01*
X233178Y440534D01*
X232836Y440504D01*
X232535Y440454D01*
X232274Y440384D01*
X232052Y440294D01*
X231871Y440184D01*
X231730Y440054D01*
X231629Y439904D01*
X231568Y439734D01*
X231547Y439544D01*
X231559Y442851D01*
X231579Y442793D01*
D02*
G37*
G36*
X219309Y438957D02*
X219461Y438741D01*
X219618Y438550D01*
X219780Y438384D01*
X219949Y438244D01*
X220124Y438130D01*
X220304Y438041D01*
X220490Y437977D01*
X220682Y437939D01*
X220880Y437926D01*
X220601Y436926D01*
X220446Y436917D01*
X220273Y436889D01*
X220085Y436843D01*
X219879Y436779D01*
X219657Y436696D01*
X219164Y436476D01*
X218603Y436181D01*
X218298Y436007D01*
X219164Y439199D01*
X219309Y438957D01*
D02*
G37*
G36*
X217079Y435682D02*
X216766Y435679D01*
X216198Y435633D01*
X215943Y435590D01*
X215707Y435534D01*
X215491Y435464D01*
X215295Y435382D01*
X215118Y435287D01*
X214960Y435178D01*
X214822Y435056D01*
X214115Y435763D01*
X214237Y435901D01*
X214345Y436059D01*
X214441Y436236D01*
X214523Y436433D01*
X214592Y436649D01*
X214648Y436884D01*
X214691Y437139D01*
X214721Y437413D01*
X214741Y438021D01*
X217079Y435682D01*
D02*
G37*
G36*
X214185Y438577D02*
X214124Y438114D01*
X214092Y438042D01*
X214073Y437459D01*
X214048Y437228D01*
X214012Y437013D01*
X213966Y436823D01*
X213913Y436658D01*
X213854Y436516D01*
X213790Y436398D01*
X213724Y436302D01*
X213628Y436193D01*
X213608Y436135D01*
X211638Y434166D01*
X206649D01*
X206595Y434192D01*
X206444Y434202D01*
X206323Y434225D01*
X206186Y434268D01*
X206033Y434332D01*
X205866Y434420D01*
X205686Y434533D01*
X205500Y434667D01*
X205069Y435036D01*
X204843Y435258D01*
X204774Y435286D01*
X204166Y435752D01*
X203412Y436064D01*
X202603Y436171D01*
X202444Y436150D01*
X202219Y436597D01*
X202469Y436913D01*
X211139D01*
X211763Y437037D01*
X212292Y437391D01*
X213712Y438810D01*
X214185Y438577D01*
D02*
G37*
G36*
X230703Y435009D02*
X231072Y434695D01*
X231235Y434581D01*
X231384Y434495D01*
X231518Y434437D01*
X231638Y434408D01*
X231743Y434406D01*
X231834Y434433D01*
X231911Y434489D01*
X230509Y433086D01*
X230564Y433163D01*
X230591Y433254D01*
X230590Y433360D01*
X230561Y433480D01*
X230503Y433614D01*
X230417Y433762D01*
X230303Y433925D01*
X230160Y434103D01*
X229790Y434501D01*
X230497Y435208D01*
X230703Y435009D01*
D02*
G37*
G36*
X204630Y434557D02*
X205098Y434157D01*
X205323Y433994D01*
X205542Y433857D01*
X205755Y433744D01*
X205963Y433657D01*
X206165Y433594D01*
X206362Y433557D01*
X206552Y433544D01*
Y432544D01*
X206362Y432532D01*
X206165Y432494D01*
X205963Y432432D01*
X205755Y432344D01*
X205542Y432232D01*
X205323Y432094D01*
X205098Y431932D01*
X204867Y431744D01*
X204388Y431294D01*
Y434794D01*
X204630Y434557D01*
D02*
G37*
G36*
X232073Y399044D02*
X231770Y399037D01*
X231479Y399010D01*
X231198Y398963D01*
X230928Y398895D01*
X230669Y398807D01*
X230421Y398699D01*
X230184Y398571D01*
X229957Y398422D01*
X229742Y398253D01*
X229537Y398064D01*
X228123Y399479D01*
X228312Y399683D01*
X228481Y399899D01*
X228629Y400125D01*
X228758Y400362D01*
X228866Y400610D01*
X228954Y400869D01*
X229021Y401139D01*
X229069Y401420D01*
X229096Y401712D01*
X229103Y402014D01*
X232073Y399044D01*
D02*
G37*
G36*
X197103Y397544D02*
X199517Y396544D01*
X199123Y396530D01*
X198741Y396488D01*
X198370Y396417D01*
X198011Y396318D01*
X197664Y396191D01*
X197328Y396035D01*
X197004Y395851D01*
X196692Y395639D01*
X196392Y395399D01*
X196103Y395130D01*
X196396Y398251D01*
X196896Y398751D01*
X197103Y397544D01*
D02*
G37*
G36*
X195991Y395018D02*
X195820Y394837D01*
X195668Y394652D01*
X195534Y394465D01*
X195417Y394275D01*
X195320Y394081D01*
X195240Y393885D01*
X195178Y393686D01*
X195135Y393483D01*
X195110Y393278D01*
X195103Y393069D01*
X192628Y395544D01*
X192836Y395551D01*
X193042Y395576D01*
X193244Y395620D01*
X193444Y395681D01*
X193640Y395761D01*
X193834Y395859D01*
X194024Y395975D01*
X194211Y396109D01*
X194395Y396262D01*
X194577Y396432D01*
X195991Y395018D01*
D02*
G37*
G36*
X205106Y392680D02*
X205154Y392067D01*
X205198Y391793D01*
X205256Y391541D01*
X205327Y391310D01*
X205412Y391101D01*
X205511Y390914D01*
X205623Y390749D01*
X205749Y390605D01*
X205042Y389898D01*
X204899Y390024D01*
X204733Y390136D01*
X204546Y390235D01*
X204337Y390320D01*
X204107Y390391D01*
X203854Y390449D01*
X203580Y390493D01*
X203285Y390524D01*
X202628Y390544D01*
X205103Y393019D01*
X205106Y392680D01*
D02*
G37*
G36*
X195110Y392811D02*
X195135Y392605D01*
X195178Y392403D01*
X195240Y392203D01*
X195320Y392007D01*
X195417Y391814D01*
X195534Y391623D01*
X195668Y391436D01*
X195820Y391252D01*
X195991Y391071D01*
X194577Y389656D01*
X194395Y389827D01*
X194211Y389979D01*
X194024Y390114D01*
X193834Y390230D01*
X193640Y390328D01*
X193444Y390407D01*
X193244Y390469D01*
X193042Y390512D01*
X192836Y390537D01*
X192628Y390544D01*
X195103Y393019D01*
X195110Y392811D01*
D02*
G37*
G36*
X230509Y385044D02*
X230499Y385139D01*
X230468Y385224D01*
X230418Y385299D01*
X230347Y385364D01*
X230256Y385419D01*
X230145Y385464D01*
X230013Y385499D01*
X229861Y385524D01*
X229689Y385539D01*
X229497Y385544D01*
Y386544D01*
X229689Y386549D01*
X229861Y386564D01*
X230013Y386589D01*
X230145Y386624D01*
X230256Y386669D01*
X230347Y386724D01*
X230418Y386789D01*
X230468Y386864D01*
X230499Y386949D01*
X230509Y387044D01*
Y385044D01*
D02*
G37*
G36*
X219591Y384825D02*
X219469Y384687D01*
X219361Y384529D01*
X219265Y384352D01*
X219183Y384156D01*
X219113Y383940D01*
X219057Y383704D01*
X219015Y383449D01*
X218985Y383175D01*
X218965Y382568D01*
X216627Y384906D01*
X216940Y384910D01*
X217508Y384956D01*
X217763Y384999D01*
X217999Y385055D01*
X218215Y385124D01*
X218411Y385206D01*
X218588Y385302D01*
X218746Y385411D01*
X218884Y385532D01*
X219591Y384825D01*
D02*
G37*
G36*
X214682Y381169D02*
X214504Y381404D01*
X214325Y381614D01*
X214143Y381800D01*
X213960Y381961D01*
X213776Y382097D01*
X213589Y382208D01*
X213401Y382295D01*
X213212Y382357D01*
X213020Y382394D01*
X212827Y382406D01*
X212986Y383406D01*
X213157Y383417D01*
X213338Y383448D01*
X213530Y383499D01*
X213734Y383571D01*
X213949Y383664D01*
X214175Y383777D01*
X214660Y384066D01*
X214919Y384241D01*
X215190Y384437D01*
X214682Y381169D01*
D02*
G37*
G36*
X205106Y382680D02*
X205154Y382067D01*
X205198Y381793D01*
X205256Y381540D01*
X205327Y381310D01*
X205412Y381101D01*
X205511Y380914D01*
X205623Y380749D01*
X205749Y380605D01*
X205042Y379898D01*
X204899Y380024D01*
X204733Y380136D01*
X204546Y380235D01*
X204337Y380320D01*
X204107Y380392D01*
X203854Y380449D01*
X203580Y380493D01*
X203285Y380524D01*
X202628Y380544D01*
X205103Y383019D01*
X205106Y382680D01*
D02*
G37*
G36*
X214682Y371169D02*
X214504Y371404D01*
X214325Y371614D01*
X214143Y371800D01*
X213960Y371961D01*
X213776Y372097D01*
X213589Y372208D01*
X213401Y372295D01*
X213212Y372357D01*
X213020Y372394D01*
X212827Y372406D01*
X212986Y373406D01*
X213157Y373417D01*
X213338Y373448D01*
X213530Y373499D01*
X213734Y373571D01*
X213949Y373664D01*
X214175Y373777D01*
X214660Y374066D01*
X214919Y374241D01*
X215190Y374437D01*
X214682Y371169D01*
D02*
G37*
G36*
X218968Y372207D02*
X219015Y371639D01*
X219057Y371384D01*
X219113Y371149D01*
X219183Y370933D01*
X219265Y370736D01*
X219361Y370559D01*
X219469Y370401D01*
X219591Y370263D01*
X218884Y369556D01*
X218746Y369678D01*
X218588Y369787D01*
X218411Y369882D01*
X218215Y369965D01*
X217999Y370034D01*
X217763Y370090D01*
X217508Y370132D01*
X217234Y370162D01*
X216627Y370182D01*
X218965Y372521D01*
X218968Y372207D01*
D02*
G37*
G36*
X227658Y369544D02*
X227638Y369734D01*
X227577Y369904D01*
X227476Y370054D01*
X227335Y370184D01*
X227154Y370294D01*
X226933Y370384D01*
X226671Y370454D01*
X226370Y370504D01*
X226028Y370534D01*
X225646Y370544D01*
Y372544D01*
X226027Y372552D01*
X226666Y372617D01*
X226926Y372673D01*
X227147Y372746D01*
X227326Y372835D01*
X227466Y372940D01*
X227566Y373061D01*
X227626Y373198D01*
X227646Y373351D01*
X227658Y369544D01*
D02*
G37*
G36*
X238647Y369438D02*
X238627Y369620D01*
X238566Y369782D01*
X238466Y369926D01*
X238327Y370050D01*
X238146Y370156D01*
X237927Y370242D01*
X237666Y370308D01*
X237366Y370356D01*
X237027Y370385D01*
X236647Y370395D01*
Y372395D01*
X237027Y372404D01*
X237366Y372433D01*
X237666Y372481D01*
X237927Y372548D01*
X238146Y372634D01*
X238327Y372739D01*
X238466Y372863D01*
X238566Y373007D01*
X238627Y373169D01*
X238647Y373351D01*
Y369438D01*
D02*
G37*
G36*
X231579Y373169D02*
X231639Y373007D01*
X231739Y372863D01*
X231879Y372739D01*
X232060Y372634D01*
X232279Y372548D01*
X232539Y372481D01*
X232839Y372433D01*
X233179Y372404D01*
X233559Y372395D01*
Y370395D01*
X233179Y370385D01*
X232839Y370356D01*
X232539Y370308D01*
X232279Y370242D01*
X232060Y370156D01*
X231879Y370050D01*
X231739Y369926D01*
X231639Y369782D01*
X231579Y369620D01*
X231559Y369438D01*
Y373351D01*
X231579Y373169D01*
D02*
G37*
G36*
X249242Y370042D02*
X250948Y369938D01*
X251005Y369905D01*
X250997Y369868D01*
X250925Y369827D01*
X250787Y367319D01*
X250712Y367457D01*
X250609Y367580D01*
X250476Y367689D01*
X250314Y367783D01*
X250123Y367863D01*
X249902Y367928D01*
X249653Y367979D01*
X249374Y368015D01*
X249067Y368037D01*
X248730Y368044D01*
Y370044D01*
X249242Y370042D01*
D02*
G37*
G36*
X230509Y361544D02*
X230499Y361639D01*
X230468Y361724D01*
X230418Y361799D01*
X230347Y361864D01*
X230256Y361919D01*
X230145Y361964D01*
X230013Y361999D01*
X229861Y362024D01*
X229689Y362039D01*
X229497Y362044D01*
Y363044D01*
X229689Y363049D01*
X229861Y363064D01*
X230013Y363089D01*
X230145Y363124D01*
X230256Y363169D01*
X230347Y363224D01*
X230418Y363289D01*
X230468Y363364D01*
X230499Y363449D01*
X230509Y363544D01*
Y361544D01*
D02*
G37*
G36*
X240719Y456449D02*
X240749Y456364D01*
X240799Y456289D01*
X240869Y456224D01*
X240959Y456169D01*
X241069Y456124D01*
X241199Y456089D01*
X241349Y456064D01*
X241519Y456049D01*
X241709Y456044D01*
Y455044D01*
X241519Y455039D01*
X241349Y455024D01*
X241199Y454999D01*
X241069Y454964D01*
X240959Y454919D01*
X240869Y454864D01*
X240799Y454799D01*
X240749Y454724D01*
X240719Y454639D01*
X240709Y454544D01*
Y456544D01*
X240719Y456449D01*
D02*
G37*
G36*
X250935Y453336D02*
X251303Y453024D01*
X251465Y452911D01*
X251614Y452827D01*
X251748Y452770D01*
X251869Y452742D01*
X251975D01*
X252066Y452770D01*
X252144Y452827D01*
X250730Y451412D01*
X250787Y451490D01*
X250815Y451582D01*
Y451688D01*
X250787Y451808D01*
X250730Y451943D01*
X250645Y452091D01*
X250532Y452254D01*
X250391Y452431D01*
X250023Y452827D01*
X250730Y453534D01*
X250935Y453336D01*
D02*
G37*
G36*
X280537Y447827D02*
X280238Y447518D01*
X279769Y446965D01*
X279598Y446721D01*
X279470Y446498D01*
X279384Y446296D01*
X279340Y446116D01*
X279339Y445958D01*
X279380Y445821D01*
X279464Y445705D01*
X277355Y447815D01*
X277470Y447731D01*
X277607Y447690D01*
X277766Y447691D01*
X277946Y447734D01*
X278147Y447821D01*
X278370Y447949D01*
X278614Y448120D01*
X278880Y448333D01*
X279476Y448887D01*
X280537Y447827D01*
D02*
G37*
G36*
X290469Y450526D02*
X290652Y450373D01*
X290839Y450237D01*
X291030Y450119D01*
X291225Y450020D01*
X291424Y449939D01*
X291627Y449875D01*
X291834Y449830D01*
X292045Y449803D01*
X292260Y449794D01*
Y448294D01*
X292045Y448285D01*
X291834Y448258D01*
X291627Y448213D01*
X291424Y448150D01*
X291225Y448068D01*
X291030Y447969D01*
X290839Y447852D01*
X290652Y447716D01*
X290469Y447562D01*
X290290Y447391D01*
Y450698D01*
X290469Y450526D01*
D02*
G37*
G36*
X286916Y447391D02*
X286737Y447562D01*
X286554Y447716D01*
X286367Y447852D01*
X286176Y447969D01*
X285981Y448068D01*
X285782Y448150D01*
X285578Y448213D01*
X285372Y448258D01*
X285161Y448285D01*
X284946Y448294D01*
Y449794D01*
X285161Y449803D01*
X285372Y449830D01*
X285578Y449875D01*
X285782Y449939D01*
X285981Y450020D01*
X286176Y450119D01*
X286367Y450237D01*
X286554Y450373D01*
X286737Y450526D01*
X286916Y450698D01*
Y447391D01*
D02*
G37*
G36*
X303964Y448362D02*
X304010Y448235D01*
X304085Y448122D01*
X304191Y448025D01*
X304327Y447942D01*
X304493Y447875D01*
X304690Y447822D01*
X304917Y447785D01*
X305174Y447762D01*
X305461Y447755D01*
Y446255D01*
X305174Y446247D01*
X304917Y446225D01*
X304690Y446187D01*
X304493Y446135D01*
X304327Y446067D01*
X304191Y445985D01*
X304085Y445887D01*
X304010Y445775D01*
X303964Y445647D01*
X303949Y445505D01*
Y448505D01*
X303964Y448362D01*
D02*
G37*
G36*
Y443441D02*
X304010Y443314D01*
X304085Y443201D01*
X304191Y443104D01*
X304327Y443021D01*
X304493Y442954D01*
X304690Y442901D01*
X304917Y442864D01*
X305174Y442841D01*
X305461Y442834D01*
Y441334D01*
X305174Y441326D01*
X304917Y441304D01*
X304690Y441266D01*
X304493Y441214D01*
X304327Y441146D01*
X304191Y441064D01*
X304085Y440966D01*
X304010Y440854D01*
X303964Y440726D01*
X303949Y440584D01*
Y443584D01*
X303964Y443441D01*
D02*
G37*
G36*
X302366Y440521D02*
X302250Y440606D01*
X302112Y440648D01*
X301953D01*
X301772Y440606D01*
X301571Y440521D01*
X301348Y440393D01*
X301104Y440224D01*
X300839Y440012D01*
X300245Y439460D01*
X299184Y440521D01*
X299481Y440828D01*
X299948Y441380D01*
X300118Y441624D01*
X300245Y441847D01*
X300330Y442048D01*
X300372Y442228D01*
Y442387D01*
X300330Y442525D01*
X300245Y442642D01*
X302366Y440521D01*
D02*
G37*
G36*
X279380Y442268D02*
X279339Y442131D01*
X279340Y441972D01*
X279384Y441792D01*
X279470Y441591D01*
X279598Y441368D01*
X279769Y441123D01*
X279983Y440858D01*
X280537Y440262D01*
X279476Y439201D01*
X279167Y439499D01*
X278614Y439968D01*
X278370Y440139D01*
X278147Y440268D01*
X277946Y440354D01*
X277766Y440398D01*
X277607Y440399D01*
X277470Y440357D01*
X277355Y440274D01*
X279464Y442383D01*
X279380Y442268D01*
D02*
G37*
G36*
X290469Y440526D02*
X290652Y440373D01*
X290839Y440237D01*
X291030Y440120D01*
X291225Y440020D01*
X291424Y439939D01*
X291627Y439876D01*
X291834Y439830D01*
X292045Y439803D01*
X292260Y439794D01*
Y438294D01*
X292045Y438285D01*
X291834Y438258D01*
X291627Y438213D01*
X291424Y438150D01*
X291225Y438068D01*
X291030Y437969D01*
X290839Y437851D01*
X290652Y437716D01*
X290469Y437562D01*
X290290Y437391D01*
Y440698D01*
X290469Y440526D01*
D02*
G37*
G36*
X286916Y437391D02*
X286737Y437562D01*
X286554Y437716D01*
X286367Y437851D01*
X286176Y437969D01*
X285981Y438068D01*
X285782Y438150D01*
X285578Y438213D01*
X285372Y438258D01*
X285161Y438285D01*
X284946Y438294D01*
Y439794D01*
X285161Y439803D01*
X285372Y439830D01*
X285578Y439876D01*
X285782Y439939D01*
X285981Y440020D01*
X286176Y440120D01*
X286367Y440237D01*
X286554Y440373D01*
X286737Y440526D01*
X286916Y440698D01*
Y437391D01*
D02*
G37*
G36*
X323585Y440590D02*
X323803Y440436D01*
X324070Y440277D01*
X324384Y440113D01*
X325158Y439770D01*
X326125Y439405D01*
X327285Y439020D01*
X322372Y436522D01*
X322511Y436979D01*
X322613Y437410D01*
X322677Y437817D01*
X322704Y438198D01*
X322693Y438555D01*
X322644Y438886D01*
X322557Y439192D01*
X322433Y439473D01*
X322272Y439728D01*
X322073Y439959D01*
X323415Y440738D01*
X323585Y440590D01*
D02*
G37*
G36*
X268474Y431150D02*
X268078Y430740D01*
X267455Y430005D01*
X267229Y429679D01*
X267059Y429383D01*
X266946Y429114D01*
X266890Y428873D01*
Y428661D01*
X266946Y428477D01*
X267059Y428322D01*
X264231Y431150D01*
X264387Y431037D01*
X264570Y430981D01*
X264783D01*
X265023Y431037D01*
X265292Y431150D01*
X265589Y431320D01*
X265914Y431546D01*
X266267Y431829D01*
X267059Y432564D01*
X268474Y431150D01*
D02*
G37*
G36*
X263146Y427237D02*
X263126Y427419D01*
X263066Y427582D01*
X262966Y427725D01*
X262826Y427849D01*
X262647Y427955D01*
X262426Y428041D01*
X262166Y428108D01*
X261866Y428156D01*
X261526Y428184D01*
X261146Y428194D01*
Y430194D01*
X261526Y430203D01*
X261866Y430232D01*
X262166Y430280D01*
X262426Y430347D01*
X262647Y430433D01*
X262826Y430538D01*
X262966Y430662D01*
X263066Y430806D01*
X263126Y430969D01*
X263146Y431150D01*
Y427237D01*
D02*
G37*
G36*
X245746Y425156D02*
X245552Y424946D01*
X245386Y424727D01*
X245247Y424501D01*
X245135Y424267D01*
X245050Y424025D01*
X244992Y423776D01*
X244961Y423518D01*
X244957Y423253D01*
X244981Y422979D01*
X245031Y422698D01*
X241507Y424985D01*
X241812Y425054D01*
X242385Y425230D01*
X242653Y425338D01*
X242909Y425458D01*
X243153Y425591D01*
X243386Y425736D01*
X243606Y425894D01*
X243814Y426065D01*
X244010Y426249D01*
X245746Y425156D01*
D02*
G37*
G36*
X243994Y419683D02*
X243807Y419457D01*
X243642Y419225D01*
X243499Y418987D01*
X243378Y418741D01*
X243279Y418489D01*
X243202Y418231D01*
X243147Y417966D01*
X243114Y417694D01*
X243103Y417416D01*
X241103D01*
X241092Y417694D01*
X241059Y417966D01*
X241004Y418231D01*
X240927Y418489D01*
X240828Y418741D01*
X240707Y418987D01*
X240564Y419225D01*
X240399Y419457D01*
X240212Y419683D01*
X240003Y419902D01*
X244203D01*
X243994Y419683D01*
D02*
G37*
G36*
X243114Y416394D02*
X243147Y416123D01*
X243202Y415858D01*
X243279Y415599D01*
X243378Y415347D01*
X243499Y415102D01*
X243642Y414863D01*
X243807Y414631D01*
X243994Y414406D01*
X244203Y414187D01*
X240003D01*
X240212Y414406D01*
X240399Y414631D01*
X240564Y414863D01*
X240707Y415102D01*
X240828Y415347D01*
X240927Y415599D01*
X241004Y415858D01*
X241059Y416123D01*
X241092Y416394D01*
X241103Y416673D01*
X243103D01*
X243114Y416394D01*
D02*
G37*
G36*
X243994Y409683D02*
X243807Y409457D01*
X243642Y409225D01*
X243499Y408987D01*
X243378Y408741D01*
X243279Y408489D01*
X243202Y408231D01*
X243147Y407966D01*
X243114Y407694D01*
X243103Y407416D01*
X241103D01*
X241092Y407694D01*
X241059Y407966D01*
X241004Y408231D01*
X240927Y408489D01*
X240828Y408741D01*
X240707Y408987D01*
X240564Y409225D01*
X240399Y409457D01*
X240212Y409683D01*
X240003Y409902D01*
X244203D01*
X243994Y409683D01*
D02*
G37*
G36*
X243114Y406394D02*
X243147Y406123D01*
X243202Y405858D01*
X243279Y405599D01*
X243378Y405347D01*
X243499Y405102D01*
X243642Y404863D01*
X243807Y404631D01*
X243994Y404406D01*
X244203Y404187D01*
X240003D01*
X240212Y404406D01*
X240399Y404631D01*
X240564Y404863D01*
X240707Y405102D01*
X240828Y405347D01*
X240927Y405599D01*
X241004Y405858D01*
X241059Y406123D01*
X241092Y406394D01*
X241103Y406673D01*
X243103D01*
X243114Y406394D01*
D02*
G37*
G36*
X243994Y399683D02*
X243807Y399457D01*
X243642Y399225D01*
X243499Y398987D01*
X243378Y398741D01*
X243279Y398489D01*
X243202Y398231D01*
X243147Y397966D01*
X243114Y397694D01*
X243103Y397416D01*
X241103D01*
X241092Y397694D01*
X241059Y397966D01*
X241004Y398231D01*
X240927Y398489D01*
X240828Y398741D01*
X240707Y398987D01*
X240564Y399225D01*
X240399Y399457D01*
X240212Y399683D01*
X240003Y399902D01*
X244203D01*
X243994Y399683D01*
D02*
G37*
G36*
X240719Y386949D02*
X240749Y386864D01*
X240799Y386789D01*
X240869Y386724D01*
X240959Y386669D01*
X241069Y386624D01*
X241199Y386589D01*
X241349Y386564D01*
X241519Y386549D01*
X241709Y386544D01*
Y385544D01*
X241519Y385539D01*
X241349Y385524D01*
X241199Y385499D01*
X241069Y385464D01*
X240959Y385419D01*
X240869Y385364D01*
X240799Y385299D01*
X240749Y385224D01*
X240719Y385139D01*
X240709Y385044D01*
Y387044D01*
X240719Y386949D01*
D02*
G37*
G36*
X263146Y383938D02*
X267059D01*
X266878Y383918D01*
X266715Y383858D01*
X266572Y383758D01*
X266447Y383618D01*
X266342Y383438D01*
X266256Y383218D01*
X266189Y382958D01*
X266141Y382658D01*
X266112Y382318D01*
X266103Y381938D01*
X264103D01*
X264093Y382318D01*
X264065Y382658D01*
X264017Y382958D01*
X263950Y383218D01*
X263864Y383438D01*
X263759Y383618D01*
X263634Y383758D01*
X263491Y383858D01*
X263328Y383918D01*
X263146Y383938D01*
X263126Y384120D01*
X263066Y384282D01*
X262966Y384426D01*
X262826Y384550D01*
X262647Y384655D01*
X262426Y384742D01*
X262166Y384808D01*
X261866Y384856D01*
X261526Y384885D01*
X261146Y384895D01*
Y386895D01*
X261526Y386904D01*
X261866Y386933D01*
X262166Y386981D01*
X262426Y387048D01*
X262647Y387134D01*
X262826Y387239D01*
X262966Y387363D01*
X263066Y387507D01*
X263126Y387669D01*
X263146Y387851D01*
Y383938D01*
D02*
G37*
G36*
X250935Y380336D02*
X251303Y380025D01*
X251465Y379911D01*
X251614Y379827D01*
X251748Y379770D01*
X251869Y379742D01*
X251975D01*
X252066Y379770D01*
X252144Y379827D01*
X250730Y378412D01*
X250787Y378490D01*
X250815Y378582D01*
Y378688D01*
X250787Y378808D01*
X250730Y378943D01*
X250645Y379091D01*
X250532Y379254D01*
X250391Y379431D01*
X250023Y379827D01*
X250730Y380534D01*
X250935Y380336D01*
D02*
G37*
G36*
X279470Y369679D02*
X279544Y369598D01*
X279642Y369527D01*
X279762Y369465D01*
X279907Y369413D01*
X280074Y369370D01*
X280264Y369337D01*
X280478Y369313D01*
X280976Y369294D01*
Y367794D01*
X280715Y367790D01*
X280264Y367751D01*
X280074Y367718D01*
X279907Y367675D01*
X279762Y367623D01*
X279642Y367561D01*
X279544Y367490D01*
X279470Y367409D01*
X279419Y367319D01*
Y369770D01*
X279470Y369679D01*
D02*
G37*
G36*
X303965Y369032D02*
X304011Y368904D01*
X304086Y368792D01*
X304193Y368694D01*
X304329Y368612D01*
X304495Y368544D01*
X304691Y368492D01*
X304918Y368454D01*
X305174Y368432D01*
X305461Y368424D01*
Y366924D01*
X305176Y366920D01*
X304696Y366888D01*
X304501Y366860D01*
X304336Y366823D01*
X304201Y366779D01*
X304096Y366726D01*
X304021Y366666D01*
X303976Y366597D01*
X303961Y366521D01*
X303949Y369174D01*
X303965Y369032D01*
D02*
G37*
G36*
X286192Y368658D02*
X286363Y368530D01*
X286541Y368425D01*
X286724Y368342D01*
X286915Y368282D01*
X287112Y368244D01*
X287315Y368229D01*
X287525Y368236D01*
X287741Y368266D01*
X287963Y368318D01*
X286317Y365450D01*
X286246Y365700D01*
X286083Y366167D01*
X285990Y366383D01*
X285781Y366781D01*
X285665Y366964D01*
X285542Y367134D01*
X285411Y367294D01*
X285272Y367442D01*
X286027Y368808D01*
X286192Y368658D01*
D02*
G37*
G36*
X323020Y364816D02*
X322687Y365217D01*
X322029Y365891D01*
X321704Y366165D01*
X321382Y366397D01*
X321064Y366587D01*
X320748Y366734D01*
X320435Y366840D01*
X320125Y366903D01*
X319818Y366924D01*
X319978Y368424D01*
X320257Y368443D01*
X320555Y368499D01*
X320871Y368593D01*
X321205Y368724D01*
X321557Y368893D01*
X321928Y369099D01*
X322724Y369623D01*
X323149Y369942D01*
X323593Y370298D01*
X323020Y364816D01*
D02*
G37*
G36*
X290469Y367526D02*
X290652Y367372D01*
X290839Y367237D01*
X291030Y367120D01*
X291225Y367020D01*
X291424Y366939D01*
X291627Y366876D01*
X291834Y366830D01*
X292045Y366803D01*
X292260Y366794D01*
Y365294D01*
X292045Y365285D01*
X291834Y365258D01*
X291627Y365213D01*
X291424Y365150D01*
X291225Y365068D01*
X291030Y364969D01*
X290839Y364851D01*
X290652Y364716D01*
X290469Y364562D01*
X290290Y364391D01*
Y367698D01*
X290469Y367526D01*
D02*
G37*
G36*
X273105Y365849D02*
X273835Y365231D01*
X274159Y365005D01*
X274456Y364834D01*
X274725Y364720D01*
X274967Y364660D01*
X275181Y364656D01*
X275368Y364708D01*
X275528Y364815D01*
X272974Y362457D01*
X272960Y362600D01*
X272918Y362758D01*
X272847Y362931D01*
X272748Y363119D01*
X272621Y363321D01*
X272465Y363538D01*
X272069Y364015D01*
X271829Y364276D01*
X271560Y364551D01*
X272699Y366241D01*
X273105Y365849D01*
D02*
G37*
G36*
X252144Y435274D02*
X252068Y435329D01*
X251976Y435356D01*
X251871Y435355D01*
X251751Y435326D01*
X251617Y435268D01*
X251468Y435182D01*
X251305Y435068D01*
X251128Y434925D01*
X250730Y434555D01*
X250023Y435262D01*
X250222Y435468D01*
X250536Y435837D01*
X250650Y436000D01*
X250736Y436149D01*
X250794Y436283D01*
X250823Y436403D01*
X250824Y436508D01*
X250797Y436599D01*
X250742Y436676D01*
X252144Y435274D01*
D02*
G37*
G36*
X240719Y433449D02*
X240749Y433364D01*
X240799Y433289D01*
X240869Y433224D01*
X240959Y433169D01*
X241069Y433124D01*
X241199Y433089D01*
X241349Y433064D01*
X241519Y433049D01*
X241709Y433044D01*
Y432044D01*
X241519Y432039D01*
X241349Y432024D01*
X241199Y431999D01*
X241069Y431964D01*
X240959Y431919D01*
X240869Y431864D01*
X240799Y431799D01*
X240749Y431724D01*
X240719Y431639D01*
X240709Y431544D01*
Y433544D01*
X240719Y433449D01*
D02*
G37*
G36*
X326064Y377107D02*
X325520Y377102D01*
X324539Y377029D01*
X324102Y376961D01*
X323701Y376872D01*
X323335Y376762D01*
X323006Y376631D01*
X322711Y376479D01*
X322453Y376305D01*
X322230Y376111D01*
X321169Y377171D01*
X321364Y377394D01*
X321537Y377653D01*
X321690Y377947D01*
X321821Y378277D01*
X321931Y378642D01*
X322020Y379043D01*
X322088Y379480D01*
X322135Y379953D01*
X322166Y381005D01*
X326064Y377107D01*
D02*
G37*
G36*
X290469Y377526D02*
X290652Y377373D01*
X290839Y377237D01*
X291030Y377119D01*
X291225Y377020D01*
X291424Y376939D01*
X291627Y376875D01*
X291834Y376830D01*
X292045Y376803D01*
X292260Y376794D01*
Y375294D01*
X292045Y375285D01*
X291834Y375258D01*
X291627Y375213D01*
X291424Y375150D01*
X291225Y375068D01*
X291030Y374969D01*
X290839Y374851D01*
X290652Y374716D01*
X290469Y374562D01*
X290290Y374391D01*
Y377698D01*
X290469Y377526D01*
D02*
G37*
G36*
X287963Y373770D02*
X287741Y373822D01*
X287525Y373852D01*
X287315Y373860D01*
X287112Y373844D01*
X286915Y373807D01*
X286724Y373746D01*
X286541Y373663D01*
X286363Y373558D01*
X286192Y373430D01*
X286027Y373280D01*
X285272Y374646D01*
X285411Y374795D01*
X285542Y374954D01*
X285665Y375125D01*
X285781Y375307D01*
X285889Y375500D01*
X285990Y375705D01*
X286169Y376149D01*
X286246Y376388D01*
X286317Y376638D01*
X287963Y373770D01*
D02*
G37*
G36*
X300553Y375330D02*
X301107Y374861D01*
X301351Y374690D01*
X301574Y374562D01*
X301775Y374476D01*
X301955Y374432D01*
X302114Y374431D01*
X302251Y374472D01*
X302366Y374556D01*
X300257Y372446D01*
X300341Y372562D01*
X300382Y372699D01*
X300380Y372857D01*
X300337Y373037D01*
X300251Y373239D01*
X300122Y373462D01*
X299952Y373706D01*
X299738Y373972D01*
X299184Y374568D01*
X300245Y375628D01*
X300553Y375330D01*
D02*
G37*
G36*
X279470Y374679D02*
X279544Y374598D01*
X279642Y374527D01*
X279762Y374465D01*
X279907Y374413D01*
X280074Y374370D01*
X280264Y374337D01*
X280478Y374313D01*
X280976Y374294D01*
Y372794D01*
X280715Y372790D01*
X280264Y372751D01*
X280074Y372718D01*
X279907Y372675D01*
X279762Y372623D01*
X279642Y372561D01*
X279544Y372490D01*
X279470Y372409D01*
X279419Y372319D01*
Y374769D01*
X279470Y374679D01*
D02*
G37*
G36*
X303964Y374362D02*
X304010Y374235D01*
X304085Y374122D01*
X304191Y374025D01*
X304327Y373942D01*
X304493Y373875D01*
X304690Y373822D01*
X304917Y373785D01*
X305174Y373762D01*
X305461Y373755D01*
Y372255D01*
X305174Y372247D01*
X304917Y372225D01*
X304690Y372187D01*
X304493Y372135D01*
X304327Y372067D01*
X304191Y371985D01*
X304085Y371887D01*
X304010Y371775D01*
X303964Y371647D01*
X303949Y371505D01*
Y374505D01*
X303964Y374362D01*
D02*
G37*
G36*
X250925Y362262D02*
X251007Y362221D01*
X251045Y362183D01*
X251038Y362151D01*
X250986Y362123D01*
X250889Y362099D01*
X250747Y362079D01*
X250560Y362064D01*
X249730Y362044D01*
Y363044D01*
X249935Y363049D01*
X250117Y363064D01*
X250276Y363089D01*
X250412Y363124D01*
X250525Y363169D01*
X250614Y363224D01*
X250681Y363289D01*
X250724Y363364D01*
X250745Y363449D01*
X250742Y363544D01*
X250925Y362262D01*
D02*
G37*
G36*
X240719Y363449D02*
X240749Y363364D01*
X240799Y363289D01*
X240869Y363224D01*
X240959Y363169D01*
X241069Y363124D01*
X241199Y363089D01*
X241349Y363064D01*
X241519Y363049D01*
X241709Y363044D01*
Y362044D01*
X241519Y362039D01*
X241349Y362024D01*
X241199Y361999D01*
X241069Y361964D01*
X240959Y361919D01*
X240869Y361864D01*
X240799Y361799D01*
X240749Y361724D01*
X240719Y361639D01*
X240709Y361544D01*
Y363544D01*
X240719Y363449D01*
D02*
G37*
D10*
X238949Y362544D02*
X251012D01*
X252012Y363544D01*
X253981D01*
X216603Y372544D02*
X226603Y362544D01*
X216241Y372906D02*
X216603Y372544D01*
X226603Y362544D02*
X232257D01*
X202603Y383044D02*
X212741Y372906D01*
X216241D01*
X216603Y382544D02*
X220103Y386044D01*
X232257D01*
X238949D02*
X244512D01*
X252012Y378544D01*
X253981D01*
X202603Y393044D02*
X212741Y382906D01*
X216241D01*
X216603Y382544D01*
X238949Y432544D02*
X248012D01*
X252012Y436544D01*
X253981D01*
X217103Y438044D02*
X217721Y437426D01*
X227572D01*
X232257Y432741D01*
Y432544D02*
Y432741D01*
X202603Y433044D02*
X212103D01*
X217103Y438044D01*
X212103Y443044D02*
X217103Y448044D01*
X221532D01*
X202603Y443044D02*
X212103D01*
X238949Y455544D02*
X248012D01*
X252012Y451544D01*
X253981D01*
X221532Y448044D02*
X227564Y454076D01*
X230985D01*
X232257Y455347D01*
Y455544D01*
D15*
X265103Y392194D02*
D03*
Y385895D02*
D03*
X229603Y371395D02*
D03*
Y377694D02*
D03*
X240603Y371395D02*
D03*
Y377694D02*
D03*
X265103Y422895D02*
D03*
Y429194D02*
D03*
X240603Y440895D02*
D03*
Y447194D02*
D03*
X229603Y440895D02*
D03*
Y447194D02*
D03*
D16*
X238949Y386044D02*
D03*
X232257D02*
D03*
X238949Y362544D02*
D03*
X232257D02*
D03*
X238949Y455544D02*
D03*
X232257D02*
D03*
X238949Y432544D02*
D03*
X232257D02*
D03*
D17*
X302103Y368084D02*
D03*
Y373005D02*
D03*
Y442084D02*
D03*
Y447005D02*
D03*
D18*
X253981Y378544D02*
D03*
Y373544D02*
D03*
Y368544D02*
D03*
Y363544D02*
D03*
X276225Y378544D02*
D03*
Y373544D02*
D03*
Y368544D02*
D03*
Y363544D02*
D03*
X253981Y451544D02*
D03*
Y446544D02*
D03*
Y441544D02*
D03*
Y436544D02*
D03*
X276225Y451544D02*
D03*
Y446544D02*
D03*
Y441544D02*
D03*
Y436544D02*
D03*
D28*
X322339Y447005D02*
X324378Y449044D01*
X326103D01*
X301808Y447005D02*
X322339D01*
X288603Y439044D02*
X298768D01*
X280615D02*
X288603D01*
X278193Y441544D02*
X280615Y439123D01*
X276225Y441544D02*
X278193D01*
X280615Y439044D02*
Y439123D01*
X302103Y368084D02*
X302512Y367674D01*
X325693D01*
X326103Y367265D01*
X288603Y366044D02*
X299768D01*
X301808Y368084D01*
X302103D01*
X276225Y368544D02*
X285230D01*
X287730Y366044D01*
X288603D01*
X302103Y373005D02*
X318064D01*
X326103Y381044D01*
X288603Y376044D02*
X298768D01*
X301808Y373005D01*
X302103D01*
X276225Y373544D02*
X285230D01*
X287730Y376044D01*
X288603D01*
X326103Y435265D02*
Y436989D01*
X322603Y440489D02*
X326103Y436989D01*
X322603Y440489D02*
Y440544D01*
X302103Y442084D02*
X321064D01*
X322603Y440544D01*
X298768Y439044D02*
X301808Y442084D01*
X302103D01*
X299768Y449044D02*
X301808Y447005D01*
X288603Y449044D02*
X299768D01*
X280694D02*
X288603D01*
X276225Y446544D02*
X278193D01*
X280694Y449044D01*
D29*
X242103Y422928D02*
X248369Y429194D01*
X265103D01*
X242103Y412044D02*
Y422928D01*
Y391989D02*
Y402044D01*
Y391989D02*
X248198Y385895D01*
X265103D01*
X242103Y402044D02*
Y412044D01*
X265103Y429194D02*
X272174Y436265D01*
X275945D01*
X276225Y436544D01*
X265103Y372423D02*
Y385895D01*
Y372423D02*
X273702Y363824D01*
X275945D01*
X276225Y363544D01*
X197103Y388544D02*
X203467D01*
X197103Y397544D02*
X197603Y398044D01*
X192603Y393044D02*
X197103Y397544D01*
X227603D01*
X232103Y402044D01*
X192603Y393044D02*
X197103Y388544D01*
X221209Y442406D02*
X221571Y442044D01*
X228634Y441863D02*
X229603Y440895D01*
X227644Y441863D02*
X228634D01*
X227463Y442044D02*
X227644Y441863D01*
X221571Y442044D02*
X227463D01*
X197603Y434408D02*
X201739Y438544D01*
X197603Y398044D02*
Y434408D01*
X215001Y442406D02*
X221209D01*
X211139Y438544D02*
X215001Y442406D01*
X201739Y438544D02*
X211139D01*
X239953Y441544D02*
X240603Y440895D01*
X230253Y441544D02*
X239953D01*
X240603Y440895D02*
X241253Y441544D01*
X253981D01*
X219538Y377044D02*
X225038Y371544D01*
X229453D02*
X229603Y371395D01*
X225038Y371544D02*
X229453D01*
X229603Y371395D02*
X240103D01*
X214967Y377044D02*
X219538D01*
X240603Y371395D02*
X242953Y369044D01*
X251512D01*
X252012Y368544D01*
X253981D01*
X203467Y388544D02*
X214967Y377044D01*
D30*
X216603Y372544D02*
D03*
Y382544D02*
D03*
X288603Y376044D02*
D03*
Y366044D02*
D03*
Y439044D02*
D03*
Y449044D02*
D03*
X217103Y438044D02*
D03*
Y448044D02*
D03*
D31*
X326103Y367265D02*
D03*
Y381044D02*
D03*
Y435265D02*
D03*
Y449044D02*
D03*
D32*
X232103Y402044D02*
D03*
Y412044D02*
D03*
Y422044D02*
D03*
X242103D02*
D03*
Y412044D02*
D03*
Y402044D02*
D03*
D33*
X202603Y363044D02*
D03*
D34*
Y373044D02*
D03*
Y383044D02*
D03*
Y393044D02*
D03*
X202603Y403044D02*
D03*
X202603Y413044D02*
D03*
Y423044D02*
D03*
Y433044D02*
D03*
Y443044D02*
D03*
Y453044D02*
D03*
X192603Y363044D02*
D03*
X192603Y373044D02*
D03*
X192603Y383044D02*
D03*
Y393044D02*
D03*
X192603Y403044D02*
D03*
X192603Y413044D02*
D03*
Y423044D02*
D03*
Y433044D02*
D03*
X192603Y443044D02*
D03*
Y453044D02*
D03*
M02*
