G04*
G04 #@! TF.GenerationSoftware,Altium Limited,Altium Designer,20.0.12 (288)*
G04*
G04 Layer_Color=16711935*
%FSLAX25Y25*%
%MOIN*%
G70*
G01*
G75*
%ADD23C,0.05524*%
%ADD24C,0.08674*%
%ADD25C,0.06800*%
%ADD26R,0.05800X0.05800*%
%ADD27C,0.05800*%
D23*
X216603Y372544D02*
D03*
Y382544D02*
D03*
X288603Y376044D02*
D03*
Y366044D02*
D03*
Y439044D02*
D03*
Y449044D02*
D03*
X217103Y438044D02*
D03*
Y448044D02*
D03*
D24*
X326103Y367265D02*
D03*
Y381044D02*
D03*
Y435265D02*
D03*
Y449044D02*
D03*
D25*
X232103Y402044D02*
D03*
Y412044D02*
D03*
Y422044D02*
D03*
X242103D02*
D03*
Y412044D02*
D03*
Y402044D02*
D03*
D26*
X202603Y363044D02*
D03*
D27*
Y373044D02*
D03*
Y383044D02*
D03*
Y393044D02*
D03*
X202603Y403044D02*
D03*
X202603Y413044D02*
D03*
Y423044D02*
D03*
Y433044D02*
D03*
Y443044D02*
D03*
Y453044D02*
D03*
X192603Y363044D02*
D03*
X192603Y373044D02*
D03*
X192603Y383044D02*
D03*
Y393044D02*
D03*
X192603Y403044D02*
D03*
X192603Y413044D02*
D03*
Y423044D02*
D03*
Y433044D02*
D03*
X192603Y443044D02*
D03*
Y453044D02*
D03*
M02*
